<svg xmlns="http://www.w3.org/2000/svg" xmlns:xlink="http://www.w3.org/1999/xlink" width="1080" zoomAndPan="magnify" viewBox="0 0 810 809.999993" height="1080" preserveAspectRatio="xMidYMid meet" version="1.0"><path fill="#ffffff" d="M 320.074219 565.621094 C 319.828125 563.144531 319.726562 560.660156 319.765625 558.171875 C 319.808594 555.683594 319.992188 553.203125 320.324219 550.738281 C 320.652344 548.269531 321.121094 545.828125 321.734375 543.417969 C 322.34375 541.003906 323.09375 538.632812 323.980469 536.308594 C 324.867188 533.980469 325.882812 531.714844 327.03125 529.503906 C 328.179688 527.296875 329.453125 525.164062 330.847656 523.101562 C 332.246094 521.039062 333.753906 519.066406 335.378906 517.179688 C 337.003906 515.296875 338.730469 513.507812 340.5625 511.824219 C 342.378906 510.128906 344.28125 508.53125 346.269531 507.039062 C 348.257812 505.546875 350.316406 504.167969 352.453125 502.894531 C 354.589844 501.625 356.785156 500.46875 359.042969 499.433594 C 361.304688 498.394531 363.609375 497.484375 365.96875 496.695312 C 368.324219 495.902344 370.714844 495.242188 373.144531 494.707031 C 375.570312 494.175781 378.019531 493.773438 380.488281 493.5 C 382.960938 493.230469 385.4375 493.089844 387.921875 493.085938 C 390.410156 493.078125 392.886719 493.207031 395.359375 493.464844 C 390.527344 493.90625 385.742188 494.636719 381 495.652344 C 346.367188 503.0625 322.597656 530.285156 320.074219 565.621094 Z M 320.074219 565.621094 " fill-opacity="1" fill-rule="nonzero"/><path fill="#ffffff" d="M 395.359375 509.105469 C 377.925781 509.105469 363.628906 514.425781 352.464844 525.066406 C 341.292969 535.710938 335.707031 549.226562 335.710938 565.621094 C 335.710938 581.769531 341.171875 595.101562 352.097656 605.621094 C 363.015625 616.140625 377.4375 621.402344 395.359375 621.398438 C 413.273438 621.398438 427.691406 616.140625 438.621094 605.621094 C 449.539062 595.105469 455 581.769531 455.003906 565.621094 C 455.003906 549.230469 449.417969 535.714844 438.253906 525.066406 C 427.082031 514.425781 412.78125 509.105469 395.359375 509.105469 Z M 395.359375 509.105469 " fill-opacity="1" fill-rule="nonzero"/><path fill="#f0624b" d="M 395.359375 608.082031 C 380.882812 608.082031 369.753906 604.140625 361.339844 596.027344 C 353.054688 588.054688 349.03125 578.109375 349.03125 565.621094 C 349.03125 552.910156 353.160156 542.800781 361.652344 534.710938 C 370.328125 526.441406 381.351562 522.421875 395.359375 522.421875 C 409.359375 522.421875 420.386719 526.441406 429.066406 534.710938 C 437.554688 542.804688 441.683594 552.914062 441.683594 565.621094 C 441.683594 578.105469 437.660156 588.050781 429.378906 596.027344 C 420.957031 604.136719 409.828125 608.082031 395.359375 608.082031 Z M 395.359375 608.082031 " fill-opacity="1" fill-rule="nonzero"/><path fill="#ffffff" d="M 534.167969 112.992188 C 567.359375 140.070312 582.472656 179.628906 584.410156 221.632812 C 587.929688 283.136719 558.324219 324.480469 515.257812 364.644531 C 505.199219 373.804688 495.148438 382.976562 484.964844 392 C 501.488281 374.9375 519.042969 358.800781 534.566406 340.796875 C 559.699219 312.035156 577.40625 280.707031 580.066406 241.960938 C 580.761719 231.449219 580.609375 220.949219 579.601562 210.460938 C 578.59375 199.976562 576.746094 189.640625 574.0625 179.453125 C 572.367188 173.121094 570.238281 166.9375 567.679688 160.90625 C 565.117188 154.871094 562.152344 149.042969 558.777344 143.421875 C 555.40625 137.804688 551.65625 132.445312 547.535156 127.347656 C 543.414062 122.25 538.957031 117.464844 534.167969 112.992188 Z M 534.167969 112.992188 " fill-opacity="1" fill-rule="nonzero"/><path fill="#ffffff" d="M 270.273438 115.089844 C 304.199219 80.453125 355.472656 68.03125 402.722656 71.332031 C 355.410156 74.371094 308.242188 85.3125 270.273438 115.089844 Z M 270.273438 115.089844 " fill-opacity="1" fill-rule="nonzero"/><path fill="#ffffff" d="M 359.421875 222.285156 C 357.144531 239.511719 341.796875 252.957031 324.679688 254.546875 C 322.273438 254.746094 319.859375 254.820312 317.445312 254.777344 C 298.65625 254.730469 279.890625 254.339844 261.15625 252.605469 C 281.050781 250.773438 300.992188 250.417969 320.945312 250.441406 C 322.054688 250.433594 323.164062 250.378906 324.269531 250.28125 C 326.246094 250.097656 328.199219 249.773438 330.128906 249.308594 C 332.058594 248.839844 333.945312 248.234375 335.785156 247.492188 C 337.628906 246.753906 339.40625 245.882812 341.121094 244.882812 C 342.835938 243.882812 344.472656 242.765625 346.023438 241.527344 C 347.578125 240.292969 349.03125 238.949219 350.390625 237.5 C 351.746094 236.054688 352.996094 234.515625 354.128906 232.886719 C 355.261719 231.253906 356.273438 229.554688 357.160156 227.777344 C 358.046875 226 358.800781 224.171875 359.421875 222.285156 Z M 359.421875 222.285156 " fill-opacity="1" fill-rule="nonzero"/><path fill="#ffffff" d="M 523.855469 124.75 C 495.136719 99.566406 454.757812 86.972656 402.722656 86.972656 C 351.175781 86.972656 310.492188 100.238281 280.667969 126.777344 C 256.949219 147.878906 242.507812 175.429688 237.339844 209.4375 C 237.214844 210.289062 237.136719 211.144531 237.101562 212.003906 C 237.070312 212.867188 237.082031 213.726562 237.140625 214.585938 C 237.199219 215.445312 237.304688 216.296875 237.457031 217.144531 C 237.605469 217.992188 237.800781 218.832031 238.042969 219.65625 C 238.285156 220.484375 238.570312 221.296875 238.898438 222.09375 C 239.226562 222.890625 239.59375 223.664062 240.007812 224.421875 C 240.417969 225.179688 240.871094 225.910156 241.359375 226.617188 C 241.851562 227.328125 242.375 228.007812 242.941406 228.65625 C 243.503906 229.308594 244.101562 229.929688 244.730469 230.515625 C 245.359375 231.101562 246.019531 231.65625 246.710938 232.171875 C 247.398438 232.6875 248.113281 233.164062 248.855469 233.605469 C 249.597656 234.042969 250.359375 234.441406 251.140625 234.800781 C 251.925781 235.15625 252.726562 235.472656 253.542969 235.742188 C 254.359375 236.015625 255.191406 236.242188 256.03125 236.421875 C 256.875 236.605469 257.722656 236.742188 258.578125 236.832031 C 259.4375 236.921875 260.292969 236.96875 261.15625 236.964844 L 320.664062 236.964844 C 322.003906 236.976562 323.339844 236.875 324.664062 236.664062 C 325.988281 236.449219 327.285156 236.128906 328.558594 235.699219 C 329.828125 235.269531 331.054688 234.734375 332.238281 234.101562 C 333.417969 233.464844 334.539062 232.738281 335.597656 231.914062 C 336.660156 231.09375 337.644531 230.1875 338.550781 229.199219 C 339.460938 228.210938 340.28125 227.15625 341.011719 226.03125 C 341.746094 224.90625 342.378906 223.730469 342.914062 222.5 C 343.449219 221.269531 343.878906 220.003906 344.199219 218.699219 C 345.339844 213.429688 347.171875 208.410156 349.703125 203.644531 C 352.230469 198.882812 355.363281 194.550781 359.09375 190.65625 C 370.011719 179.460938 384.554688 173.863281 402.722656 173.863281 C 441.015625 173.863281 460.160156 194.636719 460.160156 236.191406 C 460.148438 243.117188 459.203125 249.917969 457.328125 256.585938 C 455.453125 263.257812 452.714844 269.550781 449.113281 275.46875 C 441.75 287.886719 426.960938 303.980469 404.746094 323.761719 C 382.527344 343.539062 367.25 363.625 358.90625 384.015625 C 352.757812 399.046875 348.871094 417.878906 347.253906 440.515625 C 347.199219 441.335938 347.183594 442.15625 347.210938 442.976562 C 347.242188 443.800781 347.3125 444.617188 347.421875 445.433594 C 347.535156 446.246094 347.6875 447.054688 347.882812 447.851562 C 348.078125 448.652344 348.3125 449.4375 348.585938 450.210938 C 348.863281 450.988281 349.175781 451.746094 349.53125 452.488281 C 349.882812 453.230469 350.273438 453.953125 350.703125 454.65625 C 351.128906 455.359375 351.589844 456.039062 352.089844 456.691406 C 352.585938 457.347656 353.113281 457.976562 353.675781 458.578125 C 354.238281 459.175781 354.828125 459.746094 355.449219 460.289062 C 356.066406 460.828125 356.714844 461.335938 357.386719 461.808594 C 358.058594 462.28125 358.753906 462.722656 359.46875 463.125 C 360.1875 463.527344 360.921875 463.890625 361.675781 464.21875 C 362.429688 464.546875 363.199219 464.832031 363.984375 465.082031 C 364.769531 465.328125 365.5625 465.535156 366.367188 465.703125 C 367.171875 465.871094 367.984375 465.996094 368.804688 466.078125 C 369.621094 466.160156 370.441406 466.203125 371.261719 466.203125 L 418.113281 466.203125 C 418.867188 466.203125 419.621094 466.167969 420.375 466.09375 C 421.125 466.023438 421.871094 465.917969 422.613281 465.777344 C 423.355469 465.636719 424.089844 465.460938 424.8125 465.25 C 425.539062 465.039062 426.253906 464.796875 426.953125 464.519531 C 427.65625 464.242188 428.34375 463.929688 429.015625 463.589844 C 429.691406 463.246094 430.347656 462.875 430.984375 462.46875 C 431.621094 462.066406 432.238281 461.632812 432.835938 461.171875 C 433.433594 460.707031 434.007812 460.21875 434.558594 459.703125 C 435.109375 459.1875 435.632812 458.648438 436.136719 458.082031 C 436.636719 457.515625 437.105469 456.925781 437.550781 456.316406 C 437.996094 455.707031 438.410156 455.078125 438.796875 454.429688 C 439.183594 453.78125 439.535156 453.113281 439.859375 452.429688 C 440.183594 451.75 440.472656 451.050781 440.730469 450.34375 C 440.988281 449.632812 441.210938 448.914062 441.398438 448.183594 C 441.589844 447.449219 441.742188 446.710938 441.863281 445.96875 C 441.984375 445.222656 442.066406 444.472656 442.117188 443.71875 C 444.816406 419.644531 455.492188 398.636719 474.148438 380.703125 L 503.972656 352.324219 C 527.289062 329.71875 543.613281 309.144531 552.941406 290.59375 C 557.578125 281.429688 561.082031 271.847656 563.445312 261.847656 C 565.808594 251.851562 566.972656 241.71875 566.933594 231.445312 C 566.933594 185.5 552.574219 149.9375 523.855469 124.75 Z M 523.855469 124.75 " fill-opacity="1" fill-rule="nonzero"/><path fill="#f0624b" d="M 371.261719 452.882812 C 369.765625 452.890625 368.328125 452.59375 366.957031 451.996094 C 365.582031 451.394531 364.386719 450.546875 363.371094 449.445312 C 362.359375 448.371094 361.609375 447.140625 361.117188 445.75 C 360.621094 444.363281 360.429688 442.933594 360.539062 441.464844 C 362.050781 420.339844 365.648438 402.710938 371.234375 389.0625 C 378.765625 370.652344 393.019531 352.03125 413.601562 333.707031 C 437.066406 312.8125 452.429688 295.984375 460.570312 282.265625 C 462.664062 278.804688 464.511719 275.222656 466.121094 271.511719 C 467.726562 267.800781 469.074219 264 470.167969 260.109375 C 471.257812 256.214844 472.078125 252.265625 472.632812 248.261719 C 473.1875 244.257812 473.46875 240.234375 473.476562 236.191406 C 473.476562 187.410156 448.351562 160.542969 402.722656 160.542969 C 380.914062 160.542969 363.027344 167.546875 349.558594 181.355469 C 344.984375 186.117188 341.140625 191.414062 338.03125 197.238281 C 334.917969 203.0625 332.652344 209.199219 331.234375 215.648438 C 331.082031 216.222656 330.882812 216.785156 330.636719 217.328125 C 330.390625 217.871094 330.097656 218.386719 329.765625 218.882812 C 329.433594 219.378906 329.0625 219.84375 328.652344 220.277344 C 328.242188 220.707031 327.800781 221.105469 327.324219 221.464844 C 326.851562 221.824219 326.347656 222.144531 325.820312 222.417969 C 325.292969 222.695312 324.742188 222.925781 324.175781 223.113281 C 323.609375 223.296875 323.03125 223.4375 322.441406 223.527344 C 321.851562 223.617188 321.261719 223.65625 320.664062 223.648438 L 261.15625 223.648438 C 259.578125 223.65625 258.074219 223.328125 256.636719 222.671875 C 255.203125 222.011719 253.976562 221.082031 252.957031 219.878906 C 251.945312 218.71875 251.226562 217.402344 250.800781 215.929688 C 250.371094 214.453125 250.273438 212.953125 250.507812 211.4375 C 252.609375 196.695312 257.054688 182.703125 263.84375 169.453125 C 267.097656 163.265625 270.882812 157.421875 275.195312 151.921875 C 279.511719 146.425781 284.285156 141.359375 289.523438 136.726562 C 296.523438 130.585938 304.078125 125.226562 312.191406 120.65625 C 320.304688 116.082031 328.800781 112.394531 337.679688 109.585938 C 356.59375 103.417969 378.476562 100.289062 402.722656 100.289062 C 427.273438 100.289062 449.257812 103.265625 468.066406 109.132812 C 476.714844 111.707031 484.996094 115.15625 492.917969 119.476562 C 500.839844 123.792969 508.222656 128.890625 515.074219 134.765625 C 521.394531 140.289062 526.984375 146.480469 531.84375 153.332031 C 536.699219 160.179688 540.691406 167.503906 543.8125 175.300781 C 550.316406 191.40625 553.613281 210.296875 553.613281 231.445312 C 553.640625 240.675781 552.589844 249.785156 550.464844 258.769531 C 548.34375 267.753906 545.199219 276.367188 541.042969 284.613281 C 532.429688 301.734375 516.851562 321.285156 494.742188 342.71875 L 464.917969 371.101562 C 444.046875 391.167969 431.921875 415.101562 428.882812 442.234375 L 428.847656 442.542969 L 428.828125 442.847656 C 428.78125 443.523438 428.671875 444.183594 428.503906 444.839844 C 428.332031 445.492188 428.101562 446.125 427.8125 446.734375 C 427.523438 447.34375 427.179688 447.921875 426.78125 448.464844 C 426.386719 449.011719 425.941406 449.515625 425.445312 449.976562 C 424.953125 450.4375 424.421875 450.847656 423.851562 451.210938 C 423.28125 451.570312 422.683594 451.875 422.054688 452.125 C 421.429688 452.375 420.785156 452.5625 420.121094 452.691406 C 419.457031 452.816406 418.789062 452.882812 418.113281 452.882812 Z M 371.261719 452.882812 " fill-opacity="1" fill-rule="nonzero"/><path fill="#ffffff" d="M 480.332031 568.023438 C 481.167969 565.800781 482.246094 563.699219 483.570312 561.726562 C 484.894531 559.75 486.425781 557.953125 488.167969 556.335938 C 489.90625 554.71875 491.808594 553.320312 493.875 552.144531 C 495.941406 550.96875 498.113281 550.046875 500.394531 549.375 C 502.664062 548.691406 504.980469 548.253906 507.347656 548.066406 C 509.710938 547.878906 512.066406 547.945312 514.417969 548.261719 C 516.769531 548.582031 519.058594 549.144531 521.289062 549.953125 C 523.515625 550.765625 525.632812 551.800781 527.640625 553.066406 C 525.484375 552.238281 523.289062 551.542969 521.050781 550.980469 C 520.09375 550.71875 519.128906 550.5 518.15625 550.316406 C 517.179688 550.136719 516.199219 549.996094 515.214844 549.898438 C 514.230469 549.796875 513.242188 549.738281 512.25 549.722656 C 511.257812 549.703125 510.269531 549.726562 509.277344 549.792969 C 508.289062 549.855469 507.304688 549.960938 506.324219 550.109375 C 505.34375 550.253906 504.371094 550.441406 503.40625 550.667969 C 502.441406 550.894531 501.488281 551.160156 500.546875 551.464844 C 499.605469 551.773438 498.675781 552.117188 497.761719 552.5 C 496.847656 552.882812 495.949219 553.300781 495.070312 553.757812 C 494.191406 554.214844 493.332031 554.707031 492.492188 555.238281 C 491.65625 555.765625 490.839844 556.328125 490.046875 556.921875 C 489.253906 557.519531 488.488281 558.144531 487.75 558.804688 C 487.007812 559.464844 486.296875 560.152344 485.613281 560.871094 C 484.933594 561.589844 484.28125 562.335938 483.660156 563.105469 C 483.039062 563.878906 482.449219 564.675781 481.894531 565.496094 C 481.339844 566.316406 480.820312 567.160156 480.332031 568.023438 Z M 480.332031 568.023438 " fill-opacity="1" fill-rule="nonzero"/><path fill="#ffffff" d="M 524.351562 559.742188 C 522.707031 558.851562 520.992188 558.132812 519.207031 557.585938 C 517.421875 557.035156 515.597656 556.664062 513.738281 556.476562 C 511.878906 556.285156 510.019531 556.28125 508.160156 556.457031 C 506.300781 556.636719 504.476562 556.992188 502.6875 557.53125 C 501.847656 557.816406 501.023438 558.144531 500.21875 558.507812 C 499.410156 558.875 498.621094 559.277344 497.855469 559.722656 C 497.085938 560.164062 496.339844 560.644531 495.621094 561.15625 C 494.898438 561.671875 494.203125 562.222656 493.539062 562.804688 C 492.871094 563.390625 492.230469 564.003906 491.625 564.648438 C 491.015625 565.292969 490.441406 565.96875 489.902344 566.667969 C 489.359375 567.371094 488.851562 568.097656 488.382812 568.847656 C 487.910156 569.597656 487.476562 570.371094 487.082031 571.164062 C 486.6875 571.957031 486.332031 572.769531 486.015625 573.597656 C 485.699219 574.425781 485.421875 575.265625 485.1875 576.121094 C 484.953125 576.976562 484.761719 577.839844 484.613281 578.714844 C 484.460938 579.585938 484.355469 580.464844 484.292969 581.351562 C 484.226562 582.234375 484.207031 583.121094 484.230469 584.003906 C 484.253906 584.890625 484.316406 585.773438 484.425781 586.65625 C 484.535156 587.535156 484.6875 588.40625 484.878906 589.269531 C 485.074219 590.136719 485.308594 590.988281 485.585938 591.832031 C 488.035156 598.617188 493.082031 603.898438 500.730469 607.667969 C 508.375 611.433594 515.636719 612.222656 522.511719 610.03125 C 523.347656 609.738281 524.167969 609.40625 524.972656 609.03125 C 525.777344 608.660156 526.5625 608.246094 527.324219 607.796875 C 528.089844 607.347656 528.828125 606.863281 529.546875 606.339844 C 530.261719 605.816406 530.953125 605.261719 531.613281 604.671875 C 532.277344 604.085938 532.90625 603.464844 533.507812 602.8125 C 534.109375 602.160156 534.679688 601.484375 535.214844 600.777344 C 535.75 600.070312 536.25 599.339844 536.714844 598.585938 C 537.175781 597.828125 537.605469 597.054688 537.992188 596.257812 C 538.378906 595.460938 538.730469 594.644531 539.039062 593.816406 C 539.347656 592.984375 539.613281 592.140625 539.839844 591.28125 C 540.066406 590.425781 540.25 589.558594 540.390625 588.683594 C 540.535156 587.808594 540.632812 586.929688 540.6875 586.046875 C 540.746094 585.160156 540.757812 584.277344 540.726562 583.390625 C 540.695312 582.503906 540.621094 581.621094 540.507812 580.742188 C 540.390625 579.863281 540.230469 578.992188 540.027344 578.128906 C 539.828125 577.265625 539.582031 576.414062 539.300781 575.578125 C 538.636719 573.828125 537.808594 572.164062 536.816406 570.582031 C 535.824219 568.996094 534.6875 567.527344 533.402344 566.167969 C 532.121094 564.808594 530.71875 563.589844 529.195312 562.507812 C 527.671875 561.425781 526.054688 560.503906 524.351562 559.742188 Z M 524.351562 559.742188 " fill-opacity="1" fill-rule="nonzero"/><path fill="#87dde3" d="M 503.53125 601.980469 C 497.355469 598.9375 493.433594 594.914062 491.546875 589.683594 C 491.085938 588.417969 490.765625 587.121094 490.582031 585.789062 C 490.394531 584.457031 490.351562 583.117188 490.449219 581.777344 C 490.550781 580.433594 490.789062 579.117188 491.164062 577.828125 C 491.542969 576.535156 492.050781 575.300781 492.691406 574.117188 C 493.25 572.867188 493.933594 571.6875 494.746094 570.582031 C 495.554688 569.480469 496.472656 568.472656 497.496094 567.5625 C 498.523438 566.65625 499.632812 565.867188 500.824219 565.195312 C 502.019531 564.523438 503.269531 563.984375 504.578125 563.578125 C 505.992188 563.230469 507.425781 563.007812 508.878906 562.914062 C 510.332031 562.816406 511.78125 562.847656 513.226562 563.003906 C 514.675781 563.160156 516.097656 563.445312 517.496094 563.851562 C 518.890625 564.257812 520.242188 564.78125 521.550781 565.425781 C 522.855469 566.070312 524.09375 566.820312 525.269531 567.679688 C 526.441406 568.542969 527.53125 569.5 528.539062 570.550781 C 529.546875 571.601562 530.453125 572.734375 531.261719 573.945312 C 532.066406 575.15625 532.765625 576.425781 533.351562 577.757812 C 533.824219 579.042969 534.160156 580.363281 534.355469 581.71875 C 534.550781 583.074219 534.597656 584.4375 534.503906 585.800781 C 534.40625 587.167969 534.167969 588.507812 533.785156 589.824219 C 533.402344 591.140625 532.886719 592.398438 532.234375 593.605469 C 531.683594 594.832031 531.015625 595.988281 530.21875 597.074219 C 529.425781 598.160156 528.527344 599.152344 527.523438 600.046875 C 526.519531 600.941406 525.433594 601.722656 524.265625 602.386719 C 523.09375 603.054688 521.871094 603.589844 520.585938 603.992188 C 515.285156 605.683594 509.707031 605.027344 503.53125 601.980469 Z M 503.53125 601.980469 " fill-opacity="1" fill-rule="nonzero"/><path fill="#ffffff" d="M 666.910156 419.886719 C 675.378906 438.425781 673.507812 458.488281 665.5 476.820312 C 654.066406 503.808594 632.734375 515.226562 605.90625 523.308594 C 599.6875 525.101562 593.46875 526.902344 587.222656 528.613281 C 597.863281 524.804688 608.75 521.613281 619.164062 517.191406 C 635.941406 510.203125 650.085938 500.558594 659.371094 484.582031 C 664.421875 475.84375 667.949219 466.53125 669.957031 456.644531 C 671.179688 450.496094 671.53125 444.296875 671.011719 438.050781 C 670.496094 431.804688 669.128906 425.75 666.910156 419.886719 Z M 666.910156 419.886719 " fill-opacity="1" fill-rule="nonzero"/><path fill="#ffffff" d="M 553.84375 365.277344 C 575.609375 357.628906 600.105469 363.113281 619.574219 374.460938 C 598.742188 365.804688 576.3125 360.554688 553.84375 365.277344 Z M 553.84375 365.277344 " fill-opacity="1" fill-rule="nonzero"/><path fill="#ffffff" d="M 569.34375 429.773438 C 568.753906 430.597656 568.097656 431.367188 567.378906 432.082031 C 566.664062 432.796875 565.890625 433.449219 565.066406 434.039062 C 564.238281 434.625 563.371094 435.140625 562.460938 435.585938 C 561.550781 436.03125 560.609375 436.402344 559.640625 436.691406 C 558.667969 436.980469 557.679688 437.191406 556.675781 437.316406 C 555.667969 437.445312 554.660156 437.488281 553.648438 437.449219 C 552.632812 437.410156 551.632812 437.289062 550.640625 437.085938 C 549.644531 436.882812 548.675781 436.597656 547.730469 436.234375 C 546.660156 435.8125 545.617188 435.339844 544.59375 434.8125 C 536.585938 430.839844 528.660156 426.726562 521.027344 422.046875 C 529.90625 425.449219 538.492188 429.492188 547 433.699219 C 547.476562 433.929688 547.960938 434.140625 548.453125 434.328125 C 549.335938 434.667969 550.238281 434.9375 551.160156 435.144531 C 552.082031 435.351562 553.011719 435.492188 553.953125 435.5625 C 554.894531 435.632812 555.839844 435.636719 556.78125 435.570312 C 557.722656 435.503906 558.65625 435.371094 559.578125 435.167969 C 560.5 434.96875 561.40625 434.703125 562.289062 434.367188 C 563.171875 434.035156 564.027344 433.640625 564.855469 433.183594 C 565.683594 432.726562 566.472656 432.214844 567.222656 431.644531 C 567.976562 431.070312 568.683594 430.449219 569.34375 429.773438 Z M 569.34375 429.773438 " fill-opacity="1" fill-rule="nonzero"/><path fill="#ffffff" d="M 660.035156 422.738281 C 653.078125 405.949219 638.492188 392.082031 616.285156 381.132812 C 594.285156 370.292969 574.132812 367.398438 555.824219 372.449219 C 541.261719 376.464844 529.300781 385.1875 519.945312 398.613281 C 519.710938 398.949219 519.5 399.296875 519.304688 399.660156 C 519.109375 400.019531 518.933594 400.390625 518.777344 400.769531 C 518.621094 401.148438 518.488281 401.535156 518.371094 401.925781 C 518.257812 402.320312 518.167969 402.71875 518.09375 403.121094 C 518.023438 403.527344 517.976562 403.933594 517.945312 404.339844 C 517.917969 404.75 517.914062 405.160156 517.929688 405.570312 C 517.949219 405.976562 517.984375 406.386719 518.046875 406.792969 C 518.105469 407.195312 518.1875 407.597656 518.292969 407.992188 C 518.394531 408.390625 518.519531 408.78125 518.664062 409.164062 C 518.8125 409.546875 518.976562 409.921875 519.160156 410.285156 C 519.347656 410.652344 519.550781 411.003906 519.777344 411.347656 C 520 411.691406 520.242188 412.023438 520.5 412.339844 C 520.757812 412.65625 521.035156 412.960938 521.328125 413.246094 C 521.617188 413.535156 521.925781 413.804688 522.246094 414.0625 C 522.566406 414.316406 522.902344 414.554688 523.246094 414.773438 C 523.59375 414.992188 523.949219 415.191406 524.320312 415.371094 L 549.714844 427.886719 C 550.285156 428.175781 550.875 428.410156 551.484375 428.601562 C 552.097656 428.789062 552.71875 428.921875 553.351562 429.007812 C 553.984375 429.089844 554.617188 429.121094 555.257812 429.097656 C 555.894531 429.078125 556.527344 429 557.152344 428.875 C 557.777344 428.746094 558.386719 428.566406 558.984375 428.335938 C 559.578125 428.105469 560.148438 427.828125 560.699219 427.5 C 561.25 427.175781 561.765625 426.804688 562.253906 426.394531 C 562.742188 425.980469 563.191406 425.53125 563.601562 425.042969 C 565.195312 423.03125 567.035156 421.277344 569.117188 419.777344 C 571.199219 418.273438 573.445312 417.085938 575.855469 416.207031 C 582.871094 413.726562 590.253906 414.394531 598.007812 418.21875 C 614.351562 426.273438 618.152344 439.164062 609.410156 456.898438 C 607.949219 459.851562 606.117188 462.554688 603.914062 465.007812 C 601.710938 467.460938 599.214844 469.570312 596.433594 471.339844 C 590.679688 475.089844 580.984375 478.847656 567.34375 482.617188 C 553.699219 486.382812 542.953125 491.742188 535.105469 498.6875 C 528.347656 505.023438 522.730469 512.246094 518.25 520.351562 C 517.855469 521.027344 517.535156 521.738281 517.285156 522.484375 C 517.039062 523.230469 516.867188 523.992188 516.777344 524.769531 C 516.6875 525.550781 516.675781 526.328125 516.746094 527.109375 C 516.816406 527.890625 516.960938 528.660156 517.191406 529.410156 C 517.417969 530.160156 517.71875 530.878906 518.09375 531.570312 C 518.46875 532.257812 518.910156 532.902344 519.417969 533.5 C 519.925781 534.097656 520.488281 534.636719 521.109375 535.121094 C 521.726562 535.601562 522.386719 536.015625 523.089844 536.363281 L 543.085938 546.21875 C 543.730469 546.535156 544.402344 546.792969 545.097656 546.984375 C 545.789062 547.175781 546.496094 547.300781 547.214844 547.359375 C 547.929688 547.417969 548.648438 547.410156 549.363281 547.332031 C 550.078125 547.253906 550.78125 547.113281 551.472656 546.902344 C 552.160156 546.695312 552.824219 546.421875 553.460938 546.085938 C 554.097656 545.753906 554.699219 545.363281 555.261719 544.914062 C 555.828125 544.46875 556.34375 543.96875 556.8125 543.425781 C 557.285156 542.878906 557.699219 542.296875 558.058594 541.671875 C 559.609375 539.257812 561.363281 536.996094 563.320312 534.894531 C 565.277344 532.792969 567.40625 530.882812 569.703125 529.164062 C 572 527.441406 574.433594 525.941406 577 524.65625 C 579.570312 523.371094 582.230469 522.324219 584.984375 521.515625 L 603.683594 515.675781 C 618.386719 510.933594 629.679688 505.585938 637.566406 499.632812 C 641.472656 496.695312 644.980469 493.34375 648.09375 489.574219 C 651.207031 485.804688 653.832031 481.722656 655.976562 477.332031 C 665.640625 457.722656 666.992188 439.527344 660.035156 422.738281 Z M 660.035156 422.738281 " fill-opacity="1" fill-rule="nonzero"/><path fill="#87dde3" d="M 525.894531 530.679688 C 525.253906 530.367188 524.703125 529.9375 524.242188 529.394531 C 523.78125 528.847656 523.449219 528.234375 523.25 527.550781 C 523.042969 526.882812 522.980469 526.199219 523.0625 525.5 C 523.144531 524.804688 523.363281 524.152344 523.71875 523.550781 C 527.867188 516.035156 533.0625 509.328125 539.304688 503.433594 C 546.390625 497.164062 556.390625 492.214844 569.03125 488.722656 C 583.441406 484.742188 593.535156 480.792969 599.894531 476.648438 C 603.152344 474.566406 606.070312 472.089844 608.652344 469.210938 C 611.230469 466.332031 613.378906 463.164062 615.09375 459.699219 C 625.355469 438.882812 620.28125 422.128906 600.808594 412.535156 C 591.503906 407.945312 582.398438 407.171875 573.742188 410.234375 C 570.789062 411.304688 568.035156 412.753906 565.484375 414.585938 C 562.929688 416.417969 560.671875 418.558594 558.710938 421.011719 C 558.335938 421.445312 557.898438 421.800781 557.402344 422.085938 C 556.90625 422.371094 556.378906 422.566406 555.816406 422.671875 C 555.257812 422.78125 554.695312 422.796875 554.128906 422.714844 C 553.5625 422.632812 553.023438 422.464844 552.515625 422.203125 L 527.121094 409.6875 C 526.445312 409.359375 525.871094 408.902344 525.398438 408.320312 C 524.925781 407.738281 524.597656 407.082031 524.414062 406.355469 C 524.226562 405.648438 524.195312 404.933594 524.324219 404.214844 C 524.453125 403.492188 524.726562 402.835938 525.144531 402.234375 C 529.140625 396.386719 533.980469 391.347656 539.667969 387.121094 C 545.089844 383.179688 551.039062 380.324219 557.507812 378.558594 C 566.160156 376.234375 574.914062 375.75 583.769531 377.105469 C 594.1875 378.777344 604.089844 382.015625 613.484375 386.820312 C 623.042969 391.347656 631.71875 397.1875 639.511719 404.335938 C 645.878906 410.238281 650.769531 417.179688 654.179688 425.164062 C 655.71875 428.851562 656.800781 432.667969 657.433594 436.613281 C 658.066406 440.558594 658.226562 444.523438 657.921875 448.507812 C 657.058594 457.675781 654.515625 466.347656 650.292969 474.53125 C 648.363281 478.476562 646 482.144531 643.203125 485.53125 C 640.40625 488.917969 637.253906 491.933594 633.746094 494.578125 C 626.46875 500.070312 615.707031 505.140625 601.761719 509.636719 L 583.066406 515.476562 C 579.960938 516.398438 576.960938 517.585938 574.070312 519.039062 C 571.179688 520.496094 568.4375 522.195312 565.847656 524.140625 C 563.257812 526.082031 560.859375 528.242188 558.65625 530.613281 C 556.453125 532.984375 554.472656 535.53125 552.722656 538.253906 L 552.644531 538.378906 L 552.570312 538.503906 C 552.410156 538.78125 552.222656 539.042969 552.015625 539.285156 C 551.804688 539.527344 551.574219 539.75 551.320312 539.949219 C 551.070312 540.148438 550.800781 540.324219 550.515625 540.472656 C 550.230469 540.621094 549.9375 540.742188 549.628906 540.835938 C 549.320312 540.929688 549.007812 540.992188 548.6875 541.027344 C 548.371094 541.0625 548.050781 541.066406 547.730469 541.039062 C 547.410156 541.015625 547.09375 540.957031 546.785156 540.875 C 546.476562 540.789062 546.175781 540.675781 545.886719 540.535156 Z M 525.894531 530.679688 " fill-opacity="1" fill-rule="nonzero"/><path fill="#ffffff" d="M 231.644531 703.679688 C 230.652344 701.519531 229.917969 699.277344 229.445312 696.949219 C 228.972656 694.617188 228.777344 692.265625 228.851562 689.890625 C 228.925781 687.515625 229.269531 685.179688 229.890625 682.882812 C 230.507812 680.589844 231.378906 678.394531 232.507812 676.304688 C 233.617188 674.207031 234.9375 672.253906 236.46875 670.441406 C 238 668.628906 239.703125 667 241.582031 665.554688 C 243.460938 664.109375 245.476562 662.878906 247.617188 661.863281 C 249.761719 660.851562 251.988281 660.074219 254.300781 659.539062 C 252.195312 660.488281 250.15625 661.558594 248.183594 662.753906 C 247.324219 663.25 246.488281 663.78125 245.671875 664.34375 C 244.859375 664.910156 244.070312 665.507812 243.304688 666.140625 C 242.542969 666.769531 241.804688 667.429688 241.09375 668.121094 C 240.386719 668.816406 239.707031 669.535156 239.054688 670.28125 C 238.40625 671.03125 237.789062 671.804688 237.203125 672.605469 C 236.617188 673.402344 236.0625 674.226562 235.546875 675.070312 C 235.027344 675.917969 234.546875 676.78125 234.101562 677.667969 C 233.652344 678.550781 233.246094 679.453125 232.875 680.371094 C 232.503906 681.292969 232.171875 682.222656 231.875 683.171875 C 231.582031 684.117188 231.328125 685.074219 231.113281 686.042969 C 230.898438 687.007812 230.722656 687.984375 230.589844 688.964844 C 230.457031 689.949219 230.363281 690.933594 230.3125 691.921875 C 230.257812 692.914062 230.246094 693.902344 230.277344 694.894531 C 230.308594 695.886719 230.378906 696.871094 230.488281 697.855469 C 230.601562 698.84375 230.753906 699.820312 230.945312 700.792969 C 231.140625 701.765625 231.371094 702.726562 231.644531 703.679688 Z M 231.644531 703.679688 " fill-opacity="1" fill-rule="nonzero"/><path fill="#ffffff" d="M 256.730469 666.574219 C 254.941406 667.117188 253.222656 667.828125 251.578125 668.710938 C 249.929688 669.59375 248.382812 670.628906 246.941406 671.816406 C 245.5 673.003906 244.1875 674.320312 243.003906 675.765625 C 241.820312 677.214844 240.792969 678.761719 239.917969 680.414062 C 239.527344 681.210938 239.179688 682.023438 238.871094 682.855469 C 238.5625 683.6875 238.296875 684.53125 238.070312 685.386719 C 237.847656 686.246094 237.664062 687.109375 237.519531 687.984375 C 237.378906 688.859375 237.28125 689.742188 237.226562 690.625 C 237.171875 691.511719 237.160156 692.394531 237.191406 693.28125 C 237.222656 694.167969 237.296875 695.050781 237.414062 695.925781 C 237.53125 696.804688 237.691406 697.675781 237.894531 698.539062 C 238.09375 699.402344 238.339844 700.253906 238.625 701.09375 C 238.910156 701.933594 239.234375 702.757812 239.601562 703.5625 C 239.96875 704.371094 240.371094 705.160156 240.8125 705.925781 C 241.257812 706.695312 241.734375 707.4375 242.25 708.160156 C 242.765625 708.882812 243.316406 709.574219 243.898438 710.242188 C 244.484375 710.910156 245.097656 711.546875 245.742188 712.15625 C 246.386719 712.761719 247.0625 713.335938 247.761719 713.878906 C 248.464844 714.421875 249.191406 714.925781 249.941406 715.398438 C 250.691406 715.867188 251.464844 716.300781 252.257812 716.695312 C 258.804688 719.734375 266.105469 719.859375 274.164062 717.078125 C 282.222656 714.296875 287.890625 709.691406 291.171875 703.261719 C 291.550781 702.460938 291.890625 701.644531 292.191406 700.808594 C 292.492188 699.976562 292.753906 699.128906 292.96875 698.269531 C 293.1875 697.410156 293.363281 696.542969 293.496094 695.667969 C 293.628906 694.792969 293.71875 693.910156 293.769531 693.023438 C 293.816406 692.140625 293.820312 691.253906 293.78125 690.371094 C 293.742188 689.484375 293.65625 688.601562 293.53125 687.726562 C 293.40625 686.847656 293.238281 685.976562 293.027344 685.117188 C 292.820312 684.257812 292.566406 683.40625 292.273438 682.570312 C 291.980469 681.734375 291.648438 680.914062 291.273438 680.109375 C 290.902344 679.304688 290.488281 678.523438 290.039062 677.757812 C 289.589844 676.992188 289.105469 676.253906 288.582031 675.539062 C 288.0625 674.820312 287.503906 674.132812 286.914062 673.46875 C 286.328125 672.808594 285.707031 672.175781 285.054688 671.574219 C 284.40625 670.972656 283.726562 670.402344 283.019531 669.867188 C 282.3125 669.332031 281.582031 668.832031 280.828125 668.371094 C 280.070312 667.90625 279.296875 667.480469 278.5 667.089844 C 276.789062 666.332031 275.023438 665.75 273.203125 665.339844 C 271.378906 664.933594 269.535156 664.707031 267.664062 664.660156 C 265.796875 664.617188 263.941406 664.753906 262.101562 665.078125 C 260.261719 665.398438 258.472656 665.898438 256.730469 666.574219 Z M 256.730469 666.574219 " fill-opacity="1" fill-rule="nonzero"/><path fill="#f5e0a9" d="M 272.097656 711.085938 C 265.585938 713.335938 259.96875 713.289062 254.925781 710.949219 C 253.703125 710.386719 252.554688 709.703125 251.476562 708.894531 C 250.398438 708.089844 249.417969 707.179688 248.535156 706.164062 C 247.652344 705.152344 246.882812 704.054688 246.230469 702.878906 C 245.582031 701.703125 245.058594 700.472656 244.667969 699.183594 C 244.171875 697.90625 243.816406 696.59375 243.601562 695.238281 C 243.386719 693.886719 243.320312 692.527344 243.394531 691.160156 C 243.46875 689.792969 243.6875 688.445312 244.050781 687.125 C 244.414062 685.804688 244.910156 684.539062 245.546875 683.324219 C 246.292969 682.074219 247.144531 680.898438 248.097656 679.800781 C 249.050781 678.699219 250.089844 677.691406 251.222656 676.773438 C 252.351562 675.855469 253.550781 675.042969 254.824219 674.335938 C 256.097656 673.628906 257.421875 673.039062 258.796875 672.5625 C 260.171875 672.085938 261.578125 671.734375 263.015625 671.507812 C 264.453125 671.277344 265.902344 671.175781 267.355469 671.203125 C 268.8125 671.226562 270.253906 671.378906 271.683594 671.65625 C 273.113281 671.933594 274.503906 672.332031 275.863281 672.855469 C 277.113281 673.421875 278.285156 674.109375 279.386719 674.925781 C 280.484375 675.742188 281.488281 676.664062 282.390625 677.695312 C 283.292969 678.726562 284.078125 679.839844 284.742188 681.035156 C 285.410156 682.230469 285.941406 683.484375 286.339844 684.796875 C 286.824219 686.050781 287.175781 687.339844 287.386719 688.667969 C 287.601562 689.996094 287.671875 691.332031 287.601562 692.675781 C 287.53125 694.019531 287.324219 695.339844 286.972656 696.640625 C 286.625 697.9375 286.140625 699.1875 285.527344 700.382812 C 283 705.339844 278.605469 708.839844 272.097656 711.085938 Z M 272.097656 711.085938 " fill-opacity="1" fill-rule="nonzero"/><path fill="#ffffff" d="M 257.648438 466.871094 C 276.78125 473.894531 289.722656 489.339844 297.113281 507.929688 C 308.25 535.042969 301.351562 558.234375 288.222656 582.984375 C 285.121094 588.667969 282.023438 594.351562 278.84375 599.992188 C 283.625 589.753906 289.015625 579.769531 293.203125 569.261719 C 300.039062 552.421875 303.136719 535.582031 298.316406 517.746094 C 295.664062 508.007812 291.527344 498.949219 285.910156 490.566406 C 282.402344 485.371094 278.246094 480.761719 273.445312 476.734375 C 268.640625 472.707031 263.375 469.417969 257.648438 466.871094 Z M 257.648438 466.871094 " fill-opacity="1" fill-rule="nonzero"/><path fill="#ffffff" d="M 139.292969 508.789062 C 149.171875 487.945312 170.300781 474.394531 192.0625 468.542969 C 171.257812 477.257812 151.742188 489.503906 139.292969 508.789062 Z M 139.292969 508.789062 " fill-opacity="1" fill-rule="nonzero"/><path fill="#ffffff" d="M 196.03125 543.15625 C 196.199219 544.15625 196.285156 545.164062 196.289062 546.175781 C 196.292969 547.191406 196.210938 548.195312 196.046875 549.195312 C 195.886719 550.199219 195.640625 551.179688 195.316406 552.136719 C 194.992188 553.097656 194.59375 554.027344 194.117188 554.917969 C 193.640625 555.8125 193.09375 556.664062 192.476562 557.46875 C 191.859375 558.273438 191.179688 559.019531 190.441406 559.710938 C 189.699219 560.40625 188.910156 561.03125 188.066406 561.59375 C 187.222656 562.15625 186.339844 562.644531 185.414062 563.0625 C 184.363281 563.523438 183.289062 563.933594 182.195312 564.289062 C 173.738281 567.183594 165.238281 569.921875 156.542969 572.050781 C 165.207031 568.140625 174.121094 564.882812 183.097656 561.792969 C 183.59375 561.621094 184.085938 561.421875 184.566406 561.207031 C 185.429688 560.816406 186.257812 560.367188 187.050781 559.859375 C 187.847656 559.347656 188.601562 558.785156 189.3125 558.164062 C 190.027344 557.546875 190.691406 556.878906 191.308594 556.164062 C 191.925781 555.445312 192.484375 554.691406 192.992188 553.894531 C 193.5 553.09375 193.945312 552.265625 194.332031 551.402344 C 194.714844 550.542969 195.039062 549.65625 195.296875 548.746094 C 195.550781 547.835938 195.742188 546.914062 195.867188 545.980469 C 195.988281 545.042969 196.042969 544.101562 196.03125 543.15625 Z M 196.03125 543.15625 " fill-opacity="1" fill-rule="nonzero"/><path fill="#ffffff" d="M 254.835938 473.757812 C 238.011719 466.890625 217.894531 467.496094 194.492188 475.578125 C 171.308594 483.582031 155.074219 495.867188 145.78125 512.429688 C 138.390625 525.605469 136.171875 540.238281 139.128906 556.335938 C 139.207031 556.738281 139.300781 557.136719 139.421875 557.527344 C 139.539062 557.917969 139.679688 558.304688 139.839844 558.683594 C 140 559.058594 140.179688 559.425781 140.378906 559.785156 C 140.578125 560.144531 140.796875 560.488281 141.03125 560.824219 C 141.269531 561.15625 141.523438 561.480469 141.792969 561.785156 C 142.066406 562.09375 142.351562 562.386719 142.65625 562.660156 C 142.957031 562.9375 143.273438 563.195312 143.605469 563.4375 C 143.933594 563.679688 144.277344 563.90625 144.632812 564.109375 C 144.988281 564.316406 145.351562 564.503906 145.726562 564.667969 C 146.101562 564.835938 146.484375 564.980469 146.875 565.105469 C 147.261719 565.230469 147.660156 565.335938 148.0625 565.417969 C 148.460938 565.5 148.867188 565.558594 149.273438 565.597656 C 149.683594 565.636719 150.089844 565.65625 150.5 565.652344 C 150.910156 565.644531 151.320312 565.617188 151.726562 565.570312 C 152.132812 565.519531 152.535156 565.449219 152.933594 565.359375 C 153.335938 565.265625 153.726562 565.152344 154.113281 565.019531 L 180.878906 555.777344 C 181.484375 555.574219 182.066406 555.320312 182.628906 555.019531 C 183.191406 554.71875 183.726562 554.375 184.230469 553.984375 C 184.734375 553.59375 185.207031 553.160156 185.636719 552.691406 C 186.070312 552.222656 186.460938 551.722656 186.8125 551.1875 C 187.160156 550.652344 187.460938 550.09375 187.71875 549.507812 C 187.972656 548.921875 188.175781 548.320312 188.332031 547.703125 C 188.488281 547.082031 188.589844 546.453125 188.636719 545.816406 C 188.6875 545.179688 188.683594 544.542969 188.628906 543.910156 C 188.320312 541.359375 188.367188 538.820312 188.765625 536.285156 C 189.164062 533.75 189.898438 531.316406 190.96875 528.984375 C 194.144531 522.253906 199.8125 517.476562 207.984375 514.65625 C 225.207031 508.710938 237.042969 515.082031 243.496094 533.769531 C 244.566406 536.886719 245.195312 540.089844 245.390625 543.382812 C 245.582031 546.671875 245.328125 549.929688 244.625 553.148438 C 243.242188 559.875 239.089844 569.414062 232.171875 581.757812 C 225.25 594.101562 221.496094 605.507812 220.910156 615.976562 C 220.660156 625.234375 221.835938 634.304688 224.445312 643.195312 C 224.648438 643.949219 224.929688 644.679688 225.28125 645.378906 C 225.636719 646.078125 226.058594 646.734375 226.550781 647.347656 C 227.039062 647.960938 227.585938 648.519531 228.191406 649.019531 C 228.792969 649.519531 229.441406 649.953125 230.136719 650.320312 C 230.828125 650.6875 231.554688 650.980469 232.308594 651.199219 C 233.058594 651.414062 233.828125 651.554688 234.609375 651.613281 C 235.394531 651.675781 236.171875 651.65625 236.949219 651.554688 C 237.730469 651.453125 238.488281 651.273438 239.230469 651.019531 L 260.300781 643.742188 C 260.980469 643.507812 261.632812 643.210938 262.257812 642.855469 C 262.882812 642.496094 263.46875 642.082031 264.015625 641.613281 C 264.5625 641.144531 265.058594 640.628906 265.507812 640.066406 C 265.957031 639.503906 266.351562 638.90625 266.6875 638.269531 C 267.023438 637.632812 267.296875 636.96875 267.507812 636.28125 C 267.71875 635.589844 267.863281 634.890625 267.941406 634.175781 C 268.019531 633.457031 268.03125 632.742188 267.976562 632.023438 C 267.917969 631.304688 267.796875 630.601562 267.605469 629.90625 C 266.980469 627.101562 266.609375 624.265625 266.492188 621.398438 C 266.375 618.53125 266.515625 615.675781 266.910156 612.832031 C 267.304688 609.988281 267.945312 607.199219 268.839844 604.472656 C 269.734375 601.742188 270.863281 599.117188 272.226562 596.589844 L 281.234375 579.195312 C 288.210938 565.410156 292.355469 553.621094 293.671875 543.832031 C 294.332031 538.988281 294.421875 534.132812 293.929688 529.269531 C 293.441406 524.40625 292.390625 519.667969 290.777344 515.054688 C 283.644531 494.394531 271.664062 480.628906 254.835938 473.757812 Z M 254.835938 473.757812 " fill-opacity="1" fill-rule="nonzero"/><path fill="#f5e0a9" d="M 237.160156 645.027344 C 236.488281 645.265625 235.796875 645.355469 235.085938 645.296875 C 234.375 645.242188 233.707031 645.046875 233.078125 644.707031 C 232.457031 644.382812 231.929688 643.945312 231.492188 643.398438 C 231.054688 642.847656 230.746094 642.234375 230.566406 641.558594 C 228.144531 633.320312 227.035156 624.914062 227.238281 616.328125 C 227.769531 606.882812 231.285156 596.292969 237.699219 584.855469 C 245.007812 571.816406 249.304688 561.863281 250.832031 554.425781 C 251.644531 550.648438 251.9375 546.832031 251.710938 542.972656 C 251.480469 539.113281 250.738281 535.355469 249.484375 531.699219 C 241.910156 509.761719 226.4375 501.582031 205.917969 508.667969 C 196.109375 512.054688 189.152344 517.980469 185.238281 526.28125 C 183.921875 529.132812 183.015625 532.113281 182.519531 535.214844 C 182.023438 538.316406 181.957031 541.429688 182.324219 544.550781 C 182.363281 545.117188 182.3125 545.679688 182.164062 546.234375 C 182.019531 546.785156 181.785156 547.296875 181.46875 547.773438 C 181.148438 548.246094 180.761719 548.65625 180.308594 549.003906 C 179.851562 549.347656 179.351562 549.609375 178.808594 549.789062 L 152.046875 559.027344 C 151.339844 559.277344 150.609375 559.363281 149.863281 559.289062 C 149.117188 559.21875 148.417969 558.988281 147.773438 558.605469 C 147.140625 558.242188 146.613281 557.761719 146.191406 557.164062 C 145.769531 556.566406 145.492188 555.910156 145.363281 555.191406 C 144.019531 548.234375 143.84375 541.25 144.839844 534.238281 C 145.855469 527.605469 148.011719 521.371094 151.308594 515.53125 C 155.746094 507.75 161.558594 501.1875 168.75 495.847656 C 177.269531 489.625 186.539062 484.863281 196.5625 481.566406 C 206.503906 477.960938 216.757812 475.90625 227.320312 475.398438 C 235.996094 475.027344 244.367188 476.433594 252.441406 479.625 C 256.144531 481.128906 259.621094 483.046875 262.867188 485.371094 C 266.117188 487.699219 269.046875 490.375 271.664062 493.394531 C 277.570312 500.457031 281.945312 508.367188 284.789062 517.125 C 286.234375 521.269531 287.175781 525.53125 287.617188 529.902344 C 288.054688 534.273438 287.980469 538.632812 287.390625 542.988281 C 286.175781 552.023438 282.203125 563.238281 275.589844 576.308594 L 266.582031 593.707031 C 265.054688 596.558594 263.789062 599.527344 262.789062 602.605469 C 261.785156 605.683594 261.066406 608.828125 260.625 612.035156 C 260.183594 615.242188 260.03125 618.464844 260.164062 621.699219 C 260.300781 624.933594 260.71875 628.132812 261.421875 631.292969 L 261.453125 631.4375 L 261.492188 631.578125 C 261.578125 631.886719 261.632812 632.203125 261.65625 632.523438 C 261.679688 632.84375 261.675781 633.164062 261.640625 633.480469 C 261.605469 633.800781 261.539062 634.113281 261.445312 634.421875 C 261.351562 634.726562 261.230469 635.023438 261.078125 635.308594 C 260.929688 635.59375 260.753906 635.859375 260.554688 636.109375 C 260.355469 636.363281 260.132812 636.59375 259.886719 636.800781 C 259.644531 637.011719 259.382812 637.195312 259.105469 637.355469 C 258.828125 637.515625 258.535156 637.648438 258.234375 637.753906 Z M 237.160156 645.027344 " fill-opacity="1" fill-rule="nonzero"/><path fill="#ffffff" d="M 413.246094 728.105469 C 413.335938 727.214844 413.527344 726.34375 413.820312 725.5 C 414.109375 724.652344 414.496094 723.851562 414.972656 723.09375 C 415.449219 722.335938 416.007812 721.644531 416.648438 721.019531 C 417.285156 720.390625 417.988281 719.84375 418.753906 719.382812 C 420.292969 718.433594 421.960938 717.847656 423.753906 717.625 C 425.546875 717.402344 427.304688 717.558594 429.03125 718.101562 C 428.167969 718.007812 427.300781 717.964844 426.429688 717.976562 C 425.683594 717.96875 424.941406 718.027344 424.203125 718.144531 C 423.464844 718.261719 422.738281 718.441406 422.03125 718.675781 C 421.320312 718.914062 420.636719 719.210938 419.976562 719.5625 C 419.316406 719.914062 418.691406 720.316406 418.097656 720.773438 C 417.503906 721.226562 416.953125 721.730469 416.441406 722.277344 C 415.933594 722.824219 415.472656 723.410156 415.058594 724.03125 C 414.644531 724.65625 414.289062 725.308594 413.984375 725.992188 C 413.679688 726.675781 413.433594 727.378906 413.246094 728.105469 Z M 413.246094 728.105469 " fill-opacity="1" fill-rule="nonzero"/><path fill="#ffffff" d="M 428.476562 720.847656 C 427.09375 720.515625 425.703125 720.457031 424.296875 720.679688 C 422.894531 720.902344 421.585938 721.386719 420.375 722.128906 C 419.816406 722.5 419.300781 722.921875 418.828125 723.394531 C 418.351562 723.863281 417.925781 724.378906 417.550781 724.933594 C 417.175781 725.488281 416.859375 726.074219 416.601562 726.6875 C 416.339844 727.304688 416.140625 727.941406 416.007812 728.597656 C 415.871094 729.253906 415.800781 729.914062 415.792969 730.585938 C 415.789062 731.253906 415.847656 731.917969 415.972656 732.574219 C 416.097656 733.234375 416.28125 733.871094 416.53125 734.492188 C 416.78125 735.113281 417.089844 735.707031 417.453125 736.265625 C 417.890625 736.816406 418.375 737.324219 418.902344 737.792969 C 419.429688 738.257812 419.992188 738.675781 420.59375 739.042969 C 421.191406 739.410156 421.820312 739.722656 422.476562 739.976562 C 423.128906 740.234375 423.804688 740.433594 424.492188 740.574219 C 425.183594 740.710938 425.878906 740.789062 426.582031 740.808594 C 427.285156 740.824219 427.984375 740.78125 428.679688 740.675781 C 429.378906 740.570312 430.058594 740.40625 430.726562 740.179688 C 431.390625 739.953125 432.035156 739.671875 432.652344 739.335938 C 433.207031 738.960938 433.71875 738.535156 434.1875 738.058594 C 434.660156 737.582031 435.078125 737.066406 435.449219 736.507812 C 435.820312 735.949219 436.128906 735.363281 436.386719 734.742188 C 436.640625 734.125 436.832031 733.484375 436.960938 732.828125 C 437.089844 732.171875 437.15625 731.507812 437.15625 730.839844 C 437.15625 730.171875 437.089844 729.507812 436.960938 728.851562 C 436.828125 728.195312 436.636719 727.558594 436.382812 726.9375 C 436.128906 726.320312 435.816406 725.730469 435.445312 725.171875 C 434.617188 724.019531 433.597656 723.066406 432.390625 722.316406 C 431.183594 721.566406 429.878906 721.078125 428.476562 720.847656 Z M 428.476562 720.847656 " fill-opacity="1" fill-rule="nonzero"/><path fill="#247670" d="M 424.964844 738.234375 C 423.855469 738.074219 422.816406 737.707031 421.855469 737.132812 C 420.894531 736.554688 420.082031 735.8125 419.417969 734.910156 C 418.832031 734.070312 418.445312 733.144531 418.253906 732.136719 C 418.066406 731.128906 418.09375 730.128906 418.332031 729.132812 C 418.5 728.101562 418.875 727.152344 419.453125 726.28125 C 420.03125 725.414062 420.761719 724.703125 421.648438 724.148438 C 422.128906 723.886719 422.628906 723.667969 423.148438 723.492188 C 423.667969 723.316406 424.199219 723.1875 424.742188 723.105469 C 425.28125 723.023438 425.828125 722.992188 426.375 723.003906 C 426.921875 723.019531 427.464844 723.078125 428.003906 723.1875 C 428.542969 723.296875 429.066406 723.449219 429.574219 723.652344 C 430.085938 723.851562 430.574219 724.09375 431.042969 724.378906 C 431.511719 724.667969 431.949219 724.992188 432.359375 725.355469 C 432.769531 725.714844 433.148438 726.113281 433.488281 726.542969 C 434.089844 727.394531 434.488281 728.332031 434.683594 729.359375 C 434.878906 730.382812 434.855469 731.402344 434.609375 732.417969 C 434.445312 733.429688 434.078125 734.363281 433.515625 735.21875 C 432.949219 736.074219 432.234375 736.773438 431.367188 737.324219 C 430.40625 737.898438 429.371094 738.265625 428.257812 738.425781 C 427.148438 738.582031 426.050781 738.519531 424.964844 738.234375 Z M 424.964844 738.234375 " fill-opacity="1" fill-rule="nonzero"/><path fill="#ffffff" d="M 466.910156 656.191406 C 471.78125 662.125 473.03125 669.609375 471.882812 677.058594 C 470.320312 687.984375 463.652344 694.199219 454.664062 699.726562 C 452.570312 700.976562 450.480469 702.230469 448.371094 703.457031 C 451.878906 701.046875 455.535156 698.832031 458.898438 696.222656 C 464.335938 692.0625 468.558594 687.1875 470.398438 680.472656 C 471.394531 676.804688 471.785156 673.074219 471.5625 669.28125 C 471.414062 666.925781 470.945312 664.636719 470.15625 662.410156 C 469.363281 660.1875 468.285156 658.113281 466.910156 656.191406 Z M 466.910156 656.191406 " fill-opacity="1" fill-rule="nonzero"/><path fill="#ffffff" d="M 420.480469 647.199219 C 427.667969 642.316406 437.117188 641.953125 445.300781 644.210938 C 436.878906 643.066406 428.207031 643.316406 420.480469 647.199219 Z M 420.480469 647.199219 " fill-opacity="1" fill-rule="nonzero"/><path fill="#ffffff" d="M 432.339844 669.191406 C 432.066406 669.910156 431.683594 670.5625 431.191406 671.15625 C 430.699219 671.746094 430.128906 672.242188 429.472656 672.644531 C 428.816406 673.046875 428.113281 673.328125 427.363281 673.496094 C 426.613281 673.664062 425.855469 673.707031 425.089844 673.625 C 424.660156 673.574219 424.234375 673.503906 423.8125 673.410156 C 420.515625 672.734375 417.230469 672 414 671.03125 C 417.5625 671.414062 421.078125 672.058594 424.582031 672.773438 C 424.777344 672.808594 424.972656 672.839844 425.171875 672.863281 C 425.882812 672.9375 426.589844 672.910156 427.292969 672.78125 C 427.996094 672.648438 428.664062 672.421875 429.300781 672.097656 C 429.9375 671.769531 430.515625 671.359375 431.03125 670.863281 C 431.550781 670.371094 431.984375 669.8125 432.339844 669.191406 Z M 432.339844 669.191406 " fill-opacity="1" fill-rule="nonzero"/><path fill="#ffffff" d="M 464.683594 657.890625 C 460.53125 652.449219 453.886719 648.804688 444.746094 646.957031 C 435.691406 645.128906 428.074219 646.015625 421.894531 649.621094 C 419.414062 651.078125 417.265625 652.925781 415.453125 655.160156 C 413.636719 657.394531 412.269531 659.875 411.351562 662.601562 C 411.246094 662.894531 411.171875 663.195312 411.132812 663.5 C 411.09375 663.808594 411.085938 664.113281 411.109375 664.421875 C 411.136719 664.730469 411.195312 665.035156 411.285156 665.328125 C 411.378906 665.625 411.5 665.910156 411.652344 666.179688 C 411.804688 666.449219 411.984375 666.699219 412.1875 666.929688 C 412.394531 667.160156 412.625 667.367188 412.875 667.546875 C 413.125 667.730469 413.390625 667.882812 413.675781 668.007812 C 413.960938 668.128906 414.253906 668.222656 414.558594 668.285156 L 425.007812 670.394531 C 425.484375 670.496094 425.960938 670.511719 426.441406 670.453125 C 426.921875 670.390625 427.378906 670.253906 427.8125 670.039062 C 428.246094 669.820312 428.632812 669.542969 428.972656 669.195312 C 429.3125 668.851562 429.585938 668.457031 429.792969 668.019531 C 430.027344 667.46875 430.308594 666.9375 430.640625 666.433594 C 430.96875 665.929688 431.339844 665.460938 431.753906 665.023438 C 432.167969 664.585938 432.617188 664.191406 433.105469 663.835938 C 433.589844 663.476562 434.101562 663.167969 434.644531 662.902344 C 435.183594 662.640625 435.746094 662.425781 436.324219 662.261719 C 436.902344 662.097656 437.492188 661.984375 438.089844 661.929688 C 438.691406 661.871094 439.289062 661.863281 439.890625 661.914062 C 440.488281 661.964844 441.082031 662.066406 441.664062 662.222656 C 448.386719 663.578125 451.015625 667.90625 449.539062 675.207031 C 449.035156 677.6875 447.925781 679.855469 446.207031 681.714844 C 443.363281 684.464844 440.195312 686.769531 436.699219 688.625 C 432.617188 690.828125 429.21875 693.8125 426.511719 697.582031 C 424.660156 700.539062 423.3125 703.710938 422.460938 707.09375 C 422.382812 707.378906 422.332031 707.667969 422.316406 707.960938 C 422.296875 708.257812 422.308594 708.550781 422.351562 708.84375 C 422.390625 709.136719 422.464844 709.421875 422.5625 709.699219 C 422.664062 709.976562 422.792969 710.242188 422.945312 710.492188 C 423.101562 710.746094 423.28125 710.976562 423.484375 711.191406 C 423.6875 711.40625 423.910156 711.597656 424.152344 711.769531 C 424.394531 711.9375 424.652344 712.078125 424.921875 712.195312 C 425.195312 712.3125 425.476562 712.398438 425.765625 712.457031 L 433.996094 714.117188 C 434.53125 714.226562 435.070312 714.234375 435.609375 714.136719 C 436.148438 714.039062 436.648438 713.847656 437.113281 713.5625 C 437.578125 713.273438 437.976562 712.910156 438.304688 712.472656 C 438.632812 712.03125 438.867188 711.550781 439.007812 711.019531 C 439.679688 708.945312 440.691406 707.054688 442.042969 705.34375 C 443.398438 703.636719 445.007812 702.214844 446.871094 701.089844 L 453.117188 697.160156 C 457.210938 694.714844 460.808594 691.679688 463.910156 688.054688 C 466.21875 685.121094 467.738281 681.824219 468.464844 678.160156 C 470.09375 670.089844 468.832031 663.335938 464.683594 657.890625 Z M 464.683594 657.890625 " fill-opacity="1" fill-rule="nonzero"/><path fill="#247670" d="M 426.238281 710.117188 C 425.6875 710.007812 425.265625 709.714844 424.972656 709.234375 C 424.683594 708.765625 424.609375 708.261719 424.757812 707.730469 C 425.546875 704.59375 426.792969 701.652344 428.496094 698.90625 C 431.007812 695.449219 434.140625 692.707031 437.902344 690.683594 C 441.617188 688.714844 444.972656 686.257812 447.976562 683.316406 C 449.988281 681.132812 451.285156 678.585938 451.878906 675.679688 C 453.609375 667.109375 450.148438 661.5 442.132812 659.882812 C 441.421875 659.699219 440.699219 659.582031 439.964844 659.527344 C 439.230469 659.476562 438.5 659.488281 437.769531 659.5625 C 437.035156 659.640625 436.316406 659.78125 435.609375 659.984375 C 434.902344 660.1875 434.21875 660.453125 433.5625 660.777344 C 432.902344 661.101562 432.273438 661.480469 431.683594 661.917969 C 431.089844 662.351562 430.539062 662.835938 430.035156 663.371094 C 429.527344 663.902344 429.070312 664.476562 428.667969 665.089844 C 428.261719 665.703125 427.914062 666.347656 427.621094 667.023438 C 427.425781 667.421875 427.128906 667.714844 426.730469 667.910156 C 426.332031 668.101562 425.914062 668.148438 425.480469 668.054688 L 415.027344 665.945312 C 414.445312 665.828125 414.011719 665.511719 413.722656 664.992188 C 413.433594 664.488281 413.390625 663.964844 413.59375 663.421875 C 414.484375 660.90625 415.761719 658.605469 417.421875 656.519531 C 419.019531 654.5625 420.910156 652.949219 423.09375 651.683594 C 426.023438 650.003906 429.164062 648.984375 432.515625 648.625 C 436.472656 648.230469 440.390625 648.453125 444.273438 649.296875 C 448.1875 650.027344 451.910156 651.316406 455.4375 653.167969 C 458.324219 654.703125 460.773438 656.761719 462.785156 659.339844 C 464.640625 661.761719 465.84375 664.476562 466.394531 667.480469 C 466.964844 670.898438 466.875 674.300781 466.125 677.6875 C 465.46875 680.980469 464.105469 683.945312 462.03125 686.582031 C 459.09375 689.988281 455.695312 692.84375 451.835938 695.148438 L 445.589844 699.074219 C 443.492188 700.351562 441.679688 701.957031 440.15625 703.886719 C 438.632812 705.816406 437.492188 707.953125 436.738281 710.289062 L 436.71875 710.34375 L 436.707031 710.398438 C 436.640625 710.632812 436.535156 710.847656 436.390625 711.042969 C 436.242188 711.238281 436.066406 711.402344 435.859375 711.527344 C 435.652344 711.65625 435.425781 711.742188 435.1875 711.785156 C 434.945312 711.828125 434.707031 711.828125 434.46875 711.777344 Z M 426.238281 710.117188 " fill-opacity="1" fill-rule="nonzero"/></svg>