<svg xmlns="http://www.w3.org/2000/svg" xmlns:xlink="http://www.w3.org/1999/xlink" width="1080" zoomAndPan="magnify" viewBox="0 0 810 809.999993" height="1080" preserveAspectRatio="xMidYMid meet" version="1.0"><defs><clipPath id="5abae14fe4"><path d="M 0 70.199219 L 104 70.199219 L 104 96 L 0 96 Z M 0 70.199219 " clip-rule="nonzero"/></clipPath><clipPath id="ceb7cc88b4"><path d="M 0 714 L 810 714 L 810 739.949219 L 0 739.949219 Z M 0 714 " clip-rule="nonzero"/></clipPath></defs><rect x="-81" width="972" fill="#ffffff" y="-80.999999" height="971.999992" fill-opacity="1"/><rect x="-81" width="972" fill="#ffffff" y="-80.999999" height="971.999992" fill-opacity="1"/><path fill="#0766ad" d="M 470.316406 532.34375 C 479.15625 531.210938 483.300781 525.066406 485.972656 517.511719 C 487.339844 513.636719 488.707031 509.765625 490.074219 505.894531 C 493.085938 497.394531 496.09375 488.890625 499.019531 480.371094 C 501.734375 472.667969 504.363281 464.964844 506.953125 457.222656 C 508.339844 453.015625 510.402344 450.636719 514.296875 448.828125 C 532.941406 440.050781 551.519531 431.128906 570.015625 421.996094 C 570.058594 421.976562 570.101562 421.953125 570.144531 421.933594 C 575.972656 419.09375 582.496094 424.289062 581.128906 430.644531 C 578.414062 443.1875 575.636719 456.171875 572.691406 469.132812 C 570.394531 479.234375 571.449219 488.808594 575.363281 498.339844 C 580.894531 511.828125 586.242188 525.378906 591.628906 538.933594 C 593.375 543.289062 595.121094 547.664062 596.867188 552 C 598.425781 555.808594 600.191406 559.511719 602.402344 562.984375 C 603.222656 564.289062 604.128906 565.550781 605.09375 566.769531 C 612.691406 576.21875 621.71875 579.019531 630.285156 574.472656 C 638.027344 570.371094 640.363281 561.109375 635.902344 549.8125 C 629.546875 533.753906 623.003906 517.761719 616.183594 501.898438 C 614.101562 497.035156 613.914062 492.59375 614.964844 487.480469 C 621.402344 456.484375 628.640625 425.617188 633.378906 394.367188 C 636.742188 372.125 632.726562 349.398438 632.894531 326.882812 C 632.914062 321.433594 631.925781 318.570312 634.429688 308.957031 C 647.265625 326.0625 666.457031 337.59375 666.792969 361.960938 C 666.941406 373.453125 669.507812 384.960938 671.378906 396.410156 C 673.105469 406.992188 678.894531 411.328125 688.445312 409.980469 C 697.324219 408.738281 702.4375 402.007812 701.324219 392.09375 C 699.199219 373.324219 696.820312 354.617188 694.316406 335.910156 C 693.328125 328.503906 690.023438 322.296875 684.722656 316.71875 C 670.769531 302.03125 657.007812 287.113281 643.75 271.816406 C 638.320312 265.523438 631.945312 261.96875 624.726562 260.578125 C 622.097656 260.074219 619.339844 259.839844 616.5 259.882812 C 615.449219 259.882812 614.4375 259.90625 613.40625 259.925781 C 603.414062 265.882812 591.734375 267.816406 580.285156 265.3125 L 579.929688 265.230469 C 576.898438 264.535156 573.972656 263.546875 571.132812 262.242188 C 568.417969 263.039062 565.933594 264.21875 563.621094 265.859375 C 561.199219 267.628906 558.992188 269.898438 556.972656 272.761719 C 545.566406 289.027344 533.214844 304.597656 521.472656 320.632812 C 518.484375 324.695312 515.707031 326.800781 510.128906 326.527344 C 509.8125 326.503906 466.65625 325.515625 466.65625 325.515625 C 458.449219 325.515625 451.777344 332.1875 451.777344 340.414062 C 451.777344 344.539062 453.441406 348.242188 456.132812 350.9375 C 458.847656 353.628906 462.550781 355.292969 466.65625 355.292969 C 466.65625 355.292969 516.988281 354.871094 520.882812 354.808594 C 529.027344 354.679688 535.464844 352.007812 540.367188 344.960938 C 546.21875 336.585938 552.972656 328.863281 561.011719 318.761719 C 561.558594 337.003906 561.957031 353.144531 562.546875 369.285156 C 562.714844 373.957031 558.90625 374.378906 556.148438 375.765625 C 537.527344 385.363281 518.988281 395.230469 500.070312 404.257812 C 489.023438 409.519531 482.585938 418.105469 478.691406 429.109375 C 472.609375 446.175781 466.550781 463.261719 460.53125 480.371094 C 457.691406 488.34375 454.890625 496.339844 452.074219 504.335938 C 451.882812 504.863281 451.714844 505.390625 451.589844 505.894531 C 446.476562 522.476562 454.765625 534.324219 470.316406 532.34375 " fill-opacity="1" fill-rule="nonzero"/><path fill="#0766ad" d="M 582.304688 250.394531 C 595.585938 253.402344 608.671875 248.457031 616.921875 238.609375 C 620.625 234.210938 623.320312 228.84375 624.664062 222.742188 C 628.917969 203.339844 616.796875 184.804688 597.078125 180.53125 C 578.222656 176.449219 559.558594 188.378906 555.160156 207.339844 C 552.257812 219.921875 556.929688 233.03125 566.019531 241.597656 C 570.5 245.847656 576.054688 248.984375 582.304688 250.394531 " fill-opacity="1" fill-rule="nonzero"/><g clip-path="url(#5abae14fe4)"><path fill="#1e2f3d" d="M 3.796875 95.875 L 100.238281 95.875 C 101.792969 95.875 103.058594 94.613281 103.058594 93.058594 L 103.058594 73.171875 C 103.058594 71.613281 101.792969 70.351562 100.238281 70.351562 L 3.796875 70.351562 C 2.242188 70.351562 0.980469 71.613281 0.980469 73.171875 L 0.980469 93.058594 C 0.980469 94.613281 2.242188 95.875 3.796875 95.875 " fill-opacity="1" fill-rule="nonzero"/></g><path fill="#1e2f3d" d="M 3.796875 154.4375 L 136.390625 154.4375 C 137.925781 154.4375 139.1875 153.175781 139.1875 151.617188 L 139.1875 131.753906 C 139.1875 130.195312 137.925781 128.933594 136.390625 128.933594 L 3.796875 128.933594 C 2.242188 128.933594 0.980469 130.195312 0.980469 131.753906 L 0.980469 151.617188 C 0.980469 153.175781 2.242188 154.4375 3.796875 154.4375 " fill-opacity="1" fill-rule="nonzero"/><path fill="#1e2f3d" d="M 3.796875 213.019531 L 185.292969 213.019531 C 186.851562 213.019531 188.113281 211.757812 188.113281 210.203125 L 188.113281 190.316406 C 188.113281 188.757812 186.851562 187.496094 185.292969 187.496094 L 3.796875 187.496094 C 2.242188 187.496094 0.980469 188.757812 0.980469 190.316406 L 0.980469 210.203125 C 0.980469 211.757812 2.242188 213.019531 3.796875 213.019531 " fill-opacity="1" fill-rule="nonzero"/><path fill="#1e2f3d" d="M 3.796875 271.605469 L 232.070312 271.605469 C 233.628906 271.605469 234.890625 270.34375 234.890625 268.785156 L 234.890625 248.898438 C 234.890625 247.34375 233.628906 246.078125 232.070312 246.078125 L 3.796875 246.078125 C 2.242188 246.078125 0.980469 247.34375 0.980469 248.898438 L 0.980469 268.785156 C 0.980469 270.34375 2.242188 271.605469 3.796875 271.605469 " fill-opacity="1" fill-rule="nonzero"/><path fill="#1e2f3d" d="M 3.796875 330.167969 L 285.222656 330.167969 C 286.78125 330.167969 288.042969 328.902344 288.042969 327.347656 L 288.042969 307.460938 C 288.042969 305.902344 286.78125 304.640625 285.222656 304.640625 L 3.796875 304.640625 C 2.242188 304.640625 0.980469 305.902344 0.980469 307.460938 L 0.980469 327.347656 C 0.980469 328.902344 2.242188 330.167969 3.796875 330.167969 " fill-opacity="1" fill-rule="nonzero"/><path fill="#1e2f3d" d="M 3.796875 388.75 L 353.277344 388.75 C 354.835938 388.75 356.097656 387.488281 356.097656 385.929688 L 356.097656 366.042969 C 356.097656 364.488281 354.835938 363.226562 353.277344 363.226562 L 3.796875 363.226562 C 2.242188 363.226562 0.980469 364.488281 0.980469 366.042969 L 0.980469 385.929688 C 0.980469 387.488281 2.242188 388.75 3.796875 388.75 " fill-opacity="1" fill-rule="nonzero"/><path fill="#1e2f3d" d="M 3.796875 447.3125 L 444.707031 447.3125 C 446.265625 447.3125 447.527344 446.050781 447.527344 444.492188 L 447.527344 424.605469 C 447.527344 423.050781 446.265625 421.785156 444.707031 421.785156 L 3.796875 421.785156 C 2.242188 421.785156 0.980469 423.050781 0.980469 424.605469 L 0.980469 444.492188 C 0.980469 446.050781 2.242188 447.3125 3.796875 447.3125 " fill-opacity="1" fill-rule="nonzero"/><path fill="#1e2f3d" d="M 3.777344 505.894531 L 429.703125 505.894531 C 430.25 503.054688 430.988281 500.171875 431.996094 497.308594 C 433.953125 491.691406 435.953125 486.050781 437.953125 480.371094 L 3.777344 480.371094 C 2.242188 480.371094 0.980469 481.632812 0.980469 483.191406 L 0.980469 503.054688 C 0.980469 504.632812 2.242188 505.894531 3.777344 505.894531 " fill-opacity="1" fill-rule="nonzero"/><path fill="#1e2f3d" d="M 3.777344 564.457031 L 579.085938 564.457031 C 578.433594 563.003906 577.78125 561.511719 577.152344 559.972656 C 574.332031 552.96875 571.53125 545.960938 568.753906 538.933594 L 498.449219 538.933594 C 490.769531 548.925781 480.921875 552.441406 473.03125 553.429688 C 470.988281 553.703125 468.992188 553.828125 467.035156 553.828125 C 454.410156 553.828125 443.214844 548.421875 436.289062 538.933594 L 3.777344 538.933594 C 2.242188 538.933594 0.980469 540.214844 0.980469 541.773438 L 0.980469 561.636719 C 0.980469 563.195312 2.242188 564.457031 3.777344 564.457031 " fill-opacity="1" fill-rule="nonzero"/><path fill="#1e2f3d" d="M 3.777344 623.039062 L 655.242188 623.039062 C 656.796875 623.039062 658.039062 621.777344 658.039062 620.21875 L 658.039062 600.335938 C 658.039062 598.777344 656.796875 597.515625 655.242188 597.515625 L 3.777344 597.515625 C 2.242188 597.515625 0.980469 598.777344 0.980469 600.335938 L 0.980469 620.21875 C 0.980469 621.777344 2.242188 623.039062 3.777344 623.039062 " fill-opacity="1" fill-rule="nonzero"/><path fill="#1e2f3d" d="M 3.796875 681.601562 L 714.769531 681.601562 C 716.328125 681.601562 717.589844 680.339844 717.589844 678.78125 L 717.589844 658.898438 C 717.589844 657.339844 716.328125 656.097656 714.769531 656.097656 L 3.796875 656.097656 C 2.242188 656.097656 0.980469 657.339844 0.980469 658.898438 L 0.980469 678.78125 C 0.980469 680.339844 2.242188 681.601562 3.796875 681.601562 " fill-opacity="1" fill-rule="nonzero"/><g clip-path="url(#ceb7cc88b4)"><path fill="#1e2f3d" d="M 806.203125 714.660156 L 3.796875 714.660156 C 2.242188 714.660156 0.980469 715.921875 0.980469 717.480469 L 0.980469 737.363281 C 0.980469 738.921875 2.242188 740.183594 3.796875 740.183594 L 806.203125 740.183594 C 807.757812 740.183594 809.019531 738.921875 809.019531 737.363281 L 809.019531 717.480469 C 809.019531 715.921875 807.757812 714.660156 806.203125 714.660156 " fill-opacity="1" fill-rule="nonzero"/></g></svg>