<svg xmlns="http://www.w3.org/2000/svg" xmlns:xlink="http://www.w3.org/1999/xlink" width="1080" zoomAndPan="magnify" viewBox="0 0 810 809.999993" height="1080" preserveAspectRatio="xMidYMid meet" version="1.0"><defs><clipPath id="06f28b63f6"><path d="M 0 775 L 810 775 L 810 800.609375 L 0 800.609375 Z M 0 775 " clip-rule="nonzero"/></clipPath></defs><path fill="#0766ad" d="M 470.316406 593.003906 C 479.15625 591.867188 483.300781 585.722656 485.972656 578.171875 C 487.339844 574.296875 488.707031 570.425781 490.074219 566.554688 C 493.085938 558.054688 496.09375 549.550781 499.019531 541.03125 C 501.734375 533.328125 504.363281 525.625 506.953125 517.882812 C 508.339844 513.675781 510.402344 511.296875 514.296875 509.488281 C 532.941406 500.710938 551.519531 491.789062 570.015625 482.65625 C 570.058594 482.636719 570.101562 482.613281 570.144531 482.59375 C 575.972656 479.753906 582.496094 484.949219 581.128906 491.304688 C 578.414062 503.847656 575.636719 516.832031 572.691406 529.792969 C 570.394531 539.894531 571.449219 549.46875 575.363281 559 C 580.894531 572.488281 586.242188 586.039062 591.628906 599.589844 C 593.375 603.949219 595.121094 608.324219 596.867188 612.660156 C 598.425781 616.46875 600.191406 620.171875 602.402344 623.644531 C 603.222656 624.949219 604.128906 626.210938 605.09375 627.429688 C 612.691406 636.878906 621.71875 639.679688 630.285156 635.132812 C 638.027344 631.03125 640.363281 621.769531 635.902344 610.472656 C 629.546875 594.414062 623.003906 578.421875 616.183594 562.554688 C 614.101562 557.695312 613.914062 553.253906 614.964844 548.140625 C 621.402344 517.144531 628.640625 486.277344 633.378906 455.027344 C 636.742188 432.785156 632.726562 410.058594 632.894531 387.542969 C 632.914062 382.09375 631.925781 379.230469 634.429688 369.617188 C 647.265625 386.722656 666.457031 398.253906 666.792969 422.621094 C 666.941406 434.109375 669.507812 445.621094 671.378906 457.070312 C 673.105469 467.652344 678.894531 471.988281 688.445312 470.640625 C 697.324219 469.398438 702.4375 462.667969 701.324219 452.753906 C 699.199219 433.984375 696.820312 415.277344 694.316406 396.570312 C 693.328125 389.164062 690.023438 382.957031 684.722656 377.378906 C 670.769531 362.691406 657.007812 347.773438 643.75 332.476562 C 638.320312 326.183594 631.945312 322.625 624.726562 321.238281 C 622.097656 320.734375 619.339844 320.5 616.5 320.542969 C 615.449219 320.542969 614.4375 320.566406 613.40625 320.585938 C 603.414062 326.539062 591.734375 328.476562 580.285156 325.972656 L 579.929688 325.886719 C 576.898438 325.195312 573.972656 324.203125 571.132812 322.898438 C 568.417969 323.699219 565.933594 324.878906 563.621094 326.519531 C 561.199219 328.289062 558.992188 330.558594 556.972656 333.421875 C 545.566406 349.6875 533.214844 365.257812 521.472656 381.292969 C 518.484375 385.355469 515.707031 387.460938 510.128906 387.1875 C 509.8125 387.164062 466.65625 386.175781 466.65625 386.175781 C 458.449219 386.175781 451.777344 392.847656 451.777344 401.074219 C 451.777344 405.199219 453.441406 408.902344 456.132812 411.59375 C 458.847656 414.289062 462.550781 415.953125 466.65625 415.953125 C 466.65625 415.953125 516.988281 415.53125 520.882812 415.46875 C 529.027344 415.339844 535.464844 412.667969 540.367188 405.621094 C 546.21875 397.246094 552.972656 389.523438 561.011719 379.421875 C 561.558594 397.664062 561.957031 413.804688 562.546875 429.945312 C 562.714844 434.617188 558.90625 435.039062 556.148438 436.425781 C 537.527344 446.023438 518.988281 455.890625 500.070312 464.917969 C 489.023438 470.179688 482.585938 478.765625 478.691406 489.769531 C 472.609375 506.835938 466.550781 523.921875 460.53125 541.03125 C 457.691406 549.003906 454.890625 557 452.074219 564.996094 C 451.882812 565.523438 451.714844 566.050781 451.589844 566.554688 C 446.476562 583.136719 454.765625 594.984375 470.316406 593.003906 " fill-opacity="1" fill-rule="nonzero"/><path fill="#0766ad" d="M 582.304688 311.054688 C 595.585938 314.0625 608.671875 309.117188 616.921875 299.269531 C 620.625 294.871094 623.320312 289.503906 624.664062 283.402344 C 628.917969 264 616.796875 245.464844 597.078125 241.191406 C 578.222656 237.109375 559.558594 249.039062 555.160156 268 C 552.257812 280.582031 556.929688 293.691406 566.019531 302.257812 C 570.5 306.507812 576.054688 309.644531 582.304688 311.054688 " fill-opacity="1" fill-rule="nonzero"/><path fill="#1e2f3d" d="M 3.796875 156.535156 L 100.238281 156.535156 C 101.792969 156.535156 103.058594 155.273438 103.058594 153.714844 L 103.058594 133.832031 C 103.058594 132.273438 101.792969 131.011719 100.238281 131.011719 L 3.796875 131.011719 C 2.242188 131.011719 0.980469 132.273438 0.980469 133.832031 L 0.980469 153.714844 C 0.980469 155.273438 2.242188 156.535156 3.796875 156.535156 " fill-opacity="1" fill-rule="nonzero"/><path fill="#1e2f3d" d="M 3.796875 215.097656 L 136.390625 215.097656 C 137.925781 215.097656 139.1875 213.835938 139.1875 212.277344 L 139.1875 192.414062 C 139.1875 190.855469 137.925781 189.59375 136.390625 189.59375 L 3.796875 189.59375 C 2.242188 189.59375 0.980469 190.855469 0.980469 192.414062 L 0.980469 212.277344 C 0.980469 213.835938 2.242188 215.097656 3.796875 215.097656 " fill-opacity="1" fill-rule="nonzero"/><path fill="#1e2f3d" d="M 3.796875 273.679688 L 185.292969 273.679688 C 186.851562 273.679688 188.113281 272.417969 188.113281 270.863281 L 188.113281 250.976562 C 188.113281 249.417969 186.851562 248.15625 185.292969 248.15625 L 3.796875 248.15625 C 2.242188 248.15625 0.980469 249.417969 0.980469 250.976562 L 0.980469 270.863281 C 0.980469 272.417969 2.242188 273.679688 3.796875 273.679688 " fill-opacity="1" fill-rule="nonzero"/><path fill="#1e2f3d" d="M 3.796875 332.265625 L 232.070312 332.265625 C 233.628906 332.265625 234.890625 331 234.890625 329.445312 L 234.890625 309.558594 C 234.890625 308.003906 233.628906 306.738281 232.070312 306.738281 L 3.796875 306.738281 C 2.242188 306.738281 0.980469 308.003906 0.980469 309.558594 L 0.980469 329.445312 C 0.980469 331 2.242188 332.265625 3.796875 332.265625 " fill-opacity="1" fill-rule="nonzero"/><path fill="#1e2f3d" d="M 3.796875 390.828125 L 285.222656 390.828125 C 286.78125 390.828125 288.042969 389.5625 288.042969 388.007812 L 288.042969 368.121094 C 288.042969 366.5625 286.78125 365.300781 285.222656 365.300781 L 3.796875 365.300781 C 2.242188 365.300781 0.980469 366.5625 0.980469 368.121094 L 0.980469 388.007812 C 0.980469 389.5625 2.242188 390.828125 3.796875 390.828125 " fill-opacity="1" fill-rule="nonzero"/><path fill="#1e2f3d" d="M 3.796875 449.410156 L 353.277344 449.410156 C 354.835938 449.410156 356.097656 448.148438 356.097656 446.589844 L 356.097656 426.703125 C 356.097656 425.148438 354.835938 423.882812 353.277344 423.882812 L 3.796875 423.882812 C 2.242188 423.882812 0.980469 425.148438 0.980469 426.703125 L 0.980469 446.589844 C 0.980469 448.148438 2.242188 449.410156 3.796875 449.410156 " fill-opacity="1" fill-rule="nonzero"/><path fill="#1e2f3d" d="M 3.796875 507.972656 L 444.707031 507.972656 C 446.265625 507.972656 447.527344 506.707031 447.527344 505.152344 L 447.527344 485.265625 C 447.527344 483.710938 446.265625 482.445312 444.707031 482.445312 L 3.796875 482.445312 C 2.242188 482.445312 0.980469 483.710938 0.980469 485.265625 L 0.980469 505.152344 C 0.980469 506.707031 2.242188 507.972656 3.796875 507.972656 " fill-opacity="1" fill-rule="nonzero"/><path fill="#1e2f3d" d="M 3.777344 566.554688 L 429.703125 566.554688 C 430.25 563.714844 430.988281 560.832031 431.996094 557.96875 C 433.953125 552.351562 435.953125 546.710938 437.953125 541.03125 L 3.777344 541.03125 C 2.242188 541.03125 0.980469 542.292969 0.980469 543.847656 L 0.980469 563.714844 C 0.980469 565.292969 2.242188 566.554688 3.777344 566.554688 " fill-opacity="1" fill-rule="nonzero"/><path fill="#1e2f3d" d="M 3.777344 625.117188 L 579.085938 625.117188 C 578.433594 623.664062 577.78125 622.171875 577.152344 620.632812 C 574.332031 613.628906 571.53125 606.621094 568.753906 599.589844 L 498.449219 599.589844 C 490.769531 609.585938 480.921875 613.101562 473.03125 614.089844 C 470.988281 614.363281 468.992188 614.488281 467.035156 614.488281 C 454.410156 614.488281 443.214844 609.082031 436.289062 599.589844 L 3.777344 599.589844 C 2.242188 599.589844 0.980469 600.875 0.980469 602.433594 L 0.980469 622.296875 C 0.980469 623.855469 2.242188 625.117188 3.777344 625.117188 " fill-opacity="1" fill-rule="nonzero"/><path fill="#1e2f3d" d="M 3.777344 683.699219 L 655.242188 683.699219 C 656.796875 683.699219 658.039062 682.4375 658.039062 680.878906 L 658.039062 660.996094 C 658.039062 659.4375 656.796875 658.175781 655.242188 658.175781 L 3.777344 658.175781 C 2.242188 658.175781 0.980469 659.4375 0.980469 660.996094 L 0.980469 680.878906 C 0.980469 682.4375 2.242188 683.699219 3.777344 683.699219 " fill-opacity="1" fill-rule="nonzero"/><path fill="#1e2f3d" d="M 3.796875 742.261719 L 714.769531 742.261719 C 716.328125 742.261719 717.589844 741 717.589844 739.441406 L 717.589844 719.554688 C 717.589844 718 716.328125 716.757812 714.769531 716.757812 L 3.796875 716.757812 C 2.242188 716.757812 0.980469 718 0.980469 719.554688 L 0.980469 739.441406 C 0.980469 741 2.242188 742.261719 3.796875 742.261719 " fill-opacity="1" fill-rule="nonzero"/><g clip-path="url(#06f28b63f6)"><path fill="#1e2f3d" d="M 806.203125 775.320312 L 3.796875 775.320312 C 2.242188 775.320312 0.980469 776.582031 0.980469 778.140625 L 0.980469 798.023438 C 0.980469 799.582031 2.242188 800.84375 3.796875 800.84375 L 806.203125 800.84375 C 807.757812 800.84375 809.019531 799.582031 809.019531 798.023438 L 809.019531 778.140625 C 809.019531 776.582031 807.757812 775.320312 806.203125 775.320312 " fill-opacity="1" fill-rule="nonzero"/></g></svg>