<svg xmlns="http://www.w3.org/2000/svg" xmlns:xlink="http://www.w3.org/1999/xlink" width="1080" zoomAndPan="magnify" viewBox="0 0 810 809.999993" height="1080" preserveAspectRatio="xMidYMid meet" version="1.0"><defs><clipPath id="1d4214f63f"><path d="M 115.414062 659 L 694.414062 659 L 694.414062 711.996094 L 115.414062 711.996094 Z M 115.414062 659 " clip-rule="nonzero"/></clipPath></defs><path fill="#4c342d" d="M 313.90625 419.472656 L 311.574219 419.472656 L 306.132812 432.960938 C 321.683594 449.195312 347.117188 442.324219 347.117188 442.324219 L 352.441406 429.589844 L 350.332031 426.183594 L 349.125 429.226562 C 329.253906 431.4375 312.636719 422.777344 312.636719 422.777344 Z M 530.164062 350.113281 C 541.890625 385.472656 574.285156 452.261719 574.285156 452.261719 C 574.285156 452.261719 547.828125 362.867188 534.171875 339.171875 C 520.519531 315.480469 482.65625 312.222656 475.726562 313.492188 C 478.957031 313.257812 518.441406 314.753906 530.164062 350.113281 Z M 452.53125 172.894531 C 483.632812 257.777344 475.265625 313.257812 475.265625 313.257812 C 466.621094 315.851562 462.777344 319.640625 452.894531 331.5 C 443.003906 343.363281 428.738281 352.496094 428.738281 352.496094 L 312.566406 405.773438 C 284.296875 405.382812 274.609375 354.277344 274.609375 354.277344 C 271.148438 375.035156 290.914062 400.730469 290.914062 400.730469 C 277.574219 403.203125 254.839844 383.929688 254.839844 383.929688 C 240.011719 370.585938 234.578125 341.921875 234.578125 341.921875 C 230.621094 350.816406 235.566406 367.617188 235.566406 367.617188 C 206.40625 321.164062 227.164062 256.417969 239.523438 240.109375 C 251.875 223.800781 262.253906 184.261719 272.136719 155.597656 C 282.019531 126.933594 304.757812 105.683594 356.546875 101.726562 C 408.34375 97.777344 420.40625 127.429688 420.40625 127.429688 C 435.722656 129.894531 444.785156 151.761719 452.53125 172.894531 " fill-opacity="1" fill-rule="nonzero"/><g clip-path="url(#1d4214f63f)"><path fill="#247670" d="M 564.039062 660.5 C 576.550781 660.5 639.714844 660.5 649.839844 665 C 659.96875 669.492188 700.488281 704.914062 693.929688 710.082031 C 687.378906 715.246094 646.863281 709.089844 618.855469 709.96875 C 590.855469 710.855469 520.542969 706.109375 502.128906 707.300781 C 483.714844 708.488281 133.792969 712.660156 119.488281 707.300781 C 105.1875 701.9375 132 688.828125 146.304688 679.269531 C 160.605469 669.714844 165.738281 663.117188 174.902344 660.5 C 182.386719 658.359375 551.527344 660.5 564.039062 660.5 " fill-opacity="1" fill-rule="nonzero"/></g><path fill="#fefded" d="M 347.117188 442.324219 C 347.117188 442.324219 321.683594 449.195312 306.132812 432.960938 L 311.574219 419.472656 L 313.90625 419.472656 L 312.636719 422.777344 C 312.636719 422.777344 329.253906 431.4375 349.125 429.226562 L 350.332031 426.183594 L 352.441406 429.589844 Z M 574.753906 451.363281 C 574.738281 451.339844 541.902344 384.789062 529.949219 349.511719 C 517.992188 314.234375 478.5 313 475.265625 313.25 C 474.289062 313.546875 473.386719 313.859375 472.523438 314.1875 C 471.980469 314.40625 471.371094 314.664062 470.707031 314.949219 C 464.910156 317.621094 460.863281 321.9375 452.894531 331.5 C 443.003906 343.363281 428.738281 352.496094 428.738281 352.496094 L 312.566406 405.773438 C 284.296875 405.382812 274.609375 354.277344 274.609375 354.277344 C 271.148438 375.035156 290.914062 400.730469 290.914062 400.730469 C 285.949219 401.652344 279.675781 399.554688 273.761719 396.558594 C 273.761719 396.558594 240.324219 394.957031 238.597656 431.796875 C 236.867188 468.632812 236.882812 488.625 233.914062 502.277344 C 230.941406 515.929688 276.011719 572.820312 286.945312 573.398438 C 297.882812 573.96875 315.480469 544.398438 315.480469 544.398438 C 315.480469 544.398438 312.273438 564.1875 318.605469 571.09375 C 324.9375 578 339.332031 587.785156 343.359375 605.625 C 347.386719 623.472656 343.558594 660.5 343.558594 660.5 C 343.558594 660.5 571.296875 632.105469 574.753906 628.65625 C 578.207031 625.199219 574.753906 451.363281 574.753906 451.363281 " fill-opacity="1" fill-rule="nonzero"/><path fill="#f0bbb0" d="M 631.738281 614.261719 C 627.707031 583.757812 574.753906 451.363281 574.753906 451.363281 C 543.667969 451.941406 505.679688 495.6875 505.679688 495.6875 C 521.792969 520.4375 555.285156 616.339844 555.285156 616.339844 C 540.886719 607.285156 508.957031 616.421875 465.210938 620.449219 C 421.464844 624.480469 380.769531 619.445312 370.988281 620.597656 C 361.199219 621.746094 322.632812 660.3125 322.632812 660.3125 C 322.632812 660.3125 373.289062 660.886719 376.164062 660.3125 C 379.046875 659.734375 434.300781 661.460938 483.234375 674.128906 C 532.160156 686.792969 615.042969 680.460938 624.253906 674.128906 C 633.460938 667.792969 635.765625 644.769531 631.738281 614.261719 " fill-opacity="1" fill-rule="nonzero"/><path fill="#f0bbb0" d="M 343.65625 443.023438 C 336.421875 444.203125 319.375 445.449219 307.355469 434.164062 C 292.15625 464.828125 258.878906 521.269531 258.878906 521.269531 C 258.878906 521.269531 254.25 508.316406 233.914062 502.277344 C 232.382812 511.539062 220.34375 561.429688 211.121094 577.167969 C 201.894531 592.90625 197.007812 621.125 203.523438 642.289062 C 210.035156 663.453125 221.976562 677.023438 233.914062 679.195312 C 245.851562 681.359375 296.320312 638.492188 300.121094 615.15625 C 303.917969 591.820312 330.507812 476.226562 340.820312 450.179688 C 341.847656 447.59375 342.785156 445.21875 343.65625 443.023438 " fill-opacity="1" fill-rule="nonzero"/><path fill="#f0bbb0" d="M 312.101562 215.324219 C 312.101562 215.324219 314.980469 217.921875 305.246094 221.300781 C 304.964844 221.402344 310.710938 218.578125 312.101562 215.324219 Z M 349.828125 215.347656 C 350.347656 217.691406 351.574219 222.308594 353.382812 223.90625 C 353.382812 223.90625 351.859375 218.78125 351.394531 215.359375 C 359.011719 215.417969 374.6875 215.519531 378.574219 215.324219 C 383.761719 215.066406 393.742188 232.496094 393.742188 232.496094 C 393.742188 232.496094 385.4375 227.304688 381.285156 224.972656 C 377.140625 222.636719 360.589844 224.824219 355.402344 224.824219 C 350.214844 224.824219 347.195312 215.324219 347.195312 215.324219 C 347.195312 215.324219 348.199219 215.332031 349.828125 215.347656 Z M 314.769531 415.992188 C 314.738281 416.773438 314.425781 417.964844 313.90625 419.472656 C 313.574219 420.441406 313.148438 421.546875 312.636719 422.777344 C 312.640625 422.777344 329.253906 431.4375 349.125 429.226562 L 349.132812 429.203125 C 349.5625 428.121094 349.949219 427.148438 350.296875 426.265625 L 350.332031 426.183594 C 352.640625 420.355469 353.304688 418.707031 353.304688 418.707031 C 353.304688 418.707031 424.394531 417.074219 428.738281 352.496094 C 428.738281 352.496094 409.742188 347.070312 409.742188 330.246094 C 409.742188 313.421875 418.425781 283.035156 418.425781 283.035156 C 418.425781 283.035156 427.105469 286.289062 431.992188 273.269531 C 431.992188 273.269531 418.96875 264.039062 417.882812 252.101562 C 416.796875 240.160156 411.367188 189.691406 401.0625 183.722656 C 401.0625 183.722656 376.636719 173.957031 377.183594 156.589844 C 377.183594 156.589844 338.109375 160.933594 320.738281 147.90625 C 318.800781 146.449219 306.632812 162.015625 291.980469 167.984375 C 291.980469 167.984375 281.921875 188.507812 285.175781 210.21875 C 291.042969 208.886719 311.027344 215.324219 311.027344 215.324219 C 311.027344 215.324219 305.523438 221.429688 297.5 220.820312 C 287.242188 220.039062 283.074219 221.308594 283.070312 221.308594 C 282.277344 224.996094 282.488281 226.9375 284.800781 232.5625 L 282.980469 246.675781 C 282.980469 246.675781 278.414062 252.101562 277.871094 262.410156 C 277.324219 272.722656 275.160156 307.996094 277.871094 316.683594 C 280.585938 325.363281 315.3125 404.59375 314.769531 415.992188 " fill-opacity="1" fill-rule="nonzero"/><path fill="#e09794" d="M 555.285156 616.339844 C 555.285156 616.339844 569.050781 623.957031 574.140625 634.5625 C 574.140625 634.5625 570.328125 620.980469 553.78125 612.078125 Z M 200.546875 620.324219 C 200.679688 620.023438 208.21875 602.863281 216.988281 580.3125 C 225.835938 557.5625 258.878906 521.269531 258.878906 521.269531 C 258.878906 521.269531 254.25 508.316406 233.914062 502.277344 C 232.382812 511.539062 220.347656 561.429688 211.121094 577.167969 C 204.863281 587.839844 200.605469 604.257812 200.546875 620.324219 Z M 308.753906 340.074219 C 305.664062 334.472656 300.9375 321.957031 300.152344 320.78125 C 299.933594 320.457031 299.558594 319.585938 299.082031 318.417969 C 299.082031 318.40625 295.609375 302.582031 296.265625 299.613281 C 296.917969 296.644531 296.265625 271.222656 296.265625 271.222656 L 292.738281 302.667969 C 291.035156 296.496094 288.84375 284.792969 289.046875 272.074219 C 289.378906 250.917969 282.980469 246.675781 282.980469 246.675781 C 286.738281 255.878906 286.054688 272.929688 286.90625 287.453125 C 287.414062 296.085938 289.730469 303.191406 292.0625 308.71875 L 292.054688 308.726562 L 292.070312 308.746094 C 293.65625 312.507812 295.242188 315.542969 296.265625 317.789062 C 298.371094 322.429688 306.214844 335.785156 308.753906 340.074219 Z M 308.753906 340.074219 C 309.035156 340.585938 309.300781 341.042969 309.550781 341.425781 C 309.550781 341.425781 309.253906 340.925781 308.753906 340.074219 Z M 320.519531 414.917969 C 320.089844 418.34375 318.554688 421.402344 317.132812 424.726562 C 317.867188 425.015625 318.6875 425.316406 319.574219 425.621094 C 321.328125 420.710938 323.019531 416.164062 322.632812 413.542969 C 321.941406 408.792969 316.265625 384.445312 316.265625 384.445312 C 315.535156 386.578125 321.375 408.078125 320.519531 414.917969 Z M 314.121094 439.046875 C 312.679688 447.023438 306.132812 454.515625 306.132812 454.515625 C 306.132812 454.515625 313.535156 447.242188 315.730469 439.871094 C 315.191406 439.613281 314.65625 439.335938 314.121094 439.046875 Z M 428.738281 352.496094 C 424.394531 417.074219 353.304688 418.707031 353.304688 418.707031 C 353.304688 418.707031 360.347656 405.773438 356.546875 385.601562 C 354.890625 376.804688 343.257812 368.75 335.910156 355.535156 C 336.175781 356.117188 336.484375 356.714844 336.84375 357.316406 C 336.84375 357.316406 322.128906 338.722656 316.265625 321.207031 C 310.402344 303.6875 312.460938 266.945312 296.265625 271.222656 C 296.265625 271.222656 307.417969 266.089844 309.550781 281.046875 C 311.6875 296 319.054688 325.480469 322.632812 331.035156 C 326.214844 336.589844 334.316406 350.234375 334.316406 350.234375 C 334.316406 350.234375 341.839844 353.339844 351.609375 346.234375 C 361.371094 339.132812 391.554688 325.820312 396.441406 319.601562 C 401.324219 313.390625 420.945312 284.578125 422.898438 264.140625 C 426.960938 269.703125 431.992188 273.269531 431.992188 273.269531 C 427.105469 286.289062 418.425781 283.035156 418.425781 283.035156 C 418.425781 283.035156 409.742188 313.421875 409.742188 330.246094 C 409.742188 347.070312 428.738281 352.496094 428.738281 352.496094 " fill-opacity="1" fill-rule="nonzero"/></svg>