<svg xmlns="http://www.w3.org/2000/svg" xmlns:xlink="http://www.w3.org/1999/xlink" width="1080" zoomAndPan="magnify" viewBox="0 0 810 809.999993" height="1080" preserveAspectRatio="xMidYMid meet" version="1.0"><defs><filter x="0%" y="0%" width="100%" height="100%" id="04c51b714e"><feColorMatrix values="0 0 0 0 1 0 0 0 0 1 0 0 0 0 1 0 0 0 1 0" color-interpolation-filters="sRGB"/></filter><mask id="3396812ffe"><g filter="url(#04c51b714e)"><rect x="-81" width="972" fill="#000000" y="-80.999999" height="971.999992" fill-opacity="0.3"/></g></mask><clipPath id="a5392ff3ff"><rect x="0" width="205" y="0" height="52"/></clipPath></defs><path fill="#ffffff" d="M 107.25 462.199219 C 106.648438 462.199219 106.050781 462.257812 105.457031 462.378906 C 104.867188 462.496094 104.289062 462.667969 103.734375 462.898438 C 103.175781 463.132812 102.644531 463.414062 102.144531 463.75 C 101.640625 464.085938 101.175781 464.464844 100.75 464.894531 C 100.324219 465.320312 99.941406 465.785156 99.605469 466.285156 C 99.273438 466.789062 98.988281 467.316406 98.757812 467.875 C 98.527344 468.433594 98.351562 469.007812 98.234375 469.601562 C 98.117188 470.191406 98.058594 470.789062 98.058594 471.394531 C 98.058594 471.996094 98.117188 472.59375 98.234375 473.1875 C 98.351562 473.777344 98.527344 474.355469 98.757812 474.910156 C 98.988281 475.46875 99.273438 476 99.605469 476.5 C 99.941406 477.003906 100.324219 477.46875 100.75 477.894531 C 101.175781 478.320312 101.640625 478.703125 102.144531 479.035156 C 102.644531 479.371094 103.175781 479.65625 103.734375 479.886719 C 104.289062 480.117188 104.867188 480.292969 105.457031 480.410156 C 106.050781 480.527344 106.648438 480.585938 107.25 480.585938 C 107.855469 480.585938 108.453125 480.527344 109.042969 480.410156 C 109.636719 480.292969 110.210938 480.117188 110.769531 479.886719 C 111.328125 479.65625 111.855469 479.371094 112.359375 479.035156 C 112.859375 478.703125 113.324219 478.320312 113.75 477.894531 C 114.179688 477.46875 114.558594 477.003906 114.894531 476.5 C 115.230469 476 115.511719 475.46875 115.742188 474.910156 C 115.976562 474.355469 116.148438 473.777344 116.265625 473.1875 C 116.386719 472.59375 116.445312 471.996094 116.445312 471.394531 C 116.445312 470.789062 116.386719 470.191406 116.265625 469.601562 C 116.148438 469.007812 115.976562 468.433594 115.742188 467.875 C 115.511719 467.316406 115.230469 466.789062 114.894531 466.285156 C 114.558594 465.785156 114.179688 465.320312 113.75 464.894531 C 113.324219 464.464844 112.859375 464.085938 112.359375 463.75 C 111.855469 463.414062 111.328125 463.132812 110.769531 462.898438 C 110.210938 462.667969 109.636719 462.496094 109.042969 462.378906 C 108.453125 462.257812 107.855469 462.199219 107.25 462.199219 Z M 107.25 462.199219 " fill-opacity="1" fill-rule="nonzero"/><path fill="#f1bc19" d="M 112.359375 540.851562 C 111.753906 540.847656 111.15625 540.90625 110.5625 541.023438 C 109.96875 541.140625 109.390625 541.3125 108.832031 541.542969 C 108.273438 541.773438 107.742188 542.058594 107.238281 542.390625 C 106.734375 542.726562 106.269531 543.109375 105.839844 543.535156 C 105.414062 543.960938 105.03125 544.425781 104.695312 544.929688 C 104.359375 545.429688 104.074219 545.960938 103.84375 546.519531 C 103.609375 547.078125 103.433594 547.65625 103.316406 548.246094 C 103.199219 548.839844 103.140625 549.441406 103.140625 550.042969 C 103.140625 550.648438 103.199219 551.246094 103.316406 551.839844 C 103.433594 552.433594 103.609375 553.007812 103.84375 553.566406 C 104.074219 554.125 104.359375 554.65625 104.695312 555.160156 C 105.03125 555.660156 105.414062 556.125 105.839844 556.554688 C 106.269531 556.980469 106.734375 557.363281 107.238281 557.695312 C 107.742188 558.03125 108.273438 558.3125 108.832031 558.542969 C 109.390625 558.773438 109.96875 558.949219 110.5625 559.066406 C 111.15625 559.179688 111.753906 559.238281 112.359375 559.238281 C 112.960938 559.238281 113.5625 559.179688 114.15625 559.066406 C 114.75 558.949219 115.324219 558.773438 115.882812 558.542969 C 116.441406 558.3125 116.972656 558.03125 117.476562 557.695312 C 117.980469 557.363281 118.445312 556.980469 118.875 556.554688 C 119.304688 556.125 119.683594 555.660156 120.023438 555.160156 C 120.359375 554.65625 120.640625 554.125 120.875 553.566406 C 121.105469 553.007812 121.28125 552.433594 121.398438 551.839844 C 121.515625 551.246094 121.578125 550.648438 121.578125 550.042969 C 121.578125 549.441406 121.515625 548.839844 121.398438 548.246094 C 121.28125 547.65625 121.105469 547.078125 120.875 546.519531 C 120.640625 545.960938 120.359375 545.429688 120.023438 544.929688 C 119.683594 544.425781 119.304688 543.960938 118.875 543.535156 C 118.445312 543.109375 117.980469 542.726562 117.476562 542.390625 C 116.972656 542.058594 116.441406 541.773438 115.882812 541.542969 C 115.324219 541.3125 114.75 541.140625 114.15625 541.023438 C 113.5625 540.90625 112.960938 540.847656 112.359375 540.851562 Z M 112.359375 540.851562 " fill-opacity="1" fill-rule="nonzero"/><path fill="#c0e5e4" d="M 408.574219 19.917969 C 402.304688 19.917969 396.042969 20.070312 389.78125 20.378906 C 383.519531 20.6875 377.269531 21.148438 371.03125 21.761719 C 364.792969 22.375 358.574219 23.144531 352.371094 24.0625 C 346.171875 24.984375 339.996094 26.054688 333.847656 27.277344 C 327.699219 28.5 321.585938 29.875 315.503906 31.398438 C 309.421875 32.921875 303.382812 34.59375 297.382812 36.410156 C 291.386719 38.230469 285.433594 40.195312 279.53125 42.308594 C 273.628906 44.421875 267.785156 46.675781 261.992188 49.074219 C 256.199219 51.472656 250.472656 54.015625 244.804688 56.695312 C 239.136719 59.375 233.539062 62.191406 228.011719 65.148438 C 222.484375 68.101562 217.03125 71.191406 211.652344 74.414062 C 206.277344 77.636719 200.980469 80.988281 195.769531 84.472656 C 190.558594 87.953125 185.433594 91.5625 180.398438 95.296875 C 175.363281 99.03125 170.421875 102.886719 165.578125 106.863281 C 160.730469 110.839844 155.988281 114.933594 151.339844 119.144531 C 146.695312 123.355469 142.15625 127.675781 137.726562 132.109375 C 133.292969 136.539062 128.972656 141.078125 124.761719 145.722656 C 120.550781 150.367188 116.457031 155.113281 112.480469 159.960938 C 108.503906 164.804688 104.648438 169.746094 100.914062 174.78125 C 97.179688 179.816406 93.574219 184.941406 90.089844 190.152344 C 86.605469 195.363281 83.253906 200.660156 80.03125 206.035156 C 76.808594 211.414062 73.71875 216.867188 70.765625 222.394531 C 67.808594 227.921875 64.992188 233.519531 62.3125 239.1875 C 59.632812 244.855469 57.09375 250.582031 54.691406 256.375 C 52.292969 262.164062 50.039062 268.011719 47.925781 273.914062 C 45.816406 279.816406 43.847656 285.769531 42.03125 291.765625 C 40.210938 297.765625 38.539062 303.804688 37.015625 309.886719 C 35.492188 315.96875 34.117188 322.082031 32.894531 328.230469 C 31.671875 334.378906 30.601562 340.554688 29.683594 346.753906 C 28.761719 352.953125 27.996094 359.175781 27.378906 365.414062 C 26.765625 371.652344 26.304688 377.902344 25.996094 384.164062 C 25.691406 390.421875 25.535156 396.6875 25.535156 402.957031 C 25.535156 409.226562 25.691406 415.492188 25.996094 421.753906 C 26.304688 428.011719 26.765625 434.261719 27.378906 440.5 C 27.996094 446.738281 28.761719 452.960938 29.683594 459.160156 C 30.601562 465.363281 31.671875 471.535156 32.894531 477.683594 C 34.117188 483.832031 35.492188 489.945312 37.015625 496.027344 C 38.539062 502.109375 40.210938 508.148438 42.03125 514.148438 C 43.847656 520.144531 45.816406 526.097656 47.925781 532 C 50.039062 537.902344 52.292969 543.75 54.691406 549.539062 C 57.09375 555.332031 59.632812 561.058594 62.3125 566.726562 C 64.992188 572.394531 67.808594 577.992188 70.765625 583.519531 C 73.71875 589.050781 76.808594 594.5 80.03125 599.878906 C 83.253906 605.253906 86.605469 610.550781 90.089844 615.761719 C 93.574219 620.972656 97.179688 626.097656 100.914062 631.132812 C 104.648438 636.167969 108.503906 641.109375 112.480469 645.953125 C 116.457031 650.800781 120.550781 655.546875 124.761719 660.191406 C 128.972656 664.835938 133.292969 669.375 137.726562 673.808594 C 142.15625 678.238281 146.695312 682.5625 151.339844 686.769531 C 155.988281 690.980469 160.730469 695.074219 165.578125 699.050781 C 170.421875 703.027344 175.363281 706.882812 180.398438 710.617188 C 185.433594 714.351562 190.558594 717.960938 195.769531 721.441406 C 200.980469 724.925781 206.277344 728.277344 211.652344 731.5 C 217.03125 734.722656 222.484375 737.8125 228.011719 740.765625 C 233.539062 743.722656 239.136719 746.539062 244.804688 749.21875 C 250.472656 751.902344 256.199219 754.441406 261.992188 756.839844 C 267.785156 759.238281 273.628906 761.492188 279.53125 763.605469 C 285.433594 765.71875 291.386719 767.683594 297.382812 769.503906 C 303.382812 771.324219 309.421875 772.992188 315.503906 774.515625 C 321.585938 776.039062 327.699219 777.414062 333.847656 778.636719 C 339.996094 779.859375 346.171875 780.929688 352.371094 781.851562 C 358.574219 782.769531 364.792969 783.539062 371.03125 784.152344 C 377.269531 784.765625 383.519531 785.226562 389.78125 785.535156 C 396.042969 785.84375 402.304688 785.996094 408.574219 785.996094 C 414.84375 785.996094 421.109375 785.84375 427.371094 785.535156 C 433.632812 785.226562 439.878906 784.765625 446.121094 784.152344 C 452.359375 783.539062 458.578125 782.769531 464.777344 781.851562 C 470.980469 780.929688 477.152344 779.859375 483.300781 778.636719 C 489.449219 777.414062 495.566406 776.039062 501.644531 774.515625 C 507.726562 772.992188 513.765625 771.324219 519.765625 769.503906 C 525.765625 767.683594 531.714844 765.71875 537.617188 763.605469 C 543.519531 761.492188 549.367188 759.238281 555.15625 756.839844 C 560.949219 754.441406 566.679688 751.902344 572.34375 749.21875 C 578.011719 746.539062 583.609375 743.722656 589.136719 740.765625 C 594.667969 737.8125 600.121094 734.722656 605.496094 731.5 C 610.875 728.277344 616.167969 724.925781 621.378906 721.441406 C 626.59375 717.960938 631.714844 714.351562 636.75 710.617188 C 641.785156 706.882812 646.726562 703.027344 651.574219 699.050781 C 656.417969 695.074219 661.164062 690.980469 665.808594 686.769531 C 670.453125 682.558594 674.992188 678.238281 679.425781 673.808594 C 683.855469 669.375 688.179688 664.835938 692.386719 660.191406 C 696.597656 655.546875 700.691406 650.800781 704.667969 645.953125 C 708.644531 641.109375 712.5 636.167969 716.234375 631.132812 C 719.96875 626.097656 723.578125 620.972656 727.058594 615.761719 C 730.542969 610.550781 733.894531 605.253906 737.117188 599.878906 C 740.339844 594.5 743.429688 589.050781 746.386719 583.519531 C 749.339844 577.992188 752.15625 572.394531 754.839844 566.726562 C 757.519531 561.058594 760.058594 555.332031 762.457031 549.539062 C 764.855469 543.75 767.109375 537.902344 769.222656 532 C 771.335938 526.097656 773.300781 520.144531 775.121094 514.148438 C 776.941406 508.148438 778.613281 502.109375 780.132812 496.027344 C 781.65625 489.945312 783.03125 483.832031 784.253906 477.683594 C 785.476562 471.535156 786.546875 465.363281 787.46875 459.160156 C 788.386719 452.960938 789.15625 446.738281 789.769531 440.5 C 790.382812 434.261719 790.84375 428.011719 791.152344 421.753906 C 791.460938 415.492188 791.613281 409.226562 791.613281 402.957031 C 791.613281 396.6875 791.460938 390.421875 791.152344 384.164062 C 790.84375 377.902344 790.382812 371.652344 789.769531 365.414062 C 789.15625 359.175781 788.386719 352.953125 787.46875 346.753906 C 786.546875 340.554688 785.476562 334.378906 784.253906 328.230469 C 783.03125 322.082031 781.65625 315.96875 780.136719 309.886719 C 778.613281 303.804688 776.941406 297.765625 775.121094 291.765625 C 773.300781 285.769531 771.335938 279.816406 769.222656 273.914062 C 767.109375 268.011719 764.855469 262.164062 762.457031 256.375 C 760.058594 250.582031 757.519531 244.855469 754.839844 239.1875 C 752.15625 233.519531 749.339844 227.921875 746.386719 222.394531 C 743.429688 216.867188 740.339844 211.414062 737.117188 206.035156 C 733.894531 200.660156 730.542969 195.363281 727.058594 190.152344 C 723.578125 184.941406 719.96875 179.816406 716.234375 174.78125 C 712.5 169.746094 708.644531 164.804688 704.667969 159.960938 C 700.691406 155.113281 696.597656 150.367188 692.386719 145.722656 C 688.179688 141.078125 683.855469 136.539062 679.425781 132.109375 C 674.992188 127.675781 670.453125 123.355469 665.808594 119.144531 C 661.164062 114.933594 656.417969 110.839844 651.574219 106.863281 C 646.726562 102.886719 641.785156 99.03125 636.75 95.296875 C 631.714844 91.5625 626.59375 87.953125 621.378906 84.472656 C 616.167969 80.988281 610.875 77.636719 605.496094 74.414062 C 600.121094 71.191406 594.667969 68.101562 589.136719 65.148438 C 583.609375 62.191406 578.011719 59.375 572.34375 56.695312 C 566.679688 54.015625 560.949219 51.472656 555.15625 49.074219 C 549.367188 46.675781 543.519531 44.421875 537.617188 42.308594 C 531.714844 40.195312 525.765625 38.230469 519.765625 36.410156 C 513.765625 34.59375 507.726562 32.921875 501.644531 31.398438 C 495.566406 29.875 489.449219 28.5 483.300781 27.277344 C 477.152344 26.054688 470.980469 24.984375 464.777344 24.0625 C 458.578125 23.144531 452.359375 22.375 446.121094 21.761719 C 439.882812 21.148438 433.632812 20.6875 427.371094 20.378906 C 421.109375 20.070312 414.84375 19.917969 408.574219 19.917969 Z M 408.574219 19.917969 " fill-opacity="1" fill-rule="nonzero"/><path fill="#fbcd59" d="M 687.425781 653.210938 C 686.789062 653.207031 686.15625 653.238281 685.523438 653.300781 C 684.890625 653.359375 684.261719 653.453125 683.636719 653.574219 C 683.011719 653.699219 682.394531 653.851562 681.785156 654.035156 C 681.175781 654.21875 680.578125 654.433594 679.988281 654.675781 C 679.402344 654.917969 678.824219 655.191406 678.265625 655.488281 C 677.703125 655.789062 677.15625 656.113281 676.628906 656.46875 C 676.097656 656.820312 675.585938 657.199219 675.09375 657.601562 C 674.601562 658.003906 674.128906 658.429688 673.679688 658.878906 C 673.230469 659.328125 672.800781 659.800781 672.398438 660.292969 C 671.992188 660.785156 671.613281 661.292969 671.261719 661.824219 C 670.90625 662.351562 670.578125 662.898438 670.28125 663.457031 C 669.980469 664.019531 669.707031 664.59375 669.464844 665.179688 C 669.21875 665.769531 669.003906 666.367188 668.820312 666.976562 C 668.636719 667.585938 668.480469 668.203125 668.355469 668.824219 C 668.230469 669.449219 668.136719 670.078125 668.074219 670.710938 C 668.011719 671.34375 667.980469 671.980469 667.980469 672.617188 C 667.980469 673.253906 668.011719 673.886719 668.074219 674.519531 C 668.136719 675.15625 668.230469 675.785156 668.355469 676.40625 C 668.480469 677.03125 668.636719 677.648438 668.820312 678.257812 C 669.003906 678.867188 669.21875 679.464844 669.464844 680.050781 C 669.707031 680.640625 669.980469 681.214844 670.28125 681.777344 C 670.578125 682.335938 670.90625 682.882812 671.261719 683.410156 C 671.613281 683.941406 671.992188 684.449219 672.398438 684.941406 C 672.800781 685.433594 673.230469 685.902344 673.679688 686.351562 C 674.128906 686.804688 674.601562 687.230469 675.09375 687.632812 C 675.585938 688.035156 676.097656 688.414062 676.628906 688.765625 C 677.15625 689.121094 677.703125 689.445312 678.265625 689.746094 C 678.824219 690.042969 679.402344 690.316406 679.988281 690.558594 C 680.578125 690.800781 681.175781 691.011719 681.785156 691.195312 C 682.394531 691.382812 683.011719 691.535156 683.636719 691.65625 C 684.261719 691.78125 684.890625 691.871094 685.523438 691.933594 C 686.15625 691.996094 686.789062 692.023438 687.425781 692.023438 C 688.0625 692.023438 688.699219 691.996094 689.332031 691.933594 C 689.964844 691.871094 690.59375 691.78125 691.21875 691.65625 C 691.84375 691.535156 692.460938 691.382812 693.070312 691.199219 C 693.679688 691.011719 694.277344 690.800781 694.867188 690.558594 C 695.453125 690.316406 696.027344 690.042969 696.589844 689.746094 C 697.152344 689.445312 697.699219 689.121094 698.226562 688.765625 C 698.757812 688.414062 699.269531 688.035156 699.761719 687.632812 C 700.253906 687.230469 700.726562 686.804688 701.175781 686.351562 C 701.625 685.902344 702.054688 685.433594 702.457031 684.941406 C 702.859375 684.449219 703.238281 683.941406 703.59375 683.410156 C 703.949219 682.882812 704.273438 682.335938 704.574219 681.777344 C 704.875 681.214844 705.148438 680.640625 705.390625 680.050781 C 705.636719 679.464844 705.851562 678.867188 706.035156 678.257812 C 706.21875 677.648438 706.375 677.03125 706.5 676.40625 C 706.625 675.785156 706.714844 675.15625 706.777344 674.519531 C 706.839844 673.886719 706.871094 673.253906 706.871094 672.617188 C 706.871094 671.980469 706.839844 671.34375 706.777344 670.710938 C 706.714844 670.078125 706.625 669.449219 706.5 668.824219 C 706.375 668.203125 706.21875 667.585938 706.035156 666.976562 C 705.851562 666.367188 705.636719 665.769531 705.390625 665.179688 C 705.148438 664.59375 704.875 664.019531 704.574219 663.457031 C 704.273438 662.898438 703.949219 662.351562 703.59375 661.824219 C 703.238281 661.292969 702.859375 660.785156 702.457031 660.292969 C 702.054688 659.800781 701.625 659.328125 701.175781 658.878906 C 700.726562 658.429688 700.253906 658.003906 699.761719 657.601562 C 699.269531 657.199219 698.757812 656.820312 698.226562 656.46875 C 697.699219 656.113281 697.152344 655.789062 696.589844 655.488281 C 696.027344 655.191406 695.453125 654.917969 694.867188 654.675781 C 694.277344 654.433594 693.679688 654.21875 693.070312 654.035156 C 692.460938 653.851562 691.84375 653.699219 691.21875 653.574219 C 690.59375 653.453125 689.964844 653.359375 689.332031 653.300781 C 688.699219 653.238281 688.0625 653.207031 687.425781 653.210938 Z M 42.898438 499.992188 C 41.5625 499.992188 40.226562 500.058594 38.894531 500.191406 C 37.5625 500.320312 36.242188 500.519531 34.929688 500.777344 C 33.617188 501.039062 32.320312 501.363281 31.039062 501.753906 C 29.757812 502.140625 28.5 502.589844 27.265625 503.105469 C 26.027344 503.617188 24.820312 504.1875 23.640625 504.816406 C 22.460938 505.449219 21.3125 506.136719 20.199219 506.878906 C 19.089844 507.621094 18.015625 508.417969 16.980469 509.269531 C 15.945312 510.117188 14.957031 511.015625 14.007812 511.960938 C 13.0625 512.90625 12.164062 513.898438 11.316406 514.929688 C 10.46875 515.964844 9.671875 517.039062 8.929688 518.152344 C 8.183594 519.265625 7.5 520.410156 6.867188 521.589844 C 6.238281 522.769531 5.664062 523.980469 5.152344 525.214844 C 4.640625 526.453125 4.191406 527.710938 3.800781 528.992188 C 3.414062 530.269531 3.089844 531.566406 2.828125 532.878906 C 2.566406 534.191406 2.371094 535.515625 2.238281 536.847656 C 2.109375 538.179688 2.042969 539.511719 2.042969 540.851562 C 2.042969 542.1875 2.109375 543.523438 2.238281 544.855469 C 2.371094 546.1875 2.566406 547.507812 2.828125 548.820312 C 3.089844 550.132812 3.414062 551.429688 3.800781 552.710938 C 4.191406 553.992188 4.640625 555.25 5.152344 556.488281 C 5.664062 557.722656 6.238281 558.929688 6.867188 560.109375 C 7.496094 561.292969 8.183594 562.4375 8.929688 563.550781 C 9.671875 564.664062 10.46875 565.738281 11.316406 566.769531 C 12.164062 567.804688 13.0625 568.796875 14.007812 569.742188 C 14.957031 570.6875 15.945312 571.585938 16.980469 572.433594 C 18.015625 573.285156 19.089844 574.078125 20.199219 574.824219 C 21.3125 575.566406 22.460938 576.253906 23.640625 576.882812 C 24.820312 577.515625 26.027344 578.085938 27.265625 578.597656 C 28.5 579.109375 29.757812 579.5625 31.039062 579.949219 C 32.320312 580.335938 33.617188 580.664062 34.929688 580.921875 C 36.242188 581.183594 37.5625 581.378906 38.894531 581.511719 C 40.226562 581.644531 41.5625 581.707031 42.898438 581.707031 C 44.238281 581.707031 45.574219 581.644531 46.90625 581.511719 C 48.238281 581.378906 49.558594 581.183594 50.871094 580.921875 C 52.183594 580.664062 53.480469 580.335938 54.761719 579.949219 C 56.042969 579.5625 57.300781 579.109375 58.535156 578.597656 C 59.773438 578.085938 60.980469 577.515625 62.160156 576.882812 C 63.339844 576.253906 64.488281 575.566406 65.597656 574.824219 C 66.710938 574.078125 67.785156 573.285156 68.820312 572.433594 C 69.855469 571.585938 70.84375 570.6875 71.789062 569.742188 C 72.738281 568.796875 73.636719 567.804688 74.484375 566.769531 C 75.332031 565.738281 76.128906 564.664062 76.871094 563.550781 C 77.617188 562.4375 78.300781 561.292969 78.933594 560.109375 C 79.5625 558.929688 80.136719 557.722656 80.648438 556.488281 C 81.160156 555.25 81.609375 553.992188 82 552.710938 C 82.386719 551.429688 82.710938 550.132812 82.972656 548.820312 C 83.234375 547.507812 83.429688 546.1875 83.5625 544.855469 C 83.691406 543.523438 83.757812 542.1875 83.757812 540.851562 C 83.757812 539.511719 83.691406 538.179688 83.5625 536.847656 C 83.429688 535.515625 83.234375 534.191406 82.972656 532.878906 C 82.710938 531.566406 82.386719 530.269531 82 528.992188 C 81.609375 527.710938 81.160156 526.453125 80.648438 525.214844 C 80.136719 523.980469 79.5625 522.769531 78.933594 521.589844 C 78.300781 520.410156 77.617188 519.265625 76.871094 518.152344 C 76.128906 517.039062 75.332031 515.964844 74.484375 514.929688 C 73.632812 513.898438 72.738281 512.90625 71.789062 511.960938 C 70.84375 511.015625 69.855469 510.117188 68.820312 509.269531 C 67.785156 508.417969 66.710938 507.621094 65.597656 506.878906 C 64.488281 506.136719 63.339844 505.449219 62.160156 504.816406 C 60.980469 504.1875 59.773438 503.617188 58.535156 503.105469 C 57.300781 502.589844 56.042969 502.140625 54.761719 501.753906 C 53.480469 501.363281 52.183594 501.039062 50.871094 500.777344 C 49.558594 500.519531 48.238281 500.320312 46.90625 500.191406 C 45.574219 500.058594 44.238281 499.992188 42.898438 499.992188 Z M 42.898438 499.992188 " fill-opacity="1" fill-rule="nonzero"/><path fill="#00a5a5" d="M 147.085938 767.609375 C 146.453125 767.609375 145.816406 767.640625 145.183594 767.703125 C 144.550781 767.765625 143.925781 767.859375 143.300781 767.984375 C 142.675781 768.105469 142.0625 768.261719 141.453125 768.445312 C 140.84375 768.628906 140.246094 768.84375 139.660156 769.085938 C 139.074219 769.332031 138.5 769.601562 137.9375 769.902344 C 137.378906 770.203125 136.832031 770.527344 136.304688 770.882812 C 135.777344 771.234375 135.265625 771.613281 134.773438 772.015625 C 134.285156 772.417969 133.8125 772.84375 133.363281 773.292969 C 132.914062 773.742188 132.488281 774.214844 132.085938 774.707031 C 131.683594 775.195312 131.304688 775.707031 130.949219 776.234375 C 130.597656 776.765625 130.269531 777.308594 129.972656 777.867188 C 129.671875 778.429688 129.398438 779.003906 129.15625 779.589844 C 128.914062 780.179688 128.699219 780.777344 128.515625 781.382812 C 128.332031 781.992188 128.175781 782.609375 128.050781 783.230469 C 127.929688 783.855469 127.835938 784.484375 127.773438 785.117188 C 127.710938 785.746094 127.679688 786.382812 127.679688 787.019531 C 127.679688 787.652344 127.710938 788.289062 127.773438 788.921875 C 127.835938 789.550781 127.929688 790.179688 128.050781 790.804688 C 128.175781 791.425781 128.332031 792.042969 128.515625 792.652344 C 128.699219 793.257812 128.914062 793.855469 129.15625 794.445312 C 129.398438 795.03125 129.671875 795.605469 129.972656 796.167969 C 130.269531 796.726562 130.597656 797.269531 130.949219 797.800781 C 131.304688 798.328125 131.683594 798.839844 132.085938 799.328125 C 132.488281 799.820312 132.914062 800.292969 133.363281 800.742188 C 133.8125 801.191406 134.285156 801.617188 134.773438 802.019531 C 135.265625 802.421875 135.777344 802.800781 136.304688 803.152344 C 136.832031 803.507812 137.378906 803.832031 137.9375 804.132812 C 138.5 804.433594 139.074219 804.703125 139.660156 804.949219 C 140.246094 805.191406 140.84375 805.40625 141.453125 805.589844 C 142.0625 805.773438 142.675781 805.929688 143.300781 806.050781 C 143.925781 806.175781 144.550781 806.269531 145.183594 806.332031 C 145.816406 806.394531 146.453125 806.425781 147.085938 806.425781 C 147.722656 806.425781 148.355469 806.394531 148.988281 806.332031 C 149.621094 806.269531 150.25 806.175781 150.875 806.050781 C 151.496094 805.929688 152.113281 805.773438 152.71875 805.589844 C 153.328125 805.40625 153.925781 805.191406 154.515625 804.949219 C 155.101562 804.703125 155.675781 804.433594 156.234375 804.132812 C 156.796875 803.832031 157.339844 803.507812 157.867188 803.152344 C 158.398438 802.800781 158.90625 802.421875 159.398438 802.019531 C 159.890625 801.617188 160.359375 801.191406 160.808594 800.742188 C 161.257812 800.292969 161.6875 799.820312 162.089844 799.328125 C 162.492188 798.839844 162.871094 798.328125 163.222656 797.800781 C 163.578125 797.269531 163.902344 796.726562 164.203125 796.167969 C 164.503906 795.605469 164.773438 795.03125 165.015625 794.445312 C 165.261719 793.855469 165.472656 793.257812 165.660156 792.652344 C 165.84375 792.042969 165.996094 791.425781 166.121094 790.804688 C 166.246094 790.179688 166.339844 789.550781 166.402344 788.917969 C 166.464844 788.289062 166.496094 787.652344 166.496094 787.019531 C 166.496094 786.382812 166.464844 785.746094 166.402344 785.117188 C 166.339844 784.484375 166.246094 783.855469 166.121094 783.230469 C 165.996094 782.609375 165.84375 781.992188 165.660156 781.382812 C 165.472656 780.777344 165.261719 780.179688 165.015625 779.589844 C 164.773438 779.003906 164.503906 778.429688 164.203125 777.867188 C 163.902344 777.308594 163.578125 776.765625 163.222656 776.234375 C 162.871094 775.707031 162.492188 775.195312 162.089844 774.707031 C 161.6875 774.214844 161.257812 773.742188 160.808594 773.292969 C 160.359375 772.84375 159.890625 772.417969 159.398438 772.015625 C 158.90625 771.613281 158.398438 771.234375 157.867188 770.882812 C 157.339844 770.527344 156.796875 770.203125 156.234375 769.902344 C 155.675781 769.601562 155.101562 769.332031 154.515625 769.085938 C 153.925781 768.84375 153.328125 768.628906 152.71875 768.445312 C 152.113281 768.261719 151.496094 768.105469 150.875 767.984375 C 150.25 767.859375 149.621094 767.765625 148.988281 767.703125 C 148.355469 767.640625 147.722656 767.609375 147.085938 767.609375 Z M 147.085938 767.609375 " fill-opacity="1" fill-rule="nonzero"/><path fill="#ffffff" d="M 80.695312 391.722656 C 79.855469 391.722656 79.023438 391.761719 78.191406 391.84375 C 77.359375 391.925781 76.53125 392.050781 75.710938 392.210938 C 74.890625 392.375 74.082031 392.578125 73.28125 392.820312 C 72.480469 393.0625 71.695312 393.34375 70.921875 393.664062 C 70.148438 393.984375 69.394531 394.34375 68.65625 394.738281 C 67.917969 395.128906 67.203125 395.558594 66.507812 396.023438 C 65.8125 396.488281 65.140625 396.988281 64.492188 397.519531 C 63.847656 398.046875 63.226562 398.609375 62.636719 399.199219 C 62.046875 399.792969 61.484375 400.410156 60.953125 401.058594 C 60.421875 401.703125 59.925781 402.375 59.460938 403.070312 C 58.996094 403.765625 58.566406 404.480469 58.171875 405.21875 C 57.777344 405.957031 57.421875 406.710938 57.101562 407.484375 C 56.78125 408.257812 56.5 409.042969 56.257812 409.84375 C 56.015625 410.644531 55.8125 411.457031 55.648438 412.277344 C 55.484375 413.09375 55.363281 413.921875 55.28125 414.753906 C 55.199219 415.585938 55.15625 416.421875 55.15625 417.257812 C 55.15625 418.09375 55.199219 418.929688 55.28125 419.761719 C 55.363281 420.59375 55.484375 421.417969 55.648438 422.238281 C 55.8125 423.058594 56.015625 423.871094 56.257812 424.671875 C 56.5 425.46875 56.78125 426.257812 57.101562 427.03125 C 57.421875 427.800781 57.777344 428.558594 58.171875 429.292969 C 58.566406 430.03125 58.996094 430.75 59.460938 431.445312 C 59.925781 432.140625 60.421875 432.8125 60.953125 433.457031 C 61.484375 434.105469 62.046875 434.722656 62.636719 435.3125 C 63.226562 435.90625 63.847656 436.464844 64.492188 436.996094 C 65.140625 437.527344 65.8125 438.023438 66.507812 438.488281 C 67.203125 438.953125 67.917969 439.382812 68.65625 439.777344 C 69.394531 440.171875 70.148438 440.53125 70.921875 440.847656 C 71.695312 441.167969 72.480469 441.449219 73.28125 441.695312 C 74.082031 441.9375 74.890625 442.140625 75.710938 442.300781 C 76.53125 442.464844 77.359375 442.589844 78.191406 442.671875 C 79.023438 442.753906 79.855469 442.792969 80.695312 442.792969 C 81.53125 442.792969 82.363281 442.753906 83.195312 442.671875 C 84.027344 442.589844 84.855469 442.464844 85.675781 442.300781 C 86.496094 442.140625 87.304688 441.9375 88.105469 441.695312 C 88.90625 441.449219 89.691406 441.167969 90.464844 440.847656 C 91.238281 440.53125 91.992188 440.171875 92.730469 439.777344 C 93.46875 439.382812 94.183594 438.953125 94.878906 438.488281 C 95.574219 438.023438 96.246094 437.527344 96.894531 436.996094 C 97.539062 436.464844 98.160156 435.90625 98.75 435.3125 C 99.339844 434.722656 99.902344 434.105469 100.433594 433.457031 C 100.964844 432.808594 101.460938 432.140625 101.925781 431.445312 C 102.390625 430.75 102.820312 430.03125 103.214844 429.292969 C 103.609375 428.558594 103.964844 427.800781 104.285156 427.03125 C 104.605469 426.257812 104.886719 425.46875 105.128906 424.667969 C 105.371094 423.871094 105.574219 423.058594 105.738281 422.238281 C 105.902344 421.417969 106.023438 420.59375 106.105469 419.761719 C 106.1875 418.929688 106.230469 418.09375 106.230469 417.257812 C 106.230469 416.421875 106.1875 415.585938 106.105469 414.753906 C 106.023438 413.921875 105.902344 413.09375 105.738281 412.277344 C 105.574219 411.457031 105.371094 410.644531 105.128906 409.84375 C 104.886719 409.042969 104.605469 408.257812 104.285156 407.484375 C 103.964844 406.710938 103.609375 405.957031 103.214844 405.21875 C 102.820312 404.480469 102.390625 403.765625 101.925781 403.070312 C 101.460938 402.375 100.964844 401.703125 100.433594 401.058594 C 99.902344 400.410156 99.339844 399.792969 98.75 399.199219 C 98.160156 398.609375 97.539062 398.046875 96.894531 397.519531 C 96.246094 396.988281 95.574219 396.488281 94.878906 396.023438 C 94.183594 395.558594 93.46875 395.128906 92.730469 394.738281 C 91.992188 394.34375 91.238281 393.984375 90.464844 393.664062 C 89.691406 393.34375 88.90625 393.0625 88.105469 392.820312 C 87.304688 392.578125 86.496094 392.375 85.675781 392.210938 C 84.855469 392.050781 84.027344 391.925781 83.195312 391.84375 C 82.363281 391.761719 81.53125 391.722656 80.695312 391.722656 Z M 80.695312 391.722656 " fill-opacity="1" fill-rule="nonzero"/><path fill="#d8ad8f" d="M 562.8125 588.859375 C 555.660156 583.75 458.625 550.042969 458.625 550.042969 C 453.519531 548 449.433594 543.914062 448.410156 537.785156 C 447.390625 528.59375 446.367188 519.402344 446.367188 509.1875 C 471.902344 494.886719 493.355469 473.4375 508.675781 447.902344 C 511.738281 442.792969 512.761719 436.664062 513.78125 430.535156 C 513.78125 420.320312 513.78125 410.105469 513.78125 399.894531 C 519.910156 398.871094 525.019531 393.765625 527.0625 387.636719 C 531.148438 374.355469 537.277344 348.820312 537.277344 347.800781 C 542.382812 331.457031 534.210938 323.285156 518.890625 323.285156 C 522.976562 320.21875 526.039062 316.136719 529.105469 311.027344 L 530.125 311.027344 C 531.148438 311.027344 533.191406 311.027344 534.210938 311.027344 C 554.640625 318.179688 586.304688 314.09375 594.476562 265.0625 C 587.328125 274.257812 575.070312 279.363281 563.832031 278.339844 C 563.832031 274.257812 562.8125 270.171875 560.769531 266.085938 C 566.898438 259.957031 570.984375 251.785156 570.984375 243.613281 C 570.984375 226.25 556.683594 211.949219 539.320312 211.949219 C 539.320312 211.949219 538.296875 211.949219 538.296875 211.949219 C 539.320312 207.863281 540.339844 203.777344 540.339844 199.691406 C 540.339844 177.21875 521.953125 158.832031 499.484375 158.832031 C 499.484375 158.832031 498.460938 158.832031 498.460938 158.832031 C 494.375 158.832031 490.289062 159.855469 487.226562 159.855469 C 487.226562 159.855469 487.226562 158.832031 487.226562 158.832031 C 485.183594 131.253906 462.710938 110.824219 435.132812 111.847656 C 419.8125 111.847656 404.488281 117.976562 394.273438 130.234375 C 383.039062 123.082031 368.738281 118.996094 355.460938 118.996094 C 320.730469 118.996094 292.132812 141.46875 292.132812 169.046875 C 292.132812 170.070312 292.132812 171.089844 292.132812 173.132812 C 283.960938 177.21875 277.832031 183.347656 274.765625 191.519531 C 271.703125 199.691406 280.894531 222.164062 280.894531 223.183594 C 270.679688 223.183594 261.488281 230.335938 261.488281 241.570312 C 261.488281 243.613281 261.488281 245.65625 262.507812 247.699219 C 263.53125 252.804688 271.703125 322.261719 275.789062 324.304688 C 260.464844 324.304688 252.296875 332.476562 257.402344 348.820312 C 257.402344 348.820312 263.53125 375.378906 267.617188 388.65625 C 268.636719 395.808594 275.789062 400.914062 282.9375 400.914062 C 282.9375 409.085938 282.9375 418.277344 282.9375 426.449219 C 282.9375 436.664062 286.003906 446.878906 292.132812 455.050781 C 307.453125 477.523438 326.859375 495.90625 350.351562 509.1875 C 350.351562 518.378906 349.332031 528.59375 348.308594 537.785156 C 347.289062 543.914062 343.203125 548 338.097656 550.042969 L 258.421875 577.621094 C 250.253906 579.664062 243.101562 582.730469 235.953125 586.816406 C 201.222656 609.289062 199.179688 654.230469 199.179688 657.296875 L 596.519531 657.296875 C 596.519531 629.714844 584.261719 605.203125 562.8125 588.859375 Z M 562.8125 588.859375 " fill-opacity="1" fill-rule="nonzero"/><path fill="#efa21b" d="M 446.367188 275.277344 C 454.539062 289.578125 468.839844 298.769531 486.203125 298.769531 C 490.289062 298.769531 494.375 297.75 498.460938 296.726562 C 505.613281 303.878906 514.804688 308.984375 525.019531 308.984375 C 526.039062 308.984375 528.082031 308.984375 529.105469 308.984375 C 548.511719 315.113281 580.175781 319.199219 589.371094 278.339844 C 581.199219 283.449219 570.984375 285.492188 561.789062 281.40625 C 561.789062 276.300781 560.769531 271.191406 558.726562 266.085938 C 564.855469 259.957031 568.941406 252.804688 568.941406 243.613281 C 567.917969 226.25 553.621094 212.96875 536.253906 212.96875 C 537.277344 208.882812 537.277344 204.796875 537.277344 199.691406 C 536.253906 177.21875 517.867188 159.855469 495.398438 159.855469 C 491.3125 159.855469 487.226562 159.855469 484.160156 160.875 C 484.160156 160.875 484.160156 159.855469 484.160156 159.855469 C 483.140625 132.277344 459.648438 111.847656 432.066406 112.867188 C 416.746094 112.867188 401.425781 118.996094 391.210938 131.253906 C 379.976562 124.105469 365.675781 121.039062 352.394531 121.039062 C 317.667969 121.039062 290.089844 143.511719 290.089844 171.089844 C 290.089844 172.113281 290.089844 173.132812 290.089844 175.175781 C 281.917969 178.242188 275.789062 185.390625 272.722656 193.5625 C 272.722656 194.582031 277.832031 221.140625 278.851562 224.207031 C 284.980469 232.378906 294.175781 237.484375 303.367188 240.546875 C 313.582031 243.613281 323.796875 243.613281 334.011719 240.546875 C 342.183594 266.085938 370.78125 285.492188 406.53125 285.492188 C 420.832031 284.46875 434.109375 281.40625 446.367188 275.277344 Z M 446.367188 275.277344 " fill-opacity="1" fill-rule="nonzero"/><path fill="#b2876b" d="M 395.296875 656.273438 L 594.476562 656.273438 C 594.476562 630.738281 582.21875 606.222656 561.789062 590.902344 C 554.640625 585.792969 457.605469 553.109375 457.605469 553.109375 C 451.476562 551.066406 447.390625 546.980469 445.347656 541.871094 C 443.304688 530.636719 442.28125 519.402344 443.304688 508.164062 C 430.023438 516.335938 415.726562 522.464844 400.402344 526.550781 C 380.996094 528.59375 348.308594 510.207031 348.308594 510.207031 C 348.308594 510.207031 346.265625 534.722656 345.246094 540.851562 C 343.203125 546.980469 338.097656 551.066406 331.96875 552.085938 L 254.339844 578.644531 C 246.167969 580.6875 239.015625 583.75 231.867188 587.835938 C 209.394531 603.160156 196.117188 628.695312 196.117188 655.253906 Z M 395.296875 656.273438 " fill-opacity="1" fill-rule="nonzero"/><path fill="#00a5a5" d="M 409.597656 781.910156 C 475.988281 781.910156 542.382812 764.546875 599.582031 730.839844 C 597.539062 652.1875 599.582031 601.117188 560.769531 588.859375 C 552.597656 585.792969 520.933594 570.472656 520.933594 570.472656 C 520.933594 570.472656 439.21875 616.4375 403.46875 623.585938 C 336.054688 636.867188 266.59375 640.953125 198.160156 634.824219 C 197.136719 637.886719 196.117188 693.046875 195.09375 715.515625 C 258.421875 759.4375 332.988281 781.910156 409.597656 781.910156 Z M 409.597656 781.910156 " fill-opacity="1" fill-rule="nonzero"/><path fill="#6d3c14" d="M 281.917969 228.292969 C 279.875 228.292969 276.808594 230.335938 274.765625 230.335938 C 268.636719 231.355469 263.53125 236.460938 263.53125 243.613281 L 274.765625 318.179688 C 274.765625 312.050781 276.808594 254.847656 295.195312 238.503906 C 291.109375 235.441406 287.023438 232.378906 281.917969 228.292969 Z M 281.917969 228.292969 " fill-opacity="0.34" fill-rule="nonzero"/><path fill="#472b29" d="M 375.890625 315.113281 C 351.375 308.984375 325.839844 307.964844 300.300781 311.027344 C 299.28125 311.027344 298.257812 312.050781 298.257812 313.070312 C 298.257812 314.09375 299.28125 315.113281 300.300781 315.113281 C 322.773438 317.15625 346.265625 321.242188 368.738281 326.347656 L 369.761719 326.347656 C 370.78125 326.347656 370.78125 326.347656 371.804688 325.328125 L 377.933594 318.179688 C 377.933594 317.15625 377.933594 317.15625 377.933594 316.136719 C 376.910156 315.113281 376.910156 315.113281 375.890625 315.113281 Z M 416.746094 315.113281 C 441.261719 308.984375 466.796875 307.964844 492.332031 311.027344 C 493.355469 311.027344 494.375 312.050781 494.375 313.070312 C 494.375 314.09375 493.355469 315.113281 492.332031 315.113281 C 469.859375 317.15625 446.367188 321.242188 423.898438 326.347656 L 422.875 326.347656 C 421.855469 326.347656 421.855469 326.347656 420.832031 325.328125 L 414.703125 318.179688 C 414.703125 317.15625 414.703125 317.15625 414.703125 316.136719 C 415.726562 315.113281 415.726562 315.113281 416.746094 315.113281 Z M 340.140625 337.585938 C 335.03125 337.585938 329.925781 341.671875 327.882812 345.757812 C 328.902344 345.757812 328.902344 345.757812 329.925781 345.757812 C 335.03125 346.777344 338.097656 350.863281 337.074219 354.949219 C 337.074219 359.035156 334.011719 362.101562 329.925781 362.101562 C 328.902344 362.101562 326.859375 362.101562 325.839844 361.078125 C 326.859375 368.226562 332.988281 373.335938 340.140625 374.355469 C 350.351562 372.3125 356.480469 362.101562 354.4375 351.886719 C 352.394531 345.757812 347.289062 339.628906 340.140625 337.585938 Z M 451.476562 337.585938 C 447.390625 337.585938 443.304688 339.628906 440.238281 343.714844 C 441.261719 343.714844 442.28125 343.714844 443.304688 343.714844 C 448.410156 344.734375 451.476562 348.820312 450.453125 352.90625 C 450.453125 356.992188 447.390625 360.058594 443.304688 360.058594 C 440.238281 360.058594 438.195312 359.035156 437.175781 355.972656 C 439.21875 364.140625 447.390625 368.226562 455.5625 366.183594 C 463.734375 364.140625 467.820312 355.972656 465.777344 347.800781 C 464.753906 342.691406 458.625 337.585938 451.476562 337.585938 Z M 451.476562 337.585938 " fill-opacity="1" fill-rule="nonzero"/><path fill="#472b29" d="M 395.296875 432.578125 C 403.46875 432.578125 411.640625 428.492188 417.769531 422.363281 C 418.789062 421.34375 418.789062 419.300781 417.769531 417.257812 C 416.746094 416.234375 414.703125 416.234375 412.660156 417.257812 C 402.445312 426.449219 388.144531 426.449219 378.953125 417.257812 C 377.933594 416.234375 375.890625 416.234375 373.847656 417.257812 C 372.824219 418.277344 372.824219 420.320312 373.847656 422.363281 C 378.953125 429.515625 387.125 432.578125 395.296875 432.578125 Z M 395.296875 432.578125 " fill-opacity="0.41" fill-rule="nonzero"/><path fill="#472b29" d="M 398.359375 527.574219 C 377.933594 527.574219 345.246094 509.1875 344.222656 508.164062 C 343.203125 507.144531 342.179688 506.121094 343.203125 505.101562 C 344.222656 504.078125 345.246094 503.058594 346.265625 504.078125 C 346.265625 504.078125 382.019531 524.507812 400.402344 522.464844 C 416.746094 519.402344 432.066406 513.273438 445.347656 504.078125 C 446.367188 503.058594 448.410156 504.078125 448.410156 505.101562 C 449.433594 506.121094 448.410156 508.164062 447.390625 508.164062 C 433.089844 517.359375 416.746094 523.488281 400.402344 527.574219 C 400.402344 527.574219 399.382812 527.574219 398.359375 527.574219 Z M 398.359375 527.574219 " fill-opacity="1" fill-rule="nonzero"/><path fill="#e2900e" d="M 562.8125 279.363281 C 562.8125 274.257812 561.789062 269.148438 559.746094 264.042969 C 565.875 258.933594 569.960938 250.761719 569.960938 241.570312 C 568.941406 224.207031 554.640625 209.90625 537.277344 210.925781 C 538.296875 206.839844 539.320312 202.753906 539.320312 198.667969 C 538.296875 176.199219 519.910156 158.832031 497.441406 158.832031 C 493.355469 158.832031 489.269531 158.832031 486.203125 159.855469 C 486.203125 159.855469 486.203125 158.832031 486.203125 158.832031 C 484.160156 131.253906 460.667969 110.824219 434.109375 111.847656 C 421.855469 111.847656 409.597656 115.933594 400.402344 123.082031 C 404.488281 127.167969 401.425781 123.082031 404.488281 127.167969 C 421.855469 123.082031 440.238281 125.125 455.5625 133.296875 C 481.097656 148.621094 490.289062 179.261719 479.054688 206.839844 L 478.03125 207.863281 C 482.117188 208.882812 485.183594 209.90625 489.269531 211.949219 C 508.675781 222.164062 516.847656 246.675781 506.632812 266.085938 C 504.589844 269.148438 502.546875 273.234375 499.484375 275.277344 C 509.699219 280.382812 516.847656 291.621094 516.847656 303.878906 C 519.910156 304.898438 522.976562 304.898438 526.039062 304.898438 C 527.0625 304.898438 529.105469 304.898438 530.125 304.898438 C 549.535156 311.027344 581.199219 315.113281 590.390625 274.257812 C 581.199219 282.425781 570.984375 283.449219 562.8125 279.363281 Z M 562.8125 279.363281 " fill-opacity="1" fill-rule="nonzero"/><path fill="#472b29" d="M 549.535156 317.15625 C 542.382812 317.15625 536.253906 315.113281 530.125 312.050781 C 529.105469 312.050781 527.0625 312.050781 526.039062 312.050781 C 515.824219 312.050781 505.613281 307.964844 498.460938 300.8125 C 494.375 301.835938 491.3125 301.835938 487.226562 301.835938 C 487.226562 301.835938 486.203125 301.835938 486.203125 301.835938 C 469.859375 301.835938 454.539062 293.664062 446.367188 279.363281 C 434.109375 284.46875 421.855469 287.535156 408.574219 287.535156 C 408.574219 287.535156 408.574219 287.535156 407.554688 287.535156 C 372.824219 287.535156 342.179688 269.148438 332.988281 243.613281 C 322.773438 246.675781 312.558594 245.65625 302.34375 242.589844 C 291.109375 239.527344 280.894531 232.378906 273.746094 222.164062 C 272.722656 221.140625 272.722656 219.097656 274.765625 218.078125 C 276.808594 217.054688 277.832031 217.054688 278.851562 219.097656 C 284.980469 227.269531 294.175781 234.421875 304.386719 236.460938 C 314.601562 239.527344 323.796875 239.527344 334.011719 236.460938 C 335.03125 236.460938 336.054688 236.460938 336.054688 236.460938 C 337.074219 236.460938 337.074219 237.484375 337.074219 238.503906 C 344.222656 263.019531 373.847656 281.40625 407.554688 281.40625 C 420.832031 281.40625 434.109375 278.339844 445.347656 273.234375 C 446.367188 272.214844 448.410156 273.234375 449.433594 274.257812 C 456.582031 287.535156 470.882812 295.707031 486.203125 295.707031 C 490.289062 295.707031 494.375 294.683594 497.441406 293.664062 C 498.460938 293.664062 499.484375 293.664062 500.503906 294.683594 C 506.632812 301.835938 515.824219 305.921875 525.019531 305.921875 C 527.0625 305.921875 528.082031 305.921875 529.105469 305.921875 C 530.125 305.921875 530.125 305.921875 531.148438 305.921875 C 540.339844 312.050781 551.578125 312.050781 561.789062 307.964844 C 563.832031 306.941406 564.855469 307.964844 565.875 310.007812 C 566.898438 312.050781 565.875 313.070312 563.832031 314.09375 C 559.746094 316.136719 554.640625 317.15625 549.535156 317.15625 Z M 549.535156 317.15625 " fill-opacity="1" fill-rule="nonzero"/><g mask="url(#3396812ffe)"><g transform="matrix(1, 0, 0, 1, 300, 394)"><g clip-path="url(#a5392ff3ff)"><path fill="#ba8964" d="M 23.796875 2.828125 C 23.125 2.828125 22.460938 2.859375 21.792969 2.925781 C 21.128906 2.992188 20.464844 3.089844 19.808594 3.222656 C 19.152344 3.351562 18.503906 3.515625 17.867188 3.707031 C 17.226562 3.902344 16.597656 4.128906 15.976562 4.382812 C 15.359375 4.640625 14.753906 4.925781 14.164062 5.242188 C 13.574219 5.554688 13.003906 5.898438 12.445312 6.269531 C 11.890625 6.644531 11.351562 7.042969 10.835938 7.464844 C 10.320312 7.890625 9.824219 8.339844 9.351562 8.8125 C 8.878906 9.285156 8.429688 9.78125 8.003906 10.296875 C 7.578125 10.816406 7.179688 11.351562 6.808594 11.90625 C 6.4375 12.464844 6.09375 13.039062 5.777344 13.628906 C 5.464844 14.21875 5.179688 14.820312 4.921875 15.4375 C 4.664062 16.058594 4.441406 16.6875 4.246094 17.328125 C 4.050781 17.96875 3.890625 18.617188 3.757812 19.273438 C 3.628906 19.929688 3.53125 20.589844 3.464844 21.253906 C 3.398438 21.921875 3.367188 22.589844 3.367188 23.257812 C 3.367188 23.925781 3.398438 24.59375 3.464844 25.257812 C 3.53125 25.925781 3.628906 26.585938 3.757812 27.242188 C 3.890625 27.898438 4.050781 28.546875 4.246094 29.1875 C 4.441406 29.828125 4.664062 30.457031 4.921875 31.074219 C 5.179688 31.691406 5.464844 32.296875 5.777344 32.886719 C 6.09375 33.476562 6.4375 34.050781 6.808594 34.605469 C 7.179688 35.164062 7.578125 35.699219 8.003906 36.21875 C 8.429688 36.734375 8.878906 37.230469 9.351562 37.703125 C 9.824219 38.175781 10.320312 38.625 10.835938 39.050781 C 11.351562 39.472656 11.890625 39.871094 12.445312 40.242188 C 13.003906 40.613281 13.574219 40.957031 14.164062 41.273438 C 14.753906 41.589844 15.359375 41.875 15.976562 42.132812 C 16.597656 42.386719 17.226562 42.613281 17.867188 42.804688 C 18.503906 43 19.152344 43.164062 19.808594 43.292969 C 20.464844 43.425781 21.128906 43.523438 21.792969 43.585938 C 22.460938 43.652344 23.125 43.6875 23.796875 43.6875 C 24.464844 43.6875 25.132812 43.652344 25.796875 43.585938 C 26.464844 43.523438 27.125 43.425781 27.78125 43.292969 C 28.4375 43.164062 29.085938 43 29.726562 42.804688 C 30.367188 42.613281 30.996094 42.386719 31.613281 42.132812 C 32.230469 41.875 32.835938 41.589844 33.425781 41.273438 C 34.015625 40.957031 34.589844 40.613281 35.144531 40.242188 C 35.703125 39.871094 36.238281 39.472656 36.753906 39.050781 C 37.273438 38.625 37.769531 38.175781 38.242188 37.703125 C 38.714844 37.230469 39.164062 36.734375 39.585938 36.21875 C 40.011719 35.699219 40.410156 35.164062 40.78125 34.605469 C 41.152344 34.050781 41.496094 33.476562 41.8125 32.886719 C 42.128906 32.296875 42.414062 31.691406 42.667969 31.074219 C 42.925781 30.457031 43.152344 29.828125 43.34375 29.1875 C 43.539062 28.546875 43.703125 27.898438 43.832031 27.242188 C 43.960938 26.585938 44.058594 25.925781 44.125 25.257812 C 44.191406 24.59375 44.222656 23.925781 44.222656 23.257812 C 44.222656 22.589844 44.191406 21.921875 44.125 21.253906 C 44.058594 20.589844 43.960938 19.929688 43.832031 19.273438 C 43.703125 18.617188 43.539062 17.96875 43.34375 17.328125 C 43.152344 16.6875 42.925781 16.058594 42.667969 15.4375 C 42.414062 14.820312 42.128906 14.21875 41.8125 13.628906 C 41.496094 13.039062 41.152344 12.464844 40.78125 11.90625 C 40.410156 11.351562 40.011719 10.816406 39.585938 10.296875 C 39.164062 9.78125 38.714844 9.285156 38.242188 8.8125 C 37.769531 8.339844 37.273438 7.890625 36.753906 7.464844 C 36.238281 7.042969 35.703125 6.644531 35.144531 6.269531 C 34.589844 5.898438 34.015625 5.554688 33.425781 5.242188 C 32.835938 4.925781 32.230469 4.640625 31.613281 4.382812 C 30.996094 4.128906 30.367188 3.902344 29.726562 3.707031 C 29.085938 3.515625 28.4375 3.351562 27.78125 3.222656 C 27.125 3.089844 26.464844 2.992188 25.796875 2.925781 C 25.132812 2.863281 24.464844 2.828125 23.796875 2.828125 Z M 177.011719 2.828125 C 176.34375 2.828125 175.675781 2.859375 175.007812 2.925781 C 174.34375 2.992188 173.683594 3.089844 173.027344 3.222656 C 172.371094 3.351562 171.722656 3.515625 171.082031 3.707031 C 170.441406 3.902344 169.8125 4.128906 169.195312 4.382812 C 168.574219 4.640625 167.972656 4.925781 167.382812 5.242188 C 166.792969 5.554688 166.21875 5.898438 165.660156 6.269531 C 165.105469 6.644531 164.570312 7.042969 164.050781 7.464844 C 163.535156 7.890625 163.039062 8.339844 162.566406 8.8125 C 162.09375 9.285156 161.644531 9.78125 161.21875 10.296875 C 160.796875 10.816406 160.398438 11.351562 160.023438 11.90625 C 159.652344 12.464844 159.308594 13.039062 158.996094 13.628906 C 158.679688 14.21875 158.394531 14.820312 158.136719 15.4375 C 157.882812 16.058594 157.65625 16.6875 157.460938 17.328125 C 157.269531 17.96875 157.105469 18.617188 156.976562 19.273438 C 156.84375 19.929688 156.746094 20.589844 156.679688 21.253906 C 156.617188 21.921875 156.582031 22.589844 156.582031 23.257812 C 156.582031 23.925781 156.617188 24.59375 156.679688 25.257812 C 156.746094 25.925781 156.84375 26.585938 156.976562 27.242188 C 157.105469 27.898438 157.269531 28.546875 157.460938 29.1875 C 157.65625 29.828125 157.882812 30.457031 158.136719 31.074219 C 158.394531 31.691406 158.679688 32.296875 158.996094 32.886719 C 159.308594 33.476562 159.652344 34.050781 160.023438 34.605469 C 160.398438 35.164062 160.796875 35.699219 161.21875 36.21875 C 161.644531 36.734375 162.09375 37.230469 162.566406 37.703125 C 163.039062 38.175781 163.535156 38.625 164.050781 39.050781 C 164.570312 39.472656 165.105469 39.871094 165.660156 40.242188 C 166.21875 40.613281 166.792969 40.957031 167.382812 41.273438 C 167.972656 41.589844 168.574219 41.875 169.195312 42.132812 C 169.8125 42.386719 170.441406 42.613281 171.082031 42.804688 C 171.722656 43 172.371094 43.164062 173.027344 43.292969 C 173.683594 43.425781 174.34375 43.523438 175.007812 43.585938 C 175.675781 43.652344 176.34375 43.6875 177.011719 43.6875 C 177.679688 43.6875 178.347656 43.652344 179.015625 43.585938 C 179.679688 43.523438 180.339844 43.425781 180.996094 43.292969 C 181.652344 43.164062 182.300781 43 182.941406 42.804688 C 183.582031 42.613281 184.210938 42.386719 184.828125 42.132812 C 185.445312 41.875 186.050781 41.589844 186.640625 41.273438 C 187.230469 40.957031 187.804688 40.613281 188.359375 40.242188 C 188.917969 39.871094 189.453125 39.472656 189.972656 39.050781 C 190.488281 38.625 190.984375 38.175781 191.457031 37.703125 C 191.929688 37.230469 192.378906 36.734375 192.804688 36.21875 C 193.226562 35.699219 193.625 35.164062 193.996094 34.605469 C 194.367188 34.050781 194.710938 33.476562 195.027344 32.886719 C 195.34375 32.296875 195.628906 31.691406 195.886719 31.074219 C 196.140625 30.457031 196.367188 29.828125 196.558594 29.1875 C 196.753906 28.546875 196.917969 27.898438 197.046875 27.242188 C 197.179688 26.585938 197.277344 25.925781 197.339844 25.257812 C 197.40625 24.59375 197.441406 23.925781 197.441406 23.257812 C 197.441406 22.589844 197.40625 21.921875 197.339844 21.253906 C 197.277344 20.589844 197.179688 19.929688 197.046875 19.273438 C 196.917969 18.617188 196.753906 17.96875 196.558594 17.328125 C 196.367188 16.6875 196.140625 16.058594 195.886719 15.4375 C 195.628906 14.820312 195.34375 14.21875 195.027344 13.628906 C 194.710938 13.039062 194.367188 12.464844 193.996094 11.90625 C 193.625 11.351562 193.226562 10.816406 192.804688 10.296875 C 192.378906 9.78125 191.929688 9.285156 191.457031 8.8125 C 190.984375 8.339844 190.488281 7.890625 189.972656 7.464844 C 189.453125 7.042969 188.917969 6.644531 188.359375 6.269531 C 187.804688 5.898438 187.230469 5.554688 186.640625 5.242188 C 186.050781 4.925781 185.445312 4.640625 184.828125 4.382812 C 184.210938 4.128906 183.582031 3.902344 182.941406 3.707031 C 182.300781 3.515625 181.652344 3.351562 180.996094 3.222656 C 180.339844 3.089844 179.679688 2.992188 179.015625 2.925781 C 178.347656 2.863281 177.679688 2.828125 177.011719 2.828125 Z M 177.011719 2.828125 " fill-opacity="0.8" fill-rule="nonzero"/></g></g></g><path fill="#8e7469" d="M 364.652344 375.378906 C 364.382812 375.378906 364.121094 375.429688 363.871094 375.535156 C 363.621094 375.636719 363.398438 375.785156 363.207031 375.976562 C 363.015625 376.167969 362.871094 376.390625 362.765625 376.640625 C 362.660156 376.890625 362.609375 377.148438 362.609375 377.421875 C 362.609375 377.691406 362.660156 377.953125 362.765625 378.203125 C 362.871094 378.453125 363.015625 378.675781 363.207031 378.867188 C 363.398438 379.058594 363.621094 379.203125 363.871094 379.308594 C 364.121094 379.414062 364.382812 379.464844 364.652344 379.464844 C 364.925781 379.464844 365.183594 379.414062 365.433594 379.308594 C 365.683594 379.203125 365.90625 379.058594 366.097656 378.867188 C 366.289062 378.675781 366.4375 378.453125 366.539062 378.203125 C 366.644531 377.953125 366.695312 377.691406 366.695312 377.421875 C 366.695312 377.148438 366.644531 376.890625 366.539062 376.640625 C 366.4375 376.390625 366.289062 376.167969 366.097656 375.976562 C 365.90625 375.785156 365.683594 375.636719 365.433594 375.535156 C 365.183594 375.429688 364.925781 375.378906 364.652344 375.378906 Z M 366.695312 392.742188 C 366.425781 392.742188 366.164062 392.792969 365.914062 392.898438 C 365.664062 393 365.441406 393.148438 365.25 393.339844 C 365.058594 393.53125 364.914062 393.753906 364.808594 394.003906 C 364.703125 394.253906 364.652344 394.515625 364.652344 394.785156 C 364.652344 395.054688 364.703125 395.316406 364.808594 395.566406 C 364.914062 395.816406 365.058594 396.039062 365.25 396.230469 C 365.441406 396.421875 365.664062 396.570312 365.914062 396.671875 C 366.164062 396.777344 366.425781 396.828125 366.695312 396.828125 C 366.96875 396.828125 367.226562 396.777344 367.476562 396.671875 C 367.726562 396.570312 367.949219 396.421875 368.140625 396.230469 C 368.332031 396.039062 368.480469 395.816406 368.582031 395.566406 C 368.6875 395.316406 368.738281 395.054688 368.738281 394.785156 C 368.738281 394.515625 368.6875 394.253906 368.582031 394.003906 C 368.480469 393.753906 368.332031 393.53125 368.140625 393.339844 C 367.949219 393.148438 367.726562 393 367.476562 392.898438 C 367.226562 392.792969 366.96875 392.742188 366.695312 392.742188 Z M 382.019531 382.527344 C 381.746094 382.527344 381.484375 382.582031 381.234375 382.683594 C 380.984375 382.789062 380.765625 382.933594 380.574219 383.125 C 380.382812 383.316406 380.234375 383.539062 380.128906 383.789062 C 380.027344 384.039062 379.976562 384.300781 379.976562 384.570312 C 379.976562 384.84375 380.027344 385.101562 380.128906 385.351562 C 380.234375 385.601562 380.382812 385.824219 380.574219 386.015625 C 380.765625 386.207031 380.984375 386.355469 381.234375 386.457031 C 381.484375 386.5625 381.746094 386.613281 382.019531 386.613281 C 382.289062 386.613281 382.550781 386.5625 382.800781 386.457031 C 383.050781 386.355469 383.269531 386.207031 383.460938 386.015625 C 383.652344 385.824219 383.800781 385.601562 383.90625 385.351562 C 384.007812 385.101562 384.058594 384.84375 384.058594 384.570312 C 384.058594 384.300781 384.007812 384.039062 383.90625 383.789062 C 383.800781 383.539062 383.652344 383.316406 383.460938 383.125 C 383.269531 382.933594 383.050781 382.789062 382.800781 382.683594 C 382.550781 382.582031 382.289062 382.527344 382.019531 382.527344 Z M 414.703125 382.527344 C 414.433594 382.527344 414.171875 382.582031 413.921875 382.683594 C 413.671875 382.789062 413.449219 382.933594 413.257812 383.125 C 413.066406 383.316406 412.917969 383.539062 412.816406 383.789062 C 412.710938 384.039062 412.660156 384.300781 412.660156 384.570312 C 412.660156 384.84375 412.710938 385.101562 412.816406 385.351562 C 412.917969 385.601562 413.066406 385.824219 413.257812 386.015625 C 413.449219 386.207031 413.671875 386.355469 413.921875 386.457031 C 414.171875 386.5625 414.433594 386.613281 414.703125 386.613281 C 414.972656 386.613281 415.234375 386.5625 415.484375 386.457031 C 415.734375 386.355469 415.957031 386.207031 416.148438 386.015625 C 416.339844 385.824219 416.488281 385.601562 416.589844 385.351562 C 416.695312 385.101562 416.746094 384.84375 416.746094 384.570312 C 416.746094 384.300781 416.695312 384.039062 416.589844 383.789062 C 416.488281 383.539062 416.339844 383.316406 416.148438 383.125 C 415.957031 382.933594 415.734375 382.789062 415.484375 382.683594 C 415.234375 382.582031 414.972656 382.527344 414.703125 382.527344 Z M 423.898438 397.851562 C 423.625 397.851562 423.363281 397.902344 423.113281 398.003906 C 422.863281 398.109375 422.644531 398.257812 422.453125 398.449219 C 422.261719 398.640625 422.113281 398.859375 422.007812 399.109375 C 421.90625 399.359375 421.855469 399.621094 421.855469 399.894531 C 421.855469 400.164062 421.90625 400.425781 422.007812 400.675781 C 422.113281 400.925781 422.261719 401.144531 422.453125 401.335938 C 422.644531 401.527344 422.863281 401.675781 423.113281 401.78125 C 423.363281 401.882812 423.625 401.9375 423.898438 401.9375 C 424.167969 401.9375 424.429688 401.882812 424.679688 401.78125 C 424.929688 401.675781 425.148438 401.527344 425.339844 401.335938 C 425.53125 401.144531 425.679688 400.925781 425.785156 400.675781 C 425.886719 400.425781 425.9375 400.164062 425.9375 399.894531 C 425.9375 399.621094 425.886719 399.359375 425.785156 399.109375 C 425.679688 398.859375 425.53125 398.640625 425.339844 398.449219 C 425.148438 398.257812 424.929688 398.109375 424.679688 398.003906 C 424.429688 397.902344 424.167969 397.851562 423.898438 397.851562 Z M 434.109375 382.527344 C 433.839844 382.527344 433.578125 382.582031 433.328125 382.683594 C 433.078125 382.789062 432.859375 382.933594 432.667969 383.125 C 432.476562 383.316406 432.328125 383.539062 432.222656 383.789062 C 432.121094 384.039062 432.066406 384.300781 432.066406 384.570312 C 432.066406 384.84375 432.121094 385.101562 432.222656 385.351562 C 432.328125 385.601562 432.476562 385.824219 432.667969 386.015625 C 432.859375 386.207031 433.078125 386.355469 433.328125 386.457031 C 433.578125 386.5625 433.839844 386.613281 434.109375 386.613281 C 434.382812 386.613281 434.640625 386.5625 434.894531 386.457031 C 435.144531 386.355469 435.363281 386.207031 435.554688 386.015625 C 435.746094 385.824219 435.894531 385.601562 436 385.351562 C 436.101562 385.101562 436.152344 384.84375 436.152344 384.570312 C 436.152344 384.300781 436.101562 384.039062 436 383.789062 C 435.894531 383.539062 435.746094 383.316406 435.554688 383.125 C 435.363281 382.933594 435.144531 382.789062 434.894531 382.683594 C 434.640625 382.582031 434.382812 382.527344 434.109375 382.527344 Z M 434.109375 382.527344 " fill-opacity="0.8" fill-rule="nonzero"/><path fill="#472b29" d="M 281.917969 403.980469 C 279.875 403.980469 278.851562 402.957031 278.851562 400.914062 L 271.703125 324.304688 C 271.703125 322.261719 272.722656 321.242188 274.765625 321.242188 C 276.808594 321.242188 277.832031 322.261719 277.832031 324.304688 L 284.980469 400.914062 C 284.980469 401.9375 283.960938 403.980469 281.917969 403.980469 Z M 511.738281 402.957031 C 509.699219 402.957031 508.675781 400.914062 508.675781 399.894531 L 512.761719 324.304688 C 512.761719 322.261719 513.78125 321.242188 515.824219 321.242188 C 517.867188 321.242188 518.890625 323.285156 518.890625 324.304688 L 514.804688 399.894531 C 514.804688 401.9375 513.78125 402.957031 511.738281 402.957031 Z M 511.738281 402.957031 " fill-opacity="1" fill-rule="nonzero"/><path fill="#472b29" d="M 408.574219 787.019531 C 330.945312 787.019531 255.359375 763.523438 191.007812 720.625 C 189.988281 719.601562 188.964844 717.558594 188.964844 715.515625 C 189.988281 705.300781 191.007812 687.9375 192.03125 671.59375 C 193.050781 645.039062 194.074219 633.800781 195.09375 630.738281 C 200.203125 611.332031 212.457031 593.964844 229.824219 582.730469 C 236.972656 577.621094 245.144531 574.558594 253.316406 572.515625 L 331.96875 544.9375 C 336.054688 543.914062 338.097656 540.851562 339.117188 536.765625 C 340.136719 528.59375 341.160156 520.421875 341.160156 511.230469 C 318.6875 497.949219 299.28125 479.566406 283.960938 457.09375 C 277.832031 447.902344 273.746094 436.664062 274.765625 425.429688 L 274.765625 405 C 267.617188 402.957031 261.488281 396.828125 259.445312 388.65625 C 255.359375 376.398438 249.230469 350.863281 249.230469 348.820312 C 245.144531 337.585938 248.210938 330.433594 251.273438 326.347656 C 253.316406 323.285156 258.421875 319.199219 266.59375 318.179688 C 265.574219 311.027344 263.53125 299.792969 260.464844 283.449219 C 257.402344 268.128906 255.359375 249.742188 254.339844 247.699219 C 253.316406 245.65625 253.316406 242.589844 253.316406 239.527344 C 253.316406 233.398438 256.382812 227.269531 261.488281 223.183594 C 264.550781 221.140625 267.617188 219.097656 270.679688 218.078125 C 265.574219 206.839844 264.550781 196.625 267.617188 188.457031 C 270.679688 180.285156 276.808594 173.132812 284.980469 169.046875 L 284.980469 170.070312 C 284.980469 139.425781 315.625 114.910156 353.417969 114.910156 C 366.695312 114.910156 379.976562 117.976562 391.210938 124.105469 C 402.445312 112.867188 417.769531 106.742188 434.109375 106.742188 C 462.710938 105.71875 487.226562 127.167969 491.3125 154.746094 C 493.355469 154.746094 495.398438 154.746094 498.460938 154.746094 L 499.484375 154.746094 C 525.019531 154.746094 545.449219 175.175781 545.449219 200.710938 C 545.449219 202.753906 545.449219 205.820312 544.425781 207.863281 C 562.8125 209.90625 577.113281 226.25 577.113281 244.632812 C 577.113281 253.828125 574.046875 262 567.917969 268.128906 C 568.941406 270.171875 568.941406 272.214844 568.941406 274.257812 C 577.113281 274.257812 585.285156 270.171875 591.414062 263.019531 C 592.433594 260.976562 595.5 260.976562 597.539062 262 C 599.582031 263.019531 600.605469 265.0625 600.605469 267.105469 C 595.5 293.664062 588.347656 308.984375 566.898438 317.15625 C 555.660156 320.222656 543.40625 320.222656 532.167969 318.179688 C 531.148438 319.199219 531.148438 320.222656 530.125 321.242188 C 535.234375 323.285156 539.320312 325.328125 540.339844 328.390625 C 543.40625 332.476562 545.449219 339.628906 542.382812 350.863281 C 541.363281 356.992188 535.234375 381.507812 532.167969 390.699219 C 531.148438 396.828125 526.039062 402.957031 519.910156 405 L 519.910156 431.558594 C 519.910156 438.707031 517.867188 444.835938 514.804688 450.964844 C 499.484375 476.5 478.03125 497.949219 452.496094 512.25 C 452.496094 520.421875 453.519531 528.59375 454.539062 536.765625 C 454.539062 540.851562 457.605469 543.914062 461.691406 544.9375 C 478.03125 551.066406 559.746094 579.664062 567.917969 584.773438 C 599.582031 605.203125 601.625 627.671875 602.648438 641.972656 L 602.648438 644.015625 L 605.710938 730.839844 C 605.710938 732.882812 604.691406 734.925781 602.648438 735.945312 C 543.40625 768.632812 477.011719 787.019531 408.574219 787.019531 Z M 200.203125 713.472656 C 262.507812 755.351562 334.011719 776.804688 409.597656 776.804688 C 474.96875 776.804688 538.296875 759.4375 595.5 727.773438 L 592.433594 641.972656 C 591.414062 627.671875 590.390625 611.332031 561.789062 592.945312 C 556.683594 589.878906 495.398438 567.410156 458.625 554.128906 C 451.476562 552.085938 446.367188 545.957031 445.347656 537.785156 C 444.324219 528.59375 443.304688 518.378906 443.304688 509.1875 C 443.304688 507.144531 444.324219 505.101562 446.367188 505.101562 C 471.902344 490.800781 492.332031 470.371094 506.632812 445.855469 C 508.675781 441.773438 510.71875 436.664062 510.71875 431.558594 L 510.71875 401.933594 C 510.71875 398.871094 512.761719 396.828125 514.804688 396.828125 C 518.890625 395.808594 522.976562 392.742188 522.976562 388.65625 C 527.0625 376.398438 533.191406 350.863281 533.191406 348.820312 C 535.234375 343.714844 536.253906 338.605469 533.191406 334.519531 C 531.148438 331.457031 526.039062 330.433594 519.910156 330.433594 C 517.867188 330.433594 515.824219 329.414062 514.804688 327.371094 C 513.78125 325.328125 514.804688 323.285156 516.847656 321.242188 C 520.933594 318.175781 523.996094 315.113281 526.039062 311.027344 C 527.0625 308.984375 529.105469 307.964844 530.125 307.964844 L 531.148438 307.964844 C 531.148438 307.964844 532.167969 307.964844 532.167969 307.964844 C 542.382812 311.027344 553.621094 311.027344 563.832031 307.964844 C 576.089844 303.878906 583.242188 296.726562 587.328125 280.382812 C 580.175781 284.46875 573.027344 285.492188 564.855469 285.492188 C 561.789062 285.492188 559.746094 283.449219 559.746094 280.382812 C 559.746094 276.296875 558.726562 273.234375 557.703125 270.171875 C 556.683594 268.128906 557.703125 266.085938 558.726562 264.042969 C 563.832031 258.933594 566.898438 252.804688 566.898438 245.65625 C 566.898438 230.335938 554.640625 219.097656 540.339844 219.097656 C 539.320312 219.097656 539.320312 219.097656 538.296875 219.097656 C 536.253906 219.097656 535.234375 218.078125 534.210938 217.054688 C 533.191406 216.035156 533.191406 213.992188 533.191406 211.949219 C 534.210938 208.882812 535.234375 204.796875 535.234375 201.734375 C 535.234375 182.328125 518.890625 165.984375 499.484375 165.984375 L 498.460938 165.984375 C 495.398438 165.984375 491.3125 165.984375 488.246094 167.003906 C 487.226562 167.003906 485.183594 167.003906 484.160156 165.984375 C 483.140625 164.960938 482.117188 163.941406 482.117188 161.898438 L 482.117188 159.855469 C 481.097656 135.339844 459.648438 115.933594 435.132812 116.953125 C 420.832031 116.953125 406.53125 123.082031 397.339844 134.320312 C 395.296875 136.363281 393.253906 136.363281 391.210938 135.339844 C 379.976562 128.191406 367.71875 125.125 355.460938 125.125 C 323.796875 125.125 297.238281 145.554688 297.238281 170.070312 L 297.238281 174.15625 C 297.238281 176.199219 296.21875 178.242188 294.175781 178.242188 C 287.023438 181.304688 281.917969 187.433594 279.875 194.582031 C 276.808594 200.710938 278.851562 209.90625 284.980469 221.140625 C 286.003906 222.164062 286.003906 225.226562 284.980469 226.25 C 283.960938 228.292969 281.917969 229.3125 279.875 229.3125 C 272.722656 229.3125 265.574219 234.421875 265.574219 242.589844 C 265.574219 244.632812 265.574219 245.65625 266.59375 247.699219 C 267.617188 250.761719 269.660156 263.019531 272.722656 284.46875 C 275.789062 301.835938 278.851562 321.242188 279.875 324.304688 C 279.875 325.328125 279.875 327.371094 278.851562 328.390625 C 277.832031 329.414062 276.808594 330.433594 274.765625 330.433594 C 270.679688 330.433594 264.550781 331.457031 261.488281 334.519531 C 258.421875 338.605469 260.464844 343.714844 261.488281 347.800781 C 261.488281 348.820312 267.617188 375.378906 271.703125 387.636719 C 272.722656 392.742188 276.808594 396.828125 281.917969 396.828125 C 282.9375 396.828125 284.980469 396.828125 286.003906 397.851562 C 287.023438 398.871094 288.046875 399.894531 288.046875 401.9375 L 288.046875 427.472656 C 288.046875 436.664062 290.089844 445.859375 296.21875 453.007812 C 310.515625 474.457031 329.925781 492.84375 352.394531 505.101562 C 354.4375 506.121094 355.460938 508.164062 354.4375 509.1875 C 354.4375 519.402344 353.417969 528.59375 352.394531 538.808594 C 351.375 545.957031 346.265625 553.109375 339.117188 555.152344 L 260.464844 582.730469 C 252.296875 584.773438 246.167969 587.835938 239.015625 591.921875 C 224.714844 602.136719 213.480469 617.460938 208.375 634.824219 C 207.351562 637.886719 206.332031 657.296875 206.332031 673.636719 C 201.222656 686.917969 201.222656 703.257812 200.203125 713.472656 Z M 200.203125 713.472656 " fill-opacity="1" fill-rule="nonzero"/><path fill="#6d1b18" d="M 352.394531 454.027344 C 352.394531 456.070312 351.375 458.113281 351.375 460.15625 C 351.375 478.542969 371.804688 493.863281 397.339844 493.863281 C 422.875 493.863281 443.304688 478.542969 443.304688 460.15625 C 443.304688 458.113281 443.304688 456.070312 442.28125 454.027344 Z M 352.394531 454.027344 " fill-opacity="1" fill-rule="nonzero"/><path fill="#ee3e54" d="M 421.855469 488.757812 C 414.703125 482.628906 406.53125 480.585938 397.339844 480.585938 C 388.144531 479.566406 379.976562 482.628906 372.824219 488.757812 C 389.167969 495.90625 406.53125 495.90625 421.855469 488.757812 Z M 421.855469 488.757812 " fill-opacity="1" fill-rule="nonzero"/><path fill="#fdfcef" d="M 365.675781 454.027344 L 365.675781 460.15625 C 365.675781 465.265625 372.824219 469.351562 379.976562 469.351562 L 414.703125 469.351562 C 422.875 469.351562 429.003906 465.265625 429.003906 460.15625 L 429.003906 454.027344 Z M 365.675781 454.027344 " fill-opacity="1" fill-rule="nonzero"/><path fill="#472b29" d="M 397.339844 496.929688 C 370.78125 496.929688 348.308594 480.585938 348.308594 461.179688 C 348.308594 459.136719 348.308594 456.070312 349.332031 454.027344 C 349.332031 453.007812 350.351562 451.984375 351.375 451.984375 L 441.261719 451.984375 C 442.28125 451.984375 443.304688 453.007812 443.304688 454.027344 C 444.324219 456.070312 444.324219 459.136719 444.324219 461.179688 C 446.367188 480.585938 424.917969 496.929688 397.339844 496.929688 Z M 354.4375 456.070312 C 354.4375 457.09375 354.4375 458.113281 354.4375 460.15625 C 354.4375 477.523438 373.847656 490.800781 398.359375 490.800781 C 421.855469 490.800781 441.261719 476.5 441.261719 460.15625 C 441.261719 459.136719 441.261719 458.113281 441.261719 456.070312 Z M 354.4375 456.070312 " fill-opacity="1" fill-rule="nonzero"/><path fill="#ffffff" d="M 709.898438 209.90625 C 709.429688 209.90625 708.964844 209.949219 708.503906 210.039062 C 708.039062 210.132812 707.59375 210.265625 707.160156 210.445312 C 706.722656 210.625 706.3125 210.84375 705.921875 211.105469 C 705.527344 211.367188 705.167969 211.664062 704.835938 211.996094 C 704.5 212.328125 704.203125 212.6875 703.941406 213.078125 C 703.679688 213.46875 703.460938 213.882812 703.28125 214.316406 C 703.101562 214.75 702.964844 215.199219 702.871094 215.660156 C 702.78125 216.121094 702.734375 216.585938 702.734375 217.054688 C 702.734375 217.527344 702.78125 217.992188 702.871094 218.453125 C 702.964844 218.914062 703.101562 219.359375 703.28125 219.792969 C 703.460938 220.230469 703.679688 220.640625 703.941406 221.03125 C 704.203125 221.421875 704.5 221.785156 704.835938 222.117188 C 705.167969 222.449219 705.527344 222.746094 705.921875 223.003906 C 706.3125 223.265625 706.722656 223.484375 707.160156 223.664062 C 707.59375 223.84375 708.039062 223.980469 708.503906 224.070312 C 708.964844 224.160156 709.429688 224.207031 709.898438 224.207031 C 710.367188 224.207031 710.835938 224.160156 711.296875 224.070312 C 711.757812 223.980469 712.203125 223.84375 712.640625 223.664062 C 713.074219 223.484375 713.488281 223.265625 713.878906 223.003906 C 714.269531 222.746094 714.632812 222.449219 714.964844 222.117188 C 715.296875 221.785156 715.59375 221.421875 715.855469 221.03125 C 716.117188 220.640625 716.335938 220.230469 716.519531 219.792969 C 716.699219 219.359375 716.832031 218.914062 716.925781 218.453125 C 717.015625 217.992188 717.0625 217.527344 717.0625 217.054688 C 717.0625 216.585938 717.015625 216.121094 716.925781 215.660156 C 716.832031 215.199219 716.699219 214.75 716.515625 214.316406 C 716.335938 213.882812 716.117188 213.46875 715.855469 213.078125 C 715.59375 212.6875 715.296875 212.328125 714.964844 211.996094 C 714.632812 211.664062 714.269531 211.367188 713.878906 211.105469 C 713.488281 210.84375 713.074219 210.625 712.640625 210.445312 C 712.203125 210.265625 711.757812 210.132812 711.296875 210.039062 C 710.835938 209.949219 710.367188 209.90625 709.898438 209.90625 Z M 709.898438 209.90625 " fill-opacity="1" fill-rule="nonzero"/><path fill="#f1bc19" d="M 683.339844 13.789062 C 682.738281 13.789062 682.140625 13.847656 681.546875 13.964844 C 680.957031 14.082031 680.382812 14.257812 679.824219 14.488281 C 679.265625 14.71875 678.734375 15.003906 678.234375 15.339844 C 677.730469 15.675781 677.269531 16.054688 676.839844 16.480469 C 676.414062 16.910156 676.035156 17.375 675.699219 17.875 C 675.363281 18.375 675.078125 18.90625 674.847656 19.464844 C 674.617188 20.023438 674.441406 20.597656 674.324219 21.1875 C 674.207031 21.78125 674.148438 22.378906 674.148438 22.980469 C 674.148438 23.585938 674.207031 24.183594 674.324219 24.777344 C 674.441406 25.367188 674.617188 25.941406 674.847656 26.5 C 675.078125 27.058594 675.363281 27.585938 675.699219 28.089844 C 676.035156 28.589844 676.414062 29.054688 676.839844 29.484375 C 677.269531 29.910156 677.730469 30.289062 678.234375 30.625 C 678.734375 30.960938 679.265625 31.246094 679.824219 31.476562 C 680.382812 31.707031 680.957031 31.882812 681.546875 32 C 682.140625 32.117188 682.738281 32.175781 683.339844 32.175781 C 683.945312 32.175781 684.542969 32.117188 685.136719 32 C 685.726562 31.882812 686.300781 31.707031 686.859375 31.476562 C 687.417969 31.246094 687.945312 30.960938 688.449219 30.625 C 688.949219 30.289062 689.414062 29.910156 689.84375 29.484375 C 690.269531 29.054688 690.648438 28.589844 690.984375 28.089844 C 691.320312 27.585938 691.605469 27.058594 691.835938 26.5 C 692.066406 25.941406 692.238281 25.367188 692.359375 24.777344 C 692.476562 24.183594 692.535156 23.585938 692.535156 22.980469 C 692.535156 22.378906 692.476562 21.78125 692.359375 21.1875 C 692.238281 20.597656 692.066406 20.023438 691.835938 19.464844 C 691.605469 18.90625 691.320312 18.375 690.984375 17.875 C 690.648438 17.375 690.269531 16.910156 689.84375 16.480469 C 689.414062 16.054688 688.949219 15.675781 688.449219 15.339844 C 687.945312 15.003906 687.417969 14.71875 686.859375 14.488281 C 686.300781 14.257812 685.726562 14.082031 685.136719 13.964844 C 684.542969 13.847656 683.945312 13.789062 683.339844 13.789062 Z M 738.5 3.574219 C 737.160156 3.574219 735.828125 3.640625 734.496094 3.773438 C 733.164062 3.902344 731.839844 4.097656 730.527344 4.359375 C 729.214844 4.621094 727.917969 4.945312 726.640625 5.335938 C 725.359375 5.722656 724.101562 6.171875 722.863281 6.683594 C 721.628906 7.195312 720.417969 7.769531 719.238281 8.398438 C 718.058594 9.03125 716.914062 9.71875 715.800781 10.460938 C 714.6875 11.203125 713.613281 12 712.578125 12.847656 C 711.546875 13.699219 710.554688 14.597656 709.609375 15.542969 C 708.664062 16.488281 707.765625 17.476562 706.917969 18.511719 C 706.066406 19.546875 705.269531 20.621094 704.527344 21.734375 C 703.785156 22.847656 703.097656 23.992188 702.464844 25.171875 C 701.835938 26.351562 701.265625 27.5625 700.75 28.796875 C 700.238281 30.035156 699.789062 31.292969 699.402344 32.570312 C 699.011719 33.851562 698.6875 35.148438 698.425781 36.460938 C 698.164062 37.773438 697.96875 39.097656 697.839844 40.429688 C 697.707031 41.757812 697.640625 43.09375 697.640625 44.433594 C 697.640625 45.769531 697.707031 47.105469 697.839844 48.4375 C 697.96875 49.769531 698.164062 51.089844 698.425781 52.402344 C 698.6875 53.714844 699.011719 55.011719 699.402344 56.292969 C 699.789062 57.574219 700.238281 58.832031 700.75 60.066406 C 701.265625 61.304688 701.835938 62.511719 702.464844 63.691406 C 703.097656 64.871094 703.785156 66.019531 704.527344 67.132812 C 705.269531 68.246094 706.066406 69.316406 706.917969 70.351562 C 707.765625 71.386719 708.664062 72.378906 709.609375 73.324219 C 710.554688 74.269531 711.546875 75.167969 712.578125 76.015625 C 713.613281 76.863281 714.6875 77.660156 715.800781 78.40625 C 716.914062 79.148438 718.058594 79.835938 719.238281 80.464844 C 720.417969 81.097656 721.628906 81.667969 722.863281 82.179688 C 724.101562 82.691406 725.359375 83.140625 726.640625 83.53125 C 727.917969 83.917969 729.214844 84.242188 730.527344 84.503906 C 731.839844 84.765625 733.164062 84.960938 734.496094 85.09375 C 735.828125 85.222656 737.160156 85.289062 738.5 85.289062 C 739.835938 85.289062 741.171875 85.222656 742.503906 85.09375 C 743.835938 84.960938 745.15625 84.765625 746.46875 84.503906 C 747.78125 84.242188 749.078125 83.917969 750.359375 83.53125 C 751.640625 83.140625 752.898438 82.691406 754.132812 82.179688 C 755.371094 81.667969 756.578125 81.097656 757.757812 80.464844 C 758.941406 79.835938 760.085938 79.148438 761.199219 78.40625 C 762.3125 77.660156 763.382812 76.863281 764.417969 76.015625 C 765.453125 75.167969 766.445312 74.269531 767.390625 73.324219 C 768.335938 72.378906 769.234375 71.386719 770.082031 70.351562 C 770.929688 69.316406 771.726562 68.246094 772.472656 67.132812 C 773.214844 66.019531 773.902344 64.871094 774.53125 63.691406 C 775.164062 62.511719 775.734375 61.304688 776.246094 60.066406 C 776.757812 58.832031 777.210938 57.574219 777.597656 56.292969 C 777.984375 55.011719 778.3125 53.714844 778.570312 52.402344 C 778.832031 51.089844 779.027344 49.769531 779.160156 48.4375 C 779.292969 47.105469 779.355469 45.769531 779.355469 44.433594 C 779.355469 43.09375 779.292969 41.757812 779.160156 40.429688 C 779.027344 39.097656 778.832031 37.773438 778.570312 36.460938 C 778.3125 35.148438 777.984375 33.851562 777.597656 32.574219 C 777.210938 31.292969 776.757812 30.035156 776.246094 28.796875 C 775.734375 27.5625 775.164062 26.351562 774.53125 25.171875 C 773.902344 23.992188 773.214844 22.847656 772.472656 21.734375 C 771.726562 20.621094 770.929688 19.546875 770.082031 18.511719 C 769.234375 17.476562 768.335938 16.488281 767.390625 15.542969 C 766.445312 14.597656 765.453125 13.699219 764.417969 12.847656 C 763.382812 12 762.3125 11.203125 761.199219 10.460938 C 760.085938 9.71875 758.941406 9.03125 757.757812 8.398438 C 756.578125 7.769531 755.371094 7.195312 754.132812 6.683594 C 752.898438 6.171875 751.640625 5.722656 750.359375 5.335938 C 749.078125 4.945312 747.78125 4.621094 746.46875 4.359375 C 745.15625 4.097656 743.835938 3.902344 742.503906 3.773438 C 741.171875 3.640625 739.835938 3.574219 738.5 3.574219 Z M 738.5 3.574219 " fill-opacity="1" fill-rule="nonzero"/><path fill="#00a5a5" d="M 779.355469 117.976562 C 778.722656 117.976562 778.085938 118.007812 777.453125 118.070312 C 776.820312 118.132812 776.195312 118.226562 775.570312 118.347656 C 774.945312 118.472656 774.332031 118.628906 773.722656 118.8125 C 773.113281 118.996094 772.515625 119.210938 771.929688 119.453125 C 771.34375 119.695312 770.769531 119.96875 770.207031 120.269531 C 769.648438 120.566406 769.101562 120.894531 768.574219 121.246094 C 768.046875 121.601562 767.535156 121.976562 767.042969 122.382812 C 766.554688 122.785156 766.082031 123.210938 765.632812 123.660156 C 765.183594 124.109375 764.757812 124.582031 764.355469 125.070312 C 763.953125 125.5625 763.574219 126.074219 763.21875 126.601562 C 762.867188 127.128906 762.539062 127.675781 762.242188 128.234375 C 761.941406 128.796875 761.671875 129.371094 761.425781 129.957031 C 761.183594 130.542969 760.96875 131.140625 760.785156 131.75 C 760.601562 132.359375 760.445312 132.972656 760.324219 133.597656 C 760.199219 134.21875 760.105469 134.847656 760.042969 135.480469 C 759.980469 136.113281 759.949219 136.746094 759.949219 137.382812 C 759.949219 138.019531 759.980469 138.652344 760.042969 139.285156 C 760.105469 139.917969 760.199219 140.546875 760.324219 141.167969 C 760.445312 141.792969 760.601562 142.410156 760.785156 143.015625 C 760.96875 143.625 761.183594 144.222656 761.425781 144.808594 C 761.671875 145.398438 761.941406 145.972656 762.242188 146.53125 C 762.539062 147.09375 762.867188 147.636719 763.21875 148.164062 C 763.574219 148.695312 763.953125 149.203125 764.355469 149.695312 C 764.757812 150.1875 765.183594 150.65625 765.632812 151.105469 C 766.082031 151.554688 766.554688 151.980469 767.042969 152.386719 C 767.535156 152.789062 768.046875 153.167969 768.574219 153.519531 C 769.101562 153.875 769.648438 154.199219 770.207031 154.5 C 770.769531 154.796875 771.34375 155.070312 771.929688 155.3125 C 772.515625 155.554688 773.113281 155.769531 773.722656 155.953125 C 774.332031 156.140625 774.945312 156.292969 775.570312 156.417969 C 776.195312 156.542969 776.820312 156.636719 777.453125 156.695312 C 778.085938 156.757812 778.722656 156.789062 779.355469 156.789062 C 779.992188 156.789062 780.625 156.757812 781.257812 156.699219 C 781.890625 156.636719 782.519531 156.542969 783.144531 156.417969 C 783.765625 156.292969 784.382812 156.140625 784.992188 155.953125 C 785.597656 155.769531 786.195312 155.554688 786.785156 155.3125 C 787.371094 155.070312 787.945312 154.796875 788.503906 154.5 C 789.066406 154.199219 789.609375 153.875 790.140625 153.519531 C 790.667969 153.167969 791.175781 152.789062 791.667969 152.386719 C 792.160156 151.980469 792.628906 151.554688 793.078125 151.105469 C 793.53125 150.65625 793.957031 150.1875 794.359375 149.695312 C 794.761719 149.203125 795.140625 148.695312 795.492188 148.164062 C 795.847656 147.636719 796.171875 147.09375 796.472656 146.53125 C 796.773438 145.972656 797.042969 145.398438 797.285156 144.808594 C 797.53125 144.222656 797.742188 143.625 797.929688 143.015625 C 798.113281 142.410156 798.265625 141.792969 798.390625 141.167969 C 798.515625 140.546875 798.609375 139.917969 798.671875 139.285156 C 798.734375 138.652344 798.765625 138.019531 798.765625 137.382812 C 798.765625 136.746094 798.734375 136.113281 798.671875 135.480469 C 798.609375 134.847656 798.515625 134.21875 798.390625 133.597656 C 798.265625 132.972656 798.113281 132.359375 797.929688 131.75 C 797.742188 131.140625 797.53125 130.542969 797.285156 129.957031 C 797.042969 129.371094 796.773438 128.796875 796.472656 128.234375 C 796.171875 127.675781 795.847656 127.128906 795.492188 126.601562 C 795.140625 126.074219 794.761719 125.5625 794.359375 125.070312 C 793.957031 124.582031 793.53125 124.109375 793.078125 123.660156 C 792.628906 123.210938 792.160156 122.785156 791.667969 122.382812 C 791.175781 121.976562 790.667969 121.601562 790.140625 121.246094 C 789.609375 120.894531 789.066406 120.566406 788.503906 120.269531 C 787.945312 119.96875 787.371094 119.695312 786.785156 119.453125 C 786.195312 119.210938 785.597656 118.996094 784.992188 118.8125 C 784.382812 118.628906 783.765625 118.472656 783.144531 118.347656 C 782.519531 118.226562 781.890625 118.132812 781.257812 118.070312 C 780.625 118.007812 779.992188 117.976562 779.355469 117.976562 Z M 779.355469 117.976562 " fill-opacity="1" fill-rule="nonzero"/><path fill="#ffffff" d="M 674.148438 183.347656 C 673.546875 183.347656 672.945312 183.378906 672.347656 183.4375 C 671.746094 183.496094 671.152344 183.582031 670.5625 183.703125 C 669.972656 183.820312 669.386719 183.964844 668.8125 184.140625 C 668.234375 184.316406 667.667969 184.515625 667.113281 184.746094 C 666.554688 184.976562 666.011719 185.234375 665.480469 185.519531 C 664.949219 185.804688 664.433594 186.113281 663.933594 186.445312 C 663.433594 186.78125 662.949219 187.140625 662.484375 187.519531 C 662.019531 187.902344 661.574219 188.308594 661.148438 188.734375 C 660.722656 189.160156 660.316406 189.605469 659.9375 190.070312 C 659.554688 190.535156 659.195312 191.019531 658.859375 191.519531 C 658.527344 192.019531 658.21875 192.535156 657.933594 193.066406 C 657.648438 193.597656 657.394531 194.140625 657.164062 194.699219 C 656.933594 195.253906 656.730469 195.820312 656.554688 196.398438 C 656.378906 196.972656 656.234375 197.554688 656.117188 198.148438 C 656 198.738281 655.910156 199.332031 655.851562 199.933594 C 655.792969 200.53125 655.761719 201.132812 655.761719 201.734375 C 655.761719 202.335938 655.792969 202.9375 655.851562 203.535156 C 655.910156 204.136719 656 204.730469 656.117188 205.320312 C 656.234375 205.910156 656.378906 206.496094 656.554688 207.070312 C 656.730469 207.648438 656.933594 208.214844 657.164062 208.769531 C 657.394531 209.328125 657.648438 209.871094 657.933594 210.402344 C 658.21875 210.933594 658.527344 211.449219 658.859375 211.949219 C 659.195312 212.449219 659.554688 212.933594 659.9375 213.398438 C 660.316406 213.863281 660.722656 214.308594 661.148438 214.734375 C 661.574219 215.160156 662.019531 215.5625 662.484375 215.945312 C 662.949219 216.328125 663.433594 216.6875 663.933594 217.019531 C 664.433594 217.355469 664.949219 217.664062 665.480469 217.949219 C 666.011719 218.234375 666.554688 218.488281 667.113281 218.71875 C 667.667969 218.949219 668.234375 219.152344 668.8125 219.328125 C 669.386719 219.503906 669.972656 219.648438 670.5625 219.765625 C 671.152344 219.882812 671.746094 219.972656 672.347656 220.03125 C 672.945312 220.089844 673.546875 220.121094 674.148438 220.121094 C 674.75 220.121094 675.351562 220.089844 675.949219 220.03125 C 676.550781 219.972656 677.144531 219.882812 677.734375 219.765625 C 678.324219 219.648438 678.910156 219.503906 679.484375 219.328125 C 680.0625 219.152344 680.628906 218.949219 681.183594 218.71875 C 681.742188 218.488281 682.285156 218.234375 682.816406 217.949219 C 683.347656 217.664062 683.863281 217.355469 684.363281 217.019531 C 684.863281 216.6875 685.347656 216.328125 685.8125 215.945312 C 686.277344 215.5625 686.722656 215.160156 687.148438 214.734375 C 687.574219 214.308594 687.980469 213.863281 688.359375 213.398438 C 688.742188 212.933594 689.101562 212.449219 689.4375 211.949219 C 689.769531 211.449219 690.078125 210.933594 690.363281 210.402344 C 690.648438 209.871094 690.90625 209.328125 691.136719 208.769531 C 691.367188 208.214844 691.566406 207.648438 691.742188 207.070312 C 691.917969 206.496094 692.0625 205.910156 692.179688 205.320312 C 692.296875 204.730469 692.386719 204.136719 692.445312 203.535156 C 692.503906 202.9375 692.535156 202.335938 692.535156 201.734375 C 692.535156 201.132812 692.503906 200.53125 692.445312 199.933594 C 692.386719 199.332031 692.296875 198.738281 692.179688 198.148438 C 692.0625 197.554688 691.917969 196.972656 691.742188 196.398438 C 691.566406 195.820312 691.367188 195.253906 691.136719 194.699219 C 690.90625 194.140625 690.648438 193.597656 690.363281 193.066406 C 690.078125 192.535156 689.769531 192.019531 689.4375 191.519531 C 689.101562 191.019531 688.742188 190.535156 688.359375 190.070312 C 687.980469 189.605469 687.574219 189.160156 687.148438 188.734375 C 686.722656 188.308594 686.277344 187.902344 685.8125 187.519531 C 685.347656 187.140625 684.863281 186.78125 684.363281 186.445312 C 683.863281 186.113281 683.347656 185.804688 682.816406 185.519531 C 682.285156 185.234375 681.742188 184.976562 681.183594 184.746094 C 680.628906 184.515625 680.0625 184.316406 679.484375 184.140625 C 678.910156 183.964844 678.324219 183.820312 677.734375 183.703125 C 677.144531 183.582031 676.550781 183.496094 675.949219 183.4375 C 675.351562 183.378906 674.75 183.347656 674.148438 183.347656 Z M 674.148438 183.347656 " fill-opacity="1" fill-rule="nonzero"/></svg>