<svg xmlns="http://www.w3.org/2000/svg" xmlns:xlink="http://www.w3.org/1999/xlink" width="1080" zoomAndPan="magnify" viewBox="0 0 810 809.999993" height="1080" preserveAspectRatio="xMidYMid meet" version="1.0"><defs><filter x="0%" y="0%" width="100%" height="100%" id="7c2825c6ad"><feColorMatrix values="0 0 0 0 1 0 0 0 0 1 0 0 0 0 1 0 0 0 1 0" color-interpolation-filters="sRGB"/></filter><mask id="5f7725c6c7"><g filter="url(#7c2825c6ad)"><rect x="-81" width="972" fill="#000000" y="-80.999999" height="971.999992" fill-opacity="0.3"/></g></mask><clipPath id="17fc850a86"><rect x="0" width="206" y="0" height="52"/></clipPath></defs><path fill="#f1bc19" d="M 357.503906 197.722656 C 356.898438 197.722656 356.300781 197.78125 355.710938 197.902344 C 355.117188 198.019531 354.542969 198.191406 353.984375 198.425781 C 353.425781 198.65625 352.898438 198.9375 352.394531 199.273438 C 351.894531 199.609375 351.429688 199.992188 351.003906 200.417969 C 350.574219 200.84375 350.195312 201.308594 349.859375 201.8125 C 349.523438 202.3125 349.242188 202.84375 349.011719 203.402344 C 348.777344 203.957031 348.605469 204.535156 348.488281 205.125 C 348.367188 205.71875 348.308594 206.316406 348.308594 206.921875 C 348.308594 207.523438 348.367188 208.121094 348.488281 208.714844 C 348.605469 209.304688 348.777344 209.882812 349.011719 210.4375 C 349.242188 210.996094 349.523438 211.527344 349.859375 212.027344 C 350.195312 212.53125 350.574219 212.996094 351.003906 213.421875 C 351.429688 213.847656 351.894531 214.230469 352.394531 214.566406 C 352.898438 214.902344 353.425781 215.183594 353.984375 215.414062 C 354.542969 215.648438 355.117188 215.820312 355.710938 215.9375 C 356.300781 216.058594 356.898438 216.117188 357.503906 216.117188 C 358.105469 216.117188 358.703125 216.058594 359.296875 215.9375 C 359.886719 215.820312 360.464844 215.648438 361.019531 215.414062 C 361.578125 215.183594 362.109375 214.902344 362.609375 214.566406 C 363.113281 214.230469 363.578125 213.847656 364.003906 213.421875 C 364.429688 212.996094 364.8125 212.53125 365.148438 212.027344 C 365.480469 211.527344 365.765625 210.996094 365.996094 210.4375 C 366.226562 209.882812 366.402344 209.304688 366.519531 208.714844 C 366.636719 208.121094 366.695312 207.523438 366.695312 206.921875 C 366.695312 206.316406 366.636719 205.71875 366.519531 205.125 C 366.402344 204.535156 366.226562 203.957031 365.996094 203.402344 C 365.765625 202.84375 365.480469 202.3125 365.148438 201.8125 C 364.8125 201.308594 364.429688 200.84375 364.003906 200.417969 C 363.578125 199.992188 363.113281 199.609375 362.609375 199.273438 C 362.109375 198.9375 361.578125 198.65625 361.019531 198.425781 C 360.464844 198.191406 359.886719 198.019531 359.296875 197.902344 C 358.703125 197.78125 358.105469 197.722656 357.503906 197.722656 Z M 357.503906 197.722656 " fill-opacity="1" fill-rule="nonzero"/><path fill="#ffffff" d="M 107.25 459.292969 C 106.648438 459.292969 106.050781 459.351562 105.457031 459.472656 C 104.867188 459.589844 104.289062 459.761719 103.734375 459.996094 C 103.175781 460.226562 102.644531 460.507812 102.144531 460.84375 C 101.640625 461.179688 101.175781 461.5625 100.75 461.988281 C 100.324219 462.414062 99.941406 462.878906 99.605469 463.382812 C 99.273438 463.882812 98.988281 464.414062 98.757812 464.972656 C 98.527344 465.527344 98.351562 466.105469 98.234375 466.695312 C 98.117188 467.289062 98.058594 467.886719 98.058594 468.492188 C 98.058594 469.09375 98.117188 469.691406 98.234375 470.285156 C 98.351562 470.875 98.527344 471.453125 98.757812 472.007812 C 98.988281 472.566406 99.273438 473.097656 99.605469 473.597656 C 99.941406 474.101562 100.324219 474.566406 100.75 474.992188 C 101.175781 475.417969 101.640625 475.800781 102.144531 476.136719 C 102.644531 476.472656 103.175781 476.753906 103.734375 476.984375 C 104.289062 477.21875 104.867188 477.390625 105.457031 477.507812 C 106.050781 477.628906 106.648438 477.6875 107.25 477.6875 C 107.855469 477.6875 108.453125 477.628906 109.042969 477.507812 C 109.636719 477.390625 110.210938 477.21875 110.769531 476.984375 C 111.328125 476.753906 111.855469 476.472656 112.359375 476.136719 C 112.859375 475.800781 113.324219 475.417969 113.75 474.992188 C 114.179688 474.566406 114.558594 474.101562 114.894531 473.597656 C 115.230469 473.097656 115.511719 472.566406 115.742188 472.007812 C 115.976562 471.453125 116.148438 470.875 116.265625 470.285156 C 116.386719 469.691406 116.445312 469.09375 116.445312 468.492188 C 116.445312 467.886719 116.386719 467.289062 116.265625 466.695312 C 116.148438 466.105469 115.976562 465.527344 115.742188 464.972656 C 115.511719 464.414062 115.230469 463.882812 114.894531 463.382812 C 114.558594 462.878906 114.179688 462.414062 113.75 461.988281 C 113.324219 461.5625 112.859375 461.179688 112.359375 460.84375 C 111.855469 460.507812 111.328125 460.226562 110.769531 459.996094 C 110.210938 459.761719 109.636719 459.589844 109.042969 459.472656 C 108.453125 459.351562 107.855469 459.292969 107.25 459.292969 Z M 709.898438 206.921875 C 709.429688 206.917969 708.964844 206.964844 708.503906 207.054688 C 708.039062 207.144531 707.59375 207.28125 707.160156 207.460938 C 706.722656 207.640625 706.3125 207.859375 705.921875 208.121094 C 705.527344 208.382812 705.167969 208.679688 704.835938 209.011719 C 704.5 209.34375 704.203125 209.703125 703.941406 210.09375 C 703.679688 210.484375 703.460938 210.898438 703.28125 211.332031 C 703.101562 211.765625 702.964844 212.214844 702.871094 212.675781 C 702.78125 213.136719 702.734375 213.601562 702.734375 214.074219 C 702.734375 214.542969 702.78125 215.007812 702.871094 215.46875 C 702.964844 215.929688 703.101562 216.378906 703.28125 216.8125 C 703.460938 217.246094 703.679688 217.660156 703.941406 218.050781 C 704.203125 218.441406 704.5 218.800781 704.835938 219.136719 C 705.167969 219.46875 705.527344 219.761719 705.921875 220.023438 C 706.3125 220.285156 706.722656 220.503906 707.160156 220.683594 C 707.59375 220.863281 708.039062 221 708.503906 221.089844 C 708.964844 221.179688 709.429688 221.226562 709.898438 221.226562 C 710.367188 221.226562 710.835938 221.179688 711.296875 221.089844 C 711.757812 221 712.203125 220.863281 712.640625 220.683594 C 713.074219 220.503906 713.488281 220.285156 713.878906 220.023438 C 714.269531 219.761719 714.632812 219.46875 714.964844 219.136719 C 715.296875 218.800781 715.59375 218.441406 715.855469 218.050781 C 716.117188 217.660156 716.335938 217.246094 716.519531 216.8125 C 716.699219 216.378906 716.832031 215.929688 716.925781 215.46875 C 717.015625 215.007812 717.0625 214.542969 717.0625 214.074219 C 717.0625 213.601562 717.015625 213.136719 716.925781 212.675781 C 716.832031 212.214844 716.699219 211.765625 716.515625 211.332031 C 716.335938 210.898438 716.117188 210.484375 715.855469 210.09375 C 715.59375 209.703125 715.296875 209.34375 714.964844 209.011719 C 714.632812 208.679688 714.269531 208.382812 713.878906 208.121094 C 713.488281 207.859375 713.074219 207.640625 712.640625 207.460938 C 712.203125 207.28125 711.757812 207.144531 711.296875 207.054688 C 710.835938 206.964844 710.367188 206.917969 709.898438 206.921875 Z M 709.898438 206.921875 " fill-opacity="1" fill-rule="nonzero"/><path fill="#f1bc19" d="M 683.339844 10.742188 C 682.738281 10.742188 682.140625 10.800781 681.546875 10.917969 C 680.957031 11.035156 680.382812 11.210938 679.824219 11.441406 C 679.265625 11.671875 678.734375 11.957031 678.234375 12.292969 C 677.730469 12.628906 677.269531 13.007812 676.839844 13.4375 C 676.414062 13.863281 676.035156 14.328125 675.699219 14.828125 C 675.363281 15.332031 675.078125 15.859375 674.847656 16.417969 C 674.617188 16.976562 674.441406 17.550781 674.324219 18.144531 C 674.207031 18.738281 674.148438 19.335938 674.148438 19.9375 C 674.148438 20.542969 674.207031 21.140625 674.324219 21.730469 C 674.441406 22.324219 674.617188 22.898438 674.847656 23.457031 C 675.078125 24.015625 675.363281 24.546875 675.699219 25.046875 C 676.035156 25.550781 676.414062 26.015625 676.839844 26.441406 C 677.269531 26.867188 677.730469 27.25 678.234375 27.585938 C 678.734375 27.917969 679.265625 28.203125 679.824219 28.433594 C 680.382812 28.664062 680.957031 28.839844 681.546875 28.957031 C 682.140625 29.074219 682.738281 29.132812 683.339844 29.132812 C 683.945312 29.132812 684.542969 29.074219 685.136719 28.957031 C 685.726562 28.839844 686.300781 28.664062 686.859375 28.433594 C 687.417969 28.203125 687.945312 27.917969 688.449219 27.585938 C 688.949219 27.25 689.414062 26.867188 689.84375 26.441406 C 690.269531 26.015625 690.648438 25.550781 690.984375 25.046875 C 691.320312 24.546875 691.605469 24.015625 691.835938 23.457031 C 692.066406 22.898438 692.238281 22.324219 692.359375 21.730469 C 692.476562 21.140625 692.535156 20.542969 692.535156 19.9375 C 692.535156 19.335938 692.476562 18.738281 692.359375 18.144531 C 692.238281 17.550781 692.066406 16.976562 691.835938 16.417969 C 691.605469 15.859375 691.320312 15.332031 690.984375 14.828125 C 690.648438 14.328125 690.269531 13.863281 689.84375 13.4375 C 689.414062 13.007812 688.949219 12.628906 688.449219 12.292969 C 687.945312 11.957031 687.417969 11.671875 686.859375 11.441406 C 686.300781 11.210938 685.726562 11.035156 685.136719 10.917969 C 684.542969 10.800781 683.945312 10.742188 683.339844 10.742188 Z M 112.359375 537.96875 C 111.753906 537.96875 111.15625 538.027344 110.5625 538.140625 C 109.96875 538.257812 109.390625 538.433594 108.832031 538.664062 C 108.273438 538.894531 107.742188 539.175781 107.238281 539.511719 C 106.734375 539.847656 106.269531 540.226562 105.839844 540.65625 C 105.414062 541.082031 105.03125 541.546875 104.695312 542.050781 C 104.359375 542.550781 104.074219 543.082031 103.84375 543.640625 C 103.609375 544.199219 103.433594 544.777344 103.316406 545.367188 C 103.199219 545.960938 103.140625 546.5625 103.140625 547.164062 C 103.140625 547.769531 103.199219 548.371094 103.316406 548.960938 C 103.433594 549.554688 103.609375 550.132812 103.84375 550.691406 C 104.074219 551.25 104.359375 551.78125 104.695312 552.28125 C 105.03125 552.785156 105.414062 553.25 105.839844 553.675781 C 106.269531 554.105469 106.734375 554.484375 107.238281 554.820312 C 107.742188 555.15625 108.273438 555.4375 108.832031 555.667969 C 109.390625 555.898438 109.96875 556.074219 110.5625 556.1875 C 111.15625 556.304688 111.753906 556.363281 112.359375 556.363281 C 112.960938 556.363281 113.5625 556.304688 114.15625 556.1875 C 114.75 556.074219 115.324219 555.898438 115.882812 555.667969 C 116.441406 555.4375 116.972656 555.15625 117.476562 554.820312 C 117.980469 554.484375 118.445312 554.105469 118.875 553.675781 C 119.304688 553.25 119.683594 552.785156 120.023438 552.28125 C 120.359375 551.78125 120.640625 551.25 120.875 550.691406 C 121.105469 550.132812 121.28125 549.554688 121.398438 548.960938 C 121.515625 548.371094 121.578125 547.769531 121.578125 547.164062 C 121.578125 546.5625 121.515625 545.960938 121.398438 545.367188 C 121.28125 544.773438 121.105469 544.199219 120.875 543.640625 C 120.640625 543.082031 120.359375 542.550781 120.023438 542.050781 C 119.683594 541.546875 119.304688 541.082031 118.875 540.65625 C 118.445312 540.226562 117.980469 539.847656 117.476562 539.511719 C 116.972656 539.175781 116.441406 538.894531 115.882812 538.664062 C 115.324219 538.433594 114.75 538.257812 114.15625 538.140625 C 113.5625 538.027344 112.960938 537.96875 112.359375 537.96875 Z M 112.359375 537.96875 " fill-opacity="1" fill-rule="nonzero"/><path fill="#f9dbd2" d="M 408.574219 16.871094 C 402.304688 16.871094 396.042969 17.027344 389.78125 17.335938 C 383.519531 17.640625 377.269531 18.101562 371.03125 18.71875 C 364.792969 19.332031 358.574219 20.101562 352.371094 21.019531 C 346.171875 21.941406 339.996094 23.011719 333.847656 24.234375 C 327.699219 25.457031 321.585938 26.832031 315.503906 28.355469 C 309.421875 29.878906 303.382812 31.550781 297.382812 33.371094 C 291.386719 35.191406 285.433594 37.160156 279.53125 39.269531 C 273.628906 41.382812 267.785156 43.640625 261.992188 46.039062 C 256.199219 48.4375 250.472656 50.980469 244.804688 53.660156 C 239.136719 56.339844 233.539062 59.160156 228.011719 62.117188 C 222.484375 65.070312 217.03125 68.160156 211.652344 71.386719 C 206.277344 74.609375 200.980469 77.964844 195.769531 81.445312 C 190.558594 84.929688 185.433594 88.539062 180.398438 92.277344 C 175.363281 96.011719 170.421875 99.867188 165.578125 103.847656 C 160.730469 107.824219 155.988281 111.917969 151.339844 116.128906 C 146.695312 120.339844 142.15625 124.664062 137.726562 129.097656 C 133.292969 133.53125 128.972656 138.070312 124.761719 142.71875 C 120.550781 147.363281 116.457031 152.113281 112.480469 156.957031 C 108.503906 161.804688 104.648438 166.746094 100.914062 171.785156 C 97.179688 176.820312 93.574219 181.945312 90.089844 187.160156 C 86.605469 192.375 83.253906 197.671875 80.03125 203.050781 C 76.808594 208.425781 73.71875 213.882812 70.765625 219.414062 C 67.808594 224.941406 64.992188 230.542969 62.3125 236.210938 C 59.632812 241.878906 57.09375 247.609375 54.691406 253.402344 C 52.292969 259.195312 50.039062 265.046875 47.925781 270.949219 C 45.816406 276.855469 43.847656 282.804688 42.03125 288.808594 C 40.210938 294.808594 38.539062 300.847656 37.015625 306.933594 C 35.492188 313.015625 34.117188 319.132812 32.894531 325.28125 C 31.671875 331.433594 30.601562 337.609375 29.683594 343.8125 C 28.761719 350.015625 27.996094 356.234375 27.378906 362.476562 C 26.765625 368.71875 26.304688 374.96875 25.996094 381.230469 C 25.691406 387.496094 25.535156 393.761719 25.535156 400.03125 C 25.535156 406.304688 25.691406 412.570312 25.996094 418.832031 C 26.304688 425.097656 26.765625 431.347656 27.378906 437.589844 C 27.996094 443.828125 28.761719 450.050781 29.683594 456.253906 C 30.601562 462.457031 31.671875 468.632812 32.894531 474.78125 C 34.117188 480.933594 35.492188 487.050781 37.015625 493.132812 C 38.539062 499.214844 40.210938 505.257812 42.03125 511.257812 C 43.847656 517.257812 45.816406 523.210938 47.925781 529.113281 C 50.039062 535.019531 52.292969 540.867188 54.691406 546.660156 C 57.09375 552.453125 59.632812 558.183594 62.3125 563.855469 C 64.992188 569.523438 67.808594 575.121094 70.765625 580.652344 C 73.71875 586.183594 76.808594 591.636719 80.03125 597.015625 C 83.253906 602.394531 86.605469 607.691406 90.089844 612.90625 C 93.574219 618.117188 97.179688 623.242188 100.914062 628.28125 C 104.648438 633.316406 108.503906 638.257812 112.480469 643.105469 C 116.457031 647.953125 120.550781 652.699219 124.761719 657.347656 C 128.972656 661.992188 133.292969 666.53125 137.726562 670.96875 C 142.15625 675.402344 146.695312 679.722656 151.339844 683.933594 C 155.988281 688.144531 160.730469 692.242188 165.578125 696.21875 C 170.421875 700.195312 175.363281 704.054688 180.398438 707.789062 C 185.433594 711.523438 190.558594 715.132812 195.769531 718.617188 C 200.980469 722.101562 206.277344 725.457031 211.652344 728.679688 C 217.03125 731.902344 222.484375 734.992188 228.011719 737.949219 C 233.539062 740.90625 239.136719 743.722656 244.804688 746.40625 C 250.472656 749.085938 256.199219 751.625 261.992188 754.027344 C 267.785156 756.425781 273.628906 758.679688 279.53125 760.792969 C 285.433594 762.90625 291.386719 764.871094 297.382812 766.691406 C 303.382812 768.511719 309.421875 770.183594 315.503906 771.710938 C 321.585938 773.234375 327.699219 774.605469 333.847656 775.828125 C 339.996094 777.054688 346.171875 778.125 352.371094 779.042969 C 358.574219 779.964844 364.792969 780.730469 371.03125 781.347656 C 377.269531 781.960938 383.519531 782.421875 389.78125 782.730469 C 396.042969 783.039062 402.304688 783.191406 408.574219 783.191406 C 414.84375 783.191406 421.109375 783.039062 427.371094 782.730469 C 433.632812 782.421875 439.878906 781.960938 446.121094 781.347656 C 452.359375 780.730469 458.578125 779.964844 464.777344 779.042969 C 470.980469 778.125 477.152344 777.054688 483.300781 775.828125 C 489.449219 774.605469 495.566406 773.234375 501.644531 771.710938 C 507.726562 770.1875 513.765625 768.511719 519.765625 766.691406 C 525.765625 764.871094 531.714844 762.90625 537.617188 760.792969 C 543.519531 758.679688 549.367188 756.425781 555.15625 754.027344 C 560.949219 751.625 566.679688 749.085938 572.34375 746.40625 C 578.011719 743.722656 583.609375 740.90625 589.136719 737.949219 C 594.667969 734.992188 600.121094 731.902344 605.496094 728.679688 C 610.875 725.457031 616.167969 722.101562 621.378906 718.617188 C 626.59375 715.132812 631.714844 711.523438 636.75 707.789062 C 641.785156 704.054688 646.726562 700.195312 651.574219 696.21875 C 656.417969 692.242188 661.164062 688.144531 665.808594 683.933594 C 670.453125 679.722656 674.992188 675.402344 679.425781 670.96875 C 683.855469 666.53125 688.179688 661.992188 692.386719 657.347656 C 696.597656 652.699219 700.691406 647.953125 704.667969 643.105469 C 708.644531 638.257812 712.5 633.316406 716.234375 628.28125 C 719.96875 623.242188 723.578125 618.117188 727.058594 612.90625 C 730.542969 607.691406 733.894531 602.394531 737.117188 597.015625 C 740.339844 591.636719 743.429688 586.183594 746.386719 580.652344 C 749.339844 575.121094 752.15625 569.523438 754.839844 563.855469 C 757.519531 558.183594 760.058594 552.453125 762.457031 546.660156 C 764.855469 540.867188 767.109375 535.019531 769.222656 529.113281 C 771.335938 523.210938 773.300781 517.257812 775.121094 511.257812 C 776.941406 505.257812 778.613281 499.214844 780.132812 493.132812 C 781.65625 487.050781 783.03125 480.933594 784.253906 474.78125 C 785.476562 468.632812 786.546875 462.457031 787.46875 456.253906 C 788.386719 450.050781 789.15625 443.828125 789.769531 437.589844 C 790.382812 431.347656 790.84375 425.097656 791.152344 418.832031 C 791.460938 412.570312 791.613281 406.304688 791.613281 400.03125 C 791.613281 393.761719 791.460938 387.496094 791.152344 381.230469 C 790.84375 374.96875 790.382812 368.71875 789.769531 362.476562 C 789.15625 356.234375 788.386719 350.015625 787.46875 343.8125 C 786.546875 337.609375 785.476562 331.433594 784.253906 325.28125 C 783.03125 319.132812 781.65625 313.015625 780.136719 306.933594 C 778.613281 300.847656 776.941406 294.808594 775.121094 288.808594 C 773.300781 282.804688 771.335938 276.855469 769.222656 270.949219 C 767.109375 265.046875 764.855469 259.195312 762.457031 253.402344 C 760.058594 247.609375 757.519531 241.878906 754.839844 236.210938 C 752.15625 230.542969 749.339844 224.941406 746.386719 219.414062 C 743.429688 213.882812 740.339844 208.425781 737.117188 203.050781 C 733.894531 197.671875 730.542969 192.375 727.058594 187.160156 C 723.578125 181.945312 719.96875 176.820312 716.234375 171.785156 C 712.5 166.746094 708.644531 161.804688 704.667969 156.957031 C 700.691406 152.113281 696.597656 147.363281 692.386719 142.71875 C 688.179688 138.070312 683.855469 133.53125 679.425781 129.097656 C 674.992188 124.664062 670.453125 120.339844 665.808594 116.128906 C 661.164062 111.917969 656.417969 107.824219 651.574219 103.847656 C 646.726562 99.867188 641.785156 96.011719 636.75 92.277344 C 631.714844 88.539062 626.59375 84.929688 621.378906 81.445312 C 616.167969 77.964844 610.875 74.609375 605.496094 71.386719 C 600.121094 68.160156 594.667969 65.070312 589.136719 62.117188 C 583.609375 59.160156 578.011719 56.339844 572.34375 53.660156 C 566.679688 50.980469 560.949219 48.4375 555.15625 46.039062 C 549.367188 43.640625 543.519531 41.382812 537.617188 39.269531 C 531.714844 37.160156 525.765625 35.191406 519.765625 33.371094 C 513.765625 31.550781 507.726562 29.878906 501.644531 28.355469 C 495.566406 26.832031 489.449219 25.457031 483.300781 24.234375 C 477.152344 23.011719 470.980469 21.941406 464.777344 21.019531 C 458.578125 20.101562 452.359375 19.332031 446.121094 18.71875 C 439.882812 18.101562 433.632812 17.640625 427.371094 17.335938 C 421.109375 17.027344 414.84375 16.871094 408.574219 16.871094 Z M 408.574219 16.871094 " fill-opacity="1" fill-rule="nonzero"/><path fill="#f1bc19" d="M 738.5 0.523438 C 737.160156 0.523438 735.828125 0.589844 734.496094 0.722656 C 733.164062 0.851562 731.839844 1.050781 730.527344 1.308594 C 729.214844 1.570312 727.917969 1.894531 726.640625 2.285156 C 725.359375 2.671875 724.101562 3.125 722.863281 3.636719 C 721.628906 4.148438 720.417969 4.71875 719.238281 5.351562 C 718.058594 5.980469 716.914062 6.667969 715.800781 7.414062 C 714.6875 8.15625 713.613281 8.953125 712.578125 9.800781 C 711.546875 10.652344 710.554688 11.550781 709.609375 12.496094 C 708.664062 13.441406 707.765625 14.433594 706.917969 15.46875 C 706.066406 16.503906 705.269531 17.574219 704.527344 18.6875 C 703.785156 19.800781 703.097656 20.949219 702.464844 22.128906 C 701.835938 23.308594 701.265625 24.519531 700.75 25.753906 C 700.238281 26.992188 699.789062 28.25 699.402344 29.53125 C 699.011719 30.8125 698.6875 32.109375 698.425781 33.421875 C 698.164062 34.734375 697.96875 36.058594 697.839844 37.390625 C 697.707031 38.722656 697.640625 40.054688 697.640625 41.394531 C 697.640625 42.734375 697.707031 44.070312 697.839844 45.402344 C 697.96875 46.734375 698.164062 48.054688 698.425781 49.367188 C 698.6875 50.679688 699.011719 51.976562 699.402344 53.257812 C 699.789062 54.539062 700.238281 55.800781 700.75 57.035156 C 701.265625 58.273438 701.835938 59.480469 702.464844 60.660156 C 703.097656 61.84375 703.785156 62.988281 704.527344 64.101562 C 705.269531 65.214844 706.066406 66.289062 706.917969 67.324219 C 707.765625 68.359375 708.664062 69.347656 709.609375 70.292969 C 710.554688 71.242188 711.546875 72.140625 712.578125 72.988281 C 713.613281 73.835938 714.6875 74.632812 715.800781 75.378906 C 716.914062 76.121094 718.058594 76.808594 719.238281 77.441406 C 720.417969 78.070312 721.628906 78.640625 722.863281 79.15625 C 724.101562 79.667969 725.359375 80.117188 726.640625 80.503906 C 727.917969 80.894531 729.214844 81.21875 730.527344 81.480469 C 731.839844 81.742188 733.164062 81.9375 734.496094 82.070312 C 735.828125 82.199219 737.160156 82.265625 738.5 82.265625 C 739.835938 82.265625 741.171875 82.199219 742.503906 82.070312 C 743.835938 81.9375 745.15625 81.742188 746.46875 81.480469 C 747.78125 81.21875 749.078125 80.894531 750.359375 80.503906 C 751.640625 80.117188 752.898438 79.667969 754.132812 79.15625 C 755.371094 78.640625 756.578125 78.070312 757.757812 77.441406 C 758.941406 76.808594 760.085938 76.121094 761.199219 75.378906 C 762.3125 74.632812 763.382812 73.835938 764.417969 72.988281 C 765.453125 72.140625 766.445312 71.242188 767.390625 70.292969 C 768.335938 69.347656 769.234375 68.359375 770.082031 67.324219 C 770.929688 66.289062 771.726562 65.214844 772.472656 64.101562 C 773.214844 62.988281 773.902344 61.84375 774.53125 60.660156 C 775.164062 59.480469 775.734375 58.273438 776.246094 57.035156 C 776.757812 55.800781 777.210938 54.539062 777.597656 53.257812 C 777.984375 51.976562 778.3125 50.679688 778.570312 49.367188 C 778.832031 48.054688 779.027344 46.734375 779.160156 45.402344 C 779.292969 44.070312 779.355469 42.734375 779.355469 41.394531 C 779.355469 40.054688 779.292969 38.722656 779.160156 37.390625 C 779.027344 36.058594 778.832031 34.734375 778.570312 33.421875 C 778.3125 32.109375 777.984375 30.8125 777.597656 29.53125 C 777.210938 28.25 776.757812 26.992188 776.246094 25.753906 C 775.734375 24.519531 775.164062 23.308594 774.53125 22.128906 C 773.902344 20.949219 773.214844 19.800781 772.472656 18.6875 C 771.726562 17.574219 770.929688 16.503906 770.082031 15.46875 C 769.234375 14.433594 768.335938 13.441406 767.390625 12.496094 C 766.445312 11.550781 765.453125 10.652344 764.417969 9.800781 C 763.382812 8.953125 762.3125 8.15625 761.199219 7.414062 C 760.085938 6.667969 758.941406 5.980469 757.757812 5.351562 C 756.578125 4.71875 755.371094 4.148438 754.132812 3.636719 C 752.898438 3.125 751.640625 2.671875 750.359375 2.285156 C 749.078125 1.894531 747.78125 1.570312 746.46875 1.308594 C 745.15625 1.050781 743.835938 0.851562 742.503906 0.722656 C 741.171875 0.589844 739.835938 0.523438 738.5 0.523438 Z M 738.5 0.523438 " fill-opacity="1" fill-rule="nonzero"/><path fill="#f8ab97" d="M 779.355469 114.960938 C 778.722656 114.960938 778.085938 114.992188 777.453125 115.054688 C 776.820312 115.117188 776.195312 115.210938 775.570312 115.335938 C 774.945312 115.457031 774.332031 115.613281 773.722656 115.796875 C 773.113281 115.980469 772.515625 116.195312 771.929688 116.441406 C 771.34375 116.683594 770.769531 116.953125 770.207031 117.253906 C 769.648438 117.554688 769.101562 117.878906 768.574219 118.234375 C 768.046875 118.585938 767.535156 118.964844 767.042969 119.367188 C 766.554688 119.773438 766.082031 120.199219 765.632812 120.648438 C 765.183594 121.097656 764.757812 121.566406 764.355469 122.058594 C 763.953125 122.550781 763.574219 123.0625 763.21875 123.589844 C 762.867188 124.117188 762.539062 124.664062 762.242188 125.222656 C 761.941406 125.785156 761.671875 126.359375 761.425781 126.945312 C 761.183594 127.535156 760.96875 128.132812 760.785156 128.738281 C 760.601562 129.347656 760.445312 129.964844 760.324219 130.585938 C 760.199219 131.210938 760.105469 131.839844 760.042969 132.472656 C 759.980469 133.105469 759.949219 133.738281 759.949219 134.375 C 759.949219 135.011719 759.980469 135.644531 760.042969 136.277344 C 760.105469 136.910156 760.199219 137.539062 760.324219 138.164062 C 760.445312 138.785156 760.601562 139.402344 760.785156 140.011719 C 760.96875 140.617188 761.183594 141.21875 761.425781 141.804688 C 761.671875 142.390625 761.941406 142.964844 762.242188 143.527344 C 762.539062 144.085938 762.867188 144.632812 763.21875 145.160156 C 763.574219 145.6875 763.953125 146.199219 764.355469 146.691406 C 764.757812 147.183594 765.183594 147.652344 765.632812 148.101562 C 766.082031 148.550781 766.554688 148.980469 767.042969 149.382812 C 767.535156 149.785156 768.046875 150.164062 768.574219 150.515625 C 769.101562 150.871094 769.648438 151.195312 770.207031 151.496094 C 770.769531 151.796875 771.34375 152.066406 771.929688 152.3125 C 772.515625 152.554688 773.113281 152.769531 773.722656 152.953125 C 774.332031 153.136719 774.945312 153.292969 775.570312 153.414062 C 776.195312 153.539062 776.820312 153.632812 777.453125 153.695312 C 778.085938 153.757812 778.722656 153.789062 779.355469 153.789062 C 779.992188 153.789062 780.625 153.757812 781.257812 153.695312 C 781.890625 153.632812 782.519531 153.539062 783.144531 153.414062 C 783.765625 153.292969 784.382812 153.136719 784.992188 152.953125 C 785.597656 152.769531 786.195312 152.554688 786.785156 152.3125 C 787.371094 152.066406 787.945312 151.796875 788.503906 151.496094 C 789.066406 151.195312 789.609375 150.871094 790.140625 150.515625 C 790.667969 150.164062 791.175781 149.785156 791.667969 149.382812 C 792.160156 148.980469 792.628906 148.550781 793.078125 148.101562 C 793.53125 147.652344 793.957031 147.183594 794.359375 146.691406 C 794.761719 146.199219 795.140625 145.6875 795.492188 145.160156 C 795.847656 144.632812 796.171875 144.085938 796.472656 143.527344 C 796.773438 142.964844 797.042969 142.390625 797.285156 141.804688 C 797.53125 141.21875 797.742188 140.617188 797.929688 140.011719 C 798.113281 139.402344 798.265625 138.785156 798.390625 138.164062 C 798.515625 137.539062 798.609375 136.910156 798.671875 136.277344 C 798.734375 135.644531 798.765625 135.011719 798.765625 134.375 C 798.765625 133.738281 798.734375 133.105469 798.671875 132.472656 C 798.609375 131.839844 798.515625 131.210938 798.390625 130.585938 C 798.265625 129.964844 798.113281 129.347656 797.929688 128.738281 C 797.742188 128.132812 797.53125 127.535156 797.285156 126.945312 C 797.042969 126.359375 796.773438 125.785156 796.472656 125.222656 C 796.171875 124.664062 795.847656 124.117188 795.492188 123.589844 C 795.140625 123.0625 794.761719 122.550781 794.359375 122.058594 C 793.957031 121.566406 793.53125 121.097656 793.078125 120.648438 C 792.628906 120.199219 792.160156 119.773438 791.667969 119.367188 C 791.175781 118.964844 790.667969 118.585938 790.140625 118.234375 C 789.609375 117.878906 789.066406 117.554688 788.503906 117.253906 C 787.945312 116.953125 787.371094 116.683594 786.785156 116.441406 C 786.195312 116.195312 785.597656 115.980469 784.992188 115.796875 C 784.382812 115.613281 783.765625 115.457031 783.144531 115.335938 C 782.519531 115.210938 781.890625 115.117188 781.257812 115.054688 C 780.625 114.992188 779.992188 114.960938 779.355469 114.960938 Z M 779.355469 114.960938 " fill-opacity="1" fill-rule="nonzero"/><path fill="#fbcd59" d="M 687.425781 650.363281 C 686.789062 650.363281 686.15625 650.390625 685.523438 650.453125 C 684.890625 650.515625 684.261719 650.605469 683.636719 650.730469 C 683.011719 650.851562 682.394531 651.007812 681.785156 651.191406 C 681.175781 651.375 680.578125 651.585938 679.988281 651.832031 C 679.402344 652.074219 678.824219 652.34375 678.265625 652.644531 C 677.703125 652.941406 677.15625 653.269531 676.628906 653.621094 C 676.097656 653.976562 675.585938 654.351562 675.09375 654.757812 C 674.601562 655.160156 674.128906 655.585938 673.679688 656.035156 C 673.230469 656.484375 672.800781 656.957031 672.398438 657.449219 C 671.992188 657.941406 671.613281 658.449219 671.261719 658.980469 C 670.90625 659.507812 670.578125 660.054688 670.28125 660.613281 C 669.980469 661.175781 669.707031 661.75 669.464844 662.339844 C 669.21875 662.925781 669.003906 663.523438 668.820312 664.132812 C 668.636719 664.742188 668.480469 665.359375 668.355469 665.984375 C 668.230469 666.609375 668.136719 667.238281 668.074219 667.871094 C 668.011719 668.503906 667.980469 669.140625 667.980469 669.777344 C 667.980469 670.414062 668.011719 671.046875 668.074219 671.683594 C 668.136719 672.316406 668.230469 672.945312 668.355469 673.570312 C 668.480469 674.191406 668.636719 674.808594 668.820312 675.417969 C 669.003906 676.027344 669.21875 676.625 669.464844 677.214844 C 669.707031 677.804688 669.980469 678.378906 670.28125 678.9375 C 670.578125 679.5 670.90625 680.046875 671.261719 680.574219 C 671.613281 681.101562 671.992188 681.613281 672.398438 682.105469 C 672.800781 682.597656 673.230469 683.066406 673.679688 683.515625 C 674.128906 683.96875 674.601562 684.394531 675.09375 684.796875 C 675.585938 685.199219 676.097656 685.578125 676.628906 685.929688 C 677.15625 686.285156 677.703125 686.609375 678.265625 686.910156 C 678.824219 687.210938 679.402344 687.480469 679.988281 687.722656 C 680.578125 687.964844 681.175781 688.179688 681.785156 688.363281 C 682.394531 688.546875 683.011719 688.699219 683.636719 688.824219 C 684.261719 688.945312 684.890625 689.039062 685.523438 689.101562 C 686.15625 689.160156 686.789062 689.191406 687.425781 689.191406 C 688.0625 689.191406 688.699219 689.160156 689.332031 689.101562 C 689.964844 689.039062 690.59375 688.945312 691.21875 688.824219 C 691.84375 688.699219 692.460938 688.546875 693.070312 688.363281 C 693.679688 688.179688 694.277344 687.964844 694.867188 687.722656 C 695.453125 687.480469 696.027344 687.210938 696.589844 686.910156 C 697.152344 686.609375 697.699219 686.285156 698.226562 685.929688 C 698.757812 685.578125 699.269531 685.199219 699.761719 684.796875 C 700.253906 684.394531 700.726562 683.96875 701.175781 683.515625 C 701.625 683.066406 702.054688 682.597656 702.457031 682.105469 C 702.859375 681.613281 703.238281 681.101562 703.59375 680.574219 C 703.949219 680.046875 704.273438 679.5 704.574219 678.9375 C 704.875 678.378906 705.148438 677.804688 705.390625 677.214844 C 705.636719 676.625 705.851562 676.027344 706.035156 675.417969 C 706.21875 674.808594 706.375 674.191406 706.5 673.570312 C 706.625 672.945312 706.714844 672.316406 706.777344 671.683594 C 706.839844 671.046875 706.871094 670.414062 706.871094 669.777344 C 706.871094 669.140625 706.839844 668.503906 706.777344 667.871094 C 706.714844 667.238281 706.625 666.609375 706.5 665.984375 C 706.375 665.359375 706.21875 664.742188 706.035156 664.132812 C 705.851562 663.523438 705.636719 662.925781 705.390625 662.339844 C 705.148438 661.75 704.875 661.175781 704.574219 660.613281 C 704.273438 660.054688 703.949219 659.507812 703.59375 658.980469 C 703.238281 658.449219 702.859375 657.941406 702.457031 657.449219 C 702.054688 656.957031 701.625 656.484375 701.175781 656.035156 C 700.726562 655.585938 700.253906 655.160156 699.761719 654.757812 C 699.269531 654.351562 698.757812 653.976562 698.226562 653.621094 C 697.699219 653.269531 697.152344 652.941406 696.589844 652.644531 C 696.027344 652.34375 695.453125 652.074219 694.867188 651.832031 C 694.277344 651.585938 693.679688 651.375 693.070312 651.191406 C 692.460938 651.007812 691.84375 650.851562 691.21875 650.730469 C 690.59375 650.605469 689.964844 650.515625 689.332031 650.453125 C 688.699219 650.390625 688.0625 650.363281 687.425781 650.363281 Z M 42.898438 497.097656 C 41.5625 497.097656 40.226562 497.164062 38.894531 497.296875 C 37.5625 497.425781 36.242188 497.625 34.929688 497.886719 C 33.617188 498.144531 32.320312 498.472656 31.039062 498.859375 C 29.757812 499.246094 28.5 499.699219 27.265625 500.210938 C 26.027344 500.722656 24.820312 501.292969 23.640625 501.925781 C 22.460938 502.554688 21.3125 503.242188 20.199219 503.988281 C 19.089844 504.730469 18.015625 505.527344 16.980469 506.375 C 15.945312 507.226562 14.957031 508.125 14.007812 509.070312 C 13.0625 510.015625 12.164062 511.007812 11.316406 512.042969 C 10.46875 513.078125 9.671875 514.152344 8.929688 515.261719 C 8.183594 516.375 7.5 517.523438 6.867188 518.703125 C 6.238281 519.882812 5.664062 521.09375 5.152344 522.328125 C 4.640625 523.566406 4.191406 524.824219 3.800781 526.105469 C 3.414062 527.386719 3.089844 528.683594 2.828125 529.996094 C 2.566406 531.308594 2.371094 532.632812 2.238281 533.964844 C 2.109375 535.296875 2.042969 536.632812 2.042969 537.96875 C 2.042969 539.308594 2.109375 540.644531 2.238281 541.976562 C 2.371094 543.308594 2.566406 544.628906 2.828125 545.941406 C 3.089844 547.257812 3.414062 548.554688 3.800781 549.832031 C 4.191406 551.113281 4.640625 552.375 5.152344 553.609375 C 5.664062 554.847656 6.238281 556.054688 6.867188 557.234375 C 7.496094 558.417969 8.183594 559.5625 8.929688 560.675781 C 9.671875 561.789062 10.46875 562.863281 11.316406 563.898438 C 12.164062 564.933594 13.0625 565.921875 14.007812 566.871094 C 14.957031 567.816406 15.945312 568.714844 16.980469 569.5625 C 18.015625 570.414062 19.089844 571.207031 20.199219 571.953125 C 21.3125 572.695312 22.460938 573.382812 23.640625 574.015625 C 24.820312 574.644531 26.027344 575.21875 27.265625 575.730469 C 28.5 576.242188 29.757812 576.691406 31.039062 577.082031 C 32.320312 577.46875 33.617188 577.792969 34.929688 578.054688 C 36.242188 578.316406 37.5625 578.511719 38.894531 578.644531 C 40.226562 578.773438 41.5625 578.839844 42.898438 578.839844 C 44.238281 578.839844 45.574219 578.773438 46.90625 578.644531 C 48.238281 578.511719 49.558594 578.316406 50.871094 578.054688 C 52.183594 577.792969 53.480469 577.46875 54.761719 577.082031 C 56.042969 576.691406 57.300781 576.242188 58.535156 575.730469 C 59.773438 575.214844 60.980469 574.644531 62.160156 574.015625 C 63.339844 573.382812 64.488281 572.695312 65.597656 571.953125 C 66.710938 571.207031 67.785156 570.414062 68.820312 569.5625 C 69.855469 568.714844 70.84375 567.816406 71.789062 566.871094 C 72.738281 565.921875 73.636719 564.933594 74.484375 563.898438 C 75.332031 562.863281 76.128906 561.789062 76.871094 560.675781 C 77.617188 559.5625 78.300781 558.417969 78.933594 557.234375 C 79.5625 556.054688 80.136719 554.847656 80.648438 553.609375 C 81.160156 552.375 81.609375 551.113281 82 549.832031 C 82.386719 548.554688 82.710938 547.257812 82.972656 545.941406 C 83.234375 544.628906 83.429688 543.308594 83.5625 541.976562 C 83.691406 540.644531 83.757812 539.308594 83.757812 537.96875 C 83.757812 536.632812 83.691406 535.296875 83.5625 533.964844 C 83.429688 532.632812 83.234375 531.308594 82.972656 529.996094 C 82.710938 528.683594 82.386719 527.386719 82 526.105469 C 81.609375 524.824219 81.160156 523.566406 80.648438 522.328125 C 80.136719 521.09375 79.5625 519.882812 78.933594 518.703125 C 78.300781 517.523438 77.617188 516.375 76.871094 515.261719 C 76.128906 514.152344 75.332031 513.078125 74.484375 512.042969 C 73.632812 511.007812 72.738281 510.015625 71.789062 509.070312 C 70.84375 508.125 69.855469 507.226562 68.820312 506.375 C 67.785156 505.527344 66.710938 504.730469 65.597656 503.988281 C 64.488281 503.242188 63.339844 502.554688 62.160156 501.925781 C 60.980469 501.292969 59.773438 500.722656 58.535156 500.210938 C 57.300781 499.699219 56.042969 499.246094 54.761719 498.859375 C 53.480469 498.472656 52.183594 498.144531 50.871094 497.886719 C 49.558594 497.625 48.238281 497.425781 46.90625 497.296875 C 45.574219 497.164062 44.238281 497.097656 42.898438 497.097656 Z M 42.898438 497.097656 " fill-opacity="1" fill-rule="nonzero"/><path fill="#f8ab97" d="M 147.085938 764.800781 C 146.453125 764.800781 145.816406 764.832031 145.183594 764.894531 C 144.550781 764.957031 143.925781 765.050781 143.300781 765.171875 C 142.675781 765.296875 142.0625 765.453125 141.453125 765.636719 C 140.84375 765.820312 140.246094 766.035156 139.660156 766.277344 C 139.074219 766.519531 138.5 766.792969 137.9375 767.09375 C 137.378906 767.390625 136.832031 767.71875 136.304688 768.070312 C 135.777344 768.425781 135.265625 768.804688 134.773438 769.207031 C 134.285156 769.609375 133.8125 770.035156 133.363281 770.484375 C 132.914062 770.9375 132.488281 771.40625 132.085938 771.898438 C 131.683594 772.390625 131.304688 772.898438 130.949219 773.429688 C 130.597656 773.957031 130.269531 774.5 129.972656 775.0625 C 129.671875 775.621094 129.398438 776.195312 129.15625 776.785156 C 128.914062 777.371094 128.699219 777.96875 128.515625 778.578125 C 128.332031 779.1875 128.175781 779.800781 128.050781 780.425781 C 127.929688 781.050781 127.835938 781.679688 127.773438 782.3125 C 127.710938 782.945312 127.679688 783.578125 127.679688 784.214844 C 127.679688 784.847656 127.710938 785.484375 127.773438 786.117188 C 127.835938 786.75 127.929688 787.378906 128.050781 788 C 128.175781 788.625 128.332031 789.242188 128.515625 789.847656 C 128.699219 790.457031 128.914062 791.054688 129.15625 791.644531 C 129.398438 792.230469 129.671875 792.804688 129.972656 793.363281 C 130.269531 793.925781 130.597656 794.46875 130.949219 795 C 131.304688 795.527344 131.683594 796.039062 132.085938 796.53125 C 132.488281 797.019531 132.914062 797.492188 133.363281 797.941406 C 133.8125 798.390625 134.285156 798.816406 134.773438 799.21875 C 135.265625 799.625 135.777344 800.003906 136.304688 800.355469 C 136.832031 800.707031 137.378906 801.035156 137.9375 801.335938 C 138.5 801.632812 139.074219 801.90625 139.660156 802.148438 C 140.246094 802.390625 140.84375 802.605469 141.453125 802.792969 C 142.0625 802.976562 142.675781 803.128906 143.300781 803.253906 C 143.925781 803.378906 144.550781 803.472656 145.183594 803.535156 C 145.816406 803.597656 146.453125 803.628906 147.085938 803.628906 C 147.722656 803.628906 148.355469 803.597656 148.988281 803.535156 C 149.621094 803.472656 150.25 803.378906 150.875 803.253906 C 151.496094 803.128906 152.113281 802.976562 152.71875 802.792969 C 153.328125 802.605469 153.925781 802.390625 154.515625 802.148438 C 155.101562 801.90625 155.675781 801.632812 156.234375 801.335938 C 156.796875 801.035156 157.339844 800.707031 157.867188 800.355469 C 158.398438 800.003906 158.90625 799.625 159.398438 799.21875 C 159.890625 798.816406 160.359375 798.390625 160.808594 797.941406 C 161.257812 797.492188 161.6875 797.019531 162.089844 796.53125 C 162.492188 796.039062 162.871094 795.527344 163.222656 795 C 163.578125 794.46875 163.902344 793.925781 164.203125 793.363281 C 164.503906 792.804688 164.773438 792.230469 165.015625 791.644531 C 165.261719 791.054688 165.472656 790.457031 165.660156 789.847656 C 165.84375 789.242188 165.996094 788.625 166.121094 788 C 166.246094 787.378906 166.339844 786.75 166.402344 786.117188 C 166.464844 785.484375 166.496094 784.847656 166.496094 784.214844 C 166.496094 783.578125 166.464844 782.945312 166.402344 782.3125 C 166.339844 781.679688 166.246094 781.050781 166.121094 780.425781 C 165.996094 779.800781 165.84375 779.1875 165.660156 778.578125 C 165.472656 777.96875 165.261719 777.371094 165.015625 776.785156 C 164.773438 776.195312 164.503906 775.621094 164.203125 775.0625 C 163.902344 774.5 163.578125 773.957031 163.222656 773.429688 C 162.871094 772.898438 162.492188 772.390625 162.089844 771.898438 C 161.6875 771.40625 161.257812 770.9375 160.808594 770.484375 C 160.359375 770.035156 159.890625 769.609375 159.398438 769.207031 C 158.90625 768.804688 158.398438 768.425781 157.867188 768.070312 C 157.339844 767.71875 156.796875 767.390625 156.234375 767.09375 C 155.675781 766.792969 155.101562 766.519531 154.515625 766.277344 C 153.925781 766.035156 153.328125 765.820312 152.71875 765.636719 C 152.113281 765.453125 151.496094 765.296875 150.875 765.171875 C 150.25 765.050781 149.621094 764.957031 148.988281 764.894531 C 148.355469 764.832031 147.722656 764.800781 147.085938 764.800781 Z M 147.085938 764.800781 " fill-opacity="1" fill-rule="nonzero"/><path fill="#ffffff" d="M 674.148438 180.355469 C 673.546875 180.355469 672.945312 180.382812 672.347656 180.441406 C 671.746094 180.5 671.152344 180.589844 670.5625 180.707031 C 669.972656 180.824219 669.386719 180.972656 668.8125 181.144531 C 668.234375 181.320312 667.667969 181.523438 667.113281 181.753906 C 666.554688 181.984375 666.011719 182.242188 665.480469 182.527344 C 664.949219 182.808594 664.433594 183.121094 663.933594 183.453125 C 663.433594 183.789062 662.949219 184.148438 662.484375 184.527344 C 662.019531 184.910156 661.574219 185.316406 661.148438 185.742188 C 660.722656 186.167969 660.316406 186.613281 659.9375 187.078125 C 659.554688 187.542969 659.195312 188.027344 658.859375 188.527344 C 658.527344 189.027344 658.21875 189.546875 657.933594 190.078125 C 657.648438 190.605469 657.394531 191.152344 657.164062 191.707031 C 656.933594 192.265625 656.730469 192.832031 656.554688 193.40625 C 656.378906 193.984375 656.234375 194.566406 656.117188 195.15625 C 656 195.75 655.910156 196.34375 655.851562 196.941406 C 655.792969 197.542969 655.761719 198.144531 655.761719 198.746094 C 655.761719 199.347656 655.792969 199.949219 655.851562 200.546875 C 655.910156 201.148438 656 201.742188 656.117188 202.332031 C 656.234375 202.925781 656.378906 203.507812 656.554688 204.085938 C 656.730469 204.660156 656.933594 205.226562 657.164062 205.785156 C 657.394531 206.339844 657.648438 206.882812 657.933594 207.414062 C 658.21875 207.945312 658.527344 208.464844 658.859375 208.964844 C 659.195312 209.464844 659.554688 209.949219 659.9375 210.414062 C 660.316406 210.878906 660.722656 211.324219 661.148438 211.75 C 661.574219 212.175781 662.019531 212.582031 662.484375 212.964844 C 662.949219 213.34375 663.433594 213.703125 663.933594 214.039062 C 664.433594 214.371094 664.949219 214.683594 665.480469 214.964844 C 666.011719 215.25 666.554688 215.507812 667.113281 215.738281 C 667.667969 215.96875 668.234375 216.171875 668.8125 216.347656 C 669.386719 216.519531 669.972656 216.667969 670.5625 216.785156 C 671.152344 216.902344 671.746094 216.988281 672.347656 217.050781 C 672.945312 217.109375 673.546875 217.136719 674.148438 217.136719 C 674.75 217.136719 675.351562 217.109375 675.949219 217.050781 C 676.550781 216.988281 677.144531 216.902344 677.734375 216.785156 C 678.324219 216.667969 678.910156 216.519531 679.484375 216.34375 C 680.0625 216.171875 680.628906 215.96875 681.183594 215.738281 C 681.742188 215.507812 682.285156 215.25 682.816406 214.964844 C 683.347656 214.683594 683.863281 214.371094 684.363281 214.039062 C 684.863281 213.703125 685.347656 213.34375 685.8125 212.964844 C 686.277344 212.582031 686.722656 212.175781 687.148438 211.75 C 687.574219 211.324219 687.980469 210.878906 688.359375 210.414062 C 688.742188 209.949219 689.101562 209.464844 689.4375 208.964844 C 689.769531 208.464844 690.078125 207.945312 690.363281 207.414062 C 690.648438 206.882812 690.90625 206.339844 691.136719 205.785156 C 691.367188 205.226562 691.566406 204.660156 691.742188 204.085938 C 691.917969 203.507812 692.0625 202.925781 692.179688 202.332031 C 692.296875 201.742188 692.386719 201.148438 692.445312 200.546875 C 692.503906 199.949219 692.535156 199.347656 692.535156 198.746094 C 692.535156 198.144531 692.503906 197.542969 692.445312 196.941406 C 692.386719 196.34375 692.296875 195.75 692.179688 195.15625 C 692.0625 194.566406 691.917969 193.984375 691.742188 193.40625 C 691.566406 192.832031 691.367188 192.265625 691.136719 191.707031 C 690.90625 191.152344 690.648438 190.605469 690.363281 190.078125 C 690.078125 189.546875 689.769531 189.027344 689.4375 188.527344 C 689.101562 188.027344 688.742188 187.542969 688.359375 187.078125 C 687.980469 186.613281 687.574219 186.167969 687.148438 185.742188 C 686.722656 185.316406 686.277344 184.910156 685.8125 184.527344 C 685.347656 184.148438 684.863281 183.789062 684.363281 183.453125 C 683.863281 183.121094 683.347656 182.808594 682.816406 182.527344 C 682.285156 182.242188 681.742188 181.984375 681.183594 181.753906 C 680.628906 181.523438 680.0625 181.320312 679.484375 181.144531 C 678.910156 180.972656 678.324219 180.824219 677.734375 180.707031 C 677.144531 180.589844 676.550781 180.5 675.949219 180.441406 C 675.351562 180.382812 674.75 180.355469 674.148438 180.355469 Z M 80.695312 388.792969 C 79.855469 388.792969 79.023438 388.835938 78.191406 388.917969 C 77.359375 389 76.53125 389.121094 75.710938 389.285156 C 74.890625 389.445312 74.082031 389.648438 73.28125 389.894531 C 72.480469 390.136719 71.695312 390.417969 70.921875 390.738281 C 70.148438 391.058594 69.394531 391.414062 68.65625 391.808594 C 67.917969 392.203125 67.203125 392.632812 66.507812 393.097656 C 65.8125 393.5625 65.140625 394.0625 64.492188 394.589844 C 63.847656 395.121094 63.226562 395.683594 62.636719 396.273438 C 62.046875 396.867188 61.484375 397.484375 60.953125 398.132812 C 60.421875 398.777344 59.925781 399.449219 59.460938 400.144531 C 58.996094 400.839844 58.566406 401.558594 58.171875 402.296875 C 57.777344 403.035156 57.421875 403.789062 57.101562 404.5625 C 56.78125 405.335938 56.5 406.121094 56.257812 406.921875 C 56.015625 407.722656 55.8125 408.53125 55.648438 409.355469 C 55.484375 410.175781 55.363281 411 55.28125 411.832031 C 55.199219 412.664062 55.15625 413.5 55.15625 414.335938 C 55.15625 415.171875 55.199219 416.007812 55.28125 416.839844 C 55.363281 417.671875 55.484375 418.5 55.648438 419.320312 C 55.8125 420.140625 56.015625 420.953125 56.257812 421.753906 C 56.5 422.550781 56.78125 423.339844 57.101562 424.113281 C 57.421875 424.886719 57.777344 425.640625 58.171875 426.378906 C 58.566406 427.117188 58.996094 427.832031 59.460938 428.527344 C 59.925781 429.222656 60.421875 429.894531 60.953125 430.542969 C 61.484375 431.1875 62.046875 431.808594 62.636719 432.398438 C 63.226562 432.992188 63.847656 433.550781 64.492188 434.082031 C 65.140625 434.613281 65.8125 435.109375 66.507812 435.574219 C 67.203125 436.039062 67.917969 436.46875 68.65625 436.863281 C 69.394531 437.257812 70.148438 437.617188 70.921875 437.9375 C 71.695312 438.257812 72.480469 438.539062 73.28125 438.78125 C 74.082031 439.023438 74.890625 439.226562 75.710938 439.390625 C 76.53125 439.554688 77.359375 439.675781 78.191406 439.757812 C 79.023438 439.839844 79.855469 439.882812 80.695312 439.882812 C 81.53125 439.882812 82.363281 439.839844 83.195312 439.757812 C 84.027344 439.675781 84.855469 439.554688 85.675781 439.390625 C 86.496094 439.226562 87.304688 439.023438 88.105469 438.78125 C 88.90625 438.539062 89.691406 438.257812 90.464844 437.9375 C 91.238281 437.617188 91.992188 437.257812 92.730469 436.863281 C 93.46875 436.46875 94.183594 436.039062 94.878906 435.574219 C 95.574219 435.109375 96.246094 434.613281 96.894531 434.082031 C 97.539062 433.550781 98.160156 432.992188 98.75 432.398438 C 99.339844 431.808594 99.902344 431.1875 100.433594 430.542969 C 100.964844 429.894531 101.460938 429.222656 101.925781 428.527344 C 102.390625 427.832031 102.820312 427.117188 103.214844 426.378906 C 103.609375 425.640625 103.964844 424.886719 104.285156 424.113281 C 104.605469 423.339844 104.886719 422.550781 105.128906 421.753906 C 105.371094 420.953125 105.574219 420.140625 105.738281 419.320312 C 105.902344 418.5 106.023438 417.671875 106.105469 416.839844 C 106.1875 416.007812 106.230469 415.171875 106.230469 414.335938 C 106.230469 413.5 106.1875 412.664062 106.105469 411.832031 C 106.023438 411 105.902344 410.175781 105.738281 409.355469 C 105.574219 408.53125 105.371094 407.722656 105.128906 406.921875 C 104.886719 406.121094 104.605469 405.335938 104.285156 404.5625 C 103.964844 403.789062 103.609375 403.035156 103.214844 402.296875 C 102.820312 401.558594 102.390625 400.839844 101.925781 400.144531 C 101.460938 399.449219 100.964844 398.777344 100.433594 398.132812 C 99.902344 397.484375 99.339844 396.867188 98.75 396.273438 C 98.160156 395.683594 97.539062 395.121094 96.894531 394.589844 C 96.246094 394.058594 95.574219 393.5625 94.878906 393.097656 C 94.183594 392.632812 93.46875 392.203125 92.730469 391.808594 C 91.992188 391.414062 91.238281 391.058594 90.464844 390.738281 C 89.691406 390.417969 88.90625 390.136719 88.105469 389.894531 C 87.304688 389.648438 86.496094 389.445312 85.675781 389.285156 C 84.855469 389.121094 84.027344 389 83.195312 388.917969 C 82.363281 388.835938 81.53125 388.792969 80.695312 388.792969 Z M 80.695312 388.792969 " fill-opacity="1" fill-rule="nonzero"/><path fill="#472b29" d="M 604.691406 373.464844 C 602.648438 367.335938 598.5625 363.25 592.433594 360.183594 L 590.390625 359.164062 L 590.390625 358.140625 C 592.433594 354.054688 593.457031 349.964844 593.457031 345.878906 L 593.457031 343.835938 C 593.457031 337.707031 591.414062 332.597656 589.371094 327.488281 L 584.261719 321.355469 L 586.304688 320.335938 C 591.414062 314.203125 594.476562 307.050781 594.476562 298.878906 L 594.476562 296.835938 C 594.476562 291.726562 592.433594 285.59375 589.371094 281.507812 L 584.261719 275.378906 C 583.242188 274.355469 582.21875 273.335938 580.175781 272.3125 L 583.242188 270.269531 C 588.347656 266.183594 590.390625 259.03125 591.414062 252.898438 C 591.414062 249.832031 591.414062 245.746094 589.371094 242.679688 C 588.347656 239.617188 586.304688 236.550781 584.261719 233.484375 C 582.21875 231.441406 579.15625 229.398438 576.089844 228.378906 C 573.027344 226.332031 569.960938 226.332031 566.898438 226.332031 L 563.832031 226.332031 C 566.898438 220.203125 568.941406 213.050781 567.917969 206.921875 C 565.875 189.550781 551.578125 176.265625 534.210938 176.265625 C 534.210938 175.246094 534.210938 174.222656 534.210938 173.203125 C 535.234375 152.765625 518.890625 135.398438 498.460938 134.375 C 493.355469 134.375 488.246094 136.417969 484.160156 138.460938 C 479.054688 124.15625 465.777344 115.984375 451.476562 115.984375 C 447.390625 115.984375 442.28125 117.003906 438.195312 120.070312 L 434.109375 114.960938 C 429.003906 109.851562 422.875 106.789062 415.726562 106.789062 C 412.660156 106.789062 408.574219 106.789062 405.511719 108.832031 C 400.402344 110.875 395.296875 113.941406 392.230469 119.046875 C 389.167969 113.941406 384.0625 110.875 378.953125 108.832031 C 375.890625 107.808594 371.804688 106.789062 368.738281 106.789062 C 361.589844 106.789062 355.460938 109.851562 350.351562 114.960938 L 346.265625 120.070312 C 342.179688 118.027344 338.097656 117.003906 332.988281 115.984375 C 317.667969 114.960938 303.367188 124.15625 298.261719 138.460938 C 293.152344 136.417969 288.046875 135.398438 282.9375 135.398438 C 262.507812 136.417969 246.167969 153.789062 247.1875 174.222656 C 247.1875 175.246094 247.1875 176.265625 247.1875 177.289062 C 229.824219 177.289062 215.523438 190.570312 213.480469 207.941406 C 212.460938 215.09375 214.5 221.226562 217.566406 227.355469 L 214.5 227.355469 C 211.4375 227.355469 208.375 228.378906 205.308594 229.398438 C 202.246094 230.421875 199.179688 232.464844 197.136719 234.507812 C 195.09375 236.550781 193.050781 239.617188 192.03125 243.703125 C 191.007812 246.769531 189.988281 249.832031 189.988281 253.921875 C 189.988281 260.050781 193.050781 267.203125 198.160156 271.289062 L 201.222656 273.335938 C 200.203125 274.355469 198.160156 275.378906 197.136719 276.398438 L 192.03125 282.53125 C 188.964844 287.640625 187.945312 292.746094 186.921875 297.855469 L 186.921875 299.898438 C 186.921875 308.074219 191.007812 315.226562 196.117188 321.355469 L 198.160156 323.402344 L 193.050781 329.53125 C 189.988281 334.640625 188.964844 339.75 188.964844 345.878906 L 188.964844 347.921875 C 188.964844 352.011719 189.988281 356.097656 192.03125 360.183594 C 192.03125 360.183594 192.03125 361.207031 192.03125 361.207031 C 180.792969 366.3125 175.6875 379.597656 180.792969 391.859375 L 182.835938 396.96875 C 185.902344 402.074219 189.988281 407.183594 196.117188 409.226562 C 198.160156 410.25 201.222656 410.25 203.265625 410.25 C 203.265625 412.292969 204.289062 413.316406 205.308594 415.359375 C 206.332031 418.425781 208.375 420.46875 210.417969 422.511719 C 212.460938 424.554688 214.5 425.578125 217.566406 426.597656 C 219.609375 427.621094 222.671875 428.640625 225.738281 427.621094 L 227.78125 427.621094 C 225.738281 431.707031 223.695312 435.792969 223.695312 440.902344 L 223.695312 442.945312 C 223.695312 446.011719 224.714844 450.097656 225.738281 453.164062 C 226.757812 456.230469 228.800781 459.292969 230.84375 461.339844 C 232.886719 463.382812 235.953125 465.425781 239.015625 466.445312 C 242.082031 468.492188 246.167969 468.492188 249.230469 468.492188 L 256.378906 467.46875 L 258.421875 466.445312 C 258.421875 468.492188 259.445312 470.535156 259.445312 473.597656 C 261.488281 480.75 266.59375 487.902344 273.746094 490.96875 C 276.808594 493.011719 280.894531 495.054688 284.980469 495.054688 L 293.152344 495.054688 C 295.195312 495.054688 297.238281 494.035156 299.28125 493.011719 C 300.300781 495.054688 301.324219 496.078125 302.34375 498.121094 C 307.453125 503.230469 313.582031 506.296875 320.730469 507.316406 L 327.882812 507.316406 C 330.945312 506.296875 334.011719 505.273438 337.074219 504.25 C 343.203125 515.492188 355.460938 521.621094 368.738281 521.621094 C 376.910156 521.621094 386.101562 518.554688 392.230469 513.449219 C 398.359375 519.578125 407.554688 521.621094 415.726562 521.621094 C 427.980469 521.621094 440.238281 515.492188 447.390625 504.25 C 450.453125 506.296875 453.519531 507.316406 456.582031 507.316406 L 463.734375 507.316406 C 470.882812 506.296875 477.011719 503.230469 482.117188 498.121094 C 483.140625 497.097656 484.160156 495.054688 485.183594 493.011719 C 487.226562 494.035156 489.269531 494.035156 491.3125 495.054688 L 499.484375 495.054688 C 503.570312 495.054688 507.65625 493.011719 510.71875 490.96875 C 517.867188 486.882812 522.976562 480.75 525.019531 473.597656 C 526.039062 471.554688 526.039062 469.511719 526.039062 466.445312 L 528.082031 467.46875 L 535.234375 468.492188 C 538.296875 468.492188 542.382812 467.46875 545.449219 466.445312 C 548.511719 465.425781 551.574219 463.382812 553.617188 461.339844 C 556.683594 459.292969 557.703125 456.230469 558.726562 453.164062 C 560.769531 450.097656 561.789062 446.011719 560.769531 442.945312 L 560.769531 440.902344 C 560.769531 435.792969 559.746094 431.707031 556.683594 427.621094 L 558.726562 427.621094 C 561.789062 427.621094 563.832031 427.621094 566.898438 426.597656 C 569.960938 425.578125 572.003906 424.554688 574.046875 422.511719 C 576.089844 420.46875 578.132812 418.425781 579.15625 415.359375 C 580.175781 414.335938 581.199219 412.292969 581.199219 410.25 C 583.242188 410.25 586.304688 410.25 588.347656 409.226562 C 594.476562 407.183594 598.5625 403.097656 601.625 396.96875 L 603.667969 391.859375 C 606.734375 385.726562 606.734375 379.597656 604.691406 373.464844 Z M 604.691406 373.464844 " fill-opacity="1" fill-rule="nonzero"/><path fill="#d8ad8f" d="M 509.699219 320.335938 C 510.71875 305.007812 506.632812 291.726562 507.65625 283.550781 C 494.375 266.183594 485.183594 246.769531 466.796875 234.507812 C 445.347656 221.226562 421.855469 212.027344 397.339844 205.898438 C 339.117188 191.59375 281.917969 233.484375 263.53125 288.660156 L 263.53125 289.683594 C 265.574219 299.898438 266.59375 310.117188 267.617188 320.335938 C 252.296875 320.335938 244.125 328.507812 249.230469 344.859375 C 249.230469 344.859375 255.359375 371.421875 259.445312 384.707031 C 260.464844 391.859375 267.617188 396.96875 274.765625 396.96875 C 274.765625 405.140625 274.765625 414.335938 274.765625 422.511719 C 274.765625 432.730469 277.832031 442.945312 283.960938 451.121094 C 299.28125 473.597656 377.933594 524.6875 397.339844 522.644531 C 427.980469 522.644531 489.269531 470.535156 505.613281 443.96875 C 508.675781 438.859375 509.699219 432.730469 510.71875 426.597656 C 510.71875 416.378906 510.71875 406.164062 510.71875 395.945312 C 516.847656 394.921875 521.953125 389.816406 523.996094 383.683594 C 528.082031 370.402344 534.210938 343.835938 534.210938 343.835938 C 537.277344 328.507812 525.019531 320.335938 509.699219 320.335938 Z M 509.699219 320.335938 " fill-opacity="1" fill-rule="nonzero"/><path fill="#b2876b" d="M 556.683594 581.90625 L 553.617188 580.882812 L 547.492188 578.839844 C 535.234375 573.730469 452.496094 545.121094 452.496094 545.121094 C 446.367188 543.078125 442.28125 538.992188 440.238281 533.882812 C 438.195312 523.664062 437.175781 514.46875 438.195312 504.25 C 423.898438 510.382812 409.597656 515.492188 395.296875 518.554688 C 375.890625 520.601562 342.179688 495.054688 342.179688 495.054688 C 342.179688 495.054688 341.160156 525.707031 340.136719 532.859375 C 338.097656 538.992188 332.988281 543.078125 326.859375 544.101562 L 248.210938 570.667969 C 240.039062 572.710938 232.886719 575.773438 225.738281 579.863281 C 209.394531 591.101562 197.136719 608.472656 192.03125 627.882812 C 192.03125 629.929688 191.007812 631.972656 191.007812 634.015625 C 189.988281 638.101562 189.988281 643.210938 189.988281 647.296875 C 189.988281 652.40625 188.964844 708.605469 188.964844 713.710938 C 262.507812 769.910156 353.417969 777.0625 460.667969 777.0625 C 507.65625 777.0625 554.640625 748.453125 596.519531 733.125 C 591.414062 638.101562 600.605469 595.1875 556.683594 581.90625 Z M 556.683594 581.90625 " fill-opacity="1" fill-rule="nonzero"/><g mask="url(#5f7725c6c7)"><g transform="matrix(1, 0, 0, 1, 289, 381)"><g clip-path="url(#17fc850a86)"><path fill="#f4989e" d="M 28.667969 6.769531 C 27.996094 6.769531 27.332031 6.804688 26.664062 6.871094 C 26 6.933594 25.335938 7.035156 24.679688 7.164062 C 24.027344 7.292969 23.378906 7.457031 22.738281 7.652344 C 22.097656 7.84375 21.46875 8.070312 20.847656 8.328125 C 20.230469 8.582031 19.628906 8.867188 19.035156 9.183594 C 18.445312 9.5 17.875 9.84375 17.316406 10.214844 C 16.761719 10.585938 16.222656 10.984375 15.707031 11.410156 C 15.191406 11.835938 14.695312 12.285156 14.222656 12.757812 C 13.75 13.230469 13.300781 13.726562 12.875 14.242188 C 12.449219 14.761719 12.054688 15.296875 11.679688 15.851562 C 11.308594 16.410156 10.964844 16.984375 10.652344 17.574219 C 10.335938 18.164062 10.050781 18.769531 9.792969 19.386719 C 9.539062 20.003906 9.3125 20.632812 9.117188 21.273438 C 8.921875 21.914062 8.761719 22.5625 8.628906 23.21875 C 8.5 23.875 8.402344 24.539062 8.335938 25.203125 C 8.269531 25.871094 8.238281 26.539062 8.238281 27.207031 C 8.238281 27.875 8.269531 28.542969 8.335938 29.210938 C 8.402344 29.875 8.5 30.535156 8.628906 31.191406 C 8.761719 31.847656 8.921875 32.496094 9.117188 33.136719 C 9.3125 33.777344 9.539062 34.410156 9.792969 35.027344 C 10.050781 35.644531 10.335938 36.25 10.652344 36.839844 C 10.964844 37.429688 11.308594 38.003906 11.679688 38.558594 C 12.054688 39.117188 12.449219 39.652344 12.875 40.171875 C 13.300781 40.6875 13.75 41.183594 14.222656 41.65625 C 14.695312 42.128906 15.191406 42.578125 15.707031 43.003906 C 16.222656 43.425781 16.761719 43.824219 17.316406 44.199219 C 17.875 44.570312 18.445312 44.914062 19.035156 45.230469 C 19.628906 45.542969 20.230469 45.828125 20.847656 46.085938 C 21.46875 46.34375 22.097656 46.566406 22.738281 46.761719 C 23.378906 46.957031 24.027344 47.117188 24.679688 47.25 C 25.335938 47.378906 26 47.476562 26.664062 47.542969 C 27.332031 47.609375 27.996094 47.640625 28.667969 47.640625 C 29.335938 47.640625 30.003906 47.609375 30.667969 47.542969 C 31.335938 47.476562 31.996094 47.378906 32.652344 47.25 C 33.308594 47.117188 33.957031 46.957031 34.597656 46.761719 C 35.238281 46.566406 35.867188 46.34375 36.484375 46.085938 C 37.101562 45.828125 37.707031 45.542969 38.296875 45.230469 C 38.886719 44.914062 39.460938 44.570312 40.015625 44.199219 C 40.574219 43.824219 41.109375 43.425781 41.625 43.003906 C 42.144531 42.578125 42.640625 42.128906 43.113281 41.65625 C 43.585938 41.183594 44.035156 40.6875 44.457031 40.171875 C 44.882812 39.652344 45.28125 39.117188 45.652344 38.558594 C 46.023438 38.003906 46.367188 37.429688 46.683594 36.839844 C 47 36.25 47.285156 35.644531 47.539062 35.027344 C 47.796875 34.410156 48.023438 33.777344 48.214844 33.136719 C 48.410156 32.496094 48.574219 31.847656 48.703125 31.191406 C 48.832031 30.535156 48.933594 29.875 48.996094 29.210938 C 49.0625 28.542969 49.097656 27.875 49.097656 27.207031 C 49.097656 26.539062 49.0625 25.871094 48.996094 25.203125 C 48.933594 24.539062 48.832031 23.875 48.703125 23.21875 C 48.574219 22.5625 48.410156 21.914062 48.214844 21.273438 C 48.023438 20.632812 47.796875 20.003906 47.539062 19.386719 C 47.285156 18.769531 47 18.164062 46.683594 17.574219 C 46.367188 16.984375 46.023438 16.410156 45.652344 15.851562 C 45.28125 15.296875 44.882812 14.761719 44.457031 14.242188 C 44.035156 13.726562 43.585938 13.230469 43.113281 12.757812 C 42.640625 12.285156 42.144531 11.835938 41.625 11.410156 C 41.109375 10.984375 40.574219 10.585938 40.015625 10.214844 C 39.460938 9.84375 38.886719 9.5 38.296875 9.183594 C 37.707031 8.867188 37.101562 8.582031 36.484375 8.328125 C 35.867188 8.070312 35.238281 7.84375 34.597656 7.652344 C 33.957031 7.457031 33.308594 7.292969 32.652344 7.164062 C 31.996094 7.035156 31.335938 6.933594 30.667969 6.871094 C 30.003906 6.804688 29.335938 6.769531 28.667969 6.769531 Z M 182.902344 6.769531 C 182.234375 6.769531 181.566406 6.804688 180.902344 6.871094 C 180.234375 6.933594 179.574219 7.035156 178.917969 7.164062 C 178.261719 7.292969 177.613281 7.457031 176.972656 7.652344 C 176.332031 7.84375 175.703125 8.070312 175.085938 8.328125 C 174.46875 8.582031 173.863281 8.867188 173.273438 9.183594 C 172.683594 9.5 172.109375 9.84375 171.554688 10.214844 C 171 10.585938 170.460938 10.984375 169.945312 11.410156 C 169.425781 11.835938 168.933594 12.285156 168.457031 12.757812 C 167.984375 13.230469 167.535156 13.726562 167.113281 14.242188 C 166.6875 14.761719 166.289062 15.296875 165.917969 15.851562 C 165.546875 16.410156 165.203125 16.984375 164.886719 17.574219 C 164.570312 18.164062 164.285156 18.769531 164.03125 19.386719 C 163.773438 20.003906 163.550781 20.632812 163.355469 21.273438 C 163.160156 21.914062 163 22.5625 162.867188 23.21875 C 162.738281 23.875 162.640625 24.539062 162.574219 25.203125 C 162.507812 25.871094 162.476562 26.539062 162.476562 27.207031 C 162.476562 27.875 162.507812 28.542969 162.574219 29.210938 C 162.640625 29.875 162.738281 30.535156 162.867188 31.191406 C 163 31.847656 163.160156 32.496094 163.355469 33.136719 C 163.550781 33.777344 163.773438 34.410156 164.03125 35.027344 C 164.285156 35.644531 164.570312 36.25 164.886719 36.839844 C 165.203125 37.429688 165.546875 38.003906 165.917969 38.558594 C 166.289062 39.117188 166.6875 39.652344 167.113281 40.171875 C 167.535156 40.6875 167.984375 41.183594 168.457031 41.65625 C 168.933594 42.128906 169.425781 42.578125 169.945312 43.003906 C 170.460938 43.425781 171 43.824219 171.554688 44.199219 C 172.109375 44.570312 172.683594 44.914062 173.273438 45.230469 C 173.863281 45.542969 174.46875 45.828125 175.085938 46.085938 C 175.703125 46.34375 176.332031 46.566406 176.972656 46.761719 C 177.613281 46.957031 178.261719 47.117188 178.917969 47.25 C 179.574219 47.378906 180.234375 47.476562 180.902344 47.542969 C 181.566406 47.609375 182.234375 47.640625 182.902344 47.640625 C 183.574219 47.640625 184.242188 47.609375 184.90625 47.542969 C 185.574219 47.476562 186.234375 47.378906 186.890625 47.25 C 187.546875 47.117188 188.195312 46.957031 188.835938 46.761719 C 189.472656 46.566406 190.105469 46.34375 190.722656 46.085938 C 191.339844 45.828125 191.945312 45.542969 192.535156 45.230469 C 193.125 44.914062 193.699219 44.570312 194.253906 44.199219 C 194.808594 43.824219 195.347656 43.425781 195.863281 43.003906 C 196.382812 42.578125 196.875 42.128906 197.347656 41.65625 C 197.824219 41.183594 198.269531 40.6875 198.695312 40.171875 C 199.121094 39.652344 199.519531 39.117188 199.890625 38.558594 C 200.261719 38.003906 200.605469 37.429688 200.921875 36.839844 C 201.234375 36.25 201.523438 35.644531 201.777344 35.027344 C 202.035156 34.410156 202.257812 33.777344 202.453125 33.136719 C 202.648438 32.496094 202.808594 31.847656 202.941406 31.191406 C 203.070312 30.535156 203.167969 29.875 203.234375 29.210938 C 203.300781 28.542969 203.332031 27.875 203.332031 27.207031 C 203.332031 26.539062 203.300781 25.871094 203.234375 25.203125 C 203.167969 24.539062 203.070312 23.875 202.941406 23.21875 C 202.808594 22.5625 202.648438 21.914062 202.453125 21.273438 C 202.257812 20.632812 202.035156 20.003906 201.777344 19.386719 C 201.523438 18.769531 201.234375 18.164062 200.921875 17.574219 C 200.605469 16.984375 200.261719 16.410156 199.890625 15.851562 C 199.519531 15.296875 199.121094 14.761719 198.695312 14.242188 C 198.269531 13.726562 197.824219 13.230469 197.347656 12.757812 C 196.875 12.285156 196.382812 11.835938 195.863281 11.410156 C 195.347656 10.984375 194.808594 10.585938 194.253906 10.214844 C 193.699219 9.84375 193.125 9.5 192.535156 9.183594 C 191.945312 8.867188 191.339844 8.582031 190.722656 8.328125 C 190.105469 8.070312 189.472656 7.84375 188.835938 7.652344 C 188.195312 7.457031 187.546875 7.292969 186.890625 7.164062 C 186.234375 7.035156 185.574219 6.933594 184.90625 6.871094 C 184.242188 6.804688 183.574219 6.769531 182.902344 6.769531 Z M 182.902344 6.769531 " fill-opacity="0.8" fill-rule="nonzero"/></g></g></g><path fill="#472b29" d="M 276.808594 404.121094 C 275.789062 404.121094 274.765625 403.097656 274.765625 402.074219 L 266.59375 320.335938 C 266.59375 319.3125 267.617188 318.292969 268.636719 318.292969 C 269.660156 318.292969 270.679688 319.3125 270.679688 320.335938 L 278.851562 402.074219 C 278.851562 403.097656 277.832031 404.121094 276.808594 404.121094 Z M 506.632812 400.03125 C 505.613281 400.03125 504.589844 399.011719 504.589844 397.988281 L 509.699219 315.226562 C 509.699219 314.203125 510.71875 313.183594 511.738281 313.183594 C 512.761719 313.183594 513.78125 314.203125 513.78125 315.226562 L 508.675781 397.988281 C 508.675781 399.011719 507.65625 400.03125 506.632812 400.03125 Z M 506.632812 400.03125 " fill-opacity="1" fill-rule="nonzero"/><path fill="#c0d078" d="M 526.039062 567.601562 C 533.191406 669.777344 254.339844 660.582031 257.402344 568.621094 L 249.230469 569.644531 L 235.953125 744.363281 C 379.976562 819.976562 547.492188 756.625 547.492188 756.625 L 535.234375 570.667969 C 532.167969 569.644531 529.105469 568.621094 526.039062 567.601562 Z M 526.039062 567.601562 " fill-opacity="1" fill-rule="nonzero"/><path fill="#472b29" d="M 402.445312 500.164062 C 402.445312 500.164062 403.46875 499.144531 402.445312 500.164062 C 403.46875 499.144531 402.445312 498.121094 402.445312 498.121094 L 384.058594 498.121094 C 384.058594 498.121094 383.039062 498.121094 383.039062 499.144531 C 383.039062 500.164062 383.039062 500.164062 384.058594 500.164062 Z M 402.445312 500.164062 " fill-opacity="0.41" fill-rule="nonzero"/><path fill="#472b29" d="M 396.316406 519.578125 C 376.910156 519.578125 345.246094 502.207031 343.203125 502.207031 C 342.179688 501.1875 341.160156 500.164062 342.179688 499.144531 C 343.203125 498.121094 344.222656 497.097656 345.246094 498.121094 C 345.246094 498.121094 379.976562 516.511719 397.339844 515.492188 C 412.660156 512.425781 427.980469 507.316406 441.261719 499.144531 C 442.28125 498.121094 444.324219 499.144531 444.324219 500.164062 C 445.347656 501.1875 444.324219 503.230469 443.304688 503.230469 C 429.003906 511.402344 413.683594 517.535156 397.339844 520.601562 C 398.359375 519.578125 397.339844 519.578125 396.316406 519.578125 Z M 517.867188 239.617188 C 520.933594 236.550781 522.976562 232.464844 522.976562 228.378906 C 522.976562 224.289062 520.933594 221.226562 518.890625 218.160156 C 521.953125 215.09375 523.996094 209.984375 523.996094 205.898438 C 522.976562 195.679688 514.804688 186.484375 504.589844 186.484375 C 502.546875 185.464844 500.503906 184.441406 497.441406 184.441406 C 498.460938 182.398438 498.460938 180.355469 498.460938 179.332031 C 496.417969 167.070312 485.183594 158.898438 472.925781 159.917969 C 466.796875 159.917969 461.691406 161.960938 456.582031 165.027344 C 451.476562 154.808594 440.238281 147.65625 427.980469 148.679688 C 411.640625 148.679688 398.359375 158.898438 398.359375 172.179688 C 398.359375 176.265625 399.382812 179.332031 401.425781 182.398438 C 398.359375 183.417969 395.296875 184.441406 393.253906 185.464844 C 393.253906 185.464844 393.253906 185.464844 393.253906 184.441406 C 393.253906 177.289062 389.167969 171.160156 383.039062 168.09375 C 383.039062 167.070312 383.039062 166.050781 383.039062 165.027344 C 383.039062 152.765625 369.761719 142.550781 354.4375 142.550781 L 352.394531 142.550781 C 350.351562 142.550781 347.289062 141.527344 345.246094 141.527344 C 337.074219 141.527344 328.902344 143.570312 322.773438 148.679688 C 310.515625 148.679688 299.28125 157.875 298.257812 170.136719 C 291.109375 170.136719 283.960938 174.222656 279.875 180.355469 C 271.703125 183.417969 266.59375 190.570312 266.59375 198.746094 C 257.402344 199.769531 250.253906 207.941406 249.230469 217.136719 C 249.230469 219.179688 249.230469 220.203125 250.253906 222.246094 C 244.125 226.332031 240.039062 232.464844 240.039062 239.617188 C 240.039062 248.8125 246.167969 255.964844 254.335938 260.050781 C 254.335938 261.074219 254.335938 262.09375 254.335938 264.136719 C 254.335938 278.441406 268.636719 289.683594 287.023438 289.683594 C 295.195312 289.683594 303.367188 287.640625 309.496094 282.53125 C 317.667969 281.507812 324.816406 276.398438 327.882812 268.226562 C 340.136719 269.246094 351.375 261.074219 352.394531 248.8125 C 359.546875 247.789062 365.675781 242.679688 369.761719 236.550781 L 372.824219 235.527344 C 378.953125 246.769531 391.210938 252.898438 403.46875 251.878906 C 406.53125 263.117188 416.746094 270.269531 427.980469 269.246094 L 430.023438 269.246094 C 430.023438 270.269531 430.023438 271.289062 430.023438 271.289062 C 432.066406 283.550781 443.304688 292.746094 455.5625 291.726562 C 463.734375 291.726562 471.902344 288.660156 478.03125 281.507812 C 484.160156 286.617188 492.332031 289.683594 501.527344 288.660156 C 519.910156 288.660156 534.210938 277.421875 534.210938 263.117188 C 533.191406 251.878906 527.0625 243.703125 517.867188 239.617188 Z M 517.867188 239.617188 " fill-opacity="1" fill-rule="nonzero"/><path fill="#472b29" d="M 407.554688 788.300781 C 329.925781 788.300781 251.273438 764.800781 185.902344 718.820312 C 184.878906 717.800781 183.859375 716.777344 183.859375 714.734375 L 183.859375 710.648438 C 181.816406 637.082031 195.09375 592.121094 224.714844 576.796875 C 231.867188 572.710938 240.039062 569.644531 248.210938 567.601562 L 326.859375 541.035156 C 331.96875 540.011719 335.03125 536.949219 336.054688 532.859375 C 337.074219 528.773438 338.097656 512.425781 338.097656 504.25 C 314.601562 488.925781 288.046875 469.511719 278.851562 456.230469 C 272.722656 447.035156 268.636719 435.792969 269.660156 423.53125 L 269.660156 403.097656 C 262.507812 401.054688 256.378906 394.921875 254.339844 386.75 C 250.253906 374.488281 244.125 347.921875 244.125 346.902344 C 240.039062 335.660156 243.101562 328.507812 246.167969 324.421875 C 248.210938 321.355469 253.316406 317.269531 262.507812 316.25 C 262.507812 314.203125 262.507812 313.183594 262.507812 311.140625 C 259.445312 305.007812 258.421875 299.898438 257.402344 292.746094 C 257.402344 226.332031 316.644531 172.179688 389.167969 172.179688 C 461.691406 172.179688 520.933594 226.332031 520.933594 292.746094 C 520.933594 299.898438 518.890625 306.03125 516.847656 312.160156 C 516.847656 313.183594 516.847656 314.203125 516.847656 315.226562 C 525.019531 316.25 532.167969 319.3125 536.253906 325.445312 C 539.320312 329.53125 542.382812 336.683594 538.296875 346.902344 C 537.277344 353.03125 531.148438 377.554688 528.082031 386.75 C 527.0625 392.878906 521.953125 399.011719 515.824219 401.054688 L 515.824219 427.621094 C 515.824219 434.773438 513.78125 440.902344 510.71875 447.035156 C 492.332031 471.554688 470.882812 491.992188 445.347656 508.339844 C 445.347656 516.511719 445.347656 523.664062 447.390625 531.839844 C 448.410156 534.90625 452.496094 537.96875 456.582031 538.992188 C 460.667969 540.011719 539.320312 567.601562 551.578125 572.710938 L 560.769531 575.773438 C 599.582031 588.035156 600.605469 638.101562 602.648438 706.558594 C 602.648438 714.734375 602.648438 722.90625 603.667969 731.082031 C 603.667969 733.125 602.648438 735.167969 600.605469 736.191406 C 540.339844 771.953125 473.945312 788.300781 407.554688 788.300781 Z M 194.074219 711.667969 C 311.539062 792.386719 466.796875 799.539062 591.414062 730.058594 C 591.414062 722.910156 591.414062 715.757812 590.390625 708.605469 C 588.347656 641.167969 587.328125 597.230469 555.660156 587.015625 L 545.449219 583.949219 C 533.191406 578.839844 452.496094 551.253906 451.476562 550.230469 C 444.324219 548.1875 438.195312 543.078125 436.152344 536.949219 C 433.089844 526.730469 432.066406 516.511719 433.089844 507.316406 C 433.089844 505.273438 434.109375 504.25 435.132812 503.230469 C 460.667969 486.882812 482.117188 467.46875 499.484375 442.945312 C 501.527344 438.859375 502.546875 433.75 503.570312 428.640625 L 503.570312 397.988281 C 503.570312 394.921875 505.613281 392.878906 507.65625 392.878906 C 511.742188 391.859375 515.824219 388.792969 515.824219 384.707031 C 519.910156 372.445312 526.039062 346.902344 526.039062 344.855469 C 528.082031 338.726562 528.082031 334.640625 525.019531 331.574219 C 521.953125 327.488281 515.824219 325.445312 508.675781 325.445312 C 507.65625 325.445312 505.613281 325.445312 504.589844 324.421875 C 503.570312 323.402344 502.546875 322.378906 502.546875 320.335938 C 502.546875 312.160156 502.546875 308.074219 504.589844 306.03125 C 506.632812 301.945312 507.65625 296.835938 507.65625 291.726562 C 507.65625 231.441406 453.519531 181.375 386.101562 181.375 C 318.6875 181.375 264.550781 230.421875 264.550781 291.726562 C 264.550781 296.835938 266.59375 301.945312 268.636719 306.03125 C 268.636719 306.03125 268.636719 307.050781 268.636719 307.050781 C 269.660156 311.140625 269.660156 315.226562 269.660156 318.292969 C 269.660156 319.3125 269.660156 321.355469 268.636719 322.378906 C 267.617188 323.402344 266.59375 323.402344 264.550781 323.402344 C 260.464844 323.402344 254.339844 324.421875 251.273438 327.488281 C 248.210938 331.574219 249.230469 336.683594 251.273438 340.769531 C 251.273438 341.792969 257.402344 368.359375 261.488281 380.617188 C 262.507812 385.726562 266.59375 389.816406 271.703125 389.816406 C 272.722656 389.816406 274.765625 390.835938 275.789062 390.835938 C 276.808594 391.859375 276.808594 392.878906 276.808594 394.921875 L 276.808594 420.46875 C 275.789062 429.664062 278.851562 438.859375 283.960938 447.035156 C 291.109375 457.25 315.625 476.664062 343.203125 494.035156 C 344.222656 495.054688 345.246094 497.097656 345.246094 498.121094 C 345.246094 506.296875 343.203125 526.730469 342.179688 531.839844 C 339.117188 540.011719 332.988281 546.144531 324.816406 547.164062 L 246.167969 573.730469 C 239.015625 575.773438 231.867188 578.839844 224.714844 582.925781 C 207.351562 592.121094 186.921875 620.730469 189.988281 707.582031 Z M 194.074219 711.667969 " fill-opacity="1" fill-rule="nonzero"/><path fill="#472b29" d="M 369.761719 289.683594 C 344.222656 290.703125 319.710938 296.835938 296.21875 307.050781 C 295.195312 307.050781 294.175781 308.074219 295.195312 310.117188 C 295.195312 311.140625 296.21875 311.140625 298.257812 311.140625 C 298.257812 311.140625 350.351562 302.964844 366.695312 302.964844 L 367.71875 302.964844 C 368.738281 302.964844 368.738281 301.945312 369.761719 301.945312 L 372.824219 293.769531 C 372.824219 292.746094 372.824219 292.746094 372.824219 291.726562 C 371.804688 289.683594 370.78125 289.683594 369.761719 289.683594 Z M 412.660156 299.898438 C 437.175781 293.769531 462.710938 292.746094 488.246094 295.8125 C 489.269531 295.8125 490.289062 296.835938 490.289062 297.855469 C 490.289062 298.878906 489.269531 299.898438 488.246094 299.898438 C 465.777344 301.945312 442.28125 306.03125 419.8125 311.140625 L 418.789062 311.140625 C 417.769531 311.140625 417.769531 311.140625 416.746094 310.117188 L 410.617188 302.964844 C 410.617188 301.945312 410.617188 301.945312 410.617188 300.921875 C 411.640625 300.921875 411.640625 299.898438 412.660156 299.898438 Z M 336.054688 323.402344 C 330.945312 323.402344 325.839844 326.464844 323.796875 331.574219 C 324.816406 331.574219 324.816406 331.574219 325.839844 331.574219 C 330.945312 332.597656 334.011719 336.683594 332.988281 340.769531 C 332.988281 344.859375 329.925781 347.921875 325.839844 347.921875 C 324.816406 347.921875 322.773438 347.921875 321.753906 346.902344 C 322.773438 354.054688 328.902344 359.164062 336.054688 360.183594 C 346.265625 358.140625 352.394531 347.921875 350.351562 337.707031 C 348.308594 330.554688 343.203125 325.445312 336.054688 323.402344 Z M 448.410156 323.402344 C 444.324219 323.402344 440.238281 325.445312 437.175781 329.53125 C 438.195312 329.53125 439.21875 328.507812 440.238281 328.507812 C 445.347656 329.53125 448.410156 333.617188 447.390625 337.707031 C 447.390625 341.792969 444.324219 344.859375 440.238281 344.859375 C 437.175781 344.859375 435.132812 343.835938 434.109375 340.769531 C 436.152344 348.945312 444.324219 353.03125 452.496094 350.988281 C 460.667969 348.945312 464.753906 340.769531 462.710938 332.597656 C 460.667969 327.488281 454.539062 323.402344 448.410156 323.402344 Z M 448.410156 323.402344 " fill-opacity="1" fill-rule="nonzero"/><path fill="#472b29" d="M 394.273438 424.554688 C 399.382812 424.554688 404.488281 421.488281 407.554688 417.402344 C 408.574219 416.378906 408.574219 415.359375 407.554688 414.335938 C 406.53125 413.316406 405.511719 413.316406 404.488281 414.335938 C 399.382812 420.46875 391.210938 421.488281 385.082031 416.378906 C 384.058594 415.359375 384.058594 415.359375 383.039062 414.335938 C 382.019531 413.316406 380.996094 413.316406 379.976562 414.335938 C 378.953125 415.359375 378.953125 416.378906 379.976562 417.402344 C 384.058594 421.488281 389.167969 424.554688 394.273438 424.554688 Z M 394.273438 424.554688 " fill-opacity="0.41" fill-rule="nonzero"/><path fill="#6d1b18" d="M 359.546875 449.078125 C 359.546875 451.121094 358.523438 452.140625 358.523438 454.1875 C 358.523438 468.492188 373.847656 479.730469 393.253906 479.730469 C 412.660156 479.730469 427.980469 468.492188 427.980469 454.1875 C 427.980469 452.140625 427.980469 451.121094 426.960938 449.078125 Z M 359.546875 449.078125 " fill-opacity="1" fill-rule="nonzero"/><path fill="#ee3e54" d="M 411.640625 475.644531 C 400.402344 467.46875 385.082031 467.46875 374.867188 475.644531 C 387.125 480.75 400.402344 480.75 411.640625 475.644531 Z M 411.640625 475.644531 " fill-opacity="1" fill-rule="nonzero"/><path fill="#fdfcef" d="M 368.738281 449.078125 L 368.738281 453.164062 C 368.738281 457.25 373.847656 460.316406 379.976562 460.316406 L 406.53125 460.316406 C 412.660156 460.316406 417.769531 457.25 417.769531 453.164062 L 417.769531 449.078125 Z M 368.738281 449.078125 " fill-opacity="1" fill-rule="nonzero"/><path fill="#472b29" d="M 393.253906 481.773438 C 372.824219 481.773438 356.480469 469.511719 356.480469 454.1875 C 356.480469 452.140625 356.480469 451.121094 357.503906 449.078125 C 357.503906 448.054688 358.523438 448.054688 359.546875 448.054688 L 429.003906 448.054688 C 430.023438 448.054688 431.046875 449.078125 431.046875 449.078125 C 431.046875 451.121094 432.066406 452.140625 432.066406 454.1875 C 431.046875 469.511719 413.683594 481.773438 393.253906 481.773438 Z M 360.566406 451.121094 C 360.566406 452.140625 360.566406 453.164062 360.566406 454.1875 C 360.566406 467.46875 375.890625 477.6875 393.253906 477.6875 C 411.640625 477.6875 425.941406 467.46875 425.941406 454.1875 C 425.941406 453.164062 425.941406 452.140625 425.941406 451.121094 Z M 360.566406 451.121094 " fill-opacity="1" fill-rule="nonzero"/><path fill="#ee8670" d="M 389.167969 150.722656 C 314.601562 150.722656 253.316406 202.832031 253.316406 266.183594 C 253.316406 272.3125 255.359375 278.441406 258.421875 283.550781 C 274.765625 227.355469 350.351562 199.769531 389.167969 199.769531 C 427.980469 199.769531 502.546875 223.269531 519.910156 283.550781 C 522.976562 278.441406 523.996094 272.3125 525.019531 266.183594 C 523.996094 201.8125 463.734375 150.722656 389.167969 150.722656 Z M 389.167969 150.722656 " fill-opacity="1" fill-rule="nonzero"/><path fill="#f94e32" d="M 506.632812 314.203125 C 499.484375 311.140625 492.332031 310.117188 484.160156 310.117188 C 471.902344 310.117188 460.667969 311.140625 448.410156 313.183594 C 433.089844 316.25 417.769531 320.335938 403.46875 327.488281 C 398.359375 330.554688 392.230469 331.574219 386.101562 331.574219 C 379.976562 331.574219 373.847656 330.554688 368.738281 327.488281 C 354.4375 321.355469 339.117188 316.25 323.796875 313.183594 C 311.539062 311.140625 300.300781 311.140625 288.046875 310.117188 C 279.875 310.117188 272.722656 311.140625 265.574219 313.183594 C 262.507812 315.226562 261.488281 316.25 264.550781 326.464844 C 266.59375 335.660156 270.679688 344.859375 275.789062 353.03125 C 283.960938 366.3125 296.21875 376.53125 309.496094 382.664062 C 320.730469 386.75 332.988281 386.75 344.222656 382.664062 C 354.4375 377.554688 363.632812 369.378906 369.761719 359.160156 C 372.824219 353.03125 377.933594 342.8125 382.019531 342.8125 L 388.144531 342.8125 C 393.253906 342.8125 397.339844 353.03125 400.402344 359.160156 C 406.53125 369.378906 415.726562 377.554688 425.9375 382.664062 C 437.175781 386.75 449.433594 386.75 460.667969 382.664062 C 474.96875 376.53125 486.203125 366.3125 494.375 353.03125 C 499.484375 344.859375 503.570312 335.660156 505.613281 326.464844 C 510.71875 317.269531 509.699219 315.226562 506.632812 314.203125 Z M 369.761719 349.964844 C 366.695312 359.164062 360.566406 367.335938 352.394531 373.464844 C 342.179688 380.617188 329.925781 382.664062 317.667969 379.597656 C 306.429688 375.511719 295.195312 369.378906 288.046875 360.183594 C 280.894531 349.964844 279.875 336.683594 284.980469 325.445312 C 288.046875 318.292969 301.324219 317.269531 308.472656 317.269531 C 322.773438 317.269531 336.054688 319.3125 349.332031 323.402344 C 367.71875 328.507812 370.78125 337.707031 370.78125 337.707031 C 371.804688 340.769531 371.804688 345.878906 369.761719 349.964844 Z M 486.203125 359.160156 C 478.03125 368.359375 467.820312 375.511719 456.582031 378.574219 C 444.324219 381.640625 432.066406 379.597656 421.855469 372.445312 C 413.683594 366.3125 407.554688 358.140625 404.488281 348.945312 C 403.46875 344.859375 403.46875 339.75 404.488281 335.660156 C 404.488281 335.660156 407.554688 326.464844 425.9375 321.355469 C 439.21875 317.269531 452.496094 315.226562 466.796875 315.226562 C 473.945312 315.226562 486.203125 317.269531 490.289062 323.402344 C 494.375 335.660156 493.355469 348.945312 486.203125 359.160156 Z M 486.203125 359.160156 " fill-opacity="1" fill-rule="nonzero"/></svg>