<svg xmlns="http://www.w3.org/2000/svg" xmlns:xlink="http://www.w3.org/1999/xlink" width="1080" zoomAndPan="magnify" viewBox="0 0 810 809.999993" height="1080" preserveAspectRatio="xMidYMid meet" version="1.0"><path fill="#ffffff" d="M 107.25 460.15625 C 106.648438 460.15625 106.050781 460.214844 105.457031 460.335938 C 104.867188 460.453125 104.289062 460.625 103.734375 460.855469 C 103.175781 461.089844 102.644531 461.371094 102.144531 461.707031 C 101.640625 462.042969 101.175781 462.421875 100.75 462.851562 C 100.324219 463.277344 99.941406 463.742188 99.605469 464.242188 C 99.273438 464.746094 98.988281 465.273438 98.757812 465.832031 C 98.527344 466.390625 98.351562 466.964844 98.234375 467.558594 C 98.117188 468.148438 98.058594 468.746094 98.058594 469.351562 C 98.058594 469.953125 98.117188 470.550781 98.234375 471.144531 C 98.351562 471.734375 98.527344 472.3125 98.757812 472.867188 C 98.988281 473.425781 99.273438 473.957031 99.605469 474.457031 C 99.941406 474.960938 100.324219 475.425781 100.75 475.851562 C 101.175781 476.277344 101.640625 476.660156 102.144531 476.992188 C 102.644531 477.328125 103.175781 477.613281 103.734375 477.84375 C 104.289062 478.074219 104.867188 478.25 105.457031 478.367188 C 106.050781 478.484375 106.648438 478.542969 107.25 478.542969 C 107.855469 478.542969 108.453125 478.484375 109.042969 478.367188 C 109.636719 478.25 110.210938 478.074219 110.769531 477.84375 C 111.328125 477.613281 111.855469 477.328125 112.359375 476.992188 C 112.859375 476.660156 113.324219 476.277344 113.75 475.851562 C 114.179688 475.425781 114.558594 474.960938 114.894531 474.457031 C 115.230469 473.957031 115.511719 473.425781 115.742188 472.867188 C 115.976562 472.3125 116.148438 471.734375 116.265625 471.144531 C 116.386719 470.550781 116.445312 469.953125 116.445312 469.351562 C 116.445312 468.746094 116.386719 468.148438 116.265625 467.558594 C 116.148438 466.964844 115.976562 466.390625 115.742188 465.832031 C 115.511719 465.273438 115.230469 464.746094 114.894531 464.242188 C 114.558594 463.742188 114.179688 463.277344 113.75 462.851562 C 113.324219 462.421875 112.859375 462.042969 112.359375 461.707031 C 111.855469 461.371094 111.328125 461.089844 110.769531 460.855469 C 110.210938 460.625 109.636719 460.453125 109.042969 460.335938 C 108.453125 460.214844 107.855469 460.15625 107.25 460.15625 Z M 710.921875 207.863281 C 710.449219 207.863281 709.984375 207.910156 709.527344 208 C 709.066406 208.089844 708.617188 208.226562 708.183594 208.40625 C 707.75 208.585938 707.339844 208.808594 706.949219 209.066406 C 706.558594 209.328125 706.195312 209.625 705.863281 209.957031 C 705.53125 210.289062 705.234375 210.648438 704.976562 211.039062 C 704.714844 211.429688 704.496094 211.84375 704.316406 212.277344 C 704.136719 212.710938 704 213.15625 703.90625 213.617188 C 703.816406 214.078125 703.769531 214.542969 703.769531 215.011719 C 703.769531 215.480469 703.816406 215.945312 703.90625 216.40625 C 704 216.867188 704.136719 217.316406 704.316406 217.75 C 704.496094 218.183594 704.714844 218.59375 704.976562 218.984375 C 705.234375 219.375 705.53125 219.738281 705.863281 220.070312 C 706.195312 220.402344 706.558594 220.695312 706.949219 220.957031 C 707.339844 221.21875 707.75 221.4375 708.183594 221.617188 C 708.617188 221.796875 709.066406 221.933594 709.527344 222.023438 C 709.984375 222.117188 710.449219 222.164062 710.921875 222.164062 C 711.390625 222.164062 711.855469 222.117188 712.316406 222.023438 C 712.777344 221.933594 713.222656 221.796875 713.65625 221.617188 C 714.089844 221.4375 714.503906 221.21875 714.894531 220.957031 C 715.28125 220.695312 715.644531 220.402344 715.976562 220.070312 C 716.308594 219.738281 716.605469 219.375 716.867188 218.984375 C 717.125 218.59375 717.347656 218.183594 717.527344 217.75 C 717.707031 217.316406 717.839844 216.867188 717.933594 216.40625 C 718.023438 215.945312 718.070312 215.480469 718.070312 215.011719 C 718.070312 214.542969 718.023438 214.078125 717.933594 213.617188 C 717.839844 213.15625 717.707031 212.710938 717.527344 212.277344 C 717.347656 211.84375 717.125 211.429688 716.867188 211.039062 C 716.605469 210.648438 716.308594 210.289062 715.976562 209.957031 C 715.644531 209.625 715.28125 209.328125 714.894531 209.066406 C 714.503906 208.808594 714.089844 208.585938 713.65625 208.40625 C 713.222656 208.226562 712.777344 208.089844 712.316406 208 C 711.855469 207.910156 711.390625 207.863281 710.921875 207.863281 Z M 710.921875 207.863281 " fill-opacity="1" fill-rule="nonzero"/><path fill="#f1bc19" d="M 683.339844 10.726562 C 682.738281 10.726562 682.140625 10.785156 681.546875 10.902344 C 680.957031 11.019531 680.382812 11.195312 679.824219 11.425781 C 679.265625 11.65625 678.734375 11.9375 678.234375 12.273438 C 677.734375 12.609375 677.269531 12.992188 676.839844 13.417969 C 676.414062 13.84375 676.035156 14.308594 675.699219 14.8125 C 675.363281 15.3125 675.078125 15.84375 674.847656 16.398438 C 674.617188 16.957031 674.441406 17.53125 674.324219 18.125 C 674.207031 18.714844 674.148438 19.3125 674.148438 19.917969 C 674.148438 20.523438 674.207031 21.121094 674.324219 21.710938 C 674.441406 22.304688 674.617188 22.878906 674.847656 23.4375 C 675.078125 23.992188 675.363281 24.523438 675.699219 25.023438 C 676.035156 25.527344 676.414062 25.992188 676.839844 26.417969 C 677.269531 26.84375 677.734375 27.226562 678.234375 27.5625 C 678.734375 27.898438 679.265625 28.179688 679.824219 28.410156 C 680.382812 28.640625 680.957031 28.816406 681.546875 28.933594 C 682.140625 29.050781 682.738281 29.109375 683.339844 29.109375 C 683.945312 29.109375 684.542969 29.050781 685.136719 28.933594 C 685.726562 28.816406 686.300781 28.640625 686.859375 28.410156 C 687.417969 28.179688 687.945312 27.898438 688.449219 27.5625 C 688.949219 27.226562 689.414062 26.84375 689.84375 26.417969 C 690.269531 25.992188 690.648438 25.527344 690.984375 25.023438 C 691.320312 24.523438 691.605469 23.992188 691.835938 23.4375 C 692.066406 22.878906 692.238281 22.304688 692.359375 21.710938 C 692.476562 21.121094 692.535156 20.523438 692.535156 19.917969 C 692.535156 19.3125 692.476562 18.714844 692.359375 18.125 C 692.238281 17.53125 692.066406 16.957031 691.835938 16.398438 C 691.605469 15.84375 691.320312 15.3125 690.984375 14.8125 C 690.648438 14.308594 690.269531 13.84375 689.84375 13.417969 C 689.414062 12.992188 688.949219 12.609375 688.449219 12.273438 C 687.945312 11.9375 687.417969 11.65625 686.859375 11.425781 C 686.300781 11.195312 685.726562 11.019531 685.136719 10.902344 C 684.542969 10.785156 683.945312 10.726562 683.339844 10.726562 Z M 112.359375 537.785156 C 111.753906 537.785156 111.15625 537.84375 110.5625 537.960938 C 109.96875 538.074219 109.390625 538.25 108.832031 538.480469 C 108.273438 538.710938 107.742188 538.992188 107.238281 539.328125 C 106.734375 539.664062 106.269531 540.042969 105.839844 540.46875 C 105.414062 540.898438 105.03125 541.363281 104.695312 541.863281 C 104.359375 542.367188 104.074219 542.898438 103.84375 543.457031 C 103.609375 544.015625 103.433594 544.589844 103.316406 545.183594 C 103.199219 545.777344 103.140625 546.375 103.140625 546.980469 C 103.140625 547.585938 103.199219 548.183594 103.316406 548.777344 C 103.433594 549.371094 103.609375 549.945312 103.84375 550.503906 C 104.074219 551.0625 104.359375 551.59375 104.695312 552.09375 C 105.03125 552.597656 105.414062 553.0625 105.839844 553.488281 C 106.269531 553.917969 106.734375 554.296875 107.238281 554.632812 C 107.742188 554.96875 108.273438 555.25 108.832031 555.480469 C 109.390625 555.710938 109.96875 555.882812 110.5625 556 C 111.15625 556.117188 111.753906 556.175781 112.359375 556.171875 C 112.960938 556.175781 113.5625 556.117188 114.15625 556 C 114.75 555.882812 115.324219 555.710938 115.882812 555.480469 C 116.441406 555.25 116.972656 554.96875 117.476562 554.632812 C 117.980469 554.296875 118.445312 553.917969 118.875 553.488281 C 119.304688 553.0625 119.683594 552.597656 120.023438 552.09375 C 120.359375 551.59375 120.640625 551.0625 120.875 550.503906 C 121.105469 549.945312 121.28125 549.371094 121.398438 548.777344 C 121.515625 548.183594 121.578125 547.585938 121.578125 546.980469 C 121.578125 546.375 121.515625 545.777344 121.398438 545.183594 C 121.28125 544.589844 121.105469 544.015625 120.875 543.457031 C 120.640625 542.898438 120.359375 542.367188 120.023438 541.863281 C 119.683594 541.363281 119.304688 540.898438 118.875 540.46875 C 118.445312 540.042969 117.980469 539.664062 117.476562 539.328125 C 116.972656 538.992188 116.441406 538.710938 115.882812 538.480469 C 115.324219 538.25 114.75 538.074219 114.15625 537.960938 C 113.5625 537.84375 112.960938 537.785156 112.359375 537.785156 Z M 112.359375 537.785156 " fill-opacity="1" fill-rule="nonzero"/><path fill="#e6edb7" d="M 409.597656 18.898438 C 403.34375 18.898438 397.097656 19.050781 390.851562 19.355469 C 384.605469 19.664062 378.375 20.125 372.152344 20.734375 C 365.929688 21.347656 359.726562 22.113281 353.542969 23.03125 C 347.359375 23.949219 341.199219 25.015625 335.070312 26.238281 C 328.9375 27.457031 322.839844 28.824219 316.773438 30.34375 C 310.710938 31.863281 304.683594 33.53125 298.703125 35.347656 C 292.71875 37.160156 286.785156 39.121094 280.898438 41.226562 C 275.011719 43.335938 269.179688 45.582031 263.40625 47.976562 C 257.628906 50.367188 251.914062 52.902344 246.261719 55.574219 C 240.609375 58.246094 235.027344 61.058594 229.515625 64.003906 C 224 66.953125 218.5625 70.03125 213.199219 73.246094 C 207.835938 76.460938 202.558594 79.804688 197.359375 83.277344 C 192.160156 86.75 187.050781 90.351562 182.027344 94.074219 C 177.007812 97.800781 172.078125 101.644531 167.246094 105.609375 C 162.414062 109.578125 157.679688 113.660156 153.050781 117.859375 C 148.417969 122.054688 143.890625 126.367188 139.46875 130.785156 C 135.046875 135.207031 130.738281 139.734375 126.539062 144.367188 C 122.339844 149 118.257812 153.730469 114.292969 158.566406 C 110.328125 163.398438 106.480469 168.324219 102.757812 173.347656 C 99.03125 178.367188 95.433594 183.476562 91.960938 188.675781 C 88.488281 193.875 85.144531 199.15625 81.929688 204.519531 C 78.714844 209.878906 75.632812 215.320312 72.6875 220.832031 C 69.738281 226.347656 66.929688 231.929688 64.257812 237.582031 C 61.582031 243.230469 59.050781 248.945312 56.65625 254.722656 C 54.265625 260.5 52.015625 266.328125 49.910156 272.214844 C 47.804688 278.101562 45.84375 284.039062 44.027344 290.019531 C 42.214844 296.003906 40.546875 302.027344 39.027344 308.089844 C 37.507812 314.15625 36.140625 320.253906 34.917969 326.386719 C 33.699219 332.519531 32.632812 338.675781 31.714844 344.859375 C 30.796875 351.046875 30.03125 357.25 29.417969 363.46875 C 28.804688 369.691406 28.347656 375.925781 28.039062 382.167969 C 27.730469 388.414062 27.578125 394.664062 27.578125 400.914062 C 27.578125 407.167969 27.730469 413.414062 28.039062 419.660156 C 28.347656 425.902344 28.804688 432.136719 29.417969 438.359375 C 30.03125 444.582031 30.796875 450.785156 31.714844 456.96875 C 32.632812 463.152344 33.699219 469.308594 34.917969 475.441406 C 36.140625 481.574219 37.507812 487.671875 39.027344 493.738281 C 40.546875 499.800781 42.214844 505.824219 44.027344 511.808594 C 45.84375 517.789062 47.804688 523.726562 49.910156 529.613281 C 52.015625 535.5 54.265625 541.328125 56.65625 547.105469 C 59.050781 552.882812 61.582031 558.597656 64.257812 564.246094 C 66.929688 569.898438 69.738281 575.480469 72.6875 580.996094 C 75.632812 586.507812 78.714844 591.949219 81.929688 597.308594 C 85.144531 602.671875 88.488281 607.953125 91.960938 613.152344 C 95.433594 618.351562 99.03125 623.460938 102.757812 628.480469 C 106.480469 633.503906 110.328125 638.429688 114.292969 643.265625 C 118.257812 648.097656 122.339844 652.828125 126.539062 657.460938 C 130.738281 662.09375 135.046875 666.621094 139.46875 671.042969 C 143.890625 675.460938 148.417969 679.773438 153.050781 683.96875 C 157.679688 688.167969 162.414062 692.25 167.246094 696.21875 C 172.078125 700.183594 177.007812 704.03125 182.027344 707.753906 C 187.050781 711.476562 192.160156 715.078125 197.359375 718.550781 C 202.558594 722.023438 207.835938 725.367188 213.199219 728.582031 C 218.5625 731.796875 224 734.875 229.515625 737.824219 C 235.027344 740.769531 240.609375 743.582031 246.261719 746.253906 C 251.914062 748.925781 257.628906 751.460938 263.40625 753.851562 C 269.179688 756.246094 275.011719 758.496094 280.898438 760.601562 C 286.785156 762.707031 292.71875 764.667969 298.703125 766.480469 C 304.683594 768.296875 310.710938 769.964844 316.773438 771.484375 C 322.839844 773.003906 328.9375 774.371094 335.070312 775.589844 C 341.199219 776.8125 347.359375 777.878906 353.542969 778.796875 C 359.726562 779.714844 365.929688 780.480469 372.152344 781.09375 C 378.375 781.707031 384.605469 782.164062 390.851562 782.472656 C 397.097656 782.777344 403.34375 782.933594 409.597656 782.933594 C 415.847656 782.933594 422.097656 782.777344 428.339844 782.472656 C 434.585938 782.164062 440.820312 781.707031 447.039062 781.09375 C 453.261719 780.480469 459.464844 779.714844 465.648438 778.796875 C 471.835938 777.878906 477.992188 776.8125 484.125 775.589844 C 490.257812 774.371094 496.355469 773.003906 502.417969 771.484375 C 508.484375 769.964844 514.507812 768.296875 520.492188 766.480469 C 526.472656 764.667969 532.40625 762.707031 538.292969 760.601562 C 544.179688 758.496094 550.011719 756.246094 555.789062 753.851562 C 561.5625 751.460938 567.277344 748.925781 572.929688 746.253906 C 578.582031 743.582031 584.164062 740.769531 589.679688 737.824219 C 595.191406 734.875 600.628906 731.796875 605.992188 728.582031 C 611.355469 725.367188 616.636719 722.023438 621.832031 718.550781 C 627.03125 715.078125 632.140625 711.476562 637.164062 707.753906 C 642.1875 704.03125 647.113281 700.183594 651.945312 696.21875 C 656.777344 692.25 661.511719 688.167969 666.144531 683.96875 C 670.777344 679.773438 675.304688 675.460938 679.722656 671.042969 C 684.144531 666.621094 688.453125 662.09375 692.652344 657.460938 C 696.851562 652.828125 700.933594 648.097656 704.898438 643.265625 C 708.867188 638.429688 712.710938 633.503906 716.4375 628.480469 C 720.160156 623.460938 723.757812 618.351562 727.234375 613.152344 C 730.707031 607.953125 734.050781 602.671875 737.265625 597.308594 C 740.476562 591.949219 743.558594 586.511719 746.507812 580.996094 C 749.453125 575.480469 752.261719 569.898438 754.9375 564.246094 C 757.609375 558.597656 760.140625 552.882812 762.535156 547.105469 C 764.925781 541.328125 767.175781 535.5 769.28125 529.613281 C 771.390625 523.726562 773.351562 517.789062 775.164062 511.808594 C 776.980469 505.824219 778.644531 499.800781 780.164062 493.738281 C 781.683594 487.671875 783.054688 481.574219 784.273438 475.441406 C 785.492188 469.308594 786.5625 463.152344 787.480469 456.96875 C 788.398438 450.785156 789.160156 444.582031 789.773438 438.359375 C 790.386719 432.136719 790.847656 425.902344 791.152344 419.660156 C 791.460938 413.414062 791.613281 407.167969 791.613281 400.914062 C 791.613281 394.664062 791.460938 388.414062 791.152344 382.167969 C 790.847656 375.925781 790.386719 369.691406 789.773438 363.46875 C 789.160156 357.25 788.398438 351.046875 787.480469 344.859375 C 786.5625 338.675781 785.492188 332.519531 784.273438 326.386719 C 783.054688 320.253906 781.683594 314.15625 780.164062 308.089844 C 778.644531 302.027344 776.980469 296.003906 775.164062 290.019531 C 773.351562 284.039062 771.390625 278.101562 769.28125 272.214844 C 767.175781 266.328125 764.925781 260.5 762.535156 254.722656 C 760.140625 248.945312 757.609375 243.230469 754.9375 237.582031 C 752.261719 231.929688 749.453125 226.347656 746.507812 220.832031 C 743.558594 215.320312 740.476562 209.878906 737.265625 204.519531 C 734.050781 199.15625 730.707031 193.875 727.234375 188.675781 C 723.757812 183.476562 720.160156 178.367188 716.4375 173.347656 C 712.710938 168.324219 708.867188 163.398438 704.898438 158.566406 C 700.933594 153.730469 696.851562 149 692.652344 144.367188 C 688.453125 139.734375 684.144531 135.207031 679.722656 130.785156 C 675.304688 126.367188 670.777344 122.054688 666.144531 117.859375 C 661.511719 113.660156 656.777344 109.578125 651.945312 105.609375 C 647.113281 101.644531 642.1875 97.800781 637.164062 94.074219 C 632.140625 90.351562 627.03125 86.75 621.832031 83.277344 C 616.636719 79.804688 611.355469 76.460938 605.992188 73.246094 C 600.628906 70.03125 595.191406 66.953125 589.679688 64.003906 C 584.164062 61.058594 578.582031 58.246094 572.929688 55.574219 C 567.277344 52.902344 561.5625 50.367188 555.789062 47.976562 C 550.011719 45.582031 544.179688 43.335938 538.292969 41.226562 C 532.40625 39.121094 526.472656 37.160156 520.492188 35.347656 C 514.507812 33.53125 508.484375 31.863281 502.417969 30.34375 C 496.355469 28.824219 490.257812 27.457031 484.125 26.238281 C 477.992188 25.015625 471.835938 23.949219 465.648438 23.03125 C 459.464844 22.113281 453.261719 21.347656 447.039062 20.734375 C 440.820312 20.125 434.585938 19.664062 428.339844 19.355469 C 422.097656 19.050781 415.847656 18.898438 409.597656 18.898438 Z M 409.597656 18.898438 " fill-opacity="1" fill-rule="nonzero"/><path fill="#f1bc19" d="M 739.519531 1.53125 C 738.183594 1.53125 736.847656 1.597656 735.515625 1.730469 C 734.183594 1.859375 732.863281 2.054688 731.550781 2.316406 C 730.238281 2.578125 728.941406 2.902344 727.660156 3.292969 C 726.378906 3.679688 725.121094 4.128906 723.886719 4.640625 C 722.648438 5.15625 721.441406 5.726562 720.261719 6.355469 C 719.082031 6.988281 717.933594 7.675781 716.820312 8.417969 C 715.707031 9.160156 714.636719 9.957031 713.601562 10.804688 C 712.566406 11.65625 711.578125 12.554688 710.628906 13.5 C 709.683594 14.445312 708.785156 15.4375 707.9375 16.46875 C 707.089844 17.503906 706.292969 18.578125 705.550781 19.691406 C 704.804688 20.804688 704.117188 21.949219 703.488281 23.128906 C 702.855469 24.308594 702.285156 25.519531 701.773438 26.753906 C 701.261719 27.992188 700.8125 29.25 700.421875 30.53125 C 700.035156 31.808594 699.710938 33.105469 699.449219 34.417969 C 699.1875 35.730469 698.992188 37.054688 698.859375 38.386719 C 698.730469 39.714844 698.664062 41.050781 698.664062 42.390625 C 698.664062 43.726562 698.730469 45.0625 698.859375 46.394531 C 698.992188 47.726562 699.1875 49.046875 699.449219 50.359375 C 699.710938 51.671875 700.035156 52.96875 700.421875 54.25 C 700.8125 55.53125 701.261719 56.789062 701.773438 58.023438 C 702.285156 59.261719 702.855469 60.46875 703.488281 61.648438 C 704.117188 62.828125 704.804688 63.976562 705.550781 65.089844 C 706.292969 66.203125 707.089844 67.273438 707.9375 68.308594 C 708.785156 69.34375 709.683594 70.335938 710.628906 71.28125 C 711.578125 72.226562 712.566406 73.125 713.601562 73.972656 C 714.636719 74.820312 715.707031 75.617188 716.820312 76.363281 C 717.933594 77.105469 719.082031 77.792969 720.261719 78.421875 C 721.441406 79.054688 722.648438 79.625 723.886719 80.136719 C 725.121094 80.648438 726.378906 81.097656 727.660156 81.488281 C 728.941406 81.875 730.238281 82.199219 731.550781 82.460938 C 732.863281 82.722656 734.183594 82.917969 735.515625 83.050781 C 736.847656 83.179688 738.183594 83.246094 739.519531 83.246094 C 740.859375 83.246094 742.195312 83.179688 743.527344 83.050781 C 744.855469 82.917969 746.179688 82.722656 747.492188 82.460938 C 748.804688 82.199219 750.101562 81.875 751.382812 81.488281 C 752.660156 81.097656 753.921875 80.648438 755.15625 80.136719 C 756.390625 79.625 757.601562 79.054688 758.78125 78.421875 C 759.960938 77.792969 761.105469 77.105469 762.21875 76.363281 C 763.332031 75.617188 764.40625 74.820312 765.441406 73.972656 C 766.476562 73.125 767.464844 72.226562 768.410156 71.28125 C 769.359375 70.335938 770.253906 69.34375 771.105469 68.308594 C 771.953125 67.273438 772.75 66.203125 773.492188 65.089844 C 774.234375 63.976562 774.921875 62.828125 775.554688 61.648438 C 776.183594 60.46875 776.757812 59.261719 777.269531 58.023438 C 777.78125 56.789062 778.230469 55.53125 778.617188 54.25 C 779.007812 52.96875 779.332031 51.671875 779.59375 50.359375 C 779.855469 49.046875 780.050781 47.726562 780.179688 46.394531 C 780.3125 45.0625 780.378906 43.726562 780.378906 42.390625 C 780.378906 41.050781 780.3125 39.714844 780.179688 38.386719 C 780.050781 37.054688 779.855469 35.730469 779.59375 34.417969 C 779.332031 33.105469 779.007812 31.808594 778.617188 30.53125 C 778.230469 29.25 777.78125 27.992188 777.269531 26.753906 C 776.757812 25.519531 776.183594 24.308594 775.554688 23.128906 C 774.921875 21.949219 774.234375 20.804688 773.492188 19.691406 C 772.75 18.578125 771.953125 17.503906 771.105469 16.46875 C 770.253906 15.4375 769.359375 14.445312 768.410156 13.5 C 767.464844 12.554688 766.476562 11.65625 765.441406 10.804688 C 764.40625 9.957031 763.332031 9.160156 762.21875 8.417969 C 761.105469 7.675781 759.960938 6.988281 758.78125 6.355469 C 757.601562 5.726562 756.390625 5.15625 755.15625 4.640625 C 753.921875 4.128906 752.660156 3.679688 751.382812 3.292969 C 750.101562 2.902344 748.804688 2.578125 747.492188 2.316406 C 746.179688 2.054688 744.855469 1.859375 743.527344 1.730469 C 742.195312 1.597656 740.859375 1.53125 739.519531 1.53125 Z M 739.519531 1.53125 " fill-opacity="1" fill-rule="nonzero"/><path fill="#ee3e54" d="M 780.378906 115.933594 C 779.742188 115.933594 779.109375 115.964844 778.476562 116.023438 C 777.839844 116.085938 777.214844 116.179688 776.589844 116.304688 C 775.964844 116.425781 775.347656 116.582031 774.742188 116.765625 C 774.132812 116.949219 773.535156 117.160156 772.945312 117.40625 C 772.359375 117.648438 771.785156 117.917969 771.222656 118.21875 C 770.660156 118.519531 770.117188 118.84375 769.585938 119.199219 C 769.058594 119.550781 768.546875 119.929688 768.054688 120.332031 C 767.5625 120.734375 767.09375 121.160156 766.644531 121.609375 C 766.191406 122.058594 765.765625 122.53125 765.363281 123.023438 C 764.960938 123.515625 764.582031 124.023438 764.226562 124.550781 C 763.875 125.082031 763.546875 125.625 763.246094 126.1875 C 762.945312 126.746094 762.675781 127.320312 762.429688 127.910156 C 762.1875 128.496094 761.972656 129.09375 761.789062 129.703125 C 761.605469 130.3125 761.449219 130.929688 761.324219 131.550781 C 761.203125 132.175781 761.109375 132.804688 761.046875 133.4375 C 760.984375 134.070312 760.953125 134.703125 760.953125 135.339844 C 760.953125 135.976562 760.984375 136.609375 761.046875 137.242188 C 761.109375 137.875 761.203125 138.503906 761.324219 139.128906 C 761.449219 139.753906 761.605469 140.367188 761.789062 140.976562 C 761.972656 141.585938 762.1875 142.183594 762.429688 142.773438 C 762.675781 143.359375 762.945312 143.933594 763.246094 144.496094 C 763.546875 145.054688 763.875 145.601562 764.226562 146.128906 C 764.582031 146.65625 764.960938 147.167969 765.363281 147.660156 C 765.765625 148.148438 766.191406 148.621094 766.644531 149.070312 C 767.09375 149.519531 767.5625 149.945312 768.054688 150.347656 C 768.546875 150.753906 769.058594 151.128906 769.585938 151.484375 C 770.117188 151.835938 770.660156 152.164062 771.222656 152.460938 C 771.785156 152.761719 772.359375 153.03125 772.945312 153.277344 C 773.535156 153.519531 774.132812 153.734375 774.742188 153.917969 C 775.347656 154.101562 775.964844 154.253906 776.589844 154.378906 C 777.214844 154.5 777.839844 154.59375 778.476562 154.65625 C 779.109375 154.71875 779.742188 154.75 780.378906 154.746094 C 781.015625 154.75 781.648438 154.71875 782.28125 154.65625 C 782.914062 154.59375 783.542969 154.5 784.167969 154.378906 C 784.789062 154.253906 785.40625 154.101562 786.015625 153.917969 C 786.625 153.734375 787.222656 153.519531 787.8125 153.277344 C 788.398438 153.03125 788.972656 152.761719 789.535156 152.460938 C 790.09375 152.164062 790.640625 151.835938 791.167969 151.484375 C 791.699219 151.128906 792.210938 150.753906 792.699219 150.347656 C 793.191406 149.945312 793.664062 149.519531 794.113281 149.070312 C 794.5625 148.621094 794.992188 148.148438 795.394531 147.660156 C 795.796875 147.167969 796.175781 146.65625 796.53125 146.128906 C 796.882812 145.601562 797.210938 145.054688 797.511719 144.496094 C 797.808594 143.933594 798.082031 143.359375 798.324219 142.773438 C 798.570312 142.183594 798.78125 141.585938 798.96875 140.976562 C 799.152344 140.367188 799.308594 139.753906 799.429688 139.128906 C 799.554688 138.503906 799.648438 137.875 799.710938 137.242188 C 799.773438 136.609375 799.804688 135.976562 799.804688 135.339844 C 799.804688 134.703125 799.773438 134.070312 799.710938 133.4375 C 799.648438 132.804688 799.554688 132.175781 799.429688 131.550781 C 799.308594 130.929688 799.152344 130.3125 798.96875 129.703125 C 798.78125 129.09375 798.570312 128.496094 798.324219 127.910156 C 798.082031 127.320312 797.808594 126.746094 797.511719 126.1875 C 797.210938 125.625 796.882812 125.082031 796.53125 124.550781 C 796.175781 124.023438 795.796875 123.515625 795.394531 123.023438 C 794.992188 122.53125 794.5625 122.058594 794.113281 121.609375 C 793.664062 121.160156 793.191406 120.734375 792.699219 120.332031 C 792.210938 119.929688 791.699219 119.550781 791.167969 119.199219 C 790.640625 118.84375 790.09375 118.519531 789.535156 118.21875 C 788.972656 117.917969 788.398438 117.648438 787.8125 117.40625 C 787.222656 117.160156 786.625 116.949219 786.015625 116.765625 C 785.40625 116.582031 784.789062 116.425781 784.167969 116.304688 C 783.542969 116.179688 782.914062 116.085938 782.28125 116.023438 C 781.648438 115.964844 781.015625 115.933594 780.378906 115.933594 Z M 780.378906 115.933594 " fill-opacity="1" fill-rule="nonzero"/><path fill="#fbcd59" d="M 688.449219 651.167969 C 687.8125 651.167969 687.179688 651.199219 686.546875 651.261719 C 685.914062 651.320312 685.285156 651.414062 684.664062 651.539062 C 684.039062 651.664062 683.421875 651.816406 682.816406 652.003906 C 682.207031 652.1875 681.609375 652.398438 681.023438 652.644531 C 680.433594 652.886719 679.859375 653.160156 679.300781 653.457031 C 678.738281 653.757812 678.195312 654.082031 677.667969 654.4375 C 677.136719 654.789062 676.628906 655.167969 676.136719 655.570312 C 675.644531 655.976562 675.175781 656.402344 674.726562 656.851562 C 674.277344 657.300781 673.851562 657.769531 673.445312 658.261719 C 673.042969 658.753906 672.664062 659.261719 672.3125 659.792969 C 671.960938 660.320312 671.632812 660.863281 671.332031 661.425781 C 671.035156 661.984375 670.761719 662.558594 670.519531 663.148438 C 670.277344 663.734375 670.0625 664.332031 669.878906 664.941406 C 669.691406 665.546875 669.539062 666.164062 669.414062 666.789062 C 669.289062 667.410156 669.195312 668.039062 669.136719 668.671875 C 669.074219 669.304688 669.042969 669.9375 669.042969 670.574219 C 669.042969 671.210938 669.074219 671.84375 669.136719 672.476562 C 669.195312 673.109375 669.289062 673.738281 669.414062 674.359375 C 669.539062 674.984375 669.691406 675.597656 669.878906 676.207031 C 670.0625 676.816406 670.277344 677.414062 670.519531 678 C 670.761719 678.585938 671.035156 679.160156 671.332031 679.722656 C 671.632812 680.28125 671.960938 680.828125 672.3125 681.355469 C 672.664062 681.882812 673.042969 682.394531 673.445312 682.886719 C 673.851562 683.378906 674.277344 683.847656 674.726562 684.296875 C 675.175781 684.746094 675.644531 685.171875 676.136719 685.574219 C 676.628906 685.980469 677.136719 686.355469 677.667969 686.710938 C 678.195312 687.0625 678.738281 687.390625 679.300781 687.6875 C 679.859375 687.988281 680.433594 688.261719 681.023438 688.503906 C 681.609375 688.746094 682.207031 688.960938 682.816406 689.144531 C 683.421875 689.328125 684.039062 689.484375 684.664062 689.609375 C 685.285156 689.730469 685.914062 689.824219 686.546875 689.886719 C 687.179688 689.949219 687.8125 689.980469 688.449219 689.980469 C 689.085938 689.980469 689.71875 689.949219 690.351562 689.886719 C 690.984375 689.824219 691.613281 689.730469 692.234375 689.609375 C 692.859375 689.484375 693.472656 689.328125 694.082031 689.144531 C 694.691406 688.960938 695.289062 688.746094 695.875 688.503906 C 696.460938 688.261719 697.035156 687.988281 697.597656 687.6875 C 698.15625 687.390625 698.703125 687.0625 699.230469 686.710938 C 699.757812 686.355469 700.269531 685.980469 700.761719 685.574219 C 701.253906 685.171875 701.722656 684.746094 702.171875 684.296875 C 702.621094 683.847656 703.046875 683.378906 703.449219 682.886719 C 703.855469 682.394531 704.230469 681.882812 704.585938 681.355469 C 704.9375 680.828125 705.265625 680.28125 705.5625 679.722656 C 705.863281 679.160156 706.136719 678.585938 706.378906 678 C 706.621094 677.414062 706.835938 676.816406 707.019531 676.207031 C 707.203125 675.597656 707.359375 674.984375 707.484375 674.359375 C 707.605469 673.738281 707.699219 673.109375 707.761719 672.476562 C 707.824219 671.84375 707.855469 671.210938 707.855469 670.574219 C 707.855469 669.9375 707.824219 669.304688 707.761719 668.671875 C 707.699219 668.039062 707.605469 667.410156 707.484375 666.789062 C 707.359375 666.164062 707.203125 665.546875 707.019531 664.941406 C 706.835938 664.332031 706.621094 663.734375 706.378906 663.148438 C 706.136719 662.558594 705.863281 661.984375 705.5625 661.425781 C 705.265625 660.863281 704.9375 660.320312 704.585938 659.792969 C 704.230469 659.261719 703.855469 658.753906 703.449219 658.261719 C 703.046875 657.769531 702.621094 657.300781 702.171875 656.851562 C 701.722656 656.402344 701.253906 655.976562 700.761719 655.570312 C 700.269531 655.167969 699.757812 654.789062 699.230469 654.4375 C 698.703125 654.082031 698.15625 653.757812 697.597656 653.457031 C 697.035156 653.160156 696.460938 652.886719 695.875 652.644531 C 695.289062 652.398438 694.691406 652.1875 694.082031 652.003906 C 693.472656 651.816406 692.859375 651.664062 692.234375 651.539062 C 691.613281 651.414062 690.984375 651.320312 690.351562 651.261719 C 689.71875 651.199219 689.085938 651.167969 688.449219 651.167969 Z M 42.898438 496.929688 C 41.5625 496.929688 40.226562 496.996094 38.894531 497.125 C 37.5625 497.257812 36.242188 497.453125 34.929688 497.714844 C 33.617188 497.976562 32.320312 498.300781 31.039062 498.6875 C 29.757812 499.078125 28.5 499.527344 27.265625 500.039062 C 26.027344 500.550781 24.820312 501.121094 23.640625 501.753906 C 22.460938 502.382812 21.3125 503.070312 20.199219 503.816406 C 19.089844 504.558594 18.015625 505.355469 16.980469 506.203125 C 15.945312 507.050781 14.957031 507.949219 14.007812 508.894531 C 13.0625 509.84375 12.164062 510.832031 11.316406 511.867188 C 10.46875 512.902344 9.671875 513.976562 8.929688 515.085938 C 8.183594 516.199219 7.5 517.347656 6.867188 518.527344 C 6.238281 519.707031 5.664062 520.914062 5.152344 522.152344 C 4.640625 523.386719 4.191406 524.644531 3.800781 525.925781 C 3.414062 527.207031 3.089844 528.503906 2.828125 529.816406 C 2.566406 531.128906 2.371094 532.449219 2.238281 533.78125 C 2.109375 535.113281 2.042969 536.449219 2.042969 537.785156 C 2.042969 539.125 2.109375 540.460938 2.238281 541.792969 C 2.371094 543.125 2.566406 544.445312 2.828125 545.757812 C 3.089844 547.070312 3.414062 548.367188 3.800781 549.648438 C 4.191406 550.929688 4.640625 552.1875 5.152344 553.421875 C 5.664062 554.660156 6.238281 555.867188 6.867188 557.046875 C 7.5 558.226562 8.183594 559.375 8.929688 560.484375 C 9.671875 561.597656 10.46875 562.671875 11.316406 563.707031 C 12.164062 564.742188 13.0625 565.730469 14.007812 566.675781 C 14.957031 567.625 15.945312 568.519531 16.980469 569.371094 C 18.015625 570.21875 19.089844 571.015625 20.199219 571.757812 C 21.3125 572.5 22.460938 573.1875 23.640625 573.820312 C 24.820312 574.449219 26.027344 575.023438 27.265625 575.535156 C 28.5 576.046875 29.757812 576.496094 31.039062 576.886719 C 32.320312 577.273438 33.617188 577.597656 34.929688 577.859375 C 36.242188 578.121094 37.5625 578.316406 38.894531 578.449219 C 40.226562 578.578125 41.5625 578.644531 42.898438 578.644531 C 44.238281 578.644531 45.574219 578.578125 46.90625 578.449219 C 48.238281 578.316406 49.558594 578.121094 50.871094 577.859375 C 52.183594 577.597656 53.480469 577.273438 54.761719 576.886719 C 56.042969 576.496094 57.300781 576.046875 58.535156 575.535156 C 59.773438 575.023438 60.980469 574.449219 62.160156 573.820312 C 63.339844 573.1875 64.488281 572.503906 65.597656 571.757812 C 66.710938 571.015625 67.785156 570.21875 68.820312 569.371094 C 69.855469 568.519531 70.84375 567.625 71.789062 566.675781 C 72.738281 565.730469 73.632812 564.742188 74.484375 563.707031 C 75.332031 562.671875 76.128906 561.597656 76.871094 560.484375 C 77.617188 559.375 78.300781 558.226562 78.933594 557.046875 C 79.5625 555.867188 80.136719 554.660156 80.648438 553.421875 C 81.160156 552.1875 81.609375 550.925781 82 549.648438 C 82.386719 548.367188 82.710938 547.070312 82.972656 545.757812 C 83.234375 544.445312 83.429688 543.125 83.5625 541.792969 C 83.691406 540.460938 83.757812 539.125 83.757812 537.785156 C 83.757812 536.449219 83.691406 535.113281 83.5625 533.78125 C 83.429688 532.449219 83.234375 531.128906 82.972656 529.816406 C 82.710938 528.503906 82.386719 527.207031 82 525.925781 C 81.609375 524.644531 81.160156 523.386719 80.648438 522.152344 C 80.136719 520.914062 79.5625 519.707031 78.933594 518.527344 C 78.300781 517.347656 77.617188 516.199219 76.871094 515.085938 C 76.128906 513.976562 75.332031 512.902344 74.484375 511.867188 C 73.632812 510.832031 72.738281 509.84375 71.789062 508.894531 C 70.84375 507.949219 69.855469 507.050781 68.820312 506.203125 C 67.785156 505.355469 66.710938 504.558594 65.597656 503.816406 C 64.488281 503.070312 63.339844 502.382812 62.160156 501.753906 C 60.980469 501.121094 59.773438 500.550781 58.535156 500.039062 C 57.300781 499.527344 56.042969 499.078125 54.761719 498.6875 C 53.480469 498.300781 52.183594 497.976562 50.871094 497.714844 C 49.558594 497.453125 48.238281 497.257812 46.90625 497.125 C 45.574219 496.996094 44.238281 496.929688 42.898438 496.929688 Z M 42.898438 496.929688 " fill-opacity="1" fill-rule="nonzero"/><path fill="#ee3e54" d="M 148.109375 765.566406 C 147.472656 765.566406 146.839844 765.597656 146.207031 765.660156 C 145.574219 765.722656 144.945312 765.816406 144.320312 765.941406 C 143.699219 766.0625 143.082031 766.21875 142.476562 766.402344 C 141.867188 766.585938 141.269531 766.800781 140.679688 767.042969 C 140.09375 767.289062 139.519531 767.558594 138.960938 767.859375 C 138.398438 768.160156 137.855469 768.484375 137.328125 768.839844 C 136.796875 769.191406 136.289062 769.570312 135.796875 769.972656 C 135.304688 770.375 134.835938 770.800781 134.386719 771.25 C 133.9375 771.699219 133.507812 772.171875 133.105469 772.664062 C 132.703125 773.152344 132.324219 773.664062 131.972656 774.191406 C 131.617188 774.722656 131.292969 775.265625 130.992188 775.824219 C 130.691406 776.386719 130.421875 776.960938 130.179688 777.546875 C 129.933594 778.136719 129.722656 778.734375 129.535156 779.339844 C 129.351562 779.949219 129.199219 780.566406 129.074219 781.1875 C 128.949219 781.8125 128.855469 782.441406 128.792969 783.074219 C 128.730469 783.707031 128.699219 784.339844 128.699219 784.976562 C 128.699219 785.609375 128.730469 786.246094 128.792969 786.875 C 128.855469 787.507812 128.949219 788.136719 129.074219 788.761719 C 129.199219 789.382812 129.351562 790 129.535156 790.609375 C 129.722656 791.214844 129.933594 791.8125 130.179688 792.402344 C 130.421875 792.988281 130.691406 793.5625 130.992188 794.125 C 131.292969 794.683594 131.617188 795.226562 131.972656 795.757812 C 132.324219 796.285156 132.703125 796.796875 133.105469 797.285156 C 133.507812 797.777344 133.9375 798.25 134.386719 798.699219 C 134.835938 799.148438 135.304688 799.574219 135.796875 799.976562 C 136.289062 800.378906 136.796875 800.757812 137.328125 801.109375 C 137.855469 801.464844 138.398438 801.789062 138.960938 802.089844 C 139.519531 802.390625 140.09375 802.660156 140.679688 802.90625 C 141.269531 803.148438 141.867188 803.363281 142.476562 803.546875 C 143.082031 803.730469 143.699219 803.886719 144.320312 804.007812 C 144.945312 804.132812 145.574219 804.226562 146.207031 804.289062 C 146.839844 804.351562 147.472656 804.382812 148.109375 804.382812 C 148.742188 804.382812 149.378906 804.351562 150.011719 804.289062 C 150.644531 804.226562 151.269531 804.132812 151.894531 804.007812 C 152.519531 803.886719 153.132812 803.730469 153.742188 803.546875 C 154.351562 803.363281 154.949219 803.148438 155.535156 802.90625 C 156.121094 802.660156 156.695312 802.390625 157.257812 802.089844 C 157.816406 801.789062 158.363281 801.464844 158.890625 801.109375 C 159.417969 800.757812 159.929688 800.378906 160.421875 799.976562 C 160.910156 799.574219 161.382812 799.148438 161.832031 798.699219 C 162.28125 798.25 162.707031 797.777344 163.109375 797.285156 C 163.515625 796.796875 163.890625 796.285156 164.246094 795.757812 C 164.597656 795.226562 164.925781 794.683594 165.222656 794.125 C 165.523438 793.5625 165.796875 792.988281 166.039062 792.402344 C 166.28125 791.8125 166.496094 791.214844 166.679688 790.609375 C 166.863281 790 167.019531 789.382812 167.144531 788.761719 C 167.265625 788.136719 167.359375 787.507812 167.421875 786.878906 C 167.484375 786.246094 167.515625 785.609375 167.515625 784.976562 C 167.515625 784.339844 167.484375 783.707031 167.421875 783.074219 C 167.359375 782.441406 167.265625 781.8125 167.144531 781.1875 C 167.019531 780.566406 166.863281 779.949219 166.679688 779.339844 C 166.496094 778.734375 166.28125 778.136719 166.039062 777.546875 C 165.796875 776.960938 165.523438 776.386719 165.222656 775.824219 C 164.925781 775.265625 164.597656 774.722656 164.246094 774.191406 C 163.890625 773.664062 163.515625 773.152344 163.109375 772.664062 C 162.707031 772.171875 162.28125 771.699219 161.832031 771.25 C 161.382812 770.800781 160.910156 770.375 160.421875 769.972656 C 159.929688 769.570312 159.417969 769.191406 158.890625 768.839844 C 158.363281 768.484375 157.816406 768.160156 157.257812 767.859375 C 156.695312 767.558594 156.121094 767.289062 155.535156 767.042969 C 154.949219 766.800781 154.351562 766.585938 153.742188 766.402344 C 153.132812 766.21875 152.519531 766.0625 151.894531 765.941406 C 151.269531 765.816406 150.644531 765.722656 150.011719 765.660156 C 149.378906 765.597656 148.742188 765.566406 148.109375 765.566406 Z M 148.109375 765.566406 " fill-opacity="1" fill-rule="nonzero"/><path fill="#ffffff" d="M 675.171875 181.304688 C 674.566406 181.304688 673.96875 181.335938 673.367188 181.394531 C 672.769531 181.453125 672.175781 181.539062 671.582031 181.660156 C 670.992188 181.777344 670.410156 181.921875 669.832031 182.097656 C 669.257812 182.273438 668.691406 182.472656 668.132812 182.703125 C 667.578125 182.933594 667.035156 183.191406 666.503906 183.476562 C 665.972656 183.761719 665.457031 184.070312 664.957031 184.402344 C 664.453125 184.738281 663.972656 185.097656 663.507812 185.480469 C 663.039062 185.859375 662.59375 186.265625 662.167969 186.691406 C 661.742188 187.117188 661.339844 187.5625 660.957031 188.027344 C 660.574219 188.492188 660.21875 188.976562 659.882812 189.476562 C 659.546875 189.976562 659.238281 190.492188 658.957031 191.023438 C 658.671875 191.554688 658.414062 192.097656 658.183594 192.65625 C 657.953125 193.210938 657.75 193.777344 657.574219 194.355469 C 657.402344 194.929688 657.253906 195.511719 657.136719 196.105469 C 657.019531 196.695312 656.933594 197.289062 656.871094 197.890625 C 656.8125 198.488281 656.785156 199.089844 656.785156 199.691406 C 656.785156 200.292969 656.8125 200.894531 656.871094 201.492188 C 656.933594 202.09375 657.019531 202.6875 657.136719 203.277344 C 657.253906 203.867188 657.402344 204.453125 657.574219 205.027344 C 657.75 205.605469 657.953125 206.171875 658.183594 206.726562 C 658.414062 207.285156 658.671875 207.828125 658.957031 208.359375 C 659.238281 208.890625 659.546875 209.40625 659.882812 209.90625 C 660.21875 210.40625 660.574219 210.890625 660.957031 211.355469 C 661.339844 211.820312 661.742188 212.265625 662.167969 212.691406 C 662.59375 213.117188 663.039062 213.523438 663.507812 213.902344 C 663.972656 214.285156 664.453125 214.644531 664.957031 214.976562 C 665.457031 215.3125 665.972656 215.621094 666.503906 215.90625 C 667.035156 216.191406 667.578125 216.445312 668.132812 216.675781 C 668.691406 216.90625 669.257812 217.109375 669.832031 217.285156 C 670.410156 217.460938 670.992188 217.605469 671.582031 217.722656 C 672.175781 217.839844 672.769531 217.929688 673.367188 217.988281 C 673.96875 218.046875 674.566406 218.078125 675.171875 218.078125 C 675.773438 218.078125 676.375 218.046875 676.972656 217.988281 C 677.570312 217.929688 678.167969 217.839844 678.757812 217.722656 C 679.347656 217.605469 679.929688 217.460938 680.507812 217.285156 C 681.082031 217.109375 681.648438 216.90625 682.207031 216.675781 C 682.761719 216.445312 683.304688 216.191406 683.835938 215.90625 C 684.367188 215.621094 684.882812 215.3125 685.382812 214.976562 C 685.886719 214.644531 686.367188 214.285156 686.835938 213.902344 C 687.300781 213.523438 687.746094 213.117188 688.171875 212.691406 C 688.597656 212.265625 689 211.820312 689.382812 211.355469 C 689.765625 210.890625 690.121094 210.40625 690.457031 209.90625 C 690.792969 209.40625 691.101562 208.890625 691.386719 208.359375 C 691.667969 207.828125 691.925781 207.285156 692.15625 206.726562 C 692.386719 206.171875 692.589844 205.605469 692.765625 205.027344 C 692.9375 204.453125 693.085938 203.867188 693.203125 203.277344 C 693.320312 202.6875 693.410156 202.09375 693.46875 201.492188 C 693.527344 200.894531 693.554688 200.292969 693.554688 199.691406 C 693.554688 199.089844 693.527344 198.488281 693.46875 197.890625 C 693.410156 197.289062 693.320312 196.695312 693.203125 196.105469 C 693.085938 195.511719 692.9375 194.929688 692.765625 194.355469 C 692.589844 193.777344 692.386719 193.210938 692.15625 192.65625 C 691.925781 192.097656 691.667969 191.554688 691.386719 191.023438 C 691.101562 190.492188 690.792969 189.976562 690.457031 189.476562 C 690.121094 188.976562 689.765625 188.492188 689.382812 188.027344 C 689 187.5625 688.597656 187.117188 688.171875 186.691406 C 687.746094 186.265625 687.300781 185.859375 686.835938 185.480469 C 686.367188 185.097656 685.886719 184.738281 685.382812 184.402344 C 684.882812 184.070312 684.367188 183.761719 683.835938 183.476562 C 683.304688 183.191406 682.761719 182.933594 682.207031 182.703125 C 681.648438 182.472656 681.082031 182.273438 680.507812 182.097656 C 679.929688 181.921875 679.347656 181.777344 678.757812 181.660156 C 678.167969 181.539062 677.570312 181.453125 676.972656 181.394531 C 676.375 181.335938 675.773438 181.304688 675.171875 181.304688 Z M 81.714844 388.65625 C 80.878906 388.65625 80.042969 388.699219 79.210938 388.78125 C 78.378906 388.863281 77.554688 388.984375 76.734375 389.148438 C 75.914062 389.3125 75.101562 389.515625 74.300781 389.757812 C 73.503906 390 72.714844 390.28125 71.941406 390.601562 C 71.171875 390.921875 70.414062 391.277344 69.675781 391.671875 C 68.941406 392.066406 68.222656 392.496094 67.527344 392.960938 C 66.832031 393.425781 66.160156 393.921875 65.515625 394.453125 C 64.867188 394.984375 64.25 395.546875 63.660156 396.136719 C 63.066406 396.726562 62.507812 397.347656 61.976562 397.992188 C 61.445312 398.640625 60.949219 399.3125 60.484375 400.007812 C 60.019531 400.703125 59.589844 401.417969 59.195312 402.15625 C 58.800781 402.894531 58.441406 403.648438 58.121094 404.421875 C 57.804688 405.195312 57.519531 405.980469 57.277344 406.78125 C 57.035156 407.582031 56.832031 408.390625 56.667969 409.210938 C 56.507812 410.03125 56.382812 410.859375 56.300781 411.691406 C 56.21875 412.523438 56.179688 413.355469 56.179688 414.191406 C 56.179688 415.03125 56.21875 415.863281 56.300781 416.695312 C 56.382812 417.527344 56.507812 418.355469 56.667969 419.175781 C 56.832031 419.996094 57.035156 420.804688 57.277344 421.605469 C 57.519531 422.40625 57.804688 423.191406 58.121094 423.964844 C 58.441406 424.738281 58.800781 425.492188 59.195312 426.230469 C 59.589844 426.96875 60.019531 427.683594 60.484375 428.378906 C 60.949219 429.074219 61.445312 429.746094 61.976562 430.394531 C 62.507812 431.039062 63.066406 431.65625 63.660156 432.25 C 64.25 432.839844 64.867188 433.402344 65.515625 433.933594 C 66.160156 434.464844 66.832031 434.960938 67.527344 435.425781 C 68.222656 435.890625 68.941406 436.320312 69.675781 436.714844 C 70.414062 437.109375 71.171875 437.464844 71.941406 437.785156 C 72.714844 438.105469 73.503906 438.386719 74.300781 438.628906 C 75.101562 438.871094 75.914062 439.074219 76.734375 439.238281 C 77.554688 439.402344 78.378906 439.523438 79.210938 439.605469 C 80.042969 439.6875 80.878906 439.730469 81.714844 439.730469 C 82.550781 439.730469 83.386719 439.6875 84.21875 439.605469 C 85.050781 439.523438 85.875 439.402344 86.695312 439.238281 C 87.515625 439.074219 88.328125 438.871094 89.128906 438.628906 C 89.929688 438.386719 90.714844 438.105469 91.488281 437.785156 C 92.261719 437.464844 93.015625 437.109375 93.753906 436.714844 C 94.488281 436.320312 95.207031 435.890625 95.902344 435.425781 C 96.597656 434.960938 97.269531 434.464844 97.914062 433.933594 C 98.5625 433.402344 99.179688 432.839844 99.773438 432.25 C 100.363281 431.65625 100.925781 431.039062 101.453125 430.394531 C 101.984375 429.746094 102.484375 429.074219 102.949219 428.378906 C 103.410156 427.683594 103.839844 426.96875 104.234375 426.230469 C 104.628906 425.492188 104.988281 424.738281 105.308594 423.964844 C 105.628906 423.191406 105.910156 422.40625 106.152344 421.605469 C 106.394531 420.804688 106.597656 419.996094 106.761719 419.175781 C 106.921875 418.355469 107.046875 417.527344 107.128906 416.695312 C 107.210938 415.863281 107.25 415.03125 107.25 414.191406 C 107.25 413.355469 107.210938 412.523438 107.128906 411.691406 C 107.046875 410.859375 106.921875 410.03125 106.761719 409.210938 C 106.597656 408.390625 106.394531 407.582031 106.152344 406.78125 C 105.910156 405.980469 105.628906 405.195312 105.308594 404.421875 C 104.988281 403.648438 104.628906 402.894531 104.234375 402.15625 C 103.839844 401.417969 103.410156 400.703125 102.949219 400.007812 C 102.484375 399.3125 101.984375 398.640625 101.453125 397.992188 C 100.925781 397.347656 100.363281 396.726562 99.773438 396.136719 C 99.179688 395.546875 98.5625 394.984375 97.914062 394.453125 C 97.269531 393.921875 96.597656 393.425781 95.902344 392.960938 C 95.207031 392.496094 94.488281 392.066406 93.753906 391.671875 C 93.015625 391.277344 92.261719 390.921875 91.488281 390.601562 C 90.714844 390.28125 89.929688 390 89.128906 389.757812 C 88.328125 389.515625 87.515625 389.3125 86.695312 389.148438 C 85.875 388.984375 85.050781 388.863281 84.21875 388.78125 C 83.386719 388.699219 82.550781 388.65625 81.714844 388.65625 Z M 81.714844 388.65625 " fill-opacity="1" fill-rule="nonzero"/><path fill="#3a1e0b" d="M 554.640625 251.785156 C 564.855469 281.40625 551.578125 316.136719 569.960938 341.671875 C 579.15625 352.90625 589.371094 362.101562 600.605469 371.292969 C 610.820312 380.484375 620.011719 393.765625 618.992188 406.023438 C 616.949219 422.363281 597.539062 434.621094 594.476562 450.964844 C 589.371094 476.5 624.097656 494.886719 637.378906 518.378906 C 654.742188 550.042969 626.140625 590.902344 587.328125 600.09375 C 547.492188 607.246094 506.632812 596.007812 478.03125 567.410156 C 450.453125 541.871094 437.175781 507.144531 426.960938 473.4375 C 406.53125 400.914062 396.316406 314.09375 418.789062 240.546875 C 437.175781 177.21875 536.253906 194.582031 554.640625 251.785156 Z M 554.640625 251.785156 " fill-opacity="1" fill-rule="nonzero"/><path fill="#3a1e0b" d="M 241.058594 573.539062 C 228.800781 567.410156 215.523438 560.257812 212.460938 546.980469 C 207.351562 529.617188 221.652344 511.230469 234.929688 497.949219 C 248.210938 484.671875 263.53125 469.351562 263.53125 450.964844 C 263.53125 425.429688 232.886719 407.042969 239.015625 382.527344 C 244.125 363.121094 267.617188 354.949219 278.851562 338.605469 C 294.175781 315.113281 281.917969 285.492188 281.917969 257.914062 C 283.960938 222.164062 304.386719 190.5 336.054688 173.132812 C 366.695312 157.8125 402.445312 154.746094 435.132812 164.960938 C 463.734375 174.15625 493.355469 196.625 491.3125 228.292969 C 488.246094 256.890625 460.667969 277.320312 437.175781 293.664062 C 413.683594 310.007812 388.144531 336.5625 394.273438 364.144531 C 398.359375 384.570312 417.769531 397.851562 421.855469 417.257812 C 426.960938 442.792969 400.402344 470.371094 375.890625 464.242188 C 399.382812 476.5 410.617188 503.058594 402.445312 528.59375 C 394.273438 551.066406 373.847656 566.386719 353.417969 579.664062 L 314.601562 607.246094 C 303.367188 615.417969 289.066406 625.628906 275.789062 626.652344 C 273.746094 596.007812 270.679688 586.816406 241.058594 573.539062 Z M 241.058594 573.539062 " fill-opacity="1" fill-rule="nonzero"/><path fill="#d8ad8f" d="M 534.210938 317.15625 C 535.234375 301.835938 540.339844 283.449219 541.363281 276.300781 L 529.105469 242.589844 C 515.824219 225.226562 506.632812 210.925781 488.246094 198.667969 C 467.820312 185.390625 441.261719 193.5625 417.769531 187.433594 C 359.546875 173.132812 306.429688 231.355469 288.046875 286.511719 L 287.023438 287.535156 C 289.066406 297.75 290.089844 307.964844 291.109375 317.15625 C 275.789062 317.15625 267.617188 325.328125 272.722656 341.671875 C 272.722656 341.671875 278.851562 368.226562 282.9375 381.507812 C 283.960938 388.65625 291.109375 393.765625 298.261719 393.765625 C 298.261719 401.9375 298.261719 411.128906 298.261719 419.300781 C 298.261719 429.515625 301.324219 439.730469 306.429688 447.902344 C 321.753906 470.371094 400.402344 521.445312 419.8125 519.402344 C 450.453125 519.402344 511.738281 466.285156 528.082031 440.75 C 531.148438 435.644531 532.167969 429.515625 533.191406 423.386719 C 533.191406 413.171875 533.191406 402.957031 533.191406 392.742188 C 539.320312 391.722656 544.425781 386.613281 546.46875 380.484375 C 550.554688 367.207031 556.683594 340.648438 556.683594 340.648438 C 561.789062 325.328125 549.535156 317.15625 534.210938 317.15625 Z M 534.210938 317.15625 " fill-opacity="1" fill-rule="nonzero"/><path fill="#b2876b" d="M 581.199219 578.644531 C 580.175781 578.644531 579.15625 577.621094 578.132812 577.621094 L 572.003906 575.582031 C 559.746094 570.472656 477.011719 541.871094 477.011719 541.871094 C 471.902344 539.828125 466.796875 535.742188 464.753906 530.636719 C 462.710938 520.421875 461.691406 511.230469 462.710938 501.015625 C 448.410156 507.144531 434.109375 512.25 419.8125 515.316406 C 400.402344 517.359375 366.695312 491.824219 366.695312 491.824219 C 366.695312 491.824219 365.675781 522.464844 364.652344 529.617188 C 362.609375 535.742188 357.503906 539.828125 351.375 540.851562 L 272.722656 567.410156 C 264.550781 569.453125 257.402344 572.515625 250.253906 576.601562 C 232.886719 587.835938 221.652344 605.203125 216.542969 624.609375 C 216.542969 625.628906 216.542969 627.671875 215.523438 630.738281 C 214.5 634.824219 214.5 639.929688 214.5 644.015625 C 214.5 649.125 213.480469 715.515625 213.480469 720.625 C 241.058594 755.351562 340.136719 781.910156 447.390625 781.910156 C 494.375 781.910156 587.328125 739.011719 621.035156 718.582031 C 614.90625 623.585938 624.097656 591.921875 581.199219 578.644531 Z M 581.199219 578.644531 " fill-opacity="1" fill-rule="nonzero"/><path fill="#472b29" d="M 300.300781 401.9375 C 299.28125 401.9375 298.257812 400.914062 298.257812 399.894531 L 290.089844 318.179688 C 290.089844 317.15625 291.109375 316.136719 292.132812 316.136719 C 293.152344 316.136719 294.175781 317.15625 294.175781 318.179688 L 302.34375 399.894531 C 303.367188 400.914062 302.34375 401.9375 300.300781 401.9375 C 301.324219 401.9375 301.324219 401.9375 300.300781 401.9375 Z M 531.148438 396.828125 C 530.125 396.828125 529.105469 395.808594 529.105469 394.785156 L 534.210938 312.050781 C 534.210938 311.027344 535.234375 310.007812 536.253906 310.007812 C 537.277344 310.007812 538.296875 311.027344 538.296875 312.050781 L 533.191406 394.785156 C 533.191406 396.828125 532.167969 396.828125 531.148438 396.828125 Z M 531.148438 396.828125 " fill-opacity="1" fill-rule="nonzero"/><path fill="#88ae45" d="M 325.839844 550.042969 C 323.796875 641.972656 503.570312 648.101562 491.3125 542.894531 L 541.363281 560.257812 L 553.621094 754.332031 C 525.019531 761.480469 364.652344 808.46875 265.574219 756.375 L 272.722656 567.410156 Z M 325.839844 550.042969 " fill-opacity="1" fill-rule="nonzero"/><path fill="#472b29" d="M 420.832031 517.359375 C 401.425781 517.359375 369.761719 499.992188 367.71875 499.992188 C 366.695312 498.972656 365.675781 497.949219 366.695312 496.929688 C 367.71875 495.90625 368.738281 494.886719 369.761719 495.90625 C 369.761719 495.90625 404.488281 514.292969 421.855469 513.273438 C 437.175781 510.207031 452.496094 505.101562 465.777344 496.929688 C 466.796875 495.90625 468.839844 496.929688 468.839844 497.949219 C 469.859375 498.972656 468.839844 501.015625 467.820312 501.015625 C 453.519531 509.1875 438.195312 515.316406 421.855469 518.378906 C 422.875 517.359375 421.855469 517.359375 420.832031 517.359375 Z M 420.832031 517.359375 " fill-opacity="1" fill-rule="nonzero"/><path fill="#fbcd59" d="M 367.71875 201.734375 C 366.710938 201.734375 365.714844 201.832031 364.726562 202.027344 C 363.742188 202.222656 362.785156 202.515625 361.855469 202.898438 C 360.925781 203.285156 360.042969 203.757812 359.207031 204.316406 C 358.367188 204.875 357.59375 205.511719 356.882812 206.222656 C 356.171875 206.933594 355.535156 207.707031 354.976562 208.542969 C 354.417969 209.378906 353.945312 210.261719 353.5625 211.191406 C 353.175781 212.121094 352.886719 213.078125 352.691406 214.066406 C 352.492188 215.054688 352.394531 216.050781 352.394531 217.054688 C 352.394531 218.0625 352.492188 219.058594 352.691406 220.042969 C 352.886719 221.03125 353.175781 221.988281 353.5625 222.917969 C 353.945312 223.847656 354.417969 224.730469 354.976562 225.566406 C 355.535156 226.402344 356.171875 227.179688 356.882812 227.890625 C 357.59375 228.601562 358.367188 229.234375 359.207031 229.792969 C 360.042969 230.355469 360.925781 230.824219 361.855469 231.210938 C 362.785156 231.597656 363.742188 231.886719 364.726562 232.082031 C 365.714844 232.277344 366.710938 232.378906 367.71875 232.378906 C 368.722656 232.378906 369.71875 232.277344 370.707031 232.082031 C 371.691406 231.886719 372.652344 231.597656 373.582031 231.210938 C 374.511719 230.824219 375.394531 230.355469 376.230469 229.792969 C 377.066406 229.234375 377.839844 228.601562 378.550781 227.890625 C 379.261719 227.179688 379.898438 226.402344 380.457031 225.566406 C 381.015625 224.730469 381.488281 223.847656 381.871094 222.917969 C 382.257812 221.988281 382.546875 221.03125 382.746094 220.042969 C 382.941406 219.058594 383.039062 218.0625 383.039062 217.054688 C 383.039062 216.050781 382.941406 215.054688 382.746094 214.066406 C 382.546875 213.078125 382.257812 212.121094 381.871094 211.191406 C 381.488281 210.261719 381.015625 209.378906 380.457031 208.542969 C 379.898438 207.707031 379.261719 206.933594 378.550781 206.222656 C 377.839844 205.511719 377.066406 204.875 376.230469 204.316406 C 375.394531 203.757812 374.511719 203.285156 373.582031 202.898438 C 372.652344 202.515625 371.691406 202.222656 370.707031 202.027344 C 369.71875 201.832031 368.722656 201.734375 367.71875 201.734375 Z M 367.71875 201.734375 " fill-opacity="1" fill-rule="nonzero"/><path fill="#472b29" d="M 417.769531 408.0625 C 425.9375 408.0625 434.109375 403.980469 440.238281 397.851562 C 441.261719 396.828125 441.261719 396.828125 440.238281 395.808594 C 439.21875 394.785156 439.21875 394.785156 438.195312 395.808594 C 426.960938 406.019531 409.597656 406.019531 398.359375 395.808594 C 398.359375 395.808594 397.339844 394.785156 397.339844 395.808594 C 397.339844 395.808594 396.316406 395.808594 396.316406 395.808594 C 395.296875 396.828125 395.296875 396.828125 396.316406 397.851562 C 401.425781 403.980469 408.574219 408.0625 417.769531 408.0625 Z M 417.769531 408.0625 " fill-opacity="0.41" fill-rule="nonzero"/><path fill="#472b29" d="M 390.1875 282.425781 L 395.296875 272.214844 C 371.804688 267.105469 347.289062 267.105469 323.796875 274.257812 L 330.945312 284.46875 C 350.351562 278.339844 370.78125 277.320312 390.1875 282.425781 Z M 505.613281 282.425781 L 510.71875 272.214844 C 487.226562 267.105469 462.710938 267.105469 439.21875 274.257812 L 446.367188 284.46875 C 465.777344 278.339844 486.203125 277.320312 505.613281 282.425781 Z M 357.503906 304.898438 C 351.375 304.898438 346.265625 308.984375 344.222656 314.09375 C 345.246094 314.09375 345.246094 314.09375 346.265625 314.09375 C 351.375 315.113281 355.460938 319.199219 354.4375 324.304688 C 354.4375 328.390625 350.351562 332.476562 346.265625 332.476562 C 345.246094 332.476562 343.203125 332.476562 342.179688 331.457031 C 343.203125 339.628906 349.332031 344.734375 357.503906 345.757812 C 368.738281 343.714844 375.890625 333.5 373.847656 322.261719 C 371.804688 314.09375 365.675781 306.941406 357.503906 304.898438 Z M 477.011719 304.898438 C 471.902344 304.898438 467.820312 307.964844 464.753906 312.050781 C 465.777344 312.050781 466.796875 311.027344 467.820312 311.027344 C 472.925781 312.050781 477.011719 316.136719 475.988281 321.242188 C 475.988281 325.328125 471.902344 329.414062 467.820312 329.414062 C 464.753906 329.414062 462.710938 327.371094 460.667969 325.328125 C 462.710938 333.5 471.902344 339.628906 480.074219 336.5625 C 488.246094 334.519531 494.375 325.328125 491.3125 317.15625 C 491.3125 310.007812 485.183594 304.898438 477.011719 304.898438 Z M 477.011719 304.898438 " fill-opacity="1" fill-rule="nonzero"/><path fill="#cd9480" d="M 341.160156 369.25 C 340.390625 369.25 339.625 369.289062 338.855469 369.363281 C 338.089844 369.4375 337.332031 369.550781 336.578125 369.699219 C 335.820312 369.851562 335.078125 370.039062 334.339844 370.261719 C 333.605469 370.484375 332.878906 370.742188 332.167969 371.039062 C 331.457031 371.332031 330.765625 371.660156 330.085938 372.023438 C 329.40625 372.386719 328.746094 372.78125 328.109375 373.207031 C 327.46875 373.636719 326.851562 374.09375 326.257812 374.582031 C 325.660156 375.070312 325.09375 375.585938 324.546875 376.128906 C 324.003906 376.675781 323.488281 377.246094 323 377.839844 C 322.511719 378.433594 322.054688 379.050781 321.625 379.691406 C 321.199219 380.332031 320.804688 380.988281 320.441406 381.667969 C 320.078125 382.347656 319.75 383.042969 319.457031 383.753906 C 319.160156 384.464844 318.902344 385.1875 318.679688 385.921875 C 318.457031 386.660156 318.269531 387.40625 318.117188 388.160156 C 317.96875 388.914062 317.855469 389.675781 317.78125 390.441406 C 317.703125 391.207031 317.667969 391.972656 317.667969 392.742188 C 317.667969 393.511719 317.703125 394.28125 317.78125 395.046875 C 317.855469 395.8125 317.96875 396.570312 318.117188 397.324219 C 318.269531 398.082031 318.457031 398.824219 318.679688 399.5625 C 318.902344 400.296875 319.160156 401.023438 319.457031 401.734375 C 319.75 402.445312 320.078125 403.140625 320.441406 403.816406 C 320.804688 404.496094 321.199219 405.15625 321.625 405.792969 C 322.054688 406.433594 322.511719 407.050781 323 407.648438 C 323.488281 408.242188 324.003906 408.8125 324.546875 409.355469 C 325.09375 409.898438 325.660156 410.414062 326.257812 410.902344 C 326.851562 411.390625 327.46875 411.847656 328.109375 412.277344 C 328.746094 412.703125 329.40625 413.097656 330.085938 413.460938 C 330.765625 413.824219 331.457031 414.152344 332.167969 414.449219 C 332.878906 414.742188 333.605469 415 334.339844 415.222656 C 335.078125 415.449219 335.820312 415.632812 336.578125 415.785156 C 337.332031 415.933594 338.089844 416.046875 338.855469 416.121094 C 339.625 416.199219 340.390625 416.234375 341.160156 416.234375 C 341.929688 416.234375 342.695312 416.199219 343.460938 416.121094 C 344.230469 416.046875 344.988281 415.933594 345.742188 415.785156 C 346.496094 415.632812 347.242188 415.449219 347.980469 415.222656 C 348.714844 415 349.441406 414.742188 350.152344 414.449219 C 350.859375 414.152344 351.554688 413.824219 352.234375 413.460938 C 352.914062 413.097656 353.574219 412.703125 354.210938 412.277344 C 354.851562 411.847656 355.46875 411.390625 356.0625 410.902344 C 356.660156 410.414062 357.226562 409.898438 357.773438 409.355469 C 358.316406 408.8125 358.832031 408.242188 359.320312 407.648438 C 359.808594 407.050781 360.265625 406.433594 360.695312 405.792969 C 361.121094 405.15625 361.515625 404.496094 361.878906 403.816406 C 362.242188 403.140625 362.570312 402.445312 362.863281 401.734375 C 363.160156 401.023438 363.417969 400.296875 363.640625 399.5625 C 363.863281 398.824219 364.050781 398.082031 364.203125 397.324219 C 364.351562 396.570312 364.464844 395.8125 364.539062 395.046875 C 364.617188 394.28125 364.652344 393.511719 364.652344 392.742188 C 364.652344 391.972656 364.617188 391.207031 364.539062 390.441406 C 364.464844 389.675781 364.351562 388.914062 364.203125 388.160156 C 364.050781 387.40625 363.863281 386.660156 363.640625 385.921875 C 363.417969 385.1875 363.160156 384.464844 362.863281 383.753906 C 362.570312 383.042969 362.242188 382.347656 361.878906 381.667969 C 361.515625 380.988281 361.121094 380.332031 360.695312 379.691406 C 360.265625 379.050781 359.808594 378.433594 359.320312 377.839844 C 358.832031 377.242188 358.316406 376.675781 357.773438 376.128906 C 357.226562 375.585938 356.660156 375.070312 356.0625 374.582031 C 355.46875 374.09375 354.851562 373.636719 354.210938 373.207031 C 353.574219 372.78125 352.914062 372.386719 352.234375 372.023438 C 351.554688 371.660156 350.859375 371.332031 350.152344 371.039062 C 349.441406 370.742188 348.714844 370.484375 347.980469 370.261719 C 347.242188 370.039062 346.496094 369.851562 345.742188 369.699219 C 344.988281 369.550781 344.230469 369.4375 343.460938 369.363281 C 342.695312 369.289062 341.929688 369.25 341.160156 369.25 Z M 493.355469 369.25 C 492.585938 369.25 491.816406 369.289062 491.050781 369.363281 C 490.285156 369.4375 489.527344 369.550781 488.769531 369.699219 C 488.015625 369.851562 487.269531 370.039062 486.535156 370.261719 C 485.796875 370.484375 485.074219 370.742188 484.363281 371.039062 C 483.652344 371.332031 482.957031 371.660156 482.28125 372.023438 C 481.601562 372.386719 480.941406 372.78125 480.300781 373.207031 C 479.664062 373.636719 479.046875 374.09375 478.449219 374.582031 C 477.855469 375.070312 477.285156 375.585938 476.742188 376.128906 C 476.199219 376.675781 475.683594 377.246094 475.195312 377.839844 C 474.707031 378.433594 474.246094 379.050781 473.820312 379.691406 C 473.394531 380.332031 472.996094 380.988281 472.636719 381.667969 C 472.273438 382.347656 471.945312 383.042969 471.648438 383.753906 C 471.355469 384.464844 471.097656 385.1875 470.871094 385.921875 C 470.648438 386.660156 470.460938 387.40625 470.3125 388.160156 C 470.164062 388.914062 470.050781 389.675781 469.972656 390.441406 C 469.898438 391.207031 469.859375 391.972656 469.859375 392.742188 C 469.859375 393.511719 469.898438 394.28125 469.972656 395.046875 C 470.050781 395.8125 470.164062 396.570312 470.3125 397.324219 C 470.460938 398.082031 470.648438 398.824219 470.871094 399.5625 C 471.097656 400.296875 471.355469 401.023438 471.648438 401.734375 C 471.945312 402.445312 472.273438 403.140625 472.636719 403.816406 C 472.996094 404.496094 473.394531 405.15625 473.820312 405.792969 C 474.246094 406.433594 474.707031 407.050781 475.195312 407.648438 C 475.683594 408.242188 476.199219 408.8125 476.742188 409.355469 C 477.285156 409.898438 477.855469 410.414062 478.449219 410.902344 C 479.046875 411.390625 479.664062 411.847656 480.300781 412.277344 C 480.941406 412.703125 481.601562 413.097656 482.28125 413.460938 C 482.957031 413.824219 483.652344 414.152344 484.363281 414.449219 C 485.074219 414.742188 485.796875 415 486.535156 415.222656 C 487.269531 415.449219 488.015625 415.632812 488.769531 415.785156 C 489.527344 415.933594 490.285156 416.046875 491.050781 416.121094 C 491.816406 416.199219 492.585938 416.234375 493.355469 416.234375 C 494.125 416.234375 494.890625 416.199219 495.65625 416.121094 C 496.421875 416.046875 497.183594 415.933594 497.9375 415.785156 C 498.691406 415.632812 499.4375 415.449219 500.175781 415.222656 C 500.910156 415 501.632812 414.742188 502.34375 414.449219 C 503.054688 414.152344 503.75 413.824219 504.429688 413.460938 C 505.105469 413.097656 505.765625 412.703125 506.40625 412.277344 C 507.046875 411.847656 507.664062 411.390625 508.257812 410.902344 C 508.851562 410.414062 509.421875 409.898438 509.964844 409.355469 C 510.511719 408.8125 511.027344 408.242188 511.515625 407.648438 C 512.003906 407.050781 512.460938 406.433594 512.886719 405.792969 C 513.316406 405.15625 513.710938 404.496094 514.074219 403.816406 C 514.4375 403.140625 514.765625 402.445312 515.058594 401.734375 C 515.351562 401.023438 515.613281 400.296875 515.835938 399.5625 C 516.058594 398.824219 516.246094 398.082031 516.394531 397.324219 C 516.546875 396.570312 516.660156 395.8125 516.734375 395.046875 C 516.808594 394.28125 516.847656 393.511719 516.847656 392.742188 C 516.847656 391.972656 516.808594 391.207031 516.734375 390.441406 C 516.660156 389.675781 516.546875 388.914062 516.394531 388.160156 C 516.246094 387.40625 516.058594 386.660156 515.835938 385.921875 C 515.613281 385.1875 515.351562 384.464844 515.058594 383.753906 C 514.765625 383.042969 514.4375 382.347656 514.074219 381.667969 C 513.710938 380.988281 513.316406 380.332031 512.886719 379.691406 C 512.460938 379.050781 512.003906 378.433594 511.515625 377.839844 C 511.027344 377.242188 510.511719 376.675781 509.964844 376.128906 C 509.421875 375.585938 508.851562 375.070312 508.257812 374.582031 C 507.664062 374.09375 507.046875 373.636719 506.40625 373.207031 C 505.765625 372.78125 505.105469 372.386719 504.429688 372.023438 C 503.75 371.660156 503.054688 371.332031 502.34375 371.039062 C 501.632812 370.742188 500.910156 370.484375 500.175781 370.261719 C 499.4375 370.039062 498.691406 369.851562 497.9375 369.699219 C 497.183594 369.550781 496.421875 369.4375 495.65625 369.363281 C 494.890625 369.289062 494.125 369.25 493.355469 369.25 Z M 493.355469 369.25 " fill-opacity="1" fill-rule="nonzero"/><path fill="#f1bc19" d="M 414.703125 562.300781 C 414.03125 562.300781 413.367188 562.367188 412.710938 562.496094 C 412.054688 562.628906 411.414062 562.824219 410.792969 563.078125 C 410.175781 563.335938 409.585938 563.648438 409.027344 564.023438 C 408.472656 564.394531 407.957031 564.820312 407.480469 565.292969 C 407.007812 565.765625 406.582031 566.285156 406.210938 566.839844 C 405.839844 567.398438 405.523438 567.988281 405.265625 568.605469 C 405.011719 569.226562 404.816406 569.863281 404.683594 570.523438 C 404.554688 571.179688 404.488281 571.84375 404.488281 572.515625 C 404.488281 573.1875 404.554688 573.851562 404.683594 574.507812 C 404.816406 575.167969 405.011719 575.804688 405.265625 576.425781 C 405.523438 577.042969 405.839844 577.632812 406.210938 578.191406 C 406.582031 578.75 407.007812 579.265625 407.480469 579.738281 C 407.957031 580.210938 408.472656 580.636719 409.027344 581.007812 C 409.585938 581.382812 410.175781 581.695312 410.792969 581.953125 C 411.414062 582.210938 412.054688 582.402344 412.710938 582.535156 C 413.367188 582.664062 414.03125 582.730469 414.703125 582.730469 C 415.375 582.730469 416.039062 582.664062 416.695312 582.535156 C 417.355469 582.402344 417.992188 582.210938 418.613281 581.953125 C 419.230469 581.695312 419.820312 581.382812 420.378906 581.007812 C 420.9375 580.636719 421.453125 580.210938 421.925781 579.738281 C 422.402344 579.265625 422.824219 578.75 423.195312 578.191406 C 423.570312 577.632812 423.882812 577.042969 424.140625 576.425781 C 424.398438 575.804688 424.589844 575.167969 424.722656 574.507812 C 424.851562 573.851562 424.917969 573.1875 424.917969 572.515625 C 424.917969 571.84375 424.851562 571.179688 424.722656 570.523438 C 424.589844 569.863281 424.398438 569.226562 424.140625 568.605469 C 423.882812 567.988281 423.570312 567.398438 423.195312 566.839844 C 422.824219 566.285156 422.402344 565.765625 421.925781 565.292969 C 421.453125 564.820312 420.9375 564.394531 420.378906 564.023438 C 419.820312 563.648438 419.230469 563.335938 418.613281 563.078125 C 417.992188 562.820312 417.355469 562.628906 416.695312 562.496094 C 416.039062 562.367188 415.375 562.300781 414.703125 562.300781 Z M 414.703125 562.300781 " fill-opacity="1" fill-rule="nonzero"/><path fill="#f1bc19" d="M 414.703125 563.324219 C 389.167969 563.324219 362.609375 556.171875 362.609375 543.914062 C 362.609375 542.894531 363.632812 540.851562 365.675781 540.851562 C 367.71875 540.851562 368.738281 541.871094 368.738281 543.914062 C 368.738281 551.066406 389.167969 558.214844 415.726562 558.214844 C 442.28125 558.214844 462.710938 550.042969 462.710938 543.914062 C 462.710938 542.894531 463.734375 540.851562 465.777344 540.851562 C 467.816406 540.851562 468.839844 541.871094 468.839844 543.914062 C 466.796875 557.195312 439.21875 563.324219 414.703125 563.324219 Z M 414.703125 563.324219 " fill-opacity="1" fill-rule="nonzero"/><path fill="#ee3e54" d="M 535.234375 300.8125 C 528.082031 298.769531 520.933594 297.75 512.761719 297.75 C 501.527344 297.75 489.269531 298.769531 478.03125 300.8125 C 462.710938 303.878906 448.410156 307.964844 434.109375 314.09375 C 423.898438 319.199219 410.617188 319.199219 400.402344 314.09375 C 386.101562 307.964844 371.804688 302.855469 356.480469 300.8125 C 345.246094 299.792969 332.988281 298.769531 321.753906 297.75 C 314.601562 297.75 306.429688 298.769531 299.28125 300.8125 C 296.21875 302.855469 295.195312 303.878906 298.257812 314.09375 C 300.300781 323.285156 304.386719 331.457031 309.496094 339.628906 C 317.667969 351.886719 328.902344 362.101562 343.203125 368.226562 C 354.4375 372.3125 366.695312 372.3125 376.910156 368.226562 C 387.125 363.121094 396.316406 354.949219 402.445312 345.757812 C 405.511719 339.628906 409.597656 330.433594 414.703125 330.433594 L 420.832031 330.433594 C 425.9375 330.433594 430.023438 340.648438 433.089844 345.757812 C 439.21875 355.972656 447.390625 363.121094 458.625 368.226562 C 469.859375 372.3125 482.117188 372.3125 492.332031 368.226562 C 505.613281 362.101562 517.867188 352.90625 526.039062 339.628906 C 531.148438 331.457031 534.210938 323.285156 537.277344 314.09375 C 539.320312 303.878906 538.296875 302.855469 535.234375 300.8125 Z M 401.425781 335.542969 C 398.359375 344.734375 392.230469 351.886719 384.058594 358.015625 C 373.847656 365.164062 361.589844 367.207031 350.351562 364.140625 C 339.117188 361.078125 328.902344 353.929688 320.730469 344.734375 C 314.601562 334.519531 313.582031 322.261719 317.667969 311.027344 C 320.730469 304.898438 332.988281 303.878906 340.140625 302.855469 C 353.417969 302.855469 367.71875 304.898438 379.976562 308.984375 C 398.359375 314.09375 401.425781 323.285156 401.425781 323.285156 C 403.46875 327.371094 402.445312 331.457031 401.425781 335.542969 Z M 514.804688 344.734375 C 506.632812 353.929688 496.417969 360.058594 485.183594 364.140625 C 472.925781 367.207031 460.667969 365.164062 451.476562 358.015625 C 444.324219 352.90625 438.195312 344.734375 434.109375 335.542969 C 433.089844 331.457031 433.089844 327.371094 434.109375 323.285156 C 434.109375 323.285156 437.175781 314.09375 455.5625 308.984375 C 468.839844 304.898438 482.117188 302.855469 495.398438 302.855469 C 502.546875 302.855469 514.804688 304.898438 517.867188 311.027344 C 522.976562 322.261719 521.953125 334.519531 514.804688 344.734375 Z M 514.804688 344.734375 " fill-opacity="1" fill-rule="nonzero"/><path fill="#6d1b18" d="M 383.039062 444.835938 C 383.039062 446.878906 382.019531 447.898438 382.019531 449.941406 C 382.019531 464.242188 397.339844 475.480469 417.769531 475.480469 C 438.195312 475.480469 453.519531 464.242188 453.519531 449.941406 C 453.519531 447.898438 453.519531 446.878906 452.496094 444.835938 Z M 383.039062 444.835938 " fill-opacity="1" fill-rule="nonzero"/><path fill="#ee3e54" d="M 436.152344 471.394531 C 424.917969 463.222656 409.597656 463.222656 399.382812 471.394531 C 410.617188 476.5 423.898438 476.5 436.152344 471.394531 Z M 436.152344 471.394531 " fill-opacity="1" fill-rule="nonzero"/><path fill="#fdfcef" d="M 393.253906 444.835938 L 393.253906 448.921875 C 393.253906 453.007812 398.359375 456.070312 404.488281 456.070312 L 431.046875 456.070312 C 437.175781 456.070312 442.28125 453.007812 442.28125 448.921875 L 442.28125 444.835938 Z M 393.253906 444.835938 " fill-opacity="1" fill-rule="nonzero"/><path fill="#472b29" d="M 417.769531 477.523438 C 397.339844 477.523438 379.976562 465.265625 379.976562 449.941406 C 379.976562 447.898438 379.976562 445.859375 380.996094 444.835938 C 380.996094 443.816406 382.015625 442.792969 383.039062 442.792969 L 452.496094 442.792969 C 453.519531 442.792969 454.539062 443.816406 454.539062 443.816406 C 454.539062 445.859375 455.5625 447.898438 455.5625 448.921875 C 454.539062 465.265625 438.195312 477.523438 417.769531 477.523438 Z M 385.082031 446.878906 C 385.082031 447.898438 385.082031 448.921875 385.082031 449.941406 C 385.082031 463.222656 400.402344 473.4375 418.789062 473.4375 C 437.175781 473.4375 452.496094 463.222656 452.496094 449.941406 C 452.496094 448.921875 452.496094 447.898438 452.496094 446.878906 Z M 385.082031 446.878906 " fill-opacity="1" fill-rule="nonzero"/><path fill="#472b29" d="M 409.597656 788.039062 C 409.597656 788.039062 408.574219 788.039062 409.597656 788.039062 C 338.097656 788.039062 268.636719 766.589844 209.394531 727.773438 C 208.375 726.753906 207.351562 725.730469 207.351562 723.6875 L 207.351562 721.644531 C 205.308594 675.679688 208.375 594.988281 248.210938 574.558594 C 255.359375 570.472656 263.53125 567.410156 271.703125 565.367188 L 350.351562 538.808594 C 355.460938 537.785156 358.523438 534.722656 359.546875 530.636719 C 360.566406 526.550781 361.589844 510.207031 361.589844 501.015625 C 338.097656 486.714844 311.539062 466.285156 302.34375 453.007812 C 296.21875 443.816406 292.132812 432.578125 293.152344 421.34375 L 293.152344 400.914062 C 286.003906 398.871094 279.875 392.742188 277.832031 385.59375 C 273.746094 373.335938 267.617188 346.777344 267.617188 345.757812 C 264.550781 336.5625 265.574219 329.414062 269.660156 323.285156 C 271.703125 320.21875 276.808594 316.136719 286.003906 315.113281 C 286.003906 313.070312 286.003906 312.050781 286.003906 310.007812 C 282.9375 303.878906 281.917969 298.769531 280.894531 291.621094 C 280.894531 225.226562 340.140625 171.089844 412.660156 171.089844 C 485.183594 171.089844 544.425781 225.226562 544.425781 291.621094 C 544.425781 298.769531 542.382812 304.898438 539.320312 312.050781 C 539.320312 313.070312 539.320312 314.09375 539.320312 315.113281 C 548.511719 316.136719 554.640625 319.199219 558.726562 325.328125 C 561.789062 329.414062 563.832031 335.542969 560.769531 345.757812 C 559.746094 351.886719 553.617188 376.398438 550.554688 385.59375 C 549.535156 391.722656 544.425781 397.851562 538.296875 399.894531 L 538.296875 426.449219 C 538.296875 433.601562 536.253906 439.730469 533.191406 445.859375 C 514.804688 470.371094 493.355469 490.800781 467.816406 507.144531 C 467.816406 515.316406 467.816406 522.464844 469.859375 530.636719 C 470.882812 533.699219 474.96875 536.765625 479.054688 537.785156 C 483.140625 538.808594 561.789062 566.386719 574.046875 571.496094 L 583.242188 574.558594 C 622.054688 586.816406 623.078125 636.867188 625.121094 707.34375 L 625.121094 719.601562 C 625.121094 721.644531 624.097656 722.667969 623.078125 723.6875 C 559.746094 765.566406 485.183594 788.039062 409.597656 788.039062 Z M 408.574219 777.824219 C 408.574219 777.824219 409.597656 777.824219 408.574219 777.824219 C 482.117188 777.824219 553.621094 756.375 614.90625 716.539062 L 614.90625 707.34375 C 612.863281 639.929688 611.839844 594.988281 580.175781 584.773438 L 569.960938 580.6875 C 557.703125 575.578125 477.011719 548 475.988281 546.980469 C 468.839844 544.9375 463.734375 539.828125 460.667969 532.679688 C 457.605469 522.464844 457.605469 512.25 457.605469 503.058594 C 457.605469 501.015625 458.625 499.992188 459.648438 498.972656 C 485.183594 482.628906 506.632812 463.222656 523.996094 438.707031 C 526.039062 434.621094 527.0625 429.515625 528.082031 424.40625 L 528.082031 393.765625 C 528.082031 390.699219 530.125 388.65625 532.167969 388.65625 C 536.253906 387.636719 540.339844 384.570312 540.339844 380.484375 C 544.425781 367.207031 550.554688 341.671875 550.554688 340.648438 C 552.597656 335.542969 552.597656 331.457031 550.554688 328.390625 C 547.492188 324.304688 541.363281 322.261719 534.210938 322.261719 C 531.148438 322.261719 529.105469 320.21875 529.105469 317.15625 C 529.105469 308.984375 529.105469 304.898438 531.148438 302.855469 C 533.191406 297.75 534.210938 293.664062 534.210938 288.554688 C 534.210938 228.292969 480.074219 179.261719 412.660156 179.261719 C 345.246094 179.261719 291.109375 228.292969 291.109375 289.578125 C 291.109375 294.683594 293.152344 299.792969 295.195312 303.878906 C 295.195312 304.898438 295.195312 304.898438 295.195312 305.921875 C 295.195312 310.007812 296.21875 314.09375 296.21875 317.15625 C 296.21875 318.175781 296.21875 320.21875 295.195312 321.242188 C 294.175781 322.261719 293.152344 322.261719 291.109375 322.261719 C 287.023438 322.261719 280.894531 323.285156 277.832031 326.347656 C 274.765625 330.433594 275.789062 335.542969 277.832031 339.628906 C 277.832031 340.648438 283.960938 367.207031 288.046875 379.464844 C 289.066406 384.570312 293.152344 388.65625 298.261719 388.65625 C 299.28125 388.65625 301.324219 389.679688 302.34375 389.679688 C 303.367188 389.679688 303.367188 391.722656 303.367188 393.765625 L 303.367188 421.34375 C 303.367188 430.535156 305.410156 439.730469 311.539062 446.878906 C 318.6875 457.09375 343.203125 476.5 370.78125 493.863281 C 372.824219 494.886719 372.824219 496.929688 372.824219 498.972656 L 372.824219 499.992188 C 371.804688 509.1875 370.78125 526.550781 369.761719 532.679688 C 366.695312 540.851562 360.566406 546.980469 352.394531 548 L 274.765625 574.558594 C 267.617188 576.601562 260.464844 579.664062 253.316406 583.75 C 216.542969 602.136719 216.542969 684.875 217.566406 720.625 C 274.765625 758.417969 340.140625 777.824219 408.574219 777.824219 Z M 408.574219 777.824219 " fill-opacity="1" fill-rule="nonzero"/><path fill="#ee3e54" d="M 300.300781 392.742188 C 300.300781 397.851562 296.21875 400.914062 292.132812 400.914062 C 288.046875 400.914062 283.960938 396.828125 283.960938 392.742188 C 283.960938 388.65625 288.046875 384.570312 292.132812 384.570312 C 296.21875 384.570312 300.300781 387.636719 300.300781 392.742188 Z M 540.339844 387.636719 C 539.804688 387.636719 539.273438 387.6875 538.746094 387.792969 C 538.21875 387.898438 537.710938 388.050781 537.214844 388.257812 C 536.71875 388.460938 536.246094 388.714844 535.800781 389.011719 C 535.355469 389.3125 534.941406 389.648438 534.5625 390.027344 C 534.183594 390.410156 533.84375 390.820312 533.546875 391.265625 C 533.246094 391.714844 532.996094 392.183594 532.789062 392.679688 C 532.585938 393.175781 532.429688 393.6875 532.324219 394.210938 C 532.222656 394.738281 532.167969 395.269531 532.167969 395.808594 C 532.167969 396.34375 532.222656 396.875 532.324219 397.402344 C 532.429688 397.925781 532.585938 398.4375 532.789062 398.933594 C 532.996094 399.429688 533.246094 399.902344 533.546875 400.347656 C 533.84375 400.792969 534.183594 401.207031 534.5625 401.585938 C 534.941406 401.964844 535.355469 402.304688 535.800781 402.601562 C 536.246094 402.898438 536.71875 403.152344 537.214844 403.355469 C 537.710938 403.5625 538.21875 403.714844 538.746094 403.820312 C 539.273438 403.925781 539.804688 403.980469 540.339844 403.980469 C 540.875 403.980469 541.410156 403.925781 541.933594 403.820312 C 542.460938 403.714844 542.972656 403.5625 543.46875 403.355469 C 543.964844 403.152344 544.433594 402.898438 544.878906 402.601562 C 545.328125 402.304688 545.738281 401.964844 546.117188 401.585938 C 546.496094 401.207031 546.835938 400.792969 547.132812 400.347656 C 547.433594 399.902344 547.683594 399.429688 547.890625 398.933594 C 548.09375 398.4375 548.25 397.925781 548.355469 397.402344 C 548.460938 396.875 548.511719 396.34375 548.511719 395.808594 C 548.511719 395.269531 548.460938 394.738281 548.355469 394.210938 C 548.25 393.6875 548.09375 393.175781 547.890625 392.679688 C 547.683594 392.183594 547.433594 391.714844 547.132812 391.265625 C 546.835938 390.820312 546.496094 390.410156 546.117188 390.027344 C 545.738281 389.648438 545.328125 389.3125 544.878906 389.011719 C 544.433594 388.714844 543.964844 388.460938 543.46875 388.257812 C 542.972656 388.050781 542.460938 387.898438 541.933594 387.792969 C 541.410156 387.6875 540.875 387.636719 540.339844 387.636719 Z M 540.339844 387.636719 " fill-opacity="1" fill-rule="nonzero"/><path fill="#512c2b" d="M 371.804688 557.195312 C 367.71875 541.871094 360.566406 525.53125 347.289062 520.421875 C 322.773438 511.230469 318.6875 487.738281 316.644531 466.285156 C 315.625 466.285156 306.429688 457.09375 304.386719 455.050781 C 298.257812 466.285156 292.132812 476.5 284.980469 486.714844 C 276.808594 498.972656 273.746094 513.273438 276.808594 527.574219 C 282.9375 546.980469 303.367188 556.171875 310.515625 574.558594 C 314.601562 588.859375 313.582031 604.179688 307.453125 617.460938 C 301.324219 630.738281 298.257812 645.039062 297.238281 659.339844 C 297.238281 673.636719 307.453125 689.980469 320.730469 688.960938 C 314.601562 672.617188 317.667969 654.230469 327.882812 640.953125 C 337.074219 627.671875 349.332031 616.4375 359.546875 603.160156 C 369.761719 591.921875 374.867188 574.558594 371.804688 557.195312 Z M 452.496094 228.292969 C 449.433594 212.96875 429.003906 210.925781 417.769531 221.140625 C 406.53125 231.355469 402.445312 246.675781 396.316406 260.976562 C 385.082031 285.492188 365.675781 305.921875 341.160156 319.199219 C 323.796875 327.371094 305.410156 331.457031 288.046875 339.628906 C 269.660156 347.800781 256.378906 365.164062 253.316406 384.570312 C 251.273438 405 271.703125 426.449219 289.066406 418.277344 C 258.421875 430.535156 222.671875 415.214844 209.394531 384.570312 C 197.136719 352.90625 200.203125 311.027344 227.78125 294.683594 C 240.039062 286.511719 252.296875 283.449219 262.507812 272.214844 C 274.765625 258.933594 276.808594 237.484375 280.894531 219.097656 C 295.195312 164.960938 359.546875 127.167969 410.617188 133.296875 C 433.089844 135.339844 453.519531 148.621094 465.777344 168.027344 C 475.988281 188.457031 470.882812 213.992188 452.496094 228.292969 Z M 452.496094 228.292969 " fill-opacity="1" fill-rule="nonzero"/><path fill="#512c2b" d="M 594.476562 295.707031 C 598.5625 291.621094 594.476562 329.414062 583.242188 338.605469 C 572.003906 347.800781 555.660156 348.820312 542.382812 341.671875 C 526.039062 331.457031 519.910156 307.964844 516.847656 288.554688 C 514.804688 271.191406 507.65625 254.847656 494.375 242.589844 C 483.140625 231.355469 466.796875 221.140625 452.496094 228.292969 C 447.390625 206.839844 467.820312 185.390625 489.269531 180.285156 C 509.699219 177.21875 529.105469 186.414062 540.339844 202.753906 C 551.578125 219.097656 557.703125 238.503906 557.703125 257.914062 C 557.703125 266.085938 558.726562 274.257812 561.789062 281.40625 C 564.855469 288.554688 565.875 303.878906 573.027344 307.964844 C 586.304688 318.179688 590.390625 299.792969 594.476562 295.707031 Z M 594.476562 295.707031 " fill-opacity="1" fill-rule="nonzero"/></svg>