<svg xmlns="http://www.w3.org/2000/svg" xmlns:xlink="http://www.w3.org/1999/xlink" width="1080" zoomAndPan="magnify" viewBox="0 0 810 809.999993" height="1080" preserveAspectRatio="xMidYMid meet" version="1.0"><defs><filter x="0%" y="0%" width="100%" height="100%" id="2b324260cc"><feColorMatrix values="0 0 0 0 1 0 0 0 0 1 0 0 0 0 1 0 0 0 1 0" color-interpolation-filters="sRGB"/></filter><mask id="9839980f87"><g filter="url(#2b324260cc)"><rect x="-81" width="972" fill="#000000" y="-80.999999" height="971.999992" fill-opacity="0.3"/></g></mask><clipPath id="3f225aece7"><path d="M 6 0.878906 L 201 0.878906 L 201 41.921875 L 6 41.921875 Z M 6 0.878906 " clip-rule="nonzero"/></clipPath><clipPath id="93d0d6dacf"><rect x="0" width="206" y="0" height="42"/></clipPath></defs><path fill="#ffffff" d="M 107.25 460.316406 C 106.648438 460.316406 106.050781 460.375 105.457031 460.492188 C 104.867188 460.609375 104.289062 460.785156 103.734375 461.015625 C 103.175781 461.246094 102.644531 461.53125 102.144531 461.867188 C 101.640625 462.203125 101.175781 462.582031 100.75 463.007812 C 100.324219 463.4375 99.941406 463.902344 99.605469 464.402344 C 99.273438 464.90625 98.988281 465.433594 98.757812 465.992188 C 98.527344 466.550781 98.351562 467.125 98.234375 467.71875 C 98.117188 468.308594 98.058594 468.910156 98.058594 469.511719 C 98.058594 470.117188 98.117188 470.714844 98.234375 471.304688 C 98.351562 471.898438 98.527344 472.472656 98.757812 473.03125 C 98.988281 473.589844 99.273438 474.117188 99.605469 474.621094 C 99.941406 475.121094 100.324219 475.585938 100.75 476.015625 C 101.175781 476.441406 101.640625 476.824219 102.144531 477.15625 C 102.644531 477.492188 103.175781 477.777344 103.734375 478.007812 C 104.289062 478.238281 104.867188 478.414062 105.457031 478.53125 C 106.050781 478.648438 106.648438 478.707031 107.25 478.707031 C 107.855469 478.707031 108.453125 478.648438 109.042969 478.53125 C 109.636719 478.414062 110.210938 478.238281 110.769531 478.007812 C 111.328125 477.777344 111.855469 477.492188 112.359375 477.15625 C 112.859375 476.824219 113.324219 476.441406 113.75 476.015625 C 114.179688 475.585938 114.558594 475.121094 114.894531 474.621094 C 115.230469 474.117188 115.511719 473.589844 115.742188 473.03125 C 115.976562 472.472656 116.148438 471.898438 116.265625 471.304688 C 116.386719 470.714844 116.445312 470.117188 116.445312 469.511719 C 116.445312 468.910156 116.386719 468.308594 116.265625 467.71875 C 116.148438 467.125 115.976562 466.550781 115.742188 465.992188 C 115.511719 465.433594 115.230469 464.90625 114.894531 464.402344 C 114.558594 463.902344 114.179688 463.4375 113.75 463.007812 C 113.324219 462.582031 112.859375 462.203125 112.359375 461.867188 C 111.855469 461.53125 111.328125 461.246094 110.769531 461.015625 C 110.210938 460.785156 109.636719 460.609375 109.042969 460.492188 C 108.453125 460.375 107.855469 460.316406 107.25 460.316406 Z M 709.898438 207.941406 C 709.429688 207.941406 708.964844 207.984375 708.503906 208.078125 C 708.039062 208.167969 707.59375 208.304688 707.160156 208.480469 C 706.722656 208.660156 706.3125 208.882812 705.921875 209.140625 C 705.527344 209.402344 705.167969 209.699219 704.835938 210.03125 C 704.5 210.363281 704.203125 210.726562 703.941406 211.117188 C 703.679688 211.507812 703.460938 211.917969 703.28125 212.355469 C 703.101562 212.789062 702.964844 213.234375 702.871094 213.695312 C 702.78125 214.160156 702.734375 214.625 702.734375 215.09375 C 702.734375 215.5625 702.78125 216.03125 702.871094 216.492188 C 702.964844 216.953125 703.101562 217.398438 703.28125 217.835938 C 703.460938 218.269531 703.679688 218.679688 703.941406 219.070312 C 704.203125 219.464844 704.5 219.824219 704.835938 220.15625 C 705.167969 220.488281 705.527344 220.785156 705.921875 221.046875 C 706.3125 221.308594 706.722656 221.527344 707.160156 221.707031 C 707.59375 221.886719 708.039062 222.019531 708.503906 222.113281 C 708.964844 222.203125 709.429688 222.246094 709.898438 222.246094 C 710.367188 222.246094 710.835938 222.203125 711.296875 222.113281 C 711.757812 222.019531 712.203125 221.886719 712.640625 221.707031 C 713.074219 221.527344 713.488281 221.308594 713.878906 221.046875 C 714.269531 220.785156 714.632812 220.488281 714.964844 220.15625 C 715.296875 219.824219 715.59375 219.464844 715.855469 219.070312 C 716.117188 218.679688 716.335938 218.269531 716.519531 217.835938 C 716.699219 217.398438 716.832031 216.953125 716.925781 216.492188 C 717.015625 216.03125 717.0625 215.5625 717.0625 215.09375 C 717.0625 214.625 717.015625 214.160156 716.925781 213.695312 C 716.832031 213.234375 716.699219 212.789062 716.515625 212.355469 C 716.335938 211.917969 716.117188 211.507812 715.855469 211.117188 C 715.59375 210.726562 715.296875 210.363281 714.964844 210.03125 C 714.632812 209.699219 714.269531 209.402344 713.878906 209.140625 C 713.488281 208.882812 713.074219 208.660156 712.640625 208.480469 C 712.203125 208.304688 711.757812 208.167969 711.296875 208.078125 C 710.835938 207.984375 710.367188 207.941406 709.898438 207.941406 Z M 709.898438 207.941406 " fill-opacity="1" fill-rule="nonzero"/><path fill="#f1bc19" d="M 683.339844 11.765625 C 682.738281 11.765625 682.140625 11.824219 681.546875 11.941406 C 680.957031 12.058594 680.382812 12.234375 679.824219 12.464844 C 679.265625 12.695312 678.734375 12.976562 678.234375 13.3125 C 677.730469 13.648438 677.269531 14.03125 676.839844 14.457031 C 676.414062 14.882812 676.035156 15.347656 675.699219 15.851562 C 675.363281 16.351562 675.078125 16.882812 674.847656 17.441406 C 674.617188 18 674.441406 18.574219 674.324219 19.164062 C 674.207031 19.757812 674.148438 20.355469 674.148438 20.960938 C 674.148438 21.5625 674.207031 22.160156 674.324219 22.753906 C 674.441406 23.347656 674.617188 23.921875 674.847656 24.480469 C 675.078125 25.035156 675.363281 25.566406 675.699219 26.070312 C 676.035156 26.570312 676.414062 27.035156 676.839844 27.460938 C 677.269531 27.890625 677.730469 28.269531 678.234375 28.605469 C 678.734375 28.941406 679.265625 29.226562 679.824219 29.457031 C 680.382812 29.6875 680.957031 29.859375 681.546875 29.980469 C 682.140625 30.097656 682.738281 30.15625 683.339844 30.15625 C 683.945312 30.15625 684.542969 30.097656 685.136719 29.980469 C 685.726562 29.863281 686.300781 29.6875 686.859375 29.457031 C 687.417969 29.226562 687.945312 28.941406 688.449219 28.605469 C 688.949219 28.269531 689.414062 27.890625 689.84375 27.460938 C 690.269531 27.035156 690.648438 26.570312 690.984375 26.070312 C 691.320312 25.566406 691.605469 25.035156 691.835938 24.480469 C 692.066406 23.921875 692.238281 23.347656 692.359375 22.753906 C 692.476562 22.160156 692.535156 21.5625 692.535156 20.960938 C 692.535156 20.355469 692.476562 19.757812 692.359375 19.164062 C 692.238281 18.574219 692.066406 18 691.835938 17.441406 C 691.605469 16.882812 691.320312 16.351562 690.984375 15.851562 C 690.648438 15.347656 690.269531 14.882812 689.84375 14.457031 C 689.414062 14.03125 688.949219 13.648438 688.449219 13.3125 C 687.945312 12.976562 687.417969 12.695312 686.859375 12.464844 C 686.300781 12.234375 685.726562 12.058594 685.136719 11.941406 C 684.542969 11.824219 683.945312 11.765625 683.339844 11.765625 Z M 112.359375 538.992188 C 111.753906 538.988281 111.15625 539.046875 110.5625 539.164062 C 109.96875 539.28125 109.390625 539.453125 108.832031 539.683594 C 108.273438 539.914062 107.742188 540.199219 107.238281 540.53125 C 106.734375 540.867188 106.269531 541.25 105.839844 541.675781 C 105.414062 542.101562 105.03125 542.566406 104.695312 543.070312 C 104.359375 543.574219 104.074219 544.105469 103.84375 544.664062 C 103.609375 545.222656 103.433594 545.796875 103.316406 546.390625 C 103.199219 546.984375 103.140625 547.582031 103.140625 548.1875 C 103.140625 548.792969 103.199219 549.390625 103.316406 549.984375 C 103.433594 550.578125 103.609375 551.152344 103.84375 551.710938 C 104.074219 552.269531 104.359375 552.800781 104.695312 553.304688 C 105.03125 553.808594 105.414062 554.273438 105.839844 554.699219 C 106.269531 555.125 106.734375 555.507812 107.238281 555.84375 C 107.742188 556.175781 108.273438 556.460938 108.832031 556.691406 C 109.390625 556.921875 109.96875 557.09375 110.5625 557.210938 C 111.15625 557.328125 111.753906 557.386719 112.359375 557.382812 C 112.960938 557.386719 113.5625 557.328125 114.15625 557.210938 C 114.75 557.09375 115.324219 556.921875 115.882812 556.691406 C 116.441406 556.460938 116.972656 556.175781 117.476562 555.84375 C 117.980469 555.507812 118.445312 555.125 118.875 554.699219 C 119.304688 554.273438 119.683594 553.808594 120.023438 553.304688 C 120.359375 552.800781 120.640625 552.269531 120.875 551.710938 C 121.105469 551.152344 121.28125 550.578125 121.398438 549.984375 C 121.515625 549.390625 121.578125 548.792969 121.578125 548.1875 C 121.578125 547.582031 121.515625 546.984375 121.398438 546.390625 C 121.28125 545.796875 121.105469 545.222656 120.875 544.664062 C 120.640625 544.105469 120.359375 543.574219 120.023438 543.070312 C 119.683594 542.566406 119.304688 542.101562 118.875 541.675781 C 118.445312 541.25 117.980469 540.867188 117.476562 540.53125 C 116.972656 540.199219 116.441406 539.914062 115.882812 539.683594 C 115.324219 539.453125 114.75 539.28125 114.15625 539.164062 C 113.5625 539.046875 112.960938 538.988281 112.359375 538.992188 Z M 112.359375 538.992188 " fill-opacity="1" fill-rule="nonzero"/><path fill="#fce0a2" d="M 408.574219 17.894531 C 402.304688 17.894531 396.042969 18.046875 389.78125 18.355469 C 383.519531 18.664062 377.269531 19.125 371.03125 19.738281 C 364.792969 20.355469 358.574219 21.121094 352.371094 22.042969 C 346.171875 22.960938 339.996094 24.035156 333.847656 25.257812 C 327.699219 26.480469 321.585938 27.855469 315.503906 29.378906 C 309.421875 30.902344 303.382812 32.574219 297.382812 34.394531 C 291.386719 36.214844 285.433594 38.179688 279.53125 40.292969 C 273.628906 42.40625 267.785156 44.660156 261.992188 47.0625 C 256.199219 49.460938 250.472656 52 244.804688 54.683594 C 239.136719 57.363281 233.539062 60.183594 228.011719 63.136719 C 222.484375 66.09375 217.03125 69.183594 211.652344 72.40625 C 206.277344 75.632812 200.980469 78.984375 195.769531 82.46875 C 190.558594 85.953125 185.433594 89.5625 180.398438 93.296875 C 175.363281 97.03125 170.421875 100.890625 165.578125 104.867188 C 160.730469 108.847656 155.988281 112.941406 151.339844 117.152344 C 146.695312 121.363281 142.15625 125.683594 137.726562 130.121094 C 133.292969 134.554688 128.972656 139.09375 124.761719 143.738281 C 120.550781 148.386719 116.457031 153.132812 112.480469 157.980469 C 108.503906 162.828125 104.648438 167.769531 100.914062 172.804688 C 97.179688 177.84375 93.574219 182.96875 90.089844 188.183594 C 86.605469 193.394531 83.253906 198.691406 80.03125 204.070312 C 76.808594 209.449219 73.71875 214.902344 70.765625 220.433594 C 67.808594 225.964844 64.992188 231.5625 62.3125 237.234375 C 59.632812 242.902344 57.09375 248.632812 54.691406 254.425781 C 52.292969 260.21875 50.039062 266.066406 47.925781 271.972656 C 45.816406 277.875 43.847656 283.828125 42.03125 289.828125 C 40.210938 295.828125 38.539062 301.871094 37.015625 307.953125 C 35.492188 314.035156 34.117188 320.152344 32.894531 326.304688 C 31.671875 332.453125 30.601562 338.628906 29.683594 344.832031 C 28.761719 351.035156 27.996094 357.257812 27.378906 363.5 C 26.765625 369.738281 26.304688 375.992188 25.996094 382.253906 C 25.691406 388.515625 25.535156 394.785156 25.535156 401.054688 C 25.535156 407.324219 25.691406 413.59375 25.996094 419.855469 C 26.304688 426.117188 26.765625 432.371094 27.378906 438.609375 C 27.996094 444.851562 28.761719 451.074219 29.683594 457.277344 C 30.601562 463.476562 31.671875 469.65625 32.894531 475.804688 C 34.117188 481.957031 35.492188 488.070312 37.015625 494.15625 C 38.539062 500.238281 40.210938 506.277344 42.03125 512.28125 C 43.847656 518.28125 45.816406 524.234375 47.925781 530.136719 C 50.039062 536.039062 52.292969 541.890625 54.691406 547.683594 C 57.09375 553.476562 59.632812 559.207031 62.3125 564.875 C 64.992188 570.542969 67.808594 576.144531 70.765625 581.675781 C 73.71875 587.203125 76.808594 592.660156 80.03125 598.039062 C 83.253906 603.417969 86.605469 608.710938 90.089844 613.925781 C 93.574219 619.140625 97.179688 624.265625 100.914062 629.300781 C 104.648438 634.339844 108.503906 639.28125 112.480469 644.128906 C 116.457031 648.976562 120.550781 653.722656 124.761719 658.367188 C 128.972656 663.015625 133.292969 667.554688 137.726562 671.988281 C 142.15625 676.421875 146.695312 680.746094 151.339844 684.957031 C 155.988281 689.167969 160.730469 693.261719 165.578125 697.242188 C 170.421875 701.21875 175.363281 705.074219 180.398438 708.8125 C 185.433594 712.546875 190.558594 716.15625 195.769531 719.640625 C 200.980469 723.125 206.277344 726.476562 211.652344 729.699219 C 217.03125 732.925781 222.484375 736.015625 228.011719 738.972656 C 233.539062 741.925781 239.136719 744.746094 244.804688 747.425781 C 250.472656 750.105469 256.199219 752.648438 261.992188 755.046875 C 267.785156 757.445312 273.628906 759.703125 279.53125 761.816406 C 285.433594 763.929688 291.386719 765.894531 297.382812 767.714844 C 303.382812 769.535156 309.421875 771.207031 315.503906 772.730469 C 321.585938 774.253906 327.699219 775.628906 333.847656 776.851562 C 339.996094 778.074219 346.171875 779.144531 352.371094 780.066406 C 358.574219 780.988281 364.792969 781.753906 371.03125 782.367188 C 377.269531 782.984375 383.519531 783.445312 389.78125 783.753906 C 396.042969 784.058594 402.304688 784.214844 408.574219 784.214844 C 414.84375 784.214844 421.109375 784.058594 427.371094 783.753906 C 433.632812 783.445312 439.878906 782.984375 446.121094 782.367188 C 452.359375 781.753906 458.578125 780.988281 464.777344 780.066406 C 470.980469 779.144531 477.152344 778.074219 483.300781 776.851562 C 489.449219 775.628906 495.566406 774.253906 501.644531 772.730469 C 507.726562 771.207031 513.765625 769.535156 519.765625 767.714844 C 525.765625 765.894531 531.714844 763.929688 537.617188 761.816406 C 543.519531 759.703125 549.367188 757.445312 555.15625 755.046875 C 560.949219 752.648438 566.679688 750.105469 572.34375 747.425781 C 578.011719 744.746094 583.609375 741.925781 589.136719 738.96875 C 594.667969 736.015625 600.121094 732.925781 605.496094 729.699219 C 610.875 726.476562 616.167969 723.125 621.378906 719.640625 C 626.59375 716.15625 631.714844 712.546875 636.75 708.8125 C 641.785156 705.074219 646.726562 701.21875 651.574219 697.242188 C 656.417969 693.261719 661.164062 689.167969 665.808594 684.957031 C 670.453125 680.746094 674.992188 676.421875 679.425781 671.988281 C 683.855469 667.554688 688.179688 663.015625 692.386719 658.367188 C 696.597656 653.722656 700.691406 648.976562 704.667969 644.128906 C 708.644531 639.28125 712.5 634.339844 716.234375 629.300781 C 719.96875 624.265625 723.578125 619.140625 727.058594 613.925781 C 730.542969 608.710938 733.894531 603.417969 737.117188 598.039062 C 740.339844 592.660156 743.429688 587.203125 746.386719 581.675781 C 749.339844 576.144531 752.15625 570.542969 754.839844 564.875 C 757.519531 559.207031 760.058594 553.476562 762.457031 547.683594 C 764.855469 541.890625 767.109375 536.039062 769.222656 530.136719 C 771.335938 524.234375 773.300781 518.28125 775.121094 512.28125 C 776.941406 506.277344 778.613281 500.238281 780.132812 494.15625 C 781.65625 488.070312 783.03125 481.957031 784.253906 475.804688 C 785.476562 469.65625 786.546875 463.476562 787.46875 457.277344 C 788.386719 451.074219 789.15625 444.851562 789.769531 438.609375 C 790.382812 432.371094 790.84375 426.117188 791.152344 419.855469 C 791.460938 413.59375 791.613281 407.324219 791.613281 401.054688 C 791.613281 394.785156 791.460938 388.515625 791.152344 382.253906 C 790.84375 375.992188 790.382812 369.738281 789.769531 363.5 C 789.15625 357.257812 788.386719 351.035156 787.46875 344.832031 C 786.546875 338.628906 785.476562 332.453125 784.253906 326.304688 C 783.03125 320.152344 781.65625 314.035156 780.136719 307.953125 C 778.613281 301.871094 776.941406 295.828125 775.121094 289.828125 C 773.300781 283.828125 771.335938 277.875 769.222656 271.972656 C 767.109375 266.066406 764.855469 260.21875 762.457031 254.425781 C 760.058594 248.632812 757.519531 242.902344 754.839844 237.234375 C 752.15625 231.5625 749.339844 225.964844 746.386719 220.433594 C 743.429688 214.902344 740.339844 209.449219 737.117188 204.070312 C 733.894531 198.691406 730.542969 193.394531 727.058594 188.183594 C 723.578125 182.96875 719.96875 177.84375 716.234375 172.804688 C 712.5 167.769531 708.644531 162.828125 704.667969 157.980469 C 700.691406 153.132812 696.597656 148.386719 692.386719 143.738281 C 688.179688 139.09375 683.855469 134.554688 679.425781 130.121094 C 674.992188 125.683594 670.453125 121.363281 665.808594 117.152344 C 661.164062 112.941406 656.417969 108.847656 651.574219 104.867188 C 646.726562 100.890625 641.785156 97.03125 636.75 93.296875 C 631.714844 89.5625 626.59375 85.953125 621.378906 82.46875 C 616.167969 78.984375 610.875 75.632812 605.496094 72.40625 C 600.121094 69.183594 594.667969 66.09375 589.136719 63.136719 C 583.609375 60.183594 578.011719 57.363281 572.34375 54.683594 C 566.679688 52 560.949219 49.460938 555.15625 47.0625 C 549.367188 44.660156 543.519531 42.40625 537.617188 40.292969 C 531.714844 38.179688 525.765625 36.214844 519.765625 34.394531 C 513.765625 32.574219 507.726562 30.902344 501.644531 29.378906 C 495.566406 27.855469 489.449219 26.480469 483.300781 25.257812 C 477.152344 24.035156 470.980469 22.960938 464.777344 22.042969 C 458.578125 21.121094 452.359375 20.355469 446.121094 19.738281 C 439.882812 19.125 433.632812 18.664062 427.371094 18.355469 C 421.109375 18.046875 414.84375 17.894531 408.574219 17.894531 Z M 408.574219 17.894531 " fill-opacity="1" fill-rule="nonzero"/><path fill="#f1bc19" d="M 738.5 1.546875 C 737.160156 1.546875 735.828125 1.613281 734.496094 1.742188 C 733.164062 1.875 731.839844 2.070312 730.527344 2.332031 C 729.214844 2.59375 727.917969 2.917969 726.640625 3.304688 C 725.359375 3.695312 724.101562 4.144531 722.863281 4.65625 C 721.628906 5.167969 720.417969 5.742188 719.238281 6.371094 C 718.058594 7.003906 716.914062 7.691406 715.800781 8.433594 C 714.6875 9.179688 713.613281 9.972656 712.578125 10.824219 C 711.546875 11.671875 710.554688 12.570312 709.609375 13.515625 C 708.664062 14.464844 707.765625 15.453125 706.917969 16.488281 C 706.066406 17.523438 705.269531 18.597656 704.527344 19.710938 C 703.785156 20.824219 703.097656 21.96875 702.464844 23.152344 C 701.835938 24.332031 701.265625 25.539062 700.75 26.777344 C 700.238281 28.011719 699.789062 29.273438 699.402344 30.554688 C 699.011719 31.832031 698.6875 33.128906 698.425781 34.445312 C 698.164062 35.757812 697.96875 37.078125 697.839844 38.410156 C 697.707031 39.742188 697.640625 41.078125 697.640625 42.417969 C 697.640625 43.753906 697.707031 45.089844 697.839844 46.421875 C 697.96875 47.753906 698.164062 49.078125 698.425781 50.390625 C 698.6875 51.703125 699.011719 53 699.402344 54.28125 C 699.789062 55.5625 700.238281 56.820312 700.75 58.058594 C 701.265625 59.292969 701.835938 60.503906 702.464844 61.683594 C 703.097656 62.863281 703.785156 64.011719 704.527344 65.125 C 705.269531 66.234375 706.066406 67.308594 706.917969 68.34375 C 707.765625 69.378906 708.664062 70.371094 709.609375 71.316406 C 710.554688 72.261719 711.546875 73.160156 712.578125 74.011719 C 713.613281 74.859375 714.6875 75.65625 715.800781 76.398438 C 716.914062 77.144531 718.058594 77.832031 719.238281 78.460938 C 720.417969 79.09375 721.628906 79.664062 722.863281 80.175781 C 724.101562 80.6875 725.359375 81.140625 726.640625 81.527344 C 727.917969 81.914062 729.214844 82.242188 730.527344 82.503906 C 731.839844 82.761719 733.164062 82.960938 734.496094 83.089844 C 735.828125 83.222656 737.160156 83.289062 738.5 83.289062 C 739.835938 83.289062 741.171875 83.222656 742.503906 83.089844 C 743.835938 82.960938 745.15625 82.761719 746.46875 82.503906 C 747.78125 82.242188 749.078125 81.914062 750.359375 81.527344 C 751.640625 81.140625 752.898438 80.6875 754.132812 80.175781 C 755.371094 79.664062 756.578125 79.09375 757.757812 78.460938 C 758.941406 77.832031 760.085938 77.144531 761.199219 76.398438 C 762.3125 75.65625 763.382812 74.859375 764.417969 74.011719 C 765.453125 73.160156 766.445312 72.261719 767.390625 71.316406 C 768.335938 70.371094 769.234375 69.378906 770.082031 68.34375 C 770.929688 67.308594 771.726562 66.234375 772.472656 65.125 C 773.214844 64.011719 773.902344 62.863281 774.53125 61.683594 C 775.164062 60.503906 775.734375 59.292969 776.246094 58.058594 C 776.757812 56.820312 777.210938 55.5625 777.597656 54.28125 C 777.984375 53 778.3125 51.703125 778.570312 50.390625 C 778.832031 49.078125 779.027344 47.753906 779.160156 46.421875 C 779.292969 45.089844 779.355469 43.753906 779.355469 42.417969 C 779.355469 41.078125 779.292969 39.742188 779.160156 38.410156 C 779.027344 37.078125 778.832031 35.757812 778.570312 34.445312 C 778.3125 33.128906 777.984375 31.832031 777.597656 30.554688 C 777.210938 29.273438 776.757812 28.011719 776.246094 26.777344 C 775.734375 25.539062 775.164062 24.332031 774.53125 23.152344 C 773.902344 21.96875 773.214844 20.824219 772.472656 19.710938 C 771.726562 18.597656 770.929688 17.523438 770.082031 16.488281 C 769.234375 15.453125 768.335938 14.464844 767.390625 13.515625 C 766.445312 12.570312 765.453125 11.671875 764.417969 10.824219 C 763.382812 9.972656 762.3125 9.179688 761.199219 8.433594 C 760.085938 7.691406 758.941406 7.003906 757.757812 6.371094 C 756.578125 5.742188 755.371094 5.167969 754.132812 4.65625 C 752.898438 4.144531 751.640625 3.695312 750.359375 3.304688 C 749.078125 2.917969 747.78125 2.59375 746.46875 2.332031 C 745.15625 2.070312 743.835938 1.875 742.503906 1.742188 C 741.171875 1.613281 739.835938 1.546875 738.5 1.546875 Z M 738.5 1.546875 " fill-opacity="1" fill-rule="nonzero"/><path fill="#ee3e54" d="M 779.355469 115.984375 C 778.722656 115.984375 778.085938 116.015625 777.453125 116.078125 C 776.820312 116.140625 776.195312 116.234375 775.570312 116.355469 C 774.945312 116.480469 774.332031 116.636719 773.722656 116.820312 C 773.113281 117.003906 772.515625 117.21875 771.929688 117.460938 C 771.34375 117.703125 770.769531 117.976562 770.207031 118.277344 C 769.648438 118.574219 769.101562 118.902344 768.574219 119.253906 C 768.046875 119.609375 767.535156 119.988281 767.042969 120.390625 C 766.554688 120.792969 766.082031 121.21875 765.632812 121.667969 C 765.183594 122.121094 764.757812 122.589844 764.355469 123.082031 C 763.953125 123.574219 763.574219 124.082031 763.21875 124.613281 C 762.867188 125.140625 762.539062 125.683594 762.242188 126.246094 C 761.941406 126.804688 761.671875 127.378906 761.425781 127.96875 C 761.183594 128.554688 760.96875 129.152344 760.785156 129.761719 C 760.601562 130.371094 760.445312 130.984375 760.324219 131.609375 C 760.199219 132.234375 760.105469 132.863281 760.042969 133.492188 C 759.980469 134.125 759.949219 134.761719 759.949219 135.398438 C 759.949219 136.03125 759.980469 136.667969 760.042969 137.300781 C 760.105469 137.933594 760.199219 138.5625 760.324219 139.183594 C 760.445312 139.808594 760.601562 140.425781 760.785156 141.03125 C 760.96875 141.640625 761.183594 142.238281 761.425781 142.824219 C 761.671875 143.414062 761.941406 143.988281 762.242188 144.546875 C 762.539062 145.109375 762.867188 145.652344 763.21875 146.183594 C 763.574219 146.710938 763.953125 147.222656 764.355469 147.710938 C 764.757812 148.203125 765.183594 148.675781 765.632812 149.125 C 766.082031 149.574219 766.554688 150 767.042969 150.402344 C 767.535156 150.808594 768.046875 151.183594 768.574219 151.539062 C 769.101562 151.890625 769.648438 152.21875 770.207031 152.519531 C 770.769531 152.816406 771.34375 153.089844 771.929688 153.332031 C 772.515625 153.574219 773.113281 153.789062 773.722656 153.972656 C 774.332031 154.160156 774.945312 154.3125 775.570312 154.4375 C 776.195312 154.5625 776.820312 154.65625 777.453125 154.71875 C 778.085938 154.777344 778.722656 154.808594 779.355469 154.808594 C 779.992188 154.808594 780.625 154.777344 781.257812 154.71875 C 781.890625 154.65625 782.519531 154.5625 783.144531 154.4375 C 783.765625 154.3125 784.382812 154.160156 784.992188 153.972656 C 785.597656 153.789062 786.195312 153.574219 786.785156 153.332031 C 787.371094 153.089844 787.945312 152.816406 788.503906 152.519531 C 789.066406 152.21875 789.609375 151.890625 790.140625 151.539062 C 790.667969 151.183594 791.175781 150.808594 791.667969 150.402344 C 792.160156 150 792.628906 149.574219 793.078125 149.125 C 793.53125 148.675781 793.957031 148.203125 794.359375 147.710938 C 794.761719 147.222656 795.140625 146.710938 795.492188 146.183594 C 795.847656 145.652344 796.171875 145.109375 796.472656 144.546875 C 796.773438 143.988281 797.042969 143.414062 797.285156 142.824219 C 797.53125 142.238281 797.742188 141.640625 797.929688 141.03125 C 798.113281 140.425781 798.265625 139.808594 798.390625 139.183594 C 798.515625 138.5625 798.609375 137.933594 798.671875 137.300781 C 798.734375 136.667969 798.765625 136.03125 798.765625 135.398438 C 798.765625 134.761719 798.734375 134.125 798.671875 133.492188 C 798.609375 132.863281 798.515625 132.234375 798.390625 131.609375 C 798.265625 130.984375 798.113281 130.371094 797.929688 129.761719 C 797.742188 129.152344 797.53125 128.554688 797.285156 127.96875 C 797.042969 127.378906 796.773438 126.804688 796.472656 126.246094 C 796.171875 125.683594 795.847656 125.140625 795.492188 124.613281 C 795.140625 124.082031 794.761719 123.574219 794.359375 123.082031 C 793.957031 122.589844 793.53125 122.121094 793.078125 121.667969 C 792.628906 121.21875 792.160156 120.792969 791.667969 120.390625 C 791.175781 119.988281 790.667969 119.609375 790.140625 119.253906 C 789.609375 118.902344 789.066406 118.574219 788.503906 118.277344 C 787.945312 117.976562 787.371094 117.703125 786.785156 117.460938 C 786.195312 117.21875 785.597656 117.003906 784.992188 116.820312 C 784.382812 116.636719 783.765625 116.480469 783.144531 116.355469 C 782.519531 116.234375 781.890625 116.140625 781.257812 116.078125 C 780.625 116.015625 779.992188 115.984375 779.355469 115.984375 Z M 779.355469 115.984375 " fill-opacity="1" fill-rule="nonzero"/><path fill="#fbcd59" d="M 687.425781 651.386719 C 686.789062 651.382812 686.15625 651.414062 685.523438 651.476562 C 684.890625 651.535156 684.261719 651.628906 683.636719 651.75 C 683.011719 651.875 682.394531 652.027344 681.785156 652.210938 C 681.175781 652.394531 680.578125 652.609375 679.988281 652.851562 C 679.402344 653.09375 678.824219 653.367188 678.265625 653.664062 C 677.703125 653.964844 677.15625 654.289062 676.628906 654.644531 C 676.097656 654.996094 675.585938 655.375 675.09375 655.777344 C 674.601562 656.179688 674.128906 656.609375 673.679688 657.058594 C 673.230469 657.507812 672.800781 657.976562 672.398438 658.46875 C 671.992188 658.960938 671.613281 659.472656 671.261719 660 C 670.90625 660.53125 670.578125 661.074219 670.28125 661.636719 C 669.980469 662.199219 669.707031 662.773438 669.464844 663.359375 C 669.21875 663.949219 669.003906 664.546875 668.820312 665.15625 C 668.636719 665.765625 668.480469 666.382812 668.355469 667.007812 C 668.230469 667.628906 668.136719 668.261719 668.074219 668.894531 C 668.011719 669.527344 667.980469 670.160156 667.980469 670.796875 C 667.980469 671.433594 668.011719 672.070312 668.074219 672.703125 C 668.136719 673.335938 668.230469 673.964844 668.355469 674.589844 C 668.480469 675.214844 668.636719 675.832031 668.820312 676.441406 C 669.003906 677.050781 669.21875 677.648438 669.464844 678.238281 C 669.707031 678.824219 669.980469 679.398438 670.28125 679.960938 C 670.578125 680.523438 670.90625 681.066406 671.261719 681.597656 C 671.613281 682.125 671.992188 682.636719 672.398438 683.128906 C 672.800781 683.617188 673.230469 684.089844 673.679688 684.539062 C 674.128906 684.988281 674.601562 685.414062 675.09375 685.820312 C 675.585938 686.222656 676.097656 686.601562 676.628906 686.953125 C 677.15625 687.304688 677.703125 687.632812 678.265625 687.933594 C 678.824219 688.230469 679.402344 688.503906 679.988281 688.746094 C 680.578125 688.988281 681.175781 689.199219 681.785156 689.386719 C 682.394531 689.570312 683.011719 689.722656 683.636719 689.84375 C 684.261719 689.96875 684.890625 690.0625 685.523438 690.121094 C 686.15625 690.183594 686.789062 690.214844 687.425781 690.210938 C 688.0625 690.214844 688.699219 690.183594 689.332031 690.121094 C 689.964844 690.0625 690.59375 689.96875 691.21875 689.84375 C 691.84375 689.722656 692.460938 689.570312 693.070312 689.386719 C 693.679688 689.199219 694.277344 688.988281 694.867188 688.746094 C 695.453125 688.503906 696.027344 688.230469 696.589844 687.933594 C 697.152344 687.632812 697.699219 687.304688 698.226562 686.953125 C 698.757812 686.601562 699.269531 686.222656 699.761719 685.820312 C 700.253906 685.414062 700.726562 684.988281 701.175781 684.539062 C 701.625 684.089844 702.054688 683.617188 702.457031 683.128906 C 702.859375 682.636719 703.238281 682.125 703.59375 681.597656 C 703.949219 681.066406 704.273438 680.523438 704.574219 679.960938 C 704.875 679.398438 705.148438 678.824219 705.390625 678.238281 C 705.636719 677.648438 705.851562 677.050781 706.035156 676.441406 C 706.21875 675.832031 706.375 675.214844 706.5 674.589844 C 706.625 673.964844 706.714844 673.335938 706.777344 672.703125 C 706.839844 672.070312 706.871094 671.433594 706.871094 670.796875 C 706.871094 670.160156 706.839844 669.527344 706.777344 668.894531 C 706.714844 668.261719 706.625 667.628906 706.5 667.007812 C 706.375 666.382812 706.21875 665.765625 706.035156 665.15625 C 705.851562 664.546875 705.636719 663.949219 705.390625 663.359375 C 705.148438 662.773438 704.875 662.199219 704.574219 661.636719 C 704.273438 661.074219 703.949219 660.53125 703.59375 660 C 703.238281 659.472656 702.859375 658.960938 702.457031 658.46875 C 702.054688 657.976562 701.625 657.507812 701.175781 657.058594 C 700.726562 656.609375 700.253906 656.179688 699.761719 655.777344 C 699.269531 655.375 698.757812 654.996094 698.226562 654.644531 C 697.699219 654.289062 697.152344 653.964844 696.589844 653.664062 C 696.027344 653.367188 695.453125 653.09375 694.867188 652.851562 C 694.277344 652.609375 693.679688 652.394531 693.070312 652.210938 C 692.460938 652.027344 691.84375 651.875 691.21875 651.75 C 690.59375 651.628906 689.964844 651.535156 689.332031 651.476562 C 688.699219 651.414062 688.0625 651.382812 687.425781 651.386719 Z M 42.898438 498.121094 C 41.5625 498.121094 40.226562 498.1875 38.894531 498.316406 C 37.5625 498.449219 36.242188 498.644531 34.929688 498.90625 C 33.617188 499.167969 32.320312 499.492188 31.039062 499.882812 C 29.757812 500.269531 28.5 500.71875 27.265625 501.230469 C 26.027344 501.746094 24.820312 502.316406 23.640625 502.945312 C 22.460938 503.578125 21.3125 504.265625 20.199219 505.007812 C 19.089844 505.753906 18.015625 506.550781 16.980469 507.398438 C 15.945312 508.246094 14.957031 509.144531 14.007812 510.09375 C 13.0625 511.039062 12.164062 512.027344 11.316406 513.0625 C 10.46875 514.097656 9.671875 515.171875 8.929688 516.285156 C 8.183594 517.398438 7.5 518.546875 6.867188 519.726562 C 6.238281 520.90625 5.664062 522.113281 5.152344 523.351562 C 4.640625 524.585938 4.191406 525.847656 3.800781 527.128906 C 3.414062 528.410156 3.089844 529.707031 2.828125 531.019531 C 2.566406 532.332031 2.371094 533.652344 2.238281 534.984375 C 2.109375 536.316406 2.042969 537.652344 2.042969 538.992188 C 2.042969 540.332031 2.109375 541.664062 2.238281 542.996094 C 2.371094 544.328125 2.566406 545.652344 2.828125 546.964844 C 3.089844 548.277344 3.414062 549.574219 3.800781 550.855469 C 4.191406 552.136719 4.640625 553.394531 5.152344 554.632812 C 5.664062 555.867188 6.238281 557.078125 6.867188 558.257812 C 7.496094 559.4375 8.183594 560.585938 8.929688 561.699219 C 9.671875 562.8125 10.46875 563.886719 11.316406 564.917969 C 12.164062 565.953125 13.0625 566.945312 14.007812 567.890625 C 14.957031 568.835938 15.945312 569.734375 16.980469 570.585938 C 18.015625 571.433594 19.089844 572.230469 20.199219 572.972656 C 21.3125 573.71875 22.460938 574.40625 23.640625 575.035156 C 24.820312 575.667969 26.027344 576.238281 27.265625 576.75 C 28.5 577.261719 29.757812 577.714844 31.039062 578.101562 C 32.320312 578.492188 33.617188 578.816406 34.929688 579.078125 C 36.242188 579.335938 37.5625 579.535156 38.894531 579.664062 C 40.226562 579.796875 41.5625 579.863281 42.898438 579.863281 C 44.238281 579.863281 45.574219 579.796875 46.90625 579.664062 C 48.238281 579.535156 49.558594 579.335938 50.871094 579.078125 C 52.183594 578.816406 53.480469 578.492188 54.761719 578.101562 C 56.042969 577.714844 57.300781 577.261719 58.535156 576.75 C 59.773438 576.238281 60.980469 575.667969 62.160156 575.035156 C 63.339844 574.40625 64.488281 573.71875 65.597656 572.972656 C 66.710938 572.230469 67.785156 571.433594 68.820312 570.585938 C 69.855469 569.734375 70.84375 568.835938 71.789062 567.890625 C 72.738281 566.945312 73.636719 565.953125 74.484375 564.917969 C 75.332031 563.886719 76.128906 562.8125 76.871094 561.699219 C 77.617188 560.585938 78.300781 559.4375 78.933594 558.257812 C 79.5625 557.078125 80.136719 555.867188 80.648438 554.632812 C 81.160156 553.394531 81.609375 552.136719 82 550.855469 C 82.386719 549.574219 82.710938 548.277344 82.972656 546.964844 C 83.234375 545.652344 83.429688 544.328125 83.5625 542.996094 C 83.691406 541.664062 83.757812 540.332031 83.757812 538.992188 C 83.757812 537.652344 83.691406 536.316406 83.5625 534.984375 C 83.429688 533.652344 83.234375 532.332031 82.972656 531.019531 C 82.710938 529.707031 82.386719 528.410156 82 527.128906 C 81.609375 525.847656 81.160156 524.585938 80.648438 523.351562 C 80.136719 522.113281 79.5625 520.90625 78.933594 519.726562 C 78.300781 518.546875 77.617188 517.398438 76.871094 516.285156 C 76.128906 515.171875 75.332031 514.097656 74.484375 513.0625 C 73.632812 512.027344 72.738281 511.039062 71.789062 510.09375 C 70.84375 509.144531 69.855469 508.246094 68.820312 507.398438 C 67.785156 506.550781 66.710938 505.753906 65.597656 505.007812 C 64.488281 504.265625 63.339844 503.578125 62.160156 502.945312 C 60.980469 502.316406 59.773438 501.746094 58.535156 501.230469 C 57.300781 500.71875 56.042969 500.269531 54.761719 499.882812 C 53.480469 499.492188 52.183594 499.167969 50.871094 498.90625 C 49.558594 498.644531 48.238281 498.449219 46.90625 498.316406 C 45.574219 498.1875 44.238281 498.121094 42.898438 498.121094 Z M 42.898438 498.121094 " fill-opacity="1" fill-rule="nonzero"/><path fill="#ee3e54" d="M 147.085938 765.820312 C 146.453125 765.820312 145.816406 765.851562 145.183594 765.914062 C 144.550781 765.976562 143.925781 766.070312 143.300781 766.195312 C 142.675781 766.320312 142.0625 766.472656 141.453125 766.65625 C 140.84375 766.84375 140.246094 767.054688 139.660156 767.300781 C 139.074219 767.542969 138.5 767.816406 137.9375 768.113281 C 137.378906 768.414062 136.832031 768.742188 136.304688 769.09375 C 135.777344 769.445312 135.265625 769.824219 134.773438 770.230469 C 134.285156 770.632812 133.8125 771.058594 133.363281 771.507812 C 132.914062 771.957031 132.488281 772.429688 132.085938 772.917969 C 131.683594 773.410156 131.304688 773.921875 130.949219 774.449219 C 130.597656 774.976562 130.269531 775.523438 129.972656 776.082031 C 129.671875 776.644531 129.398438 777.21875 129.15625 777.804688 C 128.914062 778.394531 128.699219 778.992188 128.515625 779.601562 C 128.332031 780.207031 128.175781 780.824219 128.050781 781.449219 C 127.929688 782.070312 127.835938 782.699219 127.773438 783.332031 C 127.710938 783.964844 127.679688 784.601562 127.679688 785.234375 C 127.679688 785.871094 127.710938 786.503906 127.773438 787.136719 C 127.835938 787.769531 127.929688 788.398438 128.050781 789.023438 C 128.175781 789.644531 128.332031 790.261719 128.515625 790.871094 C 128.699219 791.480469 128.914062 792.078125 129.15625 792.664062 C 129.398438 793.253906 129.671875 793.824219 129.972656 794.386719 C 130.269531 794.949219 130.597656 795.492188 130.949219 796.019531 C 131.304688 796.550781 131.683594 797.058594 132.085938 797.550781 C 132.488281 798.042969 132.914062 798.511719 133.363281 798.960938 C 133.8125 799.414062 134.285156 799.839844 134.773438 800.242188 C 135.265625 800.644531 135.777344 801.023438 136.304688 801.378906 C 136.832031 801.730469 137.378906 802.058594 137.9375 802.355469 C 138.5 802.65625 139.074219 802.925781 139.660156 803.171875 C 140.246094 803.414062 140.84375 803.628906 141.453125 803.8125 C 142.0625 803.996094 142.675781 804.152344 143.300781 804.277344 C 143.925781 804.398438 144.550781 804.492188 145.183594 804.554688 C 145.816406 804.617188 146.453125 804.648438 147.085938 804.648438 C 147.722656 804.648438 148.355469 804.617188 148.988281 804.554688 C 149.621094 804.492188 150.25 804.398438 150.875 804.277344 C 151.496094 804.152344 152.113281 803.996094 152.71875 803.8125 C 153.328125 803.628906 153.925781 803.414062 154.515625 803.171875 C 155.101562 802.925781 155.675781 802.65625 156.234375 802.355469 C 156.796875 802.058594 157.339844 801.730469 157.867188 801.378906 C 158.398438 801.023438 158.90625 800.644531 159.398438 800.242188 C 159.890625 799.839844 160.359375 799.414062 160.808594 798.960938 C 161.257812 798.511719 161.6875 798.042969 162.089844 797.550781 C 162.492188 797.058594 162.871094 796.550781 163.222656 796.019531 C 163.578125 795.492188 163.902344 794.949219 164.203125 794.386719 C 164.503906 793.828125 164.773438 793.253906 165.015625 792.664062 C 165.261719 792.078125 165.472656 791.480469 165.660156 790.871094 C 165.84375 790.261719 165.996094 789.644531 166.121094 789.023438 C 166.246094 788.398438 166.339844 787.769531 166.402344 787.136719 C 166.464844 786.503906 166.496094 785.871094 166.496094 785.234375 C 166.496094 784.601562 166.464844 783.964844 166.402344 783.332031 C 166.339844 782.699219 166.246094 782.070312 166.121094 781.449219 C 165.996094 780.824219 165.84375 780.207031 165.660156 779.601562 C 165.472656 778.992188 165.261719 778.394531 165.015625 777.804688 C 164.773438 777.21875 164.503906 776.644531 164.203125 776.082031 C 163.902344 775.523438 163.578125 774.976562 163.222656 774.449219 C 162.871094 773.921875 162.492188 773.410156 162.089844 772.917969 C 161.6875 772.429688 161.257812 771.957031 160.808594 771.507812 C 160.359375 771.058594 159.890625 770.632812 159.398438 770.230469 C 158.90625 769.824219 158.398438 769.445312 157.867188 769.09375 C 157.339844 768.742188 156.796875 768.414062 156.234375 768.113281 C 155.675781 767.816406 155.101562 767.542969 154.515625 767.300781 C 153.925781 767.054688 153.328125 766.84375 152.71875 766.65625 C 152.113281 766.472656 151.496094 766.320312 150.875 766.195312 C 150.25 766.070312 149.621094 765.976562 148.988281 765.914062 C 148.355469 765.851562 147.722656 765.820312 147.085938 765.820312 Z M 147.085938 765.820312 " fill-opacity="1" fill-rule="nonzero"/><path fill="#ffffff" d="M 674.148438 181.375 C 673.546875 181.375 672.945312 181.40625 672.347656 181.464844 C 671.746094 181.523438 671.152344 181.613281 670.5625 181.730469 C 669.972656 181.847656 669.386719 181.992188 668.8125 182.167969 C 668.234375 182.34375 667.667969 182.546875 667.113281 182.777344 C 666.554688 183.007812 666.011719 183.265625 665.480469 183.546875 C 664.949219 183.832031 664.433594 184.140625 663.933594 184.476562 C 663.433594 184.808594 662.949219 185.167969 662.484375 185.550781 C 662.019531 185.933594 661.574219 186.335938 661.148438 186.761719 C 660.722656 187.1875 660.316406 187.632812 659.9375 188.101562 C 659.554688 188.566406 659.195312 189.050781 658.859375 189.550781 C 658.527344 190.050781 658.21875 190.566406 657.933594 191.097656 C 657.648438 191.628906 657.394531 192.171875 657.164062 192.730469 C 656.933594 193.285156 656.730469 193.851562 656.554688 194.429688 C 656.378906 195.003906 656.234375 195.589844 656.117188 196.179688 C 656 196.769531 655.910156 197.367188 655.851562 197.964844 C 655.792969 198.566406 655.761719 199.164062 655.761719 199.769531 C 655.761719 200.371094 655.792969 200.972656 655.851562 201.570312 C 655.910156 202.167969 656 202.765625 656.117188 203.355469 C 656.234375 203.945312 656.378906 204.53125 656.554688 205.105469 C 656.730469 205.683594 656.933594 206.25 657.164062 206.804688 C 657.394531 207.363281 657.648438 207.90625 657.933594 208.4375 C 658.21875 208.96875 658.527344 209.484375 658.859375 209.984375 C 659.195312 210.488281 659.554688 210.96875 659.9375 211.433594 C 660.316406 211.902344 660.722656 212.347656 661.148438 212.773438 C 661.574219 213.199219 662.019531 213.601562 662.484375 213.984375 C 662.949219 214.367188 663.433594 214.726562 663.933594 215.058594 C 664.433594 215.394531 664.949219 215.703125 665.480469 215.988281 C 666.011719 216.273438 666.554688 216.527344 667.113281 216.757812 C 667.667969 216.988281 668.234375 217.191406 668.8125 217.367188 C 669.386719 217.542969 669.972656 217.6875 670.5625 217.804688 C 671.152344 217.921875 671.746094 218.011719 672.347656 218.070312 C 672.945312 218.128906 673.546875 218.160156 674.148438 218.160156 C 674.75 218.160156 675.351562 218.128906 675.949219 218.070312 C 676.550781 218.011719 677.144531 217.921875 677.734375 217.804688 C 678.324219 217.6875 678.910156 217.542969 679.484375 217.367188 C 680.0625 217.191406 680.628906 216.988281 681.183594 216.757812 C 681.742188 216.527344 682.285156 216.273438 682.816406 215.988281 C 683.347656 215.703125 683.863281 215.394531 684.363281 215.058594 C 684.863281 214.726562 685.347656 214.367188 685.8125 213.984375 C 686.277344 213.601562 686.722656 213.199219 687.148438 212.773438 C 687.574219 212.347656 687.980469 211.902344 688.359375 211.433594 C 688.742188 210.96875 689.101562 210.488281 689.4375 209.984375 C 689.769531 209.484375 690.078125 208.96875 690.363281 208.4375 C 690.648438 207.90625 690.90625 207.363281 691.136719 206.804688 C 691.367188 206.25 691.566406 205.683594 691.742188 205.105469 C 691.917969 204.53125 692.0625 203.945312 692.179688 203.355469 C 692.296875 202.765625 692.386719 202.167969 692.445312 201.570312 C 692.503906 200.972656 692.535156 200.371094 692.535156 199.769531 C 692.535156 199.164062 692.503906 198.566406 692.445312 197.964844 C 692.386719 197.367188 692.296875 196.769531 692.179688 196.179688 C 692.0625 195.589844 691.917969 195.003906 691.742188 194.429688 C 691.566406 193.851562 691.367188 193.285156 691.136719 192.730469 C 690.90625 192.171875 690.648438 191.628906 690.363281 191.097656 C 690.078125 190.566406 689.769531 190.050781 689.4375 189.550781 C 689.101562 189.050781 688.742188 188.566406 688.359375 188.101562 C 687.980469 187.632812 687.574219 187.1875 687.148438 186.761719 C 686.722656 186.335938 686.277344 185.933594 685.8125 185.550781 C 685.347656 185.167969 684.863281 184.808594 684.363281 184.476562 C 683.863281 184.140625 683.347656 183.832031 682.816406 183.546875 C 682.285156 183.265625 681.742188 183.007812 681.183594 182.777344 C 680.628906 182.546875 680.0625 182.34375 679.484375 182.167969 C 678.910156 181.992188 678.324219 181.847656 677.734375 181.730469 C 677.144531 181.613281 676.550781 181.523438 675.949219 181.464844 C 675.351562 181.40625 674.75 181.375 674.148438 181.375 Z M 80.695312 389.816406 C 79.855469 389.816406 79.023438 389.855469 78.191406 389.9375 C 77.359375 390.019531 76.53125 390.140625 75.710938 390.304688 C 74.890625 390.46875 74.082031 390.671875 73.28125 390.914062 C 72.480469 391.15625 71.695312 391.4375 70.921875 391.757812 C 70.148438 392.078125 69.394531 392.4375 68.65625 392.832031 C 67.917969 393.226562 67.203125 393.65625 66.507812 394.121094 C 65.8125 394.585938 65.140625 395.082031 64.492188 395.613281 C 63.847656 396.144531 63.226562 396.703125 62.636719 397.296875 C 62.046875 397.886719 61.484375 398.507812 60.953125 399.152344 C 60.421875 399.800781 59.925781 400.472656 59.460938 401.167969 C 58.996094 401.863281 58.566406 402.578125 58.171875 403.316406 C 57.777344 404.054688 57.421875 404.8125 57.101562 405.582031 C 56.78125 406.355469 56.5 407.144531 56.257812 407.945312 C 56.015625 408.746094 55.8125 409.554688 55.648438 410.375 C 55.484375 411.195312 55.363281 412.023438 55.28125 412.855469 C 55.199219 413.6875 55.15625 414.523438 55.15625 415.359375 C 55.15625 416.195312 55.199219 417.03125 55.28125 417.863281 C 55.363281 418.695312 55.484375 419.523438 55.648438 420.34375 C 55.8125 421.164062 56.015625 421.972656 56.257812 422.773438 C 56.5 423.574219 56.78125 424.359375 57.101562 425.132812 C 57.421875 425.90625 57.777344 426.664062 58.171875 427.398438 C 58.566406 428.136719 58.996094 428.855469 59.460938 429.550781 C 59.925781 430.246094 60.421875 430.917969 60.953125 431.5625 C 61.484375 432.210938 62.046875 432.828125 62.636719 433.421875 C 63.226562 434.011719 63.847656 434.574219 64.492188 435.105469 C 65.140625 435.636719 65.8125 436.132812 66.507812 436.597656 C 67.203125 437.0625 67.917969 437.492188 68.65625 437.886719 C 69.394531 438.28125 70.148438 438.636719 70.921875 438.957031 C 71.695312 439.277344 72.480469 439.558594 73.28125 439.804688 C 74.082031 440.046875 74.890625 440.25 75.710938 440.410156 C 76.53125 440.574219 77.359375 440.699219 78.191406 440.78125 C 79.023438 440.863281 79.855469 440.902344 80.695312 440.902344 C 81.53125 440.902344 82.363281 440.863281 83.195312 440.78125 C 84.027344 440.699219 84.855469 440.574219 85.675781 440.410156 C 86.496094 440.25 87.304688 440.046875 88.105469 439.804688 C 88.90625 439.558594 89.691406 439.277344 90.464844 438.957031 C 91.238281 438.636719 91.992188 438.28125 92.730469 437.886719 C 93.46875 437.492188 94.183594 437.0625 94.878906 436.597656 C 95.574219 436.132812 96.246094 435.636719 96.894531 435.105469 C 97.539062 434.574219 98.160156 434.011719 98.75 433.421875 C 99.339844 432.828125 99.902344 432.210938 100.433594 431.5625 C 100.964844 430.917969 101.460938 430.246094 101.925781 429.550781 C 102.390625 428.855469 102.820312 428.136719 103.214844 427.398438 C 103.609375 426.664062 103.964844 425.90625 104.285156 425.132812 C 104.605469 424.359375 104.886719 423.574219 105.128906 422.773438 C 105.371094 421.972656 105.574219 421.164062 105.738281 420.34375 C 105.902344 419.523438 106.023438 418.695312 106.105469 417.863281 C 106.1875 417.03125 106.230469 416.195312 106.230469 415.359375 C 106.230469 414.523438 106.1875 413.6875 106.105469 412.855469 C 106.023438 412.023438 105.902344 411.195312 105.738281 410.375 C 105.574219 409.554688 105.371094 408.746094 105.128906 407.945312 C 104.886719 407.144531 104.605469 406.355469 104.285156 405.582031 C 103.964844 404.8125 103.609375 404.054688 103.214844 403.316406 C 102.820312 402.578125 102.390625 401.863281 101.925781 401.167969 C 101.460938 400.472656 100.964844 399.800781 100.433594 399.152344 C 99.902344 398.507812 99.339844 397.886719 98.75 397.296875 C 98.160156 396.703125 97.539062 396.144531 96.894531 395.613281 C 96.246094 395.082031 95.574219 394.585938 94.878906 394.121094 C 94.183594 393.65625 93.46875 393.226562 92.730469 392.832031 C 91.992188 392.4375 91.238281 392.078125 90.464844 391.757812 C 89.691406 391.4375 88.90625 391.15625 88.105469 390.914062 C 87.304688 390.671875 86.496094 390.46875 85.675781 390.304688 C 84.855469 390.140625 84.027344 390.019531 83.195312 389.9375 C 82.363281 389.855469 81.53125 389.816406 80.695312 389.816406 Z M 80.695312 389.816406 " fill-opacity="1" fill-rule="nonzero"/><path fill="#b5374c" d="M 401.335938 148.789062 C 399.863281 149.164062 398.398438 149.578125 396.945312 150.027344 C 395.492188 150.480469 394.050781 150.96875 392.625 151.496094 C 391.195312 152.027344 389.78125 152.589844 388.382812 153.195312 C 386.984375 153.796875 385.601562 154.4375 384.230469 155.113281 C 382.863281 155.792969 381.515625 156.503906 380.183594 157.253906 C 378.851562 158.003906 377.535156 158.785156 376.242188 159.605469 C 374.949219 160.425781 373.675781 161.277344 372.421875 162.164062 C 371.167969 163.050781 369.9375 163.972656 368.730469 164.925781 C 367.523438 165.878906 366.339844 166.867188 365.179688 167.882812 C 364.015625 168.898438 362.882812 169.949219 361.769531 171.027344 C 360.660156 172.105469 359.578125 173.214844 358.519531 174.351562 C 357.460938 175.488281 356.429688 176.65625 355.429688 177.847656 C 354.425781 179.042969 353.453125 180.261719 352.507812 181.507812 C 351.566406 182.753906 350.652344 184.027344 349.765625 185.324219 C 348.882812 186.621094 348.027344 187.941406 347.207031 189.285156 C 346.386719 190.628906 345.59375 191.996094 344.835938 193.382812 C 344.078125 194.769531 343.355469 196.179688 342.664062 197.605469 C 341.972656 199.035156 341.3125 200.480469 340.6875 201.949219 C 340.066406 203.414062 339.476562 204.894531 338.921875 206.394531 C 338.367188 207.890625 337.847656 209.40625 337.363281 210.933594 C 336.878906 212.460938 336.429688 214.003906 336.015625 215.558594 C 335.605469 217.113281 335.226562 218.679688 334.886719 220.257812 C 334.546875 221.835938 334.246094 223.421875 333.980469 225.015625 C 333.710938 226.613281 333.484375 228.214844 333.292969 229.828125 C 333.097656 231.4375 332.945312 233.054688 332.828125 234.675781 C 332.710938 236.296875 332.628906 237.921875 332.585938 239.550781 C 332.542969 241.179688 332.539062 242.808594 332.570312 244.441406 C 332.605469 246.074219 332.675781 247.703125 332.78125 249.335938 C 332.890625 250.964844 333.035156 252.59375 333.214844 254.222656 C 333.398438 255.847656 333.617188 257.46875 333.875 259.085938 C 334.128906 260.703125 334.421875 262.316406 334.753906 263.917969 C 335.082031 265.523438 335.449219 267.121094 335.851562 268.710938 C 336.253906 270.296875 336.695312 271.875 337.167969 273.445312 C 337.644531 275.011719 338.152344 276.570312 338.699219 278.113281 C 339.242188 279.65625 339.824219 281.1875 340.4375 282.703125 C 341.054688 284.21875 341.703125 285.722656 342.386719 287.207031 C 343.066406 288.691406 343.785156 290.15625 344.53125 291.609375 C 345.28125 293.058594 346.0625 294.488281 346.875 295.898438 C 347.691406 297.3125 348.535156 298.703125 349.410156 300.070312 C 350.285156 301.441406 351.191406 302.789062 352.128906 304.113281 C 353.066406 305.4375 354.03125 306.738281 355.027344 308.011719 C 356.019531 309.289062 357.042969 310.539062 358.09375 311.761719 C 359.144531 312.988281 360.21875 314.183594 361.324219 315.355469 C 362.425781 316.523438 363.554688 317.667969 364.710938 318.78125 C 365.863281 319.890625 367.042969 320.976562 368.246094 322.027344 C 369.445312 323.082031 370.671875 324.101562 371.917969 325.09375 C 373.164062 326.082031 374.433594 327.042969 375.722656 327.96875 C 377.007812 328.894531 378.316406 329.785156 379.644531 330.644531 C 380.972656 331.503906 382.316406 332.328125 383.679688 333.117188 C 385.042969 333.90625 386.421875 334.660156 387.820312 335.378906 C 389.214844 336.097656 390.625 336.777344 392.046875 337.425781 C 393.472656 338.070312 394.910156 338.679688 396.359375 339.25 C 397.808594 339.820312 399.269531 340.355469 400.742188 340.851562 C 402.214844 341.347656 403.695312 341.804688 405.183594 342.222656 C 406.675781 342.640625 408.171875 343.019531 409.679688 343.363281 C 411.183594 343.703125 412.695312 344.003906 414.210938 344.265625 C 415.726562 344.527344 417.246094 344.75 418.769531 344.933594 C 420.292969 345.117188 421.820312 345.261719 423.347656 345.363281 C 424.875 345.464844 426.40625 345.527344 427.933594 345.550781 C 429.460938 345.574219 430.988281 345.558594 432.511719 345.5 C 434.039062 345.445312 435.558594 345.347656 437.074219 345.210938 C 438.59375 345.074219 440.105469 344.894531 441.613281 344.679688 C 443.121094 344.460938 444.621094 344.207031 446.113281 343.910156 C 447.605469 343.613281 449.089844 343.28125 450.5625 342.90625 C 452.035156 342.53125 453.5 342.117188 454.953125 341.667969 C 456.40625 341.214844 457.847656 340.726562 459.273438 340.199219 C 460.703125 339.667969 462.117188 339.105469 463.515625 338.5 C 464.914062 337.898438 466.300781 337.257812 467.667969 336.582031 C 469.035156 335.902344 470.382812 335.191406 471.714844 334.441406 C 473.050781 333.691406 474.363281 332.910156 475.65625 332.089844 C 476.949219 331.269531 478.222656 330.417969 479.476562 329.53125 C 480.730469 328.644531 481.960938 327.722656 483.167969 326.769531 C 484.375 325.816406 485.558594 324.828125 486.722656 323.8125 C 487.882812 322.796875 489.015625 321.746094 490.128906 320.667969 C 491.238281 319.589844 492.320312 318.480469 493.378906 317.34375 C 494.4375 316.207031 495.46875 315.039062 496.46875 313.847656 C 497.472656 312.652344 498.445312 311.433594 499.390625 310.1875 C 500.332031 308.941406 501.25 307.667969 502.132812 306.371094 C 503.015625 305.074219 503.871094 303.753906 504.691406 302.410156 C 505.515625 301.066406 506.304688 299.699219 507.0625 298.3125 C 507.820312 296.925781 508.542969 295.515625 509.234375 294.089844 C 509.929688 292.660156 510.585938 291.214844 511.210938 289.75 C 511.832031 288.28125 512.421875 286.800781 512.976562 285.300781 C 513.53125 283.804688 514.050781 282.289062 514.535156 280.761719 C 515.019531 279.234375 515.46875 277.691406 515.882812 276.136719 C 516.292969 274.582031 516.671875 273.015625 517.011719 271.4375 C 517.351562 269.859375 517.652344 268.273438 517.917969 266.679688 C 518.1875 265.082031 518.414062 263.480469 518.605469 261.867188 C 518.800781 260.257812 518.953125 258.640625 519.070312 257.019531 C 519.1875 255.398438 519.269531 253.773438 519.3125 252.144531 C 519.355469 250.515625 519.359375 248.886719 519.328125 247.253906 C 519.292969 245.621094 519.222656 243.992188 519.117188 242.359375 C 519.011719 240.730469 518.863281 239.101562 518.683594 237.472656 C 518.5 235.847656 518.28125 234.226562 518.023438 232.609375 C 517.769531 230.992188 517.476562 229.378906 517.144531 227.777344 C 516.816406 226.171875 516.449219 224.574219 516.046875 222.984375 C 515.644531 221.398438 515.207031 219.820312 514.730469 218.25 C 514.253906 216.683594 513.746094 215.125 513.199219 213.582031 C 512.65625 212.039062 512.074219 210.507812 511.460938 208.992188 C 510.84375 207.476562 510.195312 205.976562 509.511719 204.488281 C 508.832031 203.003906 508.113281 201.539062 507.367188 200.085938 C 506.617188 198.636719 505.835938 197.207031 505.023438 195.796875 C 504.207031 194.382812 503.363281 192.992188 502.488281 191.625 C 501.613281 190.253906 500.707031 188.90625 499.769531 187.582031 C 498.832031 186.257812 497.867188 184.957031 496.871094 183.683594 C 495.878906 182.40625 494.855469 181.15625 493.804688 179.933594 C 492.753906 178.707031 491.679688 177.511719 490.574219 176.339844 C 489.472656 175.171875 488.34375 174.027344 487.1875 172.914062 C 486.035156 171.804688 484.855469 170.71875 483.652344 169.667969 C 482.453125 168.613281 481.226562 167.59375 479.980469 166.601562 C 478.734375 165.613281 477.464844 164.652344 476.179688 163.726562 C 474.890625 162.800781 473.582031 161.910156 472.253906 161.050781 C 470.925781 160.191406 469.582031 159.367188 468.21875 158.578125 C 466.855469 157.789062 465.476562 157.035156 464.082031 156.316406 C 462.683594 155.597656 461.273438 154.917969 459.851562 154.269531 C 458.425781 153.625 456.988281 153.015625 455.539062 152.445312 C 454.089844 151.875 452.628906 151.339844 451.15625 150.84375 C 449.683594 150.347656 448.203125 149.890625 446.714844 149.472656 C 445.222656 149.054688 443.726562 148.675781 442.222656 148.332031 C 440.714844 147.992188 439.203125 147.691406 437.6875 147.429688 C 436.171875 147.167969 434.652344 146.945312 433.128906 146.761719 C 431.605469 146.578125 430.078125 146.433594 428.550781 146.332031 C 427.023438 146.230469 425.492188 146.167969 423.964844 146.144531 C 422.4375 146.121094 420.910156 146.136719 419.386719 146.195312 C 417.863281 146.25 416.339844 146.347656 414.824219 146.484375 C 413.304688 146.621094 411.792969 146.800781 410.285156 147.015625 C 408.777344 147.234375 407.28125 147.488281 405.785156 147.785156 C 404.292969 148.082031 402.8125 148.414062 401.335938 148.789062 Z M 401.335938 148.789062 " fill-opacity="1" fill-rule="nonzero"/><path fill="#d8ad8f" d="M 554.640625 583.949219 C 547.492188 578.839844 450.453125 545.121094 450.453125 545.121094 C 445.347656 543.078125 441.261719 538.992188 440.238281 532.859375 C 438.195312 523.664062 438.195312 514.46875 437.175781 505.273438 C 462.710938 490.96875 484.160156 469.511719 499.484375 443.96875 C 502.546875 438.859375 503.570312 432.730469 504.589844 426.597656 C 504.589844 416.378906 504.589844 406.164062 504.589844 395.945312 C 510.71875 394.921875 525.019531 391.859375 528.082031 383.683594 C 532.167969 371.421875 538.296875 344.859375 538.296875 343.835938 C 542.382812 329.53125 528.082031 321.355469 516.847656 319.3125 C 515.824219 319.3125 514.804688 320.335938 513.78125 320.335938 C 478.03125 317.269531 441.261719 295.8125 410.617188 278.441406 C 385.082031 264.136719 354.4375 250.855469 336.054688 227.355469 C 313.582031 219.179688 291.109375 213.050781 267.617188 209.984375 C 268.636719 213.050781 269.660156 215.09375 269.660156 218.160156 C 259.445312 217.136719 250.253906 225.3125 249.230469 235.527344 C 249.230469 237.574219 249.230469 239.617188 250.253906 241.660156 C 251.273438 245.746094 257.402344 295.8125 261.488281 312.160156 C 262.507812 314.203125 260.464844 317.269531 258.421875 318.292969 C 258.421875 318.292969 258.421875 318.292969 257.402344 318.292969 C 244.125 320.335938 230.84375 328.507812 234.929688 342.8125 C 234.929688 342.8125 241.058594 369.378906 245.144531 382.664062 C 248.210938 390.835938 263.53125 394.921875 270.679688 394.921875 C 270.679688 403.097656 270.679688 412.292969 270.679688 420.46875 C 270.679688 430.683594 273.746094 440.902344 278.851562 449.078125 C 294.175781 471.554688 313.582031 489.945312 337.074219 503.230469 C 337.074219 513.449219 335.03125 531.839844 335.03125 531.839844 C 335.03125 531.839844 330.945312 542.058594 324.816406 544.101562 L 245.144531 572.710938 C 236.972656 574.753906 229.824219 577.816406 222.671875 581.90625 C 187.945312 604.382812 185.902344 690.210938 185.902344 693.277344 L 587.328125 652.40625 C 588.347656 625.839844 576.089844 600.296875 554.640625 583.949219 Z M 554.640625 583.949219 " fill-opacity="1" fill-rule="nonzero"/><path fill="#b5374c" d="M 274.765625 222.246094 C 272.722656 222.246094 267.617188 224.289062 265.574219 224.289062 C 250.253906 227.355469 251.273438 237.574219 251.273438 237.574219 L 265.574219 316.25 C 265.574219 309.097656 267.617188 248.8125 291.109375 231.441406 C 286.003906 229.398438 280.894531 226.332031 274.765625 222.246094 Z M 274.765625 222.246094 " fill-opacity="1" fill-rule="nonzero"/><path fill="#772d3d" d="M 365.675781 299.898438 C 340.140625 300.921875 315.625 307.050781 292.132812 317.269531 C 291.109375 317.269531 290.089844 318.292969 291.109375 319.3125 C 291.109375 320.335938 292.132812 321.355469 294.175781 320.335938 C 294.175781 320.335938 346.265625 312.160156 362.609375 312.160156 L 363.632812 312.160156 C 364.652344 312.160156 364.652344 311.140625 365.675781 311.140625 L 369.761719 302.964844 C 369.761719 301.945312 369.761719 301.945312 369.761719 300.921875 C 366.695312 299.898438 366.695312 299.898438 365.675781 299.898438 Z M 408.574219 310.117188 C 433.089844 303.988281 458.625 302.964844 484.160156 306.03125 C 485.183594 306.03125 486.203125 307.050781 486.203125 308.074219 C 486.203125 309.097656 485.183594 310.117188 484.160156 310.117188 C 484.160156 310.117188 432.066406 316.25 415.726562 321.355469 L 414.703125 321.355469 C 413.683594 321.355469 412.660156 321.355469 412.660156 320.335938 L 406.53125 313.183594 C 406.53125 312.160156 406.53125 312.160156 406.53125 311.140625 C 407.554688 311.140625 407.554688 310.117188 408.574219 310.117188 Z M 408.574219 310.117188 " fill-opacity="1" fill-rule="nonzero"/><path fill="#472b29" d="M 331.96875 333.617188 C 326.859375 333.617188 321.753906 336.683594 319.710938 341.792969 C 320.730469 341.792969 320.730469 341.792969 321.753906 341.792969 C 326.859375 341.792969 329.925781 345.878906 329.925781 349.964844 C 329.925781 355.074219 325.839844 358.140625 321.753906 358.140625 C 320.730469 358.140625 318.6875 358.140625 317.667969 357.117188 C 318.6875 364.269531 324.816406 369.378906 331.96875 370.402344 C 342.179688 368.359375 348.308594 358.140625 346.265625 347.921875 C 344.222656 340.769531 339.117188 335.660156 331.96875 333.617188 Z M 443.304688 333.617188 C 439.21875 333.617188 435.132812 335.660156 432.066406 339.75 C 433.089844 339.75 434.109375 339.75 435.132812 339.75 C 440.238281 339.75 443.304688 343.835938 443.304688 347.921875 C 443.304688 353.03125 439.21875 356.097656 435.132812 356.097656 C 432.066406 356.097656 430.023438 355.074219 429.003906 353.03125 C 431.046875 361.207031 439.21875 365.292969 447.390625 363.25 C 455.5625 361.207031 459.648438 353.03125 457.605469 344.859375 C 455.5625 337.707031 450.453125 333.617188 443.304688 333.617188 Z M 443.304688 333.617188 " fill-opacity="1" fill-rule="nonzero"/><path fill="#472b29" d="M 389.167969 435.792969 C 394.273438 435.792969 399.382812 432.730469 402.445312 427.621094 C 403.46875 426.597656 403.46875 425.578125 402.445312 424.554688 C 402.445312 423.53125 401.425781 423.53125 401.425781 423.53125 C 399.382812 426.597656 395.296875 428.640625 391.210938 428.640625 C 387.125 428.640625 383.039062 426.597656 380.996094 423.53125 C 379.976562 422.511719 378.953125 422.511719 377.933594 423.53125 C 376.910156 424.554688 376.910156 425.578125 377.933594 426.597656 C 379.976562 431.707031 384.058594 434.773438 389.167969 435.792969 Z M 389.167969 435.792969 " fill-opacity="0.41" fill-rule="nonzero"/><path fill="#b2876b" d="M 553.621094 584.972656 C 552.597656 584.972656 551.578125 583.949219 550.554688 583.949219 L 544.425781 581.90625 C 532.167969 576.796875 450.453125 548.1875 450.453125 548.1875 C 445.347656 547.164062 440.238281 543.078125 438.195312 536.949219 C 436.152344 525.707031 435.132812 514.46875 436.152344 503.230469 C 422.875 511.402344 408.574219 517.535156 393.253906 521.621094 C 373.847656 523.664062 341.160156 505.273438 341.160156 505.273438 C 341.160156 505.273438 339.117188 529.796875 338.097656 536.949219 C 336.054688 543.078125 330.945312 547.164062 324.816406 548.1875 L 246.167969 574.753906 C 218.585938 580.882812 196.117188 603.363281 191.007812 631.972656 L 189.988281 631.972656 C 189.988281 632.992188 189.988281 635.035156 188.964844 638.101562 C 187.945312 645.253906 187.945312 691.234375 187.945312 692.253906 C 187.945312 697.363281 186.921875 702.472656 186.921875 707.582031 C 194.074219 715.757812 203.265625 722.90625 211.4375 729.039062 C 327.882812 798.519531 472.925781 801.582031 592.433594 736.191406 C 589.371094 654.449219 592.433594 597.230469 553.621094 584.972656 Z M 553.621094 584.972656 " fill-opacity="1" fill-rule="nonzero"/><path fill="#472b29" d="M 390.1875 523.664062 C 369.761719 523.664062 337.074219 505.273438 336.054688 504.25 C 335.03125 503.230469 334.011719 502.207031 335.03125 501.1875 C 336.054688 500.164062 337.074219 499.144531 338.097656 500.164062 C 338.097656 500.164062 373.847656 520.601562 392.230469 518.554688 C 408.574219 515.492188 423.898438 509.359375 437.175781 500.164062 C 438.195312 499.144531 440.238281 500.164062 440.238281 501.1875 C 441.261719 502.207031 440.238281 504.25 439.21875 504.25 C 424.917969 513.449219 408.574219 519.578125 392.230469 523.664062 C 392.230469 523.664062 391.210938 523.664062 390.1875 523.664062 Z M 390.1875 523.664062 " fill-opacity="1" fill-rule="nonzero"/><g mask="url(#9839980f87)"><g transform="matrix(1, 0, 0, 1, 289, 392)"><g clip-path="url(#93d0d6dacf)"><g clip-path="url(#3f225aece7)"><path fill="#f4989e" d="M 26.625 0.878906 C 25.957031 0.878906 25.289062 0.914062 24.621094 0.980469 C 23.957031 1.042969 23.296875 1.140625 22.640625 1.273438 C 21.984375 1.402344 21.335938 1.566406 20.695312 1.761719 C 20.054688 1.953125 19.425781 2.179688 18.804688 2.4375 C 18.1875 2.691406 17.585938 2.976562 16.992188 3.292969 C 16.402344 3.609375 15.832031 3.953125 15.273438 4.324219 C 14.71875 4.695312 14.179688 5.09375 13.664062 5.519531 C 13.148438 5.941406 12.652344 6.390625 12.179688 6.867188 C 11.707031 7.339844 11.257812 7.835938 10.832031 8.351562 C 10.40625 8.867188 10.011719 9.40625 9.636719 9.960938 C 9.265625 10.519531 8.921875 11.09375 8.609375 11.683594 C 8.292969 12.273438 8.007812 12.875 7.75 13.496094 C 7.496094 14.113281 7.269531 14.742188 7.074219 15.382812 C 6.878906 16.023438 6.71875 16.671875 6.589844 17.328125 C 6.457031 17.984375 6.359375 18.644531 6.292969 19.3125 C 6.226562 19.976562 6.195312 20.644531 6.195312 21.316406 C 6.195312 21.984375 6.226562 22.652344 6.292969 23.316406 C 6.359375 23.984375 6.457031 24.644531 6.589844 25.300781 C 6.71875 25.957031 6.878906 26.605469 7.074219 27.246094 C 7.269531 27.886719 7.496094 28.515625 7.75 29.136719 C 8.007812 29.753906 8.292969 30.359375 8.609375 30.949219 C 8.921875 31.539062 9.265625 32.113281 9.636719 32.667969 C 10.011719 33.226562 10.40625 33.761719 10.832031 34.277344 C 11.257812 34.796875 11.707031 35.292969 12.179688 35.765625 C 12.652344 36.238281 13.148438 36.6875 13.664062 37.113281 C 14.179688 37.535156 14.71875 37.933594 15.273438 38.304688 C 15.832031 38.679688 16.402344 39.023438 16.992188 39.335938 C 17.585938 39.652344 18.1875 39.9375 18.804688 40.195312 C 19.425781 40.449219 20.054688 40.675781 20.695312 40.871094 C 21.335938 41.066406 21.984375 41.226562 22.640625 41.359375 C 23.296875 41.488281 23.957031 41.585938 24.621094 41.652344 C 25.289062 41.71875 25.957031 41.75 26.625 41.75 C 27.292969 41.75 27.960938 41.71875 28.625 41.652344 C 29.292969 41.585938 29.953125 41.488281 30.609375 41.359375 C 31.265625 41.226562 31.914062 41.066406 32.554688 40.871094 C 33.195312 40.675781 33.824219 40.449219 34.441406 40.195312 C 35.058594 39.9375 35.664062 39.652344 36.253906 39.335938 C 36.84375 39.023438 37.417969 38.679688 37.972656 38.304688 C 38.53125 37.933594 39.066406 37.535156 39.585938 37.113281 C 40.101562 36.6875 40.597656 36.238281 41.070312 35.765625 C 41.542969 35.292969 41.992188 34.796875 42.414062 34.277344 C 42.839844 33.761719 43.238281 33.226562 43.609375 32.667969 C 43.980469 32.113281 44.324219 31.539062 44.640625 30.949219 C 44.957031 30.359375 45.242188 29.753906 45.496094 29.136719 C 45.753906 28.515625 45.980469 27.886719 46.171875 27.246094 C 46.367188 26.605469 46.53125 25.957031 46.660156 25.300781 C 46.789062 24.644531 46.890625 23.984375 46.953125 23.316406 C 47.019531 22.652344 47.054688 21.984375 47.054688 21.316406 C 47.054688 20.644531 47.019531 19.976562 46.953125 19.3125 C 46.890625 18.644531 46.789062 17.984375 46.660156 17.328125 C 46.53125 16.671875 46.367188 16.023438 46.171875 15.382812 C 45.980469 14.742188 45.753906 14.113281 45.496094 13.496094 C 45.242188 12.875 44.957031 12.273438 44.640625 11.683594 C 44.324219 11.09375 43.980469 10.519531 43.609375 9.960938 C 43.238281 9.40625 42.839844 8.867188 42.414062 8.351562 C 41.992188 7.835938 41.542969 7.339844 41.070312 6.867188 C 40.597656 6.390625 40.101562 5.941406 39.582031 5.519531 C 39.066406 5.09375 38.53125 4.695312 37.972656 4.324219 C 37.417969 3.953125 36.84375 3.609375 36.253906 3.292969 C 35.664062 2.976562 35.058594 2.691406 34.441406 2.4375 C 33.824219 2.179688 33.195312 1.953125 32.554688 1.761719 C 31.914062 1.566406 31.265625 1.402344 30.609375 1.273438 C 29.953125 1.140625 29.292969 1.042969 28.625 0.980469 C 27.960938 0.914062 27.292969 0.878906 26.625 0.878906 Z M 179.839844 0.878906 C 179.171875 0.878906 178.503906 0.914062 177.835938 0.980469 C 177.171875 1.042969 176.511719 1.140625 175.855469 1.273438 C 175.199219 1.402344 174.550781 1.566406 173.910156 1.761719 C 173.269531 1.953125 172.640625 2.179688 172.023438 2.4375 C 171.402344 2.691406 170.800781 2.976562 170.210938 3.292969 C 169.621094 3.609375 169.046875 3.953125 168.488281 4.324219 C 167.933594 4.695312 167.398438 5.09375 166.878906 5.519531 C 166.363281 5.941406 165.867188 6.390625 165.394531 6.867188 C 164.921875 7.339844 164.472656 7.835938 164.046875 8.351562 C 163.625 8.867188 163.226562 9.40625 162.855469 9.960938 C 162.480469 10.519531 162.136719 11.09375 161.824219 11.683594 C 161.507812 12.273438 161.222656 12.875 160.964844 13.496094 C 160.710938 14.113281 160.484375 14.742188 160.289062 15.382812 C 160.097656 16.023438 159.933594 16.671875 159.804688 17.328125 C 159.671875 17.984375 159.574219 18.644531 159.507812 19.3125 C 159.445312 19.976562 159.410156 20.644531 159.410156 21.316406 C 159.410156 21.984375 159.445312 22.652344 159.507812 23.316406 C 159.574219 23.984375 159.671875 24.644531 159.804688 25.300781 C 159.933594 25.957031 160.097656 26.605469 160.289062 27.246094 C 160.484375 27.886719 160.710938 28.515625 160.964844 29.136719 C 161.222656 29.753906 161.507812 30.359375 161.824219 30.949219 C 162.136719 31.539062 162.480469 32.113281 162.855469 32.667969 C 163.226562 33.226562 163.625 33.761719 164.046875 34.277344 C 164.472656 34.796875 164.921875 35.292969 165.394531 35.765625 C 165.867188 36.238281 166.363281 36.6875 166.878906 37.113281 C 167.398438 37.535156 167.933594 37.933594 168.488281 38.304688 C 169.046875 38.679688 169.621094 39.023438 170.210938 39.335938 C 170.800781 39.652344 171.402344 39.9375 172.023438 40.195312 C 172.640625 40.449219 173.269531 40.675781 173.910156 40.871094 C 174.550781 41.066406 175.199219 41.226562 175.855469 41.359375 C 176.511719 41.488281 177.171875 41.585938 177.835938 41.652344 C 178.503906 41.71875 179.171875 41.75 179.839844 41.75 C 180.507812 41.75 181.175781 41.71875 181.84375 41.652344 C 182.507812 41.585938 183.167969 41.488281 183.824219 41.359375 C 184.480469 41.226562 185.128906 41.066406 185.769531 40.871094 C 186.410156 40.675781 187.039062 40.449219 187.65625 40.195312 C 188.277344 39.9375 188.878906 39.652344 189.46875 39.335938 C 190.058594 39.023438 190.632812 38.679688 191.1875 38.304688 C 191.746094 37.933594 192.28125 37.535156 192.800781 37.113281 C 193.316406 36.6875 193.8125 36.238281 194.285156 35.765625 C 194.757812 35.292969 195.207031 34.796875 195.632812 34.277344 C 196.054688 33.761719 196.453125 33.226562 196.824219 32.667969 C 197.199219 32.113281 197.539062 31.539062 197.855469 30.949219 C 198.171875 30.359375 198.457031 29.753906 198.714844 29.136719 C 198.96875 28.515625 199.195312 27.886719 199.390625 27.246094 C 199.582031 26.605469 199.746094 25.957031 199.875 25.300781 C 200.007812 24.644531 200.105469 23.984375 200.171875 23.316406 C 200.234375 22.652344 200.269531 21.984375 200.269531 21.316406 C 200.269531 20.644531 200.234375 19.976562 200.171875 19.3125 C 200.105469 18.644531 200.007812 17.984375 199.875 17.328125 C 199.746094 16.671875 199.582031 16.023438 199.390625 15.382812 C 199.195312 14.742188 198.96875 14.113281 198.714844 13.496094 C 198.457031 12.875 198.171875 12.273438 197.855469 11.683594 C 197.539062 11.09375 197.199219 10.519531 196.824219 9.960938 C 196.453125 9.40625 196.054688 8.867188 195.632812 8.351562 C 195.207031 7.835938 194.757812 7.339844 194.285156 6.867188 C 193.8125 6.390625 193.316406 5.941406 192.800781 5.519531 C 192.28125 5.09375 191.746094 4.695312 191.1875 4.324219 C 190.632812 3.953125 190.058594 3.609375 189.46875 3.292969 C 188.878906 2.976562 188.277344 2.691406 187.65625 2.4375 C 187.039062 2.179688 186.410156 1.953125 185.769531 1.761719 C 185.128906 1.566406 184.480469 1.402344 183.824219 1.273438 C 183.167969 1.140625 182.507812 1.042969 181.84375 0.980469 C 181.175781 0.914062 180.507812 0.878906 179.839844 0.878906 Z M 179.839844 0.878906 " fill-opacity="0.8" fill-rule="nonzero"/></g></g></g></g><path fill="#472b29" d="M 503.570312 399.011719 C 501.527344 399.011719 500.503906 396.96875 500.503906 395.945312 L 505.613281 320.335938 C 505.613281 318.292969 506.632812 317.269531 508.675781 317.269531 C 510.71875 317.269531 511.738281 319.3125 511.738281 320.335938 L 506.632812 395.945312 C 506.632812 396.96875 505.613281 399.011719 503.570312 399.011719 Z M 503.570312 399.011719 " fill-opacity="1" fill-rule="nonzero"/><path fill="#6d1b18" d="M 354.4375 459.292969 C 354.4375 461.339844 353.417969 462.359375 353.417969 464.402344 C 353.417969 478.707031 368.738281 489.945312 388.144531 489.945312 C 407.554688 489.945312 422.875 478.707031 422.875 464.402344 C 422.875 462.359375 422.875 461.339844 421.855469 459.292969 Z M 354.4375 459.292969 " fill-opacity="1" fill-rule="nonzero"/><path fill="#ee3e54" d="M 407.554688 486.882812 C 396.316406 478.707031 380.996094 478.707031 370.78125 486.882812 C 376.910156 489.945312 383.039062 490.96875 389.167969 490.96875 C 395.296875 489.945312 401.425781 488.925781 407.554688 486.882812 Z M 407.554688 486.882812 " fill-opacity="1" fill-rule="nonzero"/><path fill="#fdfcef" d="M 364.652344 459.292969 L 364.652344 464.402344 C 364.652344 468.492188 369.761719 471.554688 375.890625 471.554688 L 402.445312 471.554688 C 408.574219 471.554688 413.683594 468.492188 413.683594 464.402344 L 413.683594 460.316406 Z M 364.652344 459.292969 " fill-opacity="1" fill-rule="nonzero"/><path fill="#472b29" d="M 389.167969 491.992188 C 368.738281 491.992188 352.394531 479.730469 352.394531 464.402344 C 352.394531 462.359375 352.394531 461.339844 353.417969 459.292969 C 353.417969 458.273438 354.4375 458.273438 355.460938 458.273438 L 423.898438 458.273438 C 424.917969 458.273438 425.941406 459.292969 425.941406 459.292969 C 425.941406 461.339844 426.960938 462.359375 426.960938 464.402344 C 425.9375 479.730469 409.597656 491.992188 389.167969 491.992188 Z M 356.480469 462.359375 C 356.480469 463.382812 356.480469 464.402344 356.480469 465.425781 C 356.480469 478.707031 370.78125 488.925781 389.167969 488.925781 C 407.554688 488.925781 421.855469 478.707031 421.855469 465.425781 C 421.855469 464.402344 421.855469 463.382812 421.855469 462.359375 Z M 356.480469 462.359375 " fill-opacity="1" fill-rule="nonzero"/><path fill="#ee3e54" d="M 279.875 246.769531 C 279.875 246.769531 445.347656 379.597656 559.746094 344.859375 C 610.820312 328.507812 594.476562 284.574219 594.476562 284.574219 C 594.476562 284.574219 569.960938 322.378906 541.363281 302.964844 C 512.761719 283.550781 459.648438 53.65625 304.386719 146.636719 C 252.296875 178.3125 279.875 246.769531 279.875 246.769531 Z M 279.875 246.769531 " fill-opacity="1" fill-rule="nonzero"/><path fill="#e02b4a" d="M 595.5 285.59375 C 595.5 285.59375 570.984375 323.402344 542.382812 303.988281 C 513.78125 284.574219 460.667969 54.679688 305.410156 147.65625 C 303.367188 148.679688 300.300781 150.722656 298.261719 152.765625 C 445.347656 142.550781 495.398438 367.335938 559.746094 345.878906 C 611.839844 329.53125 595.5 285.59375 595.5 285.59375 Z M 595.5 285.59375 " fill-opacity="1" fill-rule="nonzero"/><path fill="#472b29" d="M 514.804688 384.707031 C 510.71875 384.707031 507.65625 381.640625 507.65625 377.554688 C 507.65625 373.464844 510.71875 370.402344 514.804688 370.402344 C 518.890625 370.402344 521.953125 373.464844 521.953125 377.554688 C 521.953125 381.640625 518.890625 384.707031 514.804688 384.707031 Z M 514.804688 373.464844 C 512.761719 373.464844 510.71875 375.511719 510.71875 377.554688 C 510.71875 379.597656 512.761719 381.640625 514.804688 381.640625 C 516.847656 381.640625 518.890625 379.597656 518.890625 377.554688 C 518.890625 375.511719 517.867188 373.464844 514.804688 373.464844 Z M 514.804688 373.464844 " fill-opacity="1" fill-rule="nonzero"/><path fill="#f1bc19" d="M 299.28125 557.382812 C 314.601562 570.667969 432.066406 576.796875 463.734375 550.230469 L 513.78125 567.601562 L 529.105469 764.800781 C 529.105469 764.800781 399.382812 818.953125 240.039062 745.386719 L 247.1875 574.753906 Z M 299.28125 557.382812 " fill-opacity="1" fill-rule="nonzero"/><path fill="#472b29" d="M 518.890625 353.03125 C 410.617188 353.03125 287.023438 253.921875 280.894531 248.8125 C 280.894531 248.8125 279.875 247.789062 279.875 247.789062 C 279.875 246.769531 251.273438 177.289062 306.429688 143.570312 C 307.453125 142.550781 309.496094 143.570312 310.515625 144.59375 C 311.539062 145.613281 310.515625 147.65625 309.496094 148.679688 C 261.488281 177.289062 282.9375 237.574219 284.980469 244.726562 C 296.21875 253.921875 451.476562 374.488281 559.746094 341.792969 C 575.070312 336.683594 585.285156 329.53125 590.390625 318.292969 C 598.5625 301.945312 592.433594 285.59375 592.433594 285.59375 C 591.414062 283.550781 592.433594 282.53125 594.476562 281.507812 C 596.519531 280.488281 597.539062 281.507812 598.5625 283.550781 C 598.5625 284.574219 605.710938 302.964844 596.519531 321.355469 C 590.390625 333.617188 579.15625 342.8125 561.789062 347.921875 C 547.492188 350.988281 533.191406 353.03125 518.890625 353.03125 Z M 518.890625 353.03125 " fill-opacity="1" fill-rule="nonzero"/><path fill="#8e7469" d="M 357.503906 385.726562 C 357.230469 385.726562 356.972656 385.78125 356.722656 385.882812 C 356.472656 385.988281 356.25 386.132812 356.058594 386.328125 C 355.867188 386.519531 355.71875 386.738281 355.617188 386.988281 C 355.511719 387.238281 355.460938 387.5 355.460938 387.769531 C 355.460938 388.042969 355.511719 388.304688 355.617188 388.554688 C 355.71875 388.804688 355.867188 389.023438 356.058594 389.214844 C 356.25 389.40625 356.472656 389.554688 356.722656 389.660156 C 356.972656 389.761719 357.230469 389.816406 357.503906 389.816406 C 357.773438 389.816406 358.035156 389.761719 358.285156 389.660156 C 358.535156 389.554688 358.757812 389.40625 358.949219 389.214844 C 359.140625 389.023438 359.285156 388.804688 359.390625 388.554688 C 359.492188 388.304688 359.546875 388.042969 359.546875 387.769531 C 359.546875 387.5 359.492188 387.238281 359.390625 386.988281 C 359.285156 386.738281 359.140625 386.519531 358.949219 386.328125 C 358.757812 386.132812 358.535156 385.988281 358.285156 385.882812 C 358.035156 385.78125 357.773438 385.726562 357.503906 385.726562 Z M 360.566406 403.097656 C 360.296875 403.097656 360.035156 403.148438 359.785156 403.253906 C 359.535156 403.355469 359.3125 403.503906 359.121094 403.695312 C 358.929688 403.886719 358.785156 404.109375 358.679688 404.359375 C 358.578125 404.609375 358.523438 404.871094 358.523438 405.140625 C 358.523438 405.414062 358.578125 405.671875 358.679688 405.921875 C 358.785156 406.171875 358.929688 406.394531 359.121094 406.585938 C 359.3125 406.777344 359.535156 406.925781 359.785156 407.027344 C 360.035156 407.132812 360.296875 407.183594 360.566406 407.183594 C 360.839844 407.183594 361.097656 407.132812 361.347656 407.027344 C 361.597656 406.925781 361.820312 406.777344 362.011719 406.585938 C 362.203125 406.394531 362.351562 406.171875 362.453125 405.921875 C 362.558594 405.671875 362.609375 405.414062 362.609375 405.140625 C 362.609375 404.871094 362.558594 404.609375 362.453125 404.359375 C 362.351562 404.109375 362.203125 403.886719 362.011719 403.695312 C 361.820312 403.503906 361.597656 403.355469 361.347656 403.253906 C 361.097656 403.148438 360.839844 403.097656 360.566406 403.097656 Z M 375.890625 392.878906 C 375.617188 392.878906 375.359375 392.933594 375.105469 393.035156 C 374.855469 393.140625 374.636719 393.285156 374.445312 393.480469 C 374.253906 393.671875 374.105469 393.890625 374 394.140625 C 373.898438 394.390625 373.847656 394.652344 373.847656 394.921875 C 373.847656 395.195312 373.898438 395.457031 374 395.707031 C 374.105469 395.957031 374.253906 396.175781 374.445312 396.367188 C 374.636719 396.558594 374.855469 396.707031 375.105469 396.8125 C 375.359375 396.914062 375.617188 396.96875 375.890625 396.96875 C 376.160156 396.96875 376.421875 396.914062 376.671875 396.8125 C 376.921875 396.707031 377.140625 396.558594 377.332031 396.367188 C 377.523438 396.175781 377.671875 395.957031 377.777344 395.707031 C 377.878906 395.457031 377.933594 395.195312 377.933594 394.921875 C 377.933594 394.652344 377.878906 394.390625 377.777344 394.140625 C 377.671875 393.890625 377.523438 393.671875 377.332031 393.480469 C 377.140625 393.285156 376.921875 393.140625 376.671875 393.035156 C 376.421875 392.933594 376.160156 392.878906 375.890625 392.878906 Z M 407.554688 390.835938 C 407.28125 390.835938 407.023438 390.886719 406.773438 390.992188 C 406.519531 391.097656 406.300781 391.242188 406.109375 391.433594 C 405.917969 391.625 405.769531 391.847656 405.667969 392.097656 C 405.5625 392.347656 405.511719 392.609375 405.511719 392.878906 C 405.511719 393.152344 405.5625 393.410156 405.667969 393.664062 C 405.769531 393.914062 405.917969 394.132812 406.109375 394.324219 C 406.300781 394.515625 406.519531 394.664062 406.773438 394.769531 C 407.023438 394.871094 407.28125 394.921875 407.554688 394.921875 C 407.824219 394.921875 408.085938 394.871094 408.335938 394.769531 C 408.585938 394.664062 408.804688 394.515625 409 394.324219 C 409.191406 394.132812 409.335938 393.914062 409.441406 393.664062 C 409.542969 393.410156 409.597656 393.152344 409.597656 392.878906 C 409.597656 392.609375 409.542969 392.347656 409.441406 392.097656 C 409.335938 391.847656 409.191406 391.625 409 391.433594 C 408.804688 391.242188 408.585938 391.097656 408.335938 390.992188 C 408.085938 390.886719 407.824219 390.835938 407.554688 390.835938 Z M 417.769531 405.140625 C 417.496094 405.140625 417.238281 405.191406 416.984375 405.296875 C 416.734375 405.402344 416.515625 405.546875 416.324219 405.738281 C 416.132812 405.929688 415.984375 406.152344 415.878906 406.402344 C 415.777344 406.652344 415.726562 406.914062 415.726562 407.183594 C 415.726562 407.457031 415.777344 407.714844 415.878906 407.964844 C 415.984375 408.21875 416.132812 408.4375 416.324219 408.628906 C 416.515625 408.820312 416.734375 408.96875 416.984375 409.074219 C 417.238281 409.175781 417.496094 409.226562 417.769531 409.226562 C 418.039062 409.226562 418.300781 409.175781 418.550781 409.074219 C 418.800781 408.96875 419.019531 408.820312 419.210938 408.628906 C 419.402344 408.4375 419.550781 408.21875 419.65625 407.964844 C 419.757812 407.714844 419.8125 407.457031 419.8125 407.183594 C 419.8125 406.914062 419.757812 406.652344 419.65625 406.402344 C 419.550781 406.152344 419.402344 405.929688 419.210938 405.738281 C 419.019531 405.546875 418.800781 405.402344 418.550781 405.296875 C 418.300781 405.191406 418.039062 405.140625 417.769531 405.140625 Z M 426.960938 389.816406 C 426.691406 389.816406 426.429688 389.867188 426.179688 389.96875 C 425.929688 390.074219 425.707031 390.222656 425.515625 390.414062 C 425.324219 390.605469 425.175781 390.824219 425.074219 391.078125 C 424.96875 391.328125 424.917969 391.585938 424.917969 391.859375 C 424.917969 392.128906 424.96875 392.390625 425.074219 392.640625 C 425.175781 392.890625 425.324219 393.113281 425.515625 393.304688 C 425.707031 393.496094 425.929688 393.640625 426.179688 393.746094 C 426.429688 393.851562 426.691406 393.902344 426.960938 393.902344 C 427.230469 393.902344 427.492188 393.851562 427.742188 393.746094 C 427.992188 393.640625 428.214844 393.496094 428.40625 393.304688 C 428.597656 393.113281 428.746094 392.890625 428.847656 392.640625 C 428.953125 392.390625 429.003906 392.128906 429.003906 391.859375 C 429.003906 391.585938 428.953125 391.328125 428.847656 391.078125 C 428.746094 390.824219 428.597656 390.605469 428.40625 390.414062 C 428.214844 390.222656 427.992188 390.074219 427.742188 389.96875 C 427.492188 389.867188 427.230469 389.816406 426.960938 389.816406 Z M 426.960938 389.816406 " fill-opacity="0.8" fill-rule="nonzero"/><path fill="#472b29" d="M 408.574219 789.324219 C 389.167969 788.300781 370.78125 787.277344 354.4375 785.234375 C 304.386719 778.082031 195.09375 736.191406 181.816406 709.625 C 181.816406 708.605469 180.792969 707.582031 180.792969 706.558594 L 180.792969 704.515625 C 181.816406 665.691406 188.964844 597.230469 219.609375 577.820312 C 226.757812 572.710938 234.929688 569.644531 243.101562 567.601562 L 322.773438 540.011719 C 324.816406 538.992188 327.882812 534.90625 329.925781 530.816406 C 329.925781 527.753906 331.96875 515.492188 331.96875 506.296875 C 310.515625 494.035156 290.089844 475.640625 275.789062 454.1875 C 269.660156 444.988281 265.574219 433.75 265.574219 422.511719 L 265.574219 402.074219 C 256.378906 401.054688 243.101562 396.96875 241.058594 386.75 C 236.972656 373.464844 230.84375 347.921875 230.84375 346.902344 C 228.800781 340.769531 229.824219 333.617188 233.910156 328.507812 C 239.015625 321.355469 248.210938 317.269531 257.402344 316.25 C 255.359375 307.050781 252.296875 289.683594 247.1875 250.855469 L 246.167969 244.726562 C 246.167969 242.679688 245.144531 240.636719 245.144531 238.59375 C 245.144531 232.464844 248.210938 226.332031 253.316406 221.226562 C 257.402344 217.136719 262.507812 215.09375 268.636719 215.09375 C 268.636719 198.746094 272.722656 162.984375 304.386719 144.59375 C 353.417969 114.960938 398.359375 113.941406 437.175781 141.527344 C 479.054688 148.679688 512.761719 179.332031 522.976562 221.226562 C 527.0625 235.53125 527.0625 249.832031 525.019531 265.160156 C 532.167969 279.464844 541.363281 296.835938 546.46875 299.898438 C 552.597656 303.988281 558.726562 305.007812 564.855469 303.988281 C 580.175781 300.921875 592.433594 282.53125 592.433594 282.53125 C 593.457031 280.488281 595.5 279.464844 597.539062 280.488281 C 599.582031 280.488281 600.605469 281.507812 601.625 283.550781 C 601.625 284.574219 608.777344 302.964844 599.582031 322.378906 C 593.457031 334.640625 582.21875 343.835938 564.855469 349.964844 L 562.8125 350.988281 C 561.789062 350.988281 561.789062 350.988281 560.769531 350.988281 C 554.640625 353.03125 547.492188 354.054688 540.339844 355.074219 C 538.296875 364.269531 535.234375 378.574219 532.167969 384.707031 C 529.105469 393.902344 515.824219 397.988281 509.699219 399.011719 L 509.699219 424.554688 C 509.699219 431.707031 507.65625 438.859375 504.589844 443.96875 C 489.269531 469.511719 468.839844 490.96875 443.304688 505.273438 C 444.324219 513.449219 445.347656 521.621094 447.390625 528.773438 C 448.410156 532.859375 450.453125 535.925781 454.539062 536.949219 L 467.820312 542.058594 C 545.449219 571.6875 559.746094 577.820312 563.832031 579.863281 C 581.199219 588.035156 590.390625 605.40625 594.476562 635.035156 C 594.476562 636.058594 594.476562 637.082031 594.476562 638.101562 L 594.476562 641.167969 C 596.519531 659.558594 597.542969 682.039062 597.542969 707.582031 C 597.542969 715.757812 597.542969 723.929688 598.5625 733.125 C 598.5625 735.167969 597.542969 737.214844 595.5 738.234375 C 538.296875 772.972656 473.945312 789.324219 408.574219 789.324219 Z M 192.03125 706.558594 C 205.308594 726.996094 302.34375 767.867188 356.480469 776.039062 C 372.824219 778.082031 391.210938 779.105469 409.597656 780.125 C 471.902344 780.125 533.191406 764.800781 588.347656 735.167969 C 588.347656 728.015625 588.347656 719.84375 587.328125 712.691406 C 586.304688 687.148438 586.304688 665.691406 584.261719 646.277344 L 584.261719 642.1875 C 584.261719 641.167969 584.261719 641.167969 584.261719 640.144531 C 580.175781 613.578125 573.027344 599.277344 558.726562 593.144531 C 558.726562 593.144531 557.703125 593.144531 557.703125 592.125 C 554.640625 591.101562 499.484375 569.644531 463.734375 555.339844 L 450.453125 550.230469 C 443.304688 548.1875 438.195312 541.035156 437.175781 533.882812 C 434.109375 524.6875 433.089844 515.492188 432.066406 505.273438 C 432.066406 503.230469 433.089844 501.1875 435.132812 500.164062 C 460.667969 485.859375 481.097656 465.425781 495.398438 440.902344 C 497.441406 436.816406 499.484375 430.683594 499.484375 425.578125 L 499.484375 395.945312 C 499.484375 392.878906 501.527344 390.835938 503.570312 390.835938 C 511.742188 389.816406 520.933594 385.726562 522.976562 381.640625 C 525.019531 375.511719 529.105469 361.207031 531.148438 352.007812 L 532.167969 348.945312 C 532.167969 346.902344 534.210938 344.859375 536.253906 344.859375 C 543.40625 343.835938 551.578125 342.8125 558.726562 340.769531 C 558.726562 340.769531 559.746094 340.769531 559.746094 340.769531 L 560.769531 340.769531 C 575.070312 335.660156 584.261719 328.507812 589.371094 318.292969 C 592.433594 311.140625 593.457031 302.964844 592.433594 297.855469 C 586.304688 303.988281 577.113281 312.160156 564.855469 315.226562 C 555.660156 317.269531 547.492188 315.226562 539.320312 309.097656 C 532.167969 303.988281 523.996094 289.683594 513.78125 268.226562 C 513.78125 267.203125 512.761719 266.183594 513.78125 265.160156 C 515.824219 250.855469 515.824219 237.574219 511.742188 224.289062 C 502.546875 186.484375 471.902344 157.875 433.089844 151.746094 C 432.066406 151.746094 431.046875 151.746094 431.046875 150.722656 C 394.273438 124.15625 354.4375 125.179688 308.472656 152.765625 C 278.851562 170.136719 277.832031 207.941406 277.832031 218.160156 C 277.832031 219.179688 277.832031 221.226562 276.808594 222.246094 C 275.789062 223.269531 274.765625 223.269531 273.746094 224.289062 C 272.722656 225.3125 271.703125 225.3125 270.679688 225.3125 C 266.59375 225.3125 263.53125 226.332031 260.464844 229.398438 C 257.402344 232.464844 256.382812 235.527344 256.382812 239.617188 C 256.382812 240.636719 256.382812 242.679688 256.382812 243.703125 L 257.402344 249.832031 C 263.53125 298.878906 266.59375 314.203125 268.636719 317.269531 C 269.660156 318.292969 270.679688 320.335938 269.660156 322.378906 C 268.636719 324.421875 266.59375 326.464844 264.550781 326.464844 C 255.359375 326.464844 246.167969 329.53125 242.082031 334.640625 C 240.039062 337.707031 240.039062 340.769531 241.058594 343.835938 C 241.058594 344.859375 247.1875 371.421875 251.273438 383.683594 C 253.316406 388.792969 264.550781 391.859375 271.703125 392.878906 C 274.765625 392.878906 276.808594 394.921875 276.808594 397.988281 L 276.808594 423.53125 C 276.808594 432.730469 279.875 441.925781 284.980469 449.078125 C 299.28125 470.535156 318.6875 488.925781 341.160156 501.1875 C 343.203125 502.207031 343.203125 504.25 343.203125 505.273438 C 343.203125 515.492188 341.160156 533.882812 341.160156 534.90625 C 341.160156 534.90625 341.160156 535.925781 341.160156 535.925781 C 340.140625 537.96875 335.03125 548.1875 327.882812 551.253906 L 248.210938 578.839844 C 240.039062 580.882812 233.910156 583.949219 226.757812 588.035156 C 207.351562 600.296875 195.09375 643.210938 193.050781 706.558594 C 192.03125 705.539062 192.03125 705.539062 192.03125 706.558594 Z M 499.484375 443.96875 Z M 274.765625 222.246094 Z M 274.765625 222.246094 " fill-opacity="1" fill-rule="nonzero"/></svg>