<svg xmlns="http://www.w3.org/2000/svg" xmlns:xlink="http://www.w3.org/1999/xlink" width="1080" zoomAndPan="magnify" viewBox="0 0 810 809.999993" height="1080" preserveAspectRatio="xMidYMid meet" version="1.0"><defs><filter x="0%" y="0%" width="100%" height="100%" id="dd5050b0f4"><feColorMatrix values="0 0 0 0 1 0 0 0 0 1 0 0 0 0 1 0 0 0 1 0" color-interpolation-filters="sRGB"/></filter><mask id="79900b50f0"><g filter="url(#dd5050b0f4)"><rect x="-81" width="972" fill="#000000" y="-80.999999" height="971.999992" fill-opacity="0.3"/></g></mask><clipPath id="3d3d7bc971"><rect x="0" width="205" y="0" height="52"/></clipPath></defs><path fill="#ffffff" d="M 107.117188 459.234375 C 106.511719 459.234375 105.914062 459.292969 105.324219 459.410156 C 104.734375 459.527344 104.160156 459.699219 103.601562 459.933594 C 103.046875 460.164062 102.515625 460.445312 102.015625 460.78125 C 101.515625 461.117188 101.050781 461.496094 100.625 461.921875 C 100.199219 462.347656 99.816406 462.8125 99.480469 463.3125 C 99.148438 463.816406 98.863281 464.34375 98.632812 464.902344 C 98.402344 465.460938 98.226562 466.035156 98.109375 466.625 C 97.992188 467.214844 97.933594 467.8125 97.933594 468.417969 C 97.933594 469.019531 97.992188 469.617188 98.109375 470.207031 C 98.226562 470.800781 98.402344 471.375 98.632812 471.929688 C 98.863281 472.488281 99.148438 473.019531 99.480469 473.519531 C 99.816406 474.019531 100.199219 474.484375 100.625 474.910156 C 101.050781 475.335938 101.515625 475.71875 102.015625 476.054688 C 102.515625 476.386719 103.046875 476.671875 103.601562 476.902344 C 104.160156 477.132812 104.734375 477.308594 105.324219 477.425781 C 105.914062 477.542969 106.511719 477.601562 107.117188 477.601562 C 107.71875 477.601562 108.316406 477.542969 108.90625 477.425781 C 109.5 477.308594 110.074219 477.132812 110.628906 476.902344 C 111.1875 476.671875 111.714844 476.386719 112.214844 476.054688 C 112.71875 475.71875 113.183594 475.335938 113.609375 474.910156 C 114.035156 474.484375 114.414062 474.019531 114.75 473.519531 C 115.085938 473.019531 115.367188 472.488281 115.597656 471.929688 C 115.828125 471.375 116.003906 470.800781 116.121094 470.207031 C 116.238281 469.617188 116.296875 469.019531 116.296875 468.417969 C 116.296875 467.8125 116.238281 467.214844 116.121094 466.625 C 116.003906 466.035156 115.828125 465.460938 115.597656 464.902344 C 115.367188 464.34375 115.085938 463.816406 114.75 463.3125 C 114.414062 462.8125 114.035156 462.347656 113.609375 461.921875 C 113.183594 461.496094 112.71875 461.117188 112.214844 460.78125 C 111.714844 460.445312 111.1875 460.164062 110.628906 459.933594 C 110.074219 459.699219 109.5 459.527344 108.90625 459.410156 C 108.316406 459.292969 107.71875 459.234375 107.117188 459.234375 Z M 710.023438 207.175781 C 709.554688 207.175781 709.089844 207.222656 708.632812 207.3125 C 708.171875 207.40625 707.726562 207.539062 707.292969 207.71875 C 706.859375 207.898438 706.449219 208.121094 706.058594 208.378906 C 705.667969 208.640625 705.308594 208.9375 704.976562 209.269531 C 704.644531 209.601562 704.347656 209.960938 704.085938 210.351562 C 703.828125 210.742188 703.605469 211.152344 703.425781 211.585938 C 703.25 212.019531 703.113281 212.464844 703.019531 212.925781 C 702.929688 213.386719 702.882812 213.851562 702.882812 214.320312 C 702.882812 214.789062 702.929688 215.253906 703.019531 215.714844 C 703.113281 216.171875 703.25 216.621094 703.425781 217.054688 C 703.605469 217.488281 703.828125 217.898438 704.085938 218.289062 C 704.347656 218.679688 704.644531 219.039062 704.976562 219.371094 C 705.308594 219.703125 705.667969 220 706.058594 220.257812 C 706.449219 220.519531 706.859375 220.738281 707.292969 220.917969 C 707.726562 221.097656 708.171875 221.234375 708.632812 221.324219 C 709.089844 221.417969 709.554688 221.460938 710.023438 221.460938 C 710.492188 221.460938 710.957031 221.417969 711.417969 221.324219 C 711.878906 221.234375 712.324219 221.097656 712.757812 220.917969 C 713.191406 220.738281 713.601562 220.519531 713.992188 220.257812 C 714.382812 220 714.742188 219.703125 715.074219 219.371094 C 715.40625 219.039062 715.703125 218.679688 715.960938 218.289062 C 716.222656 217.898438 716.441406 217.488281 716.621094 217.054688 C 716.800781 216.621094 716.9375 216.171875 717.027344 215.714844 C 717.121094 215.253906 717.167969 214.789062 717.167969 214.320312 C 717.167969 213.851562 717.121094 213.386719 717.027344 212.925781 C 716.9375 212.464844 716.800781 212.019531 716.621094 211.585938 C 716.441406 211.152344 716.222656 210.742188 715.960938 210.351562 C 715.703125 209.960938 715.40625 209.601562 715.074219 209.269531 C 714.742188 208.9375 714.382812 208.640625 713.992188 208.378906 C 713.601562 208.121094 713.191406 207.898438 712.757812 207.71875 C 712.324219 207.539062 711.878906 207.40625 711.417969 207.3125 C 710.957031 207.222656 710.492188 207.175781 710.023438 207.175781 Z M 710.023438 207.175781 " fill-opacity="1" fill-rule="nonzero"/><path fill="#f1bc19" d="M 682.480469 10.226562 C 681.878906 10.226562 681.28125 10.285156 680.691406 10.402344 C 680.097656 10.519531 679.523438 10.695312 678.96875 10.925781 C 678.410156 11.15625 677.882812 11.4375 677.378906 11.773438 C 676.878906 12.109375 676.414062 12.488281 675.988281 12.914062 C 675.5625 13.339844 675.183594 13.804688 674.847656 14.308594 C 674.511719 14.808594 674.230469 15.335938 674 15.894531 C 673.769531 16.453125 673.59375 17.027344 673.476562 17.617188 C 673.359375 18.210938 673.300781 18.804688 673.300781 19.410156 C 673.300781 20.011719 673.359375 20.609375 673.476562 21.199219 C 673.59375 21.792969 673.769531 22.367188 674 22.925781 C 674.230469 23.480469 674.511719 24.011719 674.847656 24.511719 C 675.183594 25.011719 675.5625 25.476562 675.988281 25.902344 C 676.414062 26.328125 676.878906 26.710938 677.378906 27.046875 C 677.882812 27.378906 678.410156 27.664062 678.96875 27.894531 C 679.523438 28.125 680.097656 28.300781 680.691406 28.417969 C 681.28125 28.535156 681.878906 28.59375 682.480469 28.59375 C 683.082031 28.59375 683.679688 28.535156 684.273438 28.417969 C 684.863281 28.300781 685.4375 28.125 685.996094 27.894531 C 686.550781 27.664062 687.082031 27.378906 687.582031 27.046875 C 688.082031 26.710938 688.546875 26.328125 688.972656 25.902344 C 689.398438 25.476562 689.78125 25.011719 690.113281 24.511719 C 690.449219 24.011719 690.734375 23.480469 690.964844 22.925781 C 691.195312 22.367188 691.367188 21.792969 691.484375 21.199219 C 691.605469 20.609375 691.664062 20.011719 691.664062 19.410156 C 691.664062 18.804688 691.605469 18.210938 691.484375 17.617188 C 691.367188 17.027344 691.195312 16.453125 690.964844 15.894531 C 690.734375 15.335938 690.449219 14.808594 690.113281 14.308594 C 689.78125 13.804688 689.398438 13.339844 688.972656 12.914062 C 688.546875 12.488281 688.082031 12.109375 687.582031 11.773438 C 687.082031 11.4375 686.550781 11.15625 685.996094 10.925781 C 685.4375 10.695312 684.863281 10.519531 684.273438 10.402344 C 683.679688 10.285156 683.082031 10.226562 682.480469 10.226562 Z M 112.214844 536.789062 C 111.613281 536.785156 111.015625 536.84375 110.421875 536.960938 C 109.828125 537.078125 109.253906 537.25 108.695312 537.480469 C 108.136719 537.710938 107.605469 537.992188 107.105469 538.328125 C 106.601562 538.664062 106.136719 539.042969 105.707031 539.46875 C 105.28125 539.894531 104.898438 540.359375 104.5625 540.863281 C 104.226562 541.363281 103.941406 541.894531 103.710938 542.453125 C 103.480469 543.011719 103.304688 543.585938 103.1875 544.179688 C 103.070312 544.769531 103.011719 545.367188 103.011719 545.972656 C 103.011719 546.578125 103.070312 547.175781 103.1875 547.769531 C 103.304688 548.359375 103.480469 548.933594 103.710938 549.492188 C 103.941406 550.050781 104.226562 550.582031 104.5625 551.082031 C 104.898438 551.585938 105.28125 552.050781 105.707031 552.476562 C 106.136719 552.902344 106.601562 553.285156 107.105469 553.617188 C 107.605469 553.953125 108.136719 554.234375 108.695312 554.464844 C 109.253906 554.695312 109.828125 554.867188 110.421875 554.984375 C 111.015625 555.101562 111.613281 555.160156 112.214844 555.15625 C 112.820312 555.160156 113.417969 555.101562 114.011719 554.984375 C 114.605469 554.867188 115.179688 554.695312 115.738281 554.464844 C 116.296875 554.234375 116.828125 553.953125 117.328125 553.617188 C 117.832031 553.28125 118.296875 552.902344 118.726562 552.476562 C 119.152344 552.050781 119.535156 551.585938 119.871094 551.082031 C 120.207031 550.582031 120.492188 550.050781 120.722656 549.492188 C 120.953125 548.933594 121.128906 548.359375 121.246094 547.769531 C 121.363281 547.175781 121.421875 546.578125 121.421875 545.972656 C 121.421875 545.367188 121.363281 544.769531 121.246094 544.179688 C 121.128906 543.585938 120.953125 543.011719 120.722656 542.453125 C 120.492188 541.894531 120.207031 541.363281 119.871094 540.863281 C 119.535156 540.359375 119.152344 539.894531 118.726562 539.46875 C 118.296875 539.042969 117.832031 538.664062 117.328125 538.328125 C 116.828125 537.992188 116.296875 537.710938 115.738281 537.480469 C 115.179688 537.25 114.605469 537.078125 114.011719 536.960938 C 113.417969 536.84375 112.820312 536.785156 112.214844 536.789062 Z M 112.214844 536.789062 " fill-opacity="1" fill-rule="nonzero"/><path fill="#c0e5e4" d="M 409.082031 19.410156 C 402.820312 19.410156 396.5625 19.5625 390.308594 19.871094 C 384.054688 20.175781 377.8125 20.636719 371.582031 21.253906 C 365.351562 21.867188 359.140625 22.632812 352.949219 23.550781 C 346.753906 24.46875 340.589844 25.539062 334.449219 26.761719 C 328.308594 27.984375 322.199219 29.355469 316.125 30.878906 C 310.054688 32.398438 304.019531 34.070312 298.03125 35.886719 C 292.039062 37.707031 286.097656 39.667969 280.199219 41.777344 C 274.304688 43.890625 268.464844 46.140625 262.683594 48.539062 C 256.898438 50.9375 251.175781 53.472656 245.515625 56.152344 C 239.855469 58.828125 234.265625 61.644531 228.746094 64.59375 C 223.222656 67.546875 217.777344 70.632812 212.40625 73.851562 C 207.035156 77.074219 201.75 80.421875 196.542969 83.902344 C 191.335938 87.382812 186.21875 90.988281 181.191406 94.71875 C 176.164062 98.449219 171.230469 102.300781 166.390625 106.273438 C 161.550781 110.246094 156.808594 114.335938 152.171875 118.542969 C 147.53125 122.746094 143 127.0625 138.570312 131.492188 C 134.144531 135.921875 129.828125 140.457031 125.625 145.097656 C 121.421875 149.738281 117.332031 154.476562 113.359375 159.320312 C 109.386719 164.160156 105.539062 169.09375 101.808594 174.125 C 98.078125 179.15625 94.476562 184.273438 90.996094 189.480469 C 87.519531 194.691406 84.167969 199.980469 80.949219 205.351562 C 77.730469 210.722656 74.648438 216.171875 71.695312 221.695312 C 68.746094 227.21875 65.929688 232.808594 63.253906 238.472656 C 60.578125 244.132812 58.039062 249.855469 55.644531 255.640625 C 53.25 261.429688 50.996094 267.269531 48.886719 273.167969 C 46.777344 279.0625 44.8125 285.007812 42.996094 291 C 41.179688 296.992188 39.511719 303.027344 37.988281 309.101562 C 36.46875 315.179688 35.097656 321.289062 33.875 327.429688 C 32.652344 333.570312 31.582031 339.742188 30.664062 345.9375 C 29.746094 352.132812 28.980469 358.34375 28.367188 364.578125 C 27.753906 370.808594 27.292969 377.054688 26.984375 383.308594 C 26.675781 389.5625 26.523438 395.824219 26.523438 402.085938 C 26.523438 408.347656 26.675781 414.609375 26.984375 420.863281 C 27.292969 427.117188 27.753906 433.363281 28.367188 439.59375 C 28.980469 445.828125 29.746094 452.042969 30.664062 458.238281 C 31.582031 464.429688 32.652344 470.601562 33.875 476.742188 C 35.097656 482.886719 36.46875 488.992188 37.988281 495.070312 C 39.511719 501.144531 41.179688 507.179688 42.996094 513.171875 C 44.8125 519.164062 46.777344 525.109375 48.886719 531.007812 C 50.996094 536.902344 53.25 542.746094 55.644531 548.53125 C 58.039062 554.316406 60.578125 560.039062 63.253906 565.703125 C 65.929688 571.363281 68.746094 576.957031 71.695312 582.480469 C 74.648438 588.003906 77.730469 593.449219 80.949219 598.820312 C 84.167969 604.191406 87.519531 609.484375 90.996094 614.691406 C 94.476562 619.898438 98.078125 625.015625 101.808594 630.046875 C 105.539062 635.078125 109.386719 640.011719 113.359375 644.855469 C 117.332031 649.695312 121.421875 654.4375 125.625 659.078125 C 129.828125 663.714844 134.144531 668.25 138.570312 672.679688 C 143 677.109375 147.53125 681.425781 152.171875 685.632812 C 156.808594 689.835938 161.550781 693.925781 166.390625 697.898438 C 171.230469 701.871094 176.164062 705.722656 181.191406 709.453125 C 186.21875 713.1875 191.335938 716.789062 196.542969 720.269531 C 201.75 723.75 207.035156 727.097656 212.40625 730.320312 C 217.777344 733.539062 223.222656 736.625 228.746094 739.578125 C 234.265625 742.527344 239.855469 745.34375 245.515625 748.023438 C 251.175781 750.699219 256.898438 753.238281 262.683594 755.632812 C 268.464844 758.03125 274.304688 760.285156 280.199219 762.394531 C 286.097656 764.503906 292.039062 766.46875 298.03125 768.285156 C 304.019531 770.101562 310.054688 771.773438 316.125 773.292969 C 322.199219 774.816406 328.308594 776.1875 334.449219 777.410156 C 340.589844 778.632812 346.753906 779.703125 352.949219 780.621094 C 359.140625 781.539062 365.351562 782.304688 371.582031 782.921875 C 377.8125 783.535156 384.054688 783.996094 390.308594 784.300781 C 396.5625 784.609375 402.820312 784.761719 409.082031 784.761719 C 415.339844 784.761719 421.597656 784.609375 427.851562 784.300781 C 434.105469 783.996094 440.347656 783.535156 446.578125 782.921875 C 452.808594 782.304688 459.019531 781.539062 465.214844 780.621094 C 471.40625 779.703125 477.574219 778.632812 483.714844 777.410156 C 489.855469 776.1875 495.960938 774.816406 502.035156 773.292969 C 508.105469 771.773438 514.140625 770.101562 520.128906 768.285156 C 526.121094 766.46875 532.066406 764.503906 537.960938 762.394531 C 543.855469 760.285156 549.695312 758.03125 555.476562 755.632812 C 561.261719 753.238281 566.984375 750.699219 572.644531 748.023438 C 578.304688 745.34375 583.894531 742.527344 589.417969 739.578125 C 594.9375 736.625 600.382812 733.539062 605.753906 730.320312 C 611.125 727.097656 616.410156 723.75 621.617188 720.269531 C 626.824219 716.789062 631.941406 713.1875 636.96875 709.453125 C 641.996094 705.722656 646.933594 701.871094 651.773438 697.898438 C 656.613281 693.925781 661.351562 689.835938 665.988281 685.632812 C 670.628906 681.425781 675.160156 677.109375 679.589844 672.679688 C 684.015625 668.25 688.332031 663.714844 692.535156 659.078125 C 696.742188 654.4375 700.828125 649.695312 704.800781 644.855469 C 708.773438 640.011719 712.625 635.078125 716.351562 630.046875 C 720.082031 625.015625 723.6875 619.898438 727.164062 614.691406 C 730.644531 609.484375 733.992188 604.191406 737.210938 598.820312 C 740.429688 593.449219 743.515625 588.003906 746.464844 582.480469 C 749.417969 576.957031 752.230469 571.363281 754.90625 565.703125 C 757.585938 560.039062 760.121094 554.316406 762.515625 548.53125 C 764.914062 542.746094 767.164062 536.902344 769.273438 531.007812 C 771.382812 525.109375 773.347656 519.164062 775.164062 513.171875 C 776.980469 507.179688 778.652344 501.144531 780.171875 495.070312 C 781.695312 488.992188 783.066406 482.886719 784.285156 476.742188 C 785.507812 470.601562 786.578125 464.429688 787.496094 458.238281 C 788.414062 452.042969 789.179688 445.828125 789.796875 439.59375 C 790.410156 433.363281 790.871094 427.117188 791.175781 420.863281 C 791.484375 414.609375 791.636719 408.347656 791.636719 402.085938 C 791.636719 395.824219 791.484375 389.5625 791.175781 383.308594 C 790.871094 377.054688 790.410156 370.808594 789.796875 364.578125 C 789.179688 358.34375 788.414062 352.132812 787.496094 345.9375 C 786.578125 339.742188 785.507812 333.570312 784.285156 327.429688 C 783.066406 321.289062 781.695312 315.179688 780.171875 309.101562 C 778.652344 303.027344 776.980469 296.992188 775.164062 291 C 773.347656 285.007812 771.382812 279.0625 769.273438 273.167969 C 767.164062 267.269531 764.914062 261.429688 762.515625 255.640625 C 760.121094 249.855469 757.585938 244.132812 754.90625 238.472656 C 752.230469 232.808594 749.417969 227.21875 746.464844 221.695312 C 743.515625 216.171875 740.429688 210.722656 737.210938 205.351562 C 733.992188 199.980469 730.644531 194.691406 727.164062 189.480469 C 723.6875 184.273438 720.082031 179.15625 716.351562 174.125 C 712.625 169.09375 708.773438 164.160156 704.800781 159.320312 C 700.828125 154.476562 696.742188 149.738281 692.535156 145.097656 C 688.332031 140.457031 684.015625 135.921875 679.589844 131.492188 C 675.160156 127.0625 670.628906 122.746094 665.988281 118.542969 C 661.351562 114.335938 656.613281 110.246094 651.773438 106.273438 C 646.933594 102.300781 641.996094 98.449219 636.96875 94.71875 C 631.941406 90.988281 626.824219 87.382812 621.617188 83.902344 C 616.410156 80.421875 611.125 77.074219 605.753906 73.851562 C 600.382812 70.632812 594.9375 67.546875 589.417969 64.59375 C 583.894531 61.644531 578.304688 58.828125 572.644531 56.152344 C 566.984375 53.472656 561.261719 50.9375 555.480469 48.539062 C 549.695312 46.140625 543.855469 43.890625 537.960938 41.777344 C 532.066406 39.667969 526.121094 37.707031 520.128906 35.886719 C 514.140625 34.070312 508.105469 32.398438 502.035156 30.878906 C 495.960938 29.355469 489.855469 27.984375 483.714844 26.761719 C 477.574219 25.539062 471.40625 24.46875 465.214844 23.550781 C 459.019531 22.632812 452.808594 21.867188 446.578125 21.253906 C 440.347656 20.636719 434.105469 20.175781 427.851562 19.871094 C 421.597656 19.5625 415.339844 19.410156 409.082031 19.410156 Z M 409.082031 19.410156 " fill-opacity="1" fill-rule="nonzero"/><path fill="#f1bc19" d="M 738.589844 1.039062 C 737.253906 1.039062 735.917969 1.105469 734.589844 1.238281 C 733.257812 1.367188 731.9375 1.5625 730.628906 1.824219 C 729.316406 2.085938 728.023438 2.410156 726.742188 2.796875 C 725.464844 3.1875 724.207031 3.636719 722.972656 4.148438 C 721.738281 4.660156 720.53125 5.230469 719.351562 5.859375 C 718.175781 6.492188 717.03125 7.175781 715.917969 7.921875 C 714.808594 8.664062 713.734375 9.457031 712.703125 10.304688 C 711.667969 11.15625 710.679688 12.050781 709.734375 12.996094 C 708.789062 13.941406 707.894531 14.929688 707.046875 15.964844 C 706.199219 16.996094 705.402344 18.070312 704.660156 19.183594 C 703.917969 20.292969 703.230469 21.4375 702.601562 22.617188 C 701.972656 23.796875 701.402344 25.003906 700.890625 26.238281 C 700.378906 27.472656 699.929688 28.730469 699.539062 30.011719 C 699.152344 31.289062 698.828125 32.585938 698.566406 33.894531 C 698.304688 35.207031 698.109375 36.527344 697.980469 37.859375 C 697.847656 39.1875 697.785156 40.523438 697.785156 41.859375 C 697.785156 43.195312 697.847656 44.53125 697.980469 45.859375 C 698.109375 47.191406 698.304688 48.511719 698.566406 49.824219 C 698.828125 51.132812 699.152344 52.429688 699.539062 53.707031 C 699.929688 54.988281 700.378906 56.246094 700.890625 57.480469 C 701.402344 58.714844 701.972656 59.921875 702.601562 61.101562 C 703.230469 62.28125 703.917969 63.425781 704.660156 64.539062 C 705.402344 65.648438 706.199219 66.722656 707.046875 67.753906 C 707.894531 68.789062 708.789062 69.777344 709.734375 70.722656 C 710.679688 71.667969 711.667969 72.566406 712.703125 73.414062 C 713.734375 74.261719 714.808594 75.054688 715.917969 75.800781 C 717.03125 76.542969 718.175781 77.230469 719.351562 77.859375 C 720.53125 78.488281 721.738281 79.058594 722.972656 79.570312 C 724.207031 80.082031 725.464844 80.53125 726.742188 80.921875 C 728.023438 81.308594 729.316406 81.632812 730.628906 81.894531 C 731.9375 82.15625 733.257812 82.351562 734.589844 82.480469 C 735.917969 82.613281 737.253906 82.679688 738.589844 82.679688 C 739.925781 82.679688 741.257812 82.613281 742.589844 82.480469 C 743.917969 82.351562 745.238281 82.15625 746.550781 81.894531 C 747.859375 81.632812 749.15625 81.308594 750.433594 80.921875 C 751.714844 80.53125 752.96875 80.082031 754.203125 79.570312 C 755.441406 79.058594 756.644531 78.488281 757.824219 77.859375 C 759.003906 77.230469 760.148438 76.542969 761.261719 75.800781 C 762.371094 75.054688 763.441406 74.261719 764.476562 73.414062 C 765.507812 72.566406 766.5 71.667969 767.445312 70.722656 C 768.386719 69.777344 769.285156 68.789062 770.132812 67.753906 C 770.980469 66.722656 771.777344 65.648438 772.519531 64.539062 C 773.261719 63.425781 773.945312 62.28125 774.578125 61.101562 C 775.207031 59.921875 775.777344 58.714844 776.289062 57.480469 C 776.800781 56.246094 777.25 54.988281 777.636719 53.707031 C 778.027344 52.429688 778.351562 51.132812 778.609375 49.824219 C 778.871094 48.511719 779.066406 47.191406 779.199219 45.859375 C 779.328125 44.53125 779.394531 43.195312 779.394531 41.859375 C 779.394531 40.523438 779.328125 39.1875 779.199219 37.859375 C 779.066406 36.527344 778.871094 35.207031 778.609375 33.894531 C 778.351562 32.585938 778.027344 31.289062 777.636719 30.011719 C 777.25 28.730469 776.800781 27.472656 776.289062 26.238281 C 775.777344 25.003906 775.207031 23.796875 774.578125 22.617188 C 773.945312 21.4375 773.261719 20.292969 772.519531 19.183594 C 771.777344 18.070312 770.980469 16.996094 770.132812 15.964844 C 769.285156 14.929688 768.386719 13.941406 767.445312 12.996094 C 766.5 12.050781 765.507812 11.15625 764.476562 10.304688 C 763.441406 9.457031 762.371094 8.664062 761.261719 7.921875 C 760.148438 7.175781 759.003906 6.492188 757.824219 5.859375 C 756.648438 5.230469 755.441406 4.660156 754.207031 4.148438 C 752.96875 3.636719 751.714844 3.1875 750.433594 2.796875 C 749.15625 2.410156 747.859375 2.085938 746.550781 1.824219 C 745.238281 1.5625 743.917969 1.367188 742.589844 1.238281 C 741.257812 1.105469 739.925781 1.039062 738.589844 1.039062 Z M 738.589844 1.039062 " fill-opacity="1" fill-rule="nonzero"/><path fill="#00a5a5" d="M 779.394531 125.539062 C 778.761719 125.539062 778.125 125.570312 777.496094 125.628906 C 776.863281 125.691406 776.234375 125.785156 775.613281 125.90625 C 774.988281 126.03125 774.371094 126.183594 773.765625 126.367188 C 773.15625 126.554688 772.558594 126.765625 771.972656 127.007812 C 771.386719 127.25 770.8125 127.523438 770.25 127.820312 C 769.691406 128.121094 769.144531 128.445312 768.617188 128.800781 C 768.089844 129.152344 767.578125 129.53125 767.089844 129.933594 C 766.597656 130.335938 766.125 130.761719 765.675781 131.210938 C 765.226562 131.660156 764.800781 132.128906 764.398438 132.621094 C 763.996094 133.113281 763.617188 133.621094 763.265625 134.148438 C 762.910156 134.679688 762.585938 135.222656 762.285156 135.78125 C 761.984375 136.34375 761.714844 136.917969 761.472656 137.503906 C 761.226562 138.089844 761.015625 138.6875 760.828125 139.296875 C 760.644531 139.902344 760.492188 140.519531 760.367188 141.140625 C 760.242188 141.765625 760.148438 142.394531 760.085938 143.027344 C 760.023438 143.65625 759.992188 144.292969 759.992188 144.925781 C 759.992188 145.5625 760.023438 146.195312 760.085938 146.828125 C 760.148438 147.460938 760.242188 148.089844 760.367188 148.710938 C 760.492188 149.335938 760.644531 149.949219 760.828125 150.558594 C 761.015625 151.167969 761.226562 151.765625 761.472656 152.351562 C 761.714844 152.9375 761.984375 153.511719 762.285156 154.074219 C 762.585938 154.632812 762.910156 155.175781 763.265625 155.707031 C 763.617188 156.234375 763.996094 156.742188 764.398438 157.234375 C 764.800781 157.726562 765.226562 158.195312 765.675781 158.644531 C 766.125 159.09375 766.597656 159.519531 767.089844 159.921875 C 767.578125 160.324219 768.089844 160.703125 768.617188 161.054688 C 769.144531 161.40625 769.691406 161.734375 770.25 162.03125 C 770.8125 162.332031 771.386719 162.601562 771.972656 162.847656 C 772.558594 163.089844 773.15625 163.300781 773.765625 163.484375 C 774.371094 163.671875 774.988281 163.824219 775.613281 163.945312 C 776.234375 164.070312 776.863281 164.164062 777.496094 164.226562 C 778.125 164.285156 778.761719 164.316406 779.394531 164.316406 C 780.03125 164.316406 780.664062 164.285156 781.296875 164.226562 C 781.929688 164.164062 782.554688 164.070312 783.179688 163.945312 C 783.800781 163.824219 784.417969 163.667969 785.027344 163.484375 C 785.632812 163.300781 786.230469 163.089844 786.820312 162.847656 C 787.40625 162.601562 787.980469 162.332031 788.539062 162.03125 C 789.101562 161.734375 789.644531 161.40625 790.171875 161.054688 C 790.703125 160.703125 791.210938 160.324219 791.703125 159.921875 C 792.195312 159.519531 792.664062 159.09375 793.113281 158.644531 C 793.5625 158.195312 793.988281 157.726562 794.390625 157.234375 C 794.796875 156.742188 795.171875 156.234375 795.527344 155.707031 C 795.878906 155.175781 796.207031 154.632812 796.503906 154.074219 C 796.804688 153.511719 797.078125 152.9375 797.320312 152.351562 C 797.5625 151.765625 797.777344 151.167969 797.960938 150.558594 C 798.144531 149.949219 798.300781 149.335938 798.425781 148.710938 C 798.546875 148.089844 798.640625 147.460938 798.703125 146.828125 C 798.765625 146.195312 798.796875 145.5625 798.796875 144.925781 C 798.796875 144.292969 798.765625 143.65625 798.703125 143.027344 C 798.640625 142.394531 798.546875 141.765625 798.425781 141.140625 C 798.300781 140.519531 798.144531 139.902344 797.960938 139.296875 C 797.777344 138.6875 797.5625 138.089844 797.320312 137.503906 C 797.078125 136.917969 796.804688 136.34375 796.503906 135.78125 C 796.207031 135.222656 795.878906 134.675781 795.527344 134.148438 C 795.171875 133.621094 794.796875 133.113281 794.390625 132.621094 C 793.988281 132.128906 793.5625 131.660156 793.113281 131.210938 C 792.664062 130.761719 792.195312 130.335938 791.703125 129.933594 C 791.210938 129.53125 790.703125 129.152344 790.171875 128.800781 C 789.644531 128.445312 789.101562 128.121094 788.539062 127.820312 C 787.980469 127.523438 787.40625 127.25 786.820312 127.007812 C 786.230469 126.765625 785.632812 126.554688 785.027344 126.367188 C 784.417969 126.183594 783.800781 126.03125 783.179688 125.90625 C 782.554688 125.785156 781.929688 125.691406 781.296875 125.628906 C 780.664062 125.566406 780.03125 125.539062 779.394531 125.539062 Z M 779.394531 125.539062 " fill-opacity="1" fill-rule="nonzero"/><path fill="#fbcd59" d="M 687.582031 650.0625 C 686.945312 650.0625 686.3125 650.09375 685.683594 650.152344 C 685.050781 650.214844 684.421875 650.308594 683.800781 650.433594 C 683.175781 650.558594 682.5625 650.710938 681.957031 650.894531 C 681.347656 651.078125 680.75 651.292969 680.164062 651.535156 C 679.578125 651.78125 679.003906 652.050781 678.445312 652.351562 C 677.886719 652.648438 677.339844 652.976562 676.8125 653.328125 C 676.285156 653.679688 675.777344 654.058594 675.285156 654.460938 C 674.792969 654.863281 674.324219 655.289062 673.875 655.738281 C 673.425781 656.1875 673 656.660156 672.597656 657.148438 C 672.195312 657.640625 671.816406 658.148438 671.464844 658.675781 C 671.113281 659.207031 670.785156 659.75 670.488281 660.308594 C 670.1875 660.871094 669.917969 661.441406 669.675781 662.03125 C 669.429688 662.617188 669.21875 663.214844 669.035156 663.820312 C 668.847656 664.429688 668.695312 665.042969 668.570312 665.667969 C 668.449219 666.289062 668.355469 666.917969 668.292969 667.550781 C 668.230469 668.179688 668.199219 668.816406 668.199219 669.449219 C 668.199219 670.085938 668.230469 670.71875 668.292969 671.351562 C 668.355469 671.980469 668.449219 672.609375 668.570312 673.230469 C 668.695312 673.855469 668.847656 674.46875 669.035156 675.078125 C 669.21875 675.6875 669.429688 676.28125 669.675781 676.871094 C 669.917969 677.457031 670.1875 678.03125 670.488281 678.589844 C 670.785156 679.148438 671.113281 679.695312 671.464844 680.222656 C 671.816406 680.75 672.195312 681.257812 672.597656 681.75 C 673 682.242188 673.425781 682.710938 673.875 683.160156 C 674.324219 683.609375 674.792969 684.035156 675.285156 684.4375 C 675.777344 684.839844 676.285156 685.21875 676.8125 685.570312 C 677.339844 685.921875 677.886719 686.25 678.445312 686.550781 C 679.003906 686.847656 679.578125 687.121094 680.164062 687.363281 C 680.75 687.605469 681.347656 687.820312 681.957031 688.003906 C 682.5625 688.1875 683.175781 688.34375 683.800781 688.464844 C 684.421875 688.589844 685.050781 688.683594 685.683594 688.746094 C 686.3125 688.808594 686.945312 688.839844 687.582031 688.839844 C 688.214844 688.839844 688.851562 688.808594 689.480469 688.746094 C 690.113281 688.683594 690.742188 688.589844 691.363281 688.464844 C 691.984375 688.34375 692.601562 688.1875 693.207031 688.003906 C 693.816406 687.820312 694.414062 687.605469 695 687.363281 C 695.585938 687.121094 696.160156 686.847656 696.71875 686.550781 C 697.277344 686.25 697.824219 685.921875 698.351562 685.570312 C 698.878906 685.21875 699.386719 684.839844 699.878906 684.4375 C 700.367188 684.035156 700.839844 683.609375 701.289062 683.160156 C 701.734375 682.710938 702.164062 682.242188 702.566406 681.75 C 702.96875 681.257812 703.34375 680.75 703.699219 680.222656 C 704.050781 679.695312 704.375 679.148438 704.675781 678.589844 C 704.976562 678.03125 705.246094 677.457031 705.488281 676.871094 C 705.730469 676.28125 705.945312 675.6875 706.128906 675.078125 C 706.3125 674.46875 706.46875 673.855469 706.59375 673.230469 C 706.714844 672.609375 706.808594 671.980469 706.871094 671.351562 C 706.933594 670.71875 706.964844 670.085938 706.964844 669.449219 C 706.964844 668.816406 706.933594 668.179688 706.871094 667.550781 C 706.808594 666.917969 706.714844 666.289062 706.59375 665.667969 C 706.46875 665.042969 706.3125 664.429688 706.128906 663.820312 C 705.945312 663.214844 705.730469 662.617188 705.488281 662.03125 C 705.246094 661.441406 704.976562 660.871094 704.675781 660.308594 C 704.375 659.75 704.050781 659.207031 703.699219 658.675781 C 703.34375 658.148438 702.96875 657.640625 702.566406 657.148438 C 702.164062 656.660156 701.734375 656.1875 701.289062 655.738281 C 700.839844 655.289062 700.367188 654.863281 699.878906 654.460938 C 699.386719 654.058594 698.878906 653.679688 698.351562 653.328125 C 697.824219 652.976562 697.277344 652.648438 696.71875 652.351562 C 696.160156 652.050781 695.585938 651.78125 695 651.535156 C 694.414062 651.292969 693.816406 651.078125 693.207031 650.894531 C 692.601562 650.710938 691.984375 650.558594 691.363281 650.433594 C 690.742188 650.308594 690.113281 650.214844 689.480469 650.152344 C 688.851562 650.09375 688.214844 650.0625 687.582031 650.0625 Z M 42.847656 495.96875 C 41.511719 495.96875 40.175781 496.035156 38.847656 496.167969 C 37.515625 496.296875 36.195312 496.492188 34.886719 496.753906 C 33.574219 497.015625 32.28125 497.339844 31 497.726562 C 29.722656 498.117188 28.464844 498.566406 27.230469 499.078125 C 25.996094 499.589844 24.789062 500.160156 23.609375 500.789062 C 22.433594 501.417969 21.285156 502.105469 20.175781 502.847656 C 19.066406 503.589844 17.992188 504.386719 16.960938 505.234375 C 15.925781 506.082031 14.9375 506.980469 13.992188 507.925781 C 13.046875 508.871094 12.152344 509.859375 11.304688 510.894531 C 10.453125 511.925781 9.660156 513 8.917969 514.109375 C 8.175781 515.222656 7.488281 516.367188 6.859375 517.546875 C 6.230469 518.726562 5.65625 519.933594 5.144531 521.167969 C 4.636719 522.402344 4.183594 523.660156 3.796875 524.9375 C 3.410156 526.21875 3.085938 527.515625 2.824219 528.824219 C 2.5625 530.136719 2.367188 531.457031 2.238281 532.789062 C 2.105469 534.117188 2.039062 535.453125 2.039062 536.789062 C 2.039062 538.125 2.105469 539.460938 2.238281 540.789062 C 2.367188 542.121094 2.5625 543.441406 2.824219 544.75 C 3.085938 546.0625 3.410156 547.359375 3.796875 548.636719 C 4.183594 549.917969 4.636719 551.175781 5.144531 552.410156 C 5.65625 553.644531 6.230469 554.851562 6.859375 556.03125 C 7.488281 557.210938 8.175781 558.355469 8.917969 559.464844 C 9.660156 560.578125 10.453125 561.648438 11.304688 562.683594 C 12.152344 563.71875 13.046875 564.707031 13.992188 565.652344 C 14.9375 566.597656 15.925781 567.492188 16.960938 568.34375 C 17.992188 569.191406 19.066406 569.984375 20.175781 570.726562 C 21.285156 571.472656 22.433594 572.15625 23.609375 572.789062 C 24.789062 573.417969 25.996094 573.988281 27.230469 574.5 C 28.464844 575.011719 29.722656 575.460938 31 575.851562 C 32.28125 576.238281 33.574219 576.5625 34.886719 576.824219 C 36.195312 577.082031 37.515625 577.28125 38.847656 577.410156 C 40.175781 577.542969 41.511719 577.605469 42.847656 577.605469 C 44.183594 577.605469 45.515625 577.542969 46.847656 577.410156 C 48.175781 577.28125 49.496094 577.082031 50.808594 576.824219 C 52.117188 576.5625 53.414062 576.238281 54.691406 575.851562 C 55.96875 575.460938 57.226562 575.011719 58.460938 574.5 C 59.695312 573.988281 60.902344 573.417969 62.082031 572.789062 C 63.261719 572.15625 64.40625 571.472656 65.515625 570.726562 C 66.628906 569.984375 67.699219 569.191406 68.734375 568.34375 C 69.765625 567.492188 70.753906 566.597656 71.699219 565.652344 C 72.644531 564.707031 73.542969 563.71875 74.390625 562.683594 C 75.238281 561.648438 76.03125 560.578125 76.773438 559.464844 C 77.519531 558.355469 78.203125 557.210938 78.835938 556.03125 C 79.464844 554.851562 80.035156 553.644531 80.546875 552.410156 C 81.058594 551.175781 81.507812 549.917969 81.894531 548.636719 C 82.285156 547.359375 82.609375 546.0625 82.867188 544.75 C 83.128906 543.441406 83.324219 542.121094 83.457031 540.789062 C 83.585938 539.460938 83.652344 538.125 83.652344 536.789062 C 83.652344 535.453125 83.585938 534.117188 83.457031 532.789062 C 83.324219 531.457031 83.128906 530.136719 82.867188 528.824219 C 82.609375 527.515625 82.285156 526.21875 81.894531 524.9375 C 81.507812 523.660156 81.058594 522.402344 80.546875 521.167969 C 80.035156 519.933594 79.464844 518.726562 78.835938 517.546875 C 78.203125 516.367188 77.519531 515.222656 76.773438 514.109375 C 76.03125 513 75.238281 511.925781 74.390625 510.894531 C 73.542969 509.859375 72.644531 508.871094 71.699219 507.925781 C 70.753906 506.980469 69.765625 506.082031 68.734375 505.234375 C 67.699219 504.386719 66.628906 503.589844 65.515625 502.847656 C 64.40625 502.105469 63.261719 501.417969 62.082031 500.789062 C 60.902344 500.160156 59.695312 499.589844 58.460938 499.078125 C 57.226562 498.566406 55.96875 498.117188 54.691406 497.726562 C 53.414062 497.339844 52.117188 497.015625 50.808594 496.753906 C 49.496094 496.492188 48.175781 496.296875 46.847656 496.167969 C 45.515625 496.035156 44.183594 495.96875 42.847656 495.96875 Z M 42.847656 495.96875 " fill-opacity="1" fill-rule="nonzero"/><path fill="#00a5a5" d="M 147.921875 764.355469 C 147.285156 764.355469 146.652344 764.386719 146.023438 764.445312 C 145.390625 764.507812 144.761719 764.601562 144.140625 764.726562 C 143.519531 764.851562 142.902344 765.003906 142.296875 765.1875 C 141.6875 765.371094 141.089844 765.585938 140.503906 765.828125 C 139.917969 766.074219 139.34375 766.34375 138.785156 766.644531 C 138.226562 766.941406 137.679688 767.269531 137.152344 767.621094 C 136.625 767.972656 136.117188 768.351562 135.625 768.753906 C 135.136719 769.15625 134.664062 769.582031 134.214844 770.03125 C 133.765625 770.480469 133.339844 770.953125 132.9375 771.441406 C 132.535156 771.933594 132.160156 772.441406 131.804688 772.96875 C 131.453125 773.5 131.125 774.042969 130.828125 774.601562 C 130.527344 775.164062 130.257812 775.734375 130.015625 776.324219 C 129.769531 776.910156 129.558594 777.507812 129.375 778.113281 C 129.1875 778.722656 129.035156 779.335938 128.910156 779.960938 C 128.789062 780.582031 128.695312 781.210938 128.632812 781.84375 C 128.570312 782.472656 128.539062 783.109375 128.539062 783.742188 C 128.539062 784.378906 128.570312 785.011719 128.632812 785.644531 C 128.695312 786.273438 128.789062 786.902344 128.910156 787.523438 C 129.035156 788.148438 129.1875 788.761719 129.375 789.371094 C 129.558594 789.976562 129.769531 790.574219 130.015625 791.164062 C 130.257812 791.75 130.527344 792.324219 130.828125 792.882812 C 131.125 793.441406 131.453125 793.988281 131.804688 794.515625 C 132.160156 795.042969 132.535156 795.550781 132.9375 796.042969 C 133.339844 796.535156 133.765625 797.003906 134.214844 797.453125 C 134.664062 797.902344 135.136719 798.328125 135.625 798.730469 C 136.117188 799.132812 136.625 799.511719 137.152344 799.863281 C 137.679688 800.214844 138.226562 800.542969 138.785156 800.84375 C 139.34375 801.140625 139.917969 801.414062 140.503906 801.65625 C 141.089844 801.898438 141.6875 802.113281 142.296875 802.296875 C 142.902344 802.480469 143.519531 802.636719 144.140625 802.757812 C 144.761719 802.882812 145.390625 802.976562 146.023438 803.039062 C 146.652344 803.101562 147.285156 803.132812 147.921875 803.132812 C 148.558594 803.132812 149.191406 803.101562 149.820312 803.039062 C 150.453125 802.976562 151.082031 802.882812 151.703125 802.757812 C 152.324219 802.636719 152.941406 802.480469 153.546875 802.296875 C 154.15625 802.113281 154.753906 801.898438 155.339844 801.65625 C 155.925781 801.414062 156.5 801.140625 157.058594 800.84375 C 157.617188 800.542969 158.164062 800.214844 158.691406 799.863281 C 159.21875 799.511719 159.726562 799.132812 160.21875 798.730469 C 160.707031 798.328125 161.179688 797.902344 161.628906 797.453125 C 162.078125 797.003906 162.503906 796.535156 162.90625 796.042969 C 163.308594 795.550781 163.683594 795.042969 164.039062 794.515625 C 164.390625 793.988281 164.714844 793.441406 165.015625 792.882812 C 165.316406 792.324219 165.585938 791.75 165.828125 791.164062 C 166.070312 790.574219 166.285156 789.976562 166.46875 789.371094 C 166.65625 788.761719 166.808594 788.148438 166.933594 787.523438 C 167.054688 786.902344 167.148438 786.273438 167.210938 785.644531 C 167.273438 785.011719 167.304688 784.378906 167.304688 783.742188 C 167.304688 783.109375 167.273438 782.472656 167.210938 781.84375 C 167.148438 781.210938 167.054688 780.582031 166.933594 779.960938 C 166.808594 779.335938 166.65625 778.722656 166.46875 778.113281 C 166.285156 777.507812 166.074219 776.910156 165.828125 776.324219 C 165.585938 775.734375 165.316406 775.164062 165.015625 774.601562 C 164.71875 774.042969 164.390625 773.5 164.039062 772.96875 C 163.683594 772.441406 163.308594 771.933594 162.90625 771.441406 C 162.503906 770.953125 162.078125 770.480469 161.628906 770.03125 C 161.179688 769.582031 160.710938 769.15625 160.21875 768.753906 C 159.726562 768.351562 159.21875 767.972656 158.691406 767.621094 C 158.164062 767.269531 157.617188 766.941406 157.058594 766.644531 C 156.5 766.34375 155.925781 766.074219 155.339844 765.828125 C 154.753906 765.585938 154.15625 765.371094 153.546875 765.1875 C 152.941406 765.003906 152.324219 764.851562 151.703125 764.726562 C 151.082031 764.601562 150.453125 764.507812 149.820312 764.445312 C 149.191406 764.386719 148.558594 764.355469 147.921875 764.355469 Z M 147.921875 764.355469 " fill-opacity="1" fill-rule="nonzero"/><path fill="#ffffff" d="M 674.320312 180.644531 C 673.71875 180.644531 673.117188 180.671875 672.519531 180.730469 C 671.921875 180.792969 671.328125 180.878906 670.738281 180.996094 C 670.148438 181.113281 669.566406 181.261719 668.988281 181.433594 C 668.414062 181.609375 667.847656 181.8125 667.292969 182.042969 C 666.738281 182.273438 666.195312 182.527344 665.664062 182.8125 C 665.132812 183.097656 664.617188 183.40625 664.117188 183.738281 C 663.617188 184.074219 663.136719 184.433594 662.671875 184.8125 C 662.207031 185.195312 661.761719 185.597656 661.335938 186.023438 C 660.910156 186.449219 660.507812 186.894531 660.125 187.359375 C 659.742188 187.824219 659.386719 188.308594 659.050781 188.808594 C 658.71875 189.308594 658.410156 189.824219 658.125 190.351562 C 657.839844 190.882812 657.585938 191.425781 657.355469 191.984375 C 657.125 192.539062 656.921875 193.105469 656.746094 193.679688 C 656.574219 194.257812 656.425781 194.839844 656.308594 195.429688 C 656.191406 196.019531 656.105469 196.613281 656.046875 197.210938 C 655.988281 197.8125 655.957031 198.410156 655.957031 199.011719 C 655.957031 199.613281 655.988281 200.214844 656.046875 200.8125 C 656.105469 201.410156 656.191406 202.007812 656.308594 202.597656 C 656.425781 203.1875 656.574219 203.769531 656.746094 204.34375 C 656.921875 204.921875 657.125 205.484375 657.355469 206.042969 C 657.585938 206.597656 657.84375 207.140625 658.125 207.671875 C 658.410156 208.203125 658.71875 208.71875 659.050781 209.21875 C 659.386719 209.71875 659.742188 210.199219 660.125 210.664062 C 660.507812 211.128906 660.910156 211.574219 661.335938 212 C 661.761719 212.425781 662.207031 212.828125 662.671875 213.210938 C 663.136719 213.59375 663.617188 213.949219 664.117188 214.285156 C 664.617188 214.621094 665.132812 214.929688 665.664062 215.210938 C 666.195312 215.496094 666.738281 215.753906 667.292969 215.984375 C 667.847656 216.210938 668.414062 216.414062 668.988281 216.589844 C 669.566406 216.765625 670.148438 216.910156 670.738281 217.027344 C 671.328125 217.144531 671.921875 217.234375 672.519531 217.292969 C 673.117188 217.351562 673.71875 217.378906 674.320312 217.378906 C 674.921875 217.378906 675.519531 217.351562 676.121094 217.292969 C 676.71875 217.234375 677.3125 217.144531 677.902344 217.027344 C 678.492188 216.910156 679.074219 216.765625 679.648438 216.589844 C 680.226562 216.414062 680.792969 216.210938 681.347656 215.984375 C 681.902344 215.753906 682.445312 215.496094 682.976562 215.210938 C 683.507812 214.929688 684.023438 214.621094 684.523438 214.285156 C 685.023438 213.949219 685.503906 213.59375 685.96875 213.210938 C 686.433594 212.828125 686.878906 212.425781 687.304688 212 C 687.730469 211.574219 688.132812 211.128906 688.515625 210.664062 C 688.894531 210.199219 689.253906 209.71875 689.585938 209.21875 C 689.921875 208.71875 690.230469 208.203125 690.515625 207.671875 C 690.796875 207.140625 691.054688 206.597656 691.285156 206.042969 C 691.515625 205.484375 691.71875 204.921875 691.890625 204.34375 C 692.066406 203.769531 692.210938 203.1875 692.328125 202.597656 C 692.445312 202.007812 692.535156 201.410156 692.59375 200.8125 C 692.652344 200.214844 692.683594 199.613281 692.683594 199.011719 C 692.683594 198.410156 692.652344 197.8125 692.59375 197.210938 C 692.535156 196.613281 692.445312 196.019531 692.328125 195.429688 C 692.210938 194.839844 692.066406 194.257812 691.890625 193.679688 C 691.71875 193.105469 691.515625 192.539062 691.285156 191.984375 C 691.054688 191.425781 690.796875 190.882812 690.515625 190.351562 C 690.230469 189.824219 689.921875 189.308594 689.585938 188.808594 C 689.253906 188.308594 688.894531 187.824219 688.515625 187.359375 C 688.132812 186.894531 687.730469 186.449219 687.304688 186.023438 C 686.878906 185.597656 686.433594 185.195312 685.96875 184.8125 C 685.503906 184.433594 685.023438 184.074219 684.523438 183.738281 C 684.023438 183.40625 683.507812 183.097656 682.976562 182.8125 C 682.445312 182.527344 681.902344 182.273438 681.347656 182.042969 C 680.792969 181.8125 680.226562 181.609375 679.648438 181.433594 C 679.074219 181.261719 678.492188 181.113281 677.902344 180.996094 C 677.3125 180.878906 676.71875 180.792969 676.121094 180.730469 C 675.519531 180.671875 674.921875 180.644531 674.320312 180.644531 Z M 81.613281 387.800781 C 80.777344 387.800781 79.945312 387.839844 79.113281 387.921875 C 78.28125 388.003906 77.457031 388.125 76.636719 388.289062 C 75.816406 388.453125 75.007812 388.65625 74.207031 388.898438 C 73.410156 389.140625 72.625 389.421875 71.851562 389.742188 C 71.082031 390.0625 70.328125 390.417969 69.589844 390.8125 C 68.851562 391.207031 68.136719 391.636719 67.441406 392.097656 C 66.75 392.5625 66.078125 393.058594 65.433594 393.589844 C 64.785156 394.121094 64.167969 394.679688 63.578125 395.273438 C 62.988281 395.863281 62.425781 396.480469 61.898438 397.128906 C 61.367188 397.773438 60.871094 398.441406 60.40625 399.136719 C 59.941406 399.832031 59.511719 400.546875 59.121094 401.285156 C 58.726562 402.023438 58.371094 402.777344 58.050781 403.546875 C 57.730469 404.320312 57.449219 405.105469 57.207031 405.90625 C 56.964844 406.707031 56.761719 407.515625 56.597656 408.335938 C 56.433594 409.152344 56.3125 409.980469 56.230469 410.8125 C 56.148438 411.640625 56.109375 412.476562 56.109375 413.3125 C 56.109375 414.148438 56.148438 414.980469 56.230469 415.8125 C 56.3125 416.644531 56.433594 417.46875 56.597656 418.289062 C 56.761719 419.109375 56.964844 419.917969 57.207031 420.71875 C 57.449219 421.515625 57.730469 422.300781 58.050781 423.074219 C 58.371094 423.847656 58.726562 424.601562 59.121094 425.335938 C 59.511719 426.074219 59.941406 426.789062 60.40625 427.484375 C 60.871094 428.179688 61.367188 428.851562 61.898438 429.496094 C 62.425781 430.140625 62.988281 430.761719 63.578125 431.351562 C 64.167969 431.941406 64.785156 432.503906 65.433594 433.03125 C 66.078125 433.5625 66.75 434.058594 67.441406 434.523438 C 68.136719 434.988281 68.851562 435.417969 69.589844 435.8125 C 70.328125 436.203125 71.082031 436.5625 71.851562 436.882812 C 72.625 437.199219 73.410156 437.480469 74.207031 437.726562 C 75.007812 437.96875 75.816406 438.171875 76.636719 438.332031 C 77.457031 438.496094 78.28125 438.617188 79.113281 438.699219 C 79.945312 438.78125 80.777344 438.824219 81.613281 438.824219 C 82.449219 438.824219 83.28125 438.78125 84.113281 438.699219 C 84.941406 438.617188 85.769531 438.496094 86.585938 438.332031 C 87.40625 438.171875 88.214844 437.96875 89.015625 437.726562 C 89.816406 437.480469 90.601562 437.199219 91.371094 436.882812 C 92.144531 436.5625 92.898438 436.203125 93.632812 435.8125 C 94.371094 435.417969 95.085938 434.988281 95.78125 434.523438 C 96.476562 434.058594 97.144531 433.5625 97.792969 433.03125 C 98.4375 432.503906 99.054688 431.941406 99.644531 431.351562 C 100.238281 430.761719 100.796875 430.140625 101.328125 429.496094 C 101.855469 428.851562 102.355469 428.179688 102.816406 427.484375 C 103.28125 426.789062 103.710938 426.074219 104.105469 425.335938 C 104.5 424.601562 104.855469 423.847656 105.175781 423.074219 C 105.496094 422.300781 105.773438 421.515625 106.019531 420.71875 C 106.261719 419.917969 106.460938 419.109375 106.625 418.289062 C 106.789062 417.46875 106.910156 416.644531 106.992188 415.8125 C 107.074219 414.980469 107.117188 414.148438 107.117188 413.3125 C 107.117188 412.476562 107.074219 411.640625 106.992188 410.8125 C 106.910156 409.980469 106.789062 409.152344 106.625 408.335938 C 106.460938 407.515625 106.261719 406.707031 106.019531 405.90625 C 105.773438 405.105469 105.496094 404.320312 105.175781 403.546875 C 104.855469 402.777344 104.5 402.023438 104.105469 401.285156 C 103.710938 400.546875 103.28125 399.832031 102.816406 399.136719 C 102.355469 398.441406 101.855469 397.773438 101.328125 397.128906 C 100.796875 396.480469 100.238281 395.863281 99.644531 395.273438 C 99.054688 394.679688 98.4375 394.121094 97.792969 393.589844 C 97.144531 393.058594 96.476562 392.5625 95.78125 392.097656 C 95.085938 391.636719 94.371094 391.207031 93.632812 390.8125 C 92.898438 390.417969 92.144531 390.0625 91.371094 389.742188 C 90.601562 389.421875 89.816406 389.140625 89.015625 388.898438 C 88.214844 388.65625 87.40625 388.453125 86.585938 388.289062 C 85.769531 388.125 84.941406 388.003906 84.113281 387.921875 C 83.28125 387.839844 82.449219 387.800781 81.613281 387.800781 Z M 81.613281 387.800781 " fill-opacity="1" fill-rule="nonzero"/><path fill="#e09010" d="M 356.03125 522.5 C 374.394531 522.5 420.300781 525.5625 461.109375 522.5 C 488.652344 520.460938 517.214844 510.257812 533.539062 489.847656 C 637.59375 360.246094 492.734375 172.480469 344.8125 176.5625 C 233.613281 179.625 206.070312 523.523438 356.03125 522.5 Z M 356.03125 522.5 " fill-opacity="1" fill-rule="nonzero"/><path fill="#472b29" d="M 420.300781 526.582031 C 403.980469 526.582031 389.699219 525.5625 376.4375 525.5625 C 368.273438 525.5625 361.132812 524.542969 356.03125 524.542969 C 279.519531 524.542969 251.976562 437.804688 249.9375 363.308594 C 248.917969 273.507812 284.621094 175.542969 343.789062 174.519531 C 425.402344 172.480469 510.074219 227.585938 549.863281 308.203125 C 582.507812 373.511719 576.386719 439.84375 534.558594 491.886719 C 514.15625 517.398438 479.472656 523.523438 460.089844 525.5625 C 447.847656 526.582031 433.5625 526.582031 420.300781 526.582031 Z M 356.03125 520.460938 C 361.132812 520.460938 368.273438 520.460938 376.4375 521.480469 C 399.898438 522.5 431.523438 523.523438 460.089844 520.460938 C 478.449219 518.421875 512.117188 512.296875 530.480469 488.828125 C 571.285156 438.824219 576.386719 373.511719 544.761719 310.242188 C 505.996094 232.6875 425.402344 179.625 347.871094 179.625 C 345.832031 179.625 344.8125 179.625 343.789062 179.625 C 286.664062 180.644531 252.996094 276.566406 254.019531 363.308594 C 256.058594 435.761719 282.582031 520.460938 356.03125 520.460938 Z M 356.03125 520.460938 " fill-opacity="1" fill-rule="nonzero"/><path fill="#b2876b" d="M 580.464844 580.667969 C 579.445312 580.667969 476.410156 543.933594 476.410156 543.933594 C 470.289062 541.890625 466.210938 537.808594 464.167969 532.707031 C 462.128906 522.5 461.109375 513.316406 462.128906 503.113281 C 447.847656 509.234375 433.5625 514.339844 419.28125 517.398438 C 399.898438 519.441406 366.234375 493.929688 366.234375 493.929688 C 366.234375 493.929688 365.214844 524.542969 364.195312 531.6875 C 362.152344 537.808594 357.054688 541.890625 350.933594 543.933594 L 272.378906 570.464844 C 264.21875 572.503906 257.078125 575.566406 249.9375 579.648438 C 207.089844 601.078125 213.210938 722.515625 212.191406 728.636719 C 277.480469 760.273438 328.488281 792.925781 435.605469 784.761719 C 544.761719 776.597656 578.425781 742.921875 619.230469 722.515625 C 614.132812 626.589844 623.3125 593.933594 580.464844 580.667969 Z M 580.464844 580.667969 " fill-opacity="1" fill-rule="nonzero"/><path fill="#d8ad8f" d="M 533.539062 320.449219 C 534.558594 305.140625 530.480469 291.875 531.5 283.710938 C 518.238281 267.382812 509.054688 246.972656 490.691406 234.730469 C 469.269531 221.460938 445.804688 212.277344 421.324219 206.15625 C 363.171875 191.867188 306.046875 233.707031 287.683594 288.8125 L 286.664062 289.835938 C 288.703125 300.039062 289.722656 310.242188 290.742188 319.429688 C 275.441406 319.429688 267.28125 327.59375 272.378906 343.917969 C 272.378906 343.917969 278.5 370.453125 282.582031 383.71875 C 283.601562 390.859375 290.742188 395.964844 297.882812 395.964844 C 297.882812 404.128906 297.882812 413.3125 297.882812 421.476562 C 297.882812 431.679688 299.925781 441.882812 306.046875 450.046875 C 321.347656 472.5 399.898438 523.523438 419.28125 521.480469 C 449.886719 521.480469 511.09375 469.4375 527.417969 442.90625 C 530.480469 437.804688 531.5 431.679688 532.519531 425.558594 C 532.519531 415.351562 532.519531 405.148438 532.519531 394.941406 C 538.640625 393.921875 543.742188 388.820312 545.78125 382.699219 C 549.863281 369.429688 555.980469 342.898438 555.980469 342.898438 C 561.082031 328.613281 548.839844 319.429688 533.539062 320.449219 Z M 533.539062 320.449219 " fill-opacity="1" fill-rule="nonzero"/><path fill="#472b29" d="M 418.261719 526.582031 C 395.820312 526.582031 319.308594 475.558594 302.984375 453.109375 C 296.863281 443.925781 293.804688 432.699219 293.804688 421.476562 L 293.804688 400.046875 C 286.664062 398.003906 280.542969 392.902344 278.5 384.738281 C 274.421875 372.492188 268.300781 345.960938 268.300781 344.941406 C 265.238281 335.753906 266.257812 328.613281 270.339844 323.511719 C 272.378906 320.449219 277.480469 316.367188 286.664062 315.347656 C 285.640625 307.183594 284.621094 298 283.601562 289.835938 L 283.601562 287.792969 L 284.621094 285.753906 C 301.964844 232.6875 359.09375 184.726562 422.34375 201.054688 C 446.824219 207.175781 471.308594 216.359375 492.734375 230.648438 C 505.996094 238.8125 515.175781 252.078125 523.335938 264.324219 C 527.417969 269.425781 530.480469 275.546875 534.558594 280.648438 L 535.578125 281.671875 L 535.578125 283.710938 C 535.578125 286.773438 535.578125 290.855469 536.597656 295.957031 C 537.621094 302.078125 538.640625 308.203125 538.640625 316.367188 C 546.800781 317.386719 553.941406 320.449219 558.023438 326.570312 C 561.082031 330.652344 563.125 336.777344 560.0625 345.960938 C 559.042969 352.082031 552.921875 375.554688 549.863281 385.757812 C 548.839844 391.882812 543.742188 398.003906 536.597656 400.046875 L 536.597656 427.597656 C 536.597656 434.742188 534.558594 440.863281 531.5 446.988281 C 515.175781 473.519531 452.945312 527.605469 420.300781 527.605469 C 419.28125 526.582031 418.261719 526.582031 418.261719 526.582031 Z M 301.964844 392.902344 L 301.964844 422.496094 C 301.964844 431.679688 304.003906 440.863281 309.105469 449.027344 C 324.40625 471.476562 401.941406 520.460938 418.261719 518.421875 C 446.824219 518.421875 507.015625 468.417969 523.335938 441.882812 C 525.378906 437.800781 527.417969 431.679688 527.417969 426.578125 L 527.417969 392.902344 L 530.480469 392.902344 C 535.578125 391.882812 538.640625 388.820312 539.660156 383.71875 C 543.742188 371.472656 549.863281 344.941406 549.863281 343.917969 C 551.902344 337.796875 551.902344 333.714844 548.839844 330.652344 C 545.78125 326.570312 539.660156 323.511719 531.5 324.53125 L 527.417969 324.53125 L 527.417969 320.449219 C 528.4375 312.285156 527.417969 304.121094 526.398438 298 C 525.378906 292.894531 525.378906 288.8125 525.378906 285.753906 C 521.296875 280.648438 518.238281 275.546875 514.15625 270.445312 C 505.996094 258.199219 498.855469 246.972656 486.613281 239.832031 C 465.1875 226.566406 442.746094 217.378906 418.261719 211.257812 C 360.113281 196.972656 306.046875 241.871094 289.722656 291.875 C 291.761719 301.058594 292.785156 311.265625 292.785156 321.46875 L 292.785156 325.550781 L 288.703125 325.550781 C 283.601562 325.550781 277.480469 326.570312 274.421875 330.652344 C 271.359375 334.734375 272.378906 340.859375 274.421875 344.941406 C 274.421875 345.960938 280.542969 372.492188 284.621094 384.738281 C 285.640625 390.859375 290.742188 393.921875 295.84375 393.921875 Z M 301.964844 392.902344 " fill-opacity="1" fill-rule="nonzero"/><g mask="url(#79900b50f0)"><g transform="matrix(1, 0, 0, 1, 314, 379)"><g clip-path="url(#3d3d7bc971)"><path fill="#f4989e" d="M 27.75 8.800781 C 27.082031 8.800781 26.414062 8.832031 25.75 8.898438 C 25.085938 8.964844 24.425781 9.0625 23.769531 9.191406 C 23.113281 9.320312 22.46875 9.484375 21.828125 9.679688 C 21.1875 9.871094 20.558594 10.097656 19.941406 10.351562 C 19.324219 10.609375 18.722656 10.894531 18.132812 11.210938 C 17.542969 11.523438 16.972656 11.867188 16.414062 12.238281 C 15.859375 12.609375 15.324219 13.007812 14.808594 13.433594 C 14.289062 13.855469 13.796875 14.304688 13.324219 14.777344 C 12.851562 15.25 12.402344 15.746094 11.980469 16.261719 C 11.554688 16.777344 11.15625 17.3125 10.785156 17.871094 C 10.414062 18.425781 10.070312 19 9.757812 19.589844 C 9.441406 20.175781 9.15625 20.78125 8.902344 21.398438 C 8.644531 22.015625 8.421875 22.644531 8.226562 23.285156 C 8.03125 23.925781 7.871094 24.570312 7.738281 25.226562 C 7.609375 25.882812 7.511719 26.542969 7.445312 27.207031 C 7.378906 27.875 7.347656 28.539062 7.347656 29.210938 C 7.347656 29.878906 7.378906 30.542969 7.445312 31.210938 C 7.511719 31.875 7.609375 32.535156 7.738281 33.191406 C 7.871094 33.847656 8.03125 34.492188 8.226562 35.132812 C 8.421875 35.773438 8.644531 36.402344 8.902344 37.019531 C 9.15625 37.636719 9.441406 38.242188 9.757812 38.828125 C 10.070312 39.417969 10.414062 39.992188 10.785156 40.546875 C 11.15625 41.105469 11.554688 41.640625 11.980469 42.15625 C 12.402344 42.671875 12.851562 43.167969 13.324219 43.640625 C 13.796875 44.113281 14.289062 44.5625 14.808594 44.984375 C 15.324219 45.410156 15.859375 45.808594 16.414062 46.179688 C 16.972656 46.550781 17.542969 46.894531 18.132812 47.207031 C 18.722656 47.523438 19.324219 47.808594 19.941406 48.066406 C 20.558594 48.320312 21.1875 48.546875 21.828125 48.738281 C 22.46875 48.933594 23.113281 49.097656 23.769531 49.226562 C 24.425781 49.355469 25.085938 49.453125 25.75 49.519531 C 26.414062 49.585938 27.082031 49.617188 27.75 49.617188 C 28.417969 49.617188 29.085938 49.585938 29.75 49.519531 C 30.414062 49.453125 31.074219 49.355469 31.730469 49.226562 C 32.386719 49.097656 33.035156 48.933594 33.671875 48.738281 C 34.3125 48.546875 34.941406 48.320312 35.558594 48.066406 C 36.175781 47.808594 36.777344 47.523438 37.367188 47.207031 C 37.957031 46.894531 38.53125 46.550781 39.085938 46.179688 C 39.640625 45.808594 40.175781 45.410156 40.695312 44.984375 C 41.210938 44.5625 41.707031 44.113281 42.175781 43.640625 C 42.648438 43.167969 43.097656 42.671875 43.523438 42.15625 C 43.945312 41.640625 44.34375 41.105469 44.714844 40.546875 C 45.085938 39.992188 45.429688 39.417969 45.746094 38.828125 C 46.058594 38.242188 46.34375 37.636719 46.601562 37.019531 C 46.855469 36.402344 47.082031 35.773438 47.273438 35.132812 C 47.46875 34.492188 47.632812 33.847656 47.761719 33.191406 C 47.890625 32.535156 47.988281 31.875 48.054688 31.210938 C 48.121094 30.542969 48.152344 29.878906 48.152344 29.210938 C 48.152344 28.539062 48.121094 27.875 48.054688 27.207031 C 47.988281 26.542969 47.890625 25.882812 47.761719 25.226562 C 47.632812 24.570312 47.46875 23.925781 47.273438 23.285156 C 47.082031 22.644531 46.855469 22.015625 46.601562 21.398438 C 46.34375 20.78125 46.058594 20.175781 45.746094 19.589844 C 45.429688 19 45.085938 18.425781 44.714844 17.871094 C 44.34375 17.3125 43.945312 16.777344 43.523438 16.261719 C 43.097656 15.746094 42.648438 15.25 42.175781 14.777344 C 41.707031 14.304688 41.210938 13.855469 40.695312 13.433594 C 40.175781 13.007812 39.640625 12.609375 39.085938 12.238281 C 38.53125 11.867188 37.957031 11.523438 37.367188 11.210938 C 36.777344 10.894531 36.175781 10.609375 35.558594 10.351562 C 34.941406 10.097656 34.3125 9.871094 33.671875 9.679688 C 33.035156 9.484375 32.386719 9.320312 31.730469 9.191406 C 31.074219 9.0625 30.414062 8.964844 29.75 8.898438 C 29.085938 8.832031 28.417969 8.800781 27.75 8.800781 Z M 181.792969 8.800781 C 181.125 8.800781 180.457031 8.832031 179.792969 8.898438 C 179.128906 8.964844 178.46875 9.0625 177.8125 9.191406 C 177.15625 9.320312 176.511719 9.484375 175.871094 9.679688 C 175.230469 9.871094 174.601562 10.097656 173.984375 10.351562 C 173.367188 10.609375 172.765625 10.894531 172.175781 11.210938 C 171.585938 11.523438 171.015625 11.867188 170.457031 12.238281 C 169.902344 12.609375 169.367188 13.007812 168.851562 13.433594 C 168.332031 13.855469 167.839844 14.304688 167.367188 14.777344 C 166.894531 15.25 166.445312 15.746094 166.023438 16.261719 C 165.597656 16.777344 165.199219 17.3125 164.828125 17.871094 C 164.457031 18.425781 164.113281 19 163.800781 19.589844 C 163.484375 20.175781 163.199219 20.78125 162.945312 21.398438 C 162.6875 22.015625 162.460938 22.644531 162.269531 23.285156 C 162.074219 23.925781 161.914062 24.570312 161.78125 25.226562 C 161.652344 25.882812 161.554688 26.542969 161.488281 27.207031 C 161.421875 27.875 161.390625 28.539062 161.390625 29.210938 C 161.390625 29.878906 161.421875 30.542969 161.488281 31.210938 C 161.554688 31.875 161.652344 32.535156 161.78125 33.191406 C 161.914062 33.847656 162.074219 34.492188 162.269531 35.132812 C 162.460938 35.773438 162.6875 36.402344 162.945312 37.019531 C 163.199219 37.636719 163.484375 38.242188 163.800781 38.828125 C 164.113281 39.417969 164.457031 39.992188 164.828125 40.546875 C 165.199219 41.105469 165.597656 41.640625 166.023438 42.15625 C 166.445312 42.671875 166.894531 43.167969 167.367188 43.640625 C 167.839844 44.113281 168.332031 44.5625 168.851562 44.984375 C 169.367188 45.410156 169.902344 45.808594 170.457031 46.179688 C 171.011719 46.550781 171.585938 46.894531 172.175781 47.207031 C 172.765625 47.523438 173.367188 47.808594 173.984375 48.066406 C 174.601562 48.320312 175.230469 48.546875 175.871094 48.738281 C 176.511719 48.933594 177.15625 49.097656 177.8125 49.226562 C 178.46875 49.355469 179.128906 49.453125 179.792969 49.519531 C 180.457031 49.585938 181.125 49.617188 181.792969 49.617188 C 182.460938 49.617188 183.128906 49.585938 183.792969 49.519531 C 184.457031 49.453125 185.117188 49.355469 185.773438 49.226562 C 186.429688 49.097656 187.078125 48.933594 187.714844 48.738281 C 188.355469 48.546875 188.984375 48.320312 189.601562 48.066406 C 190.21875 47.808594 190.820312 47.523438 191.410156 47.207031 C 192 46.894531 192.574219 46.550781 193.128906 46.179688 C 193.683594 45.808594 194.21875 45.410156 194.738281 44.984375 C 195.253906 44.5625 195.746094 44.113281 196.21875 43.640625 C 196.691406 43.167969 197.140625 42.671875 197.566406 42.15625 C 197.988281 41.640625 198.386719 41.105469 198.757812 40.546875 C 199.128906 39.992188 199.472656 39.417969 199.789062 38.828125 C 200.101562 38.242188 200.386719 37.636719 200.644531 37.019531 C 200.898438 36.402344 201.125 35.773438 201.316406 35.132812 C 201.511719 34.492188 201.675781 33.847656 201.804688 33.191406 C 201.933594 32.535156 202.03125 31.875 202.097656 31.210938 C 202.164062 30.542969 202.195312 29.878906 202.195312 29.210938 C 202.195312 28.539062 202.164062 27.875 202.097656 27.207031 C 202.03125 26.542969 201.933594 25.882812 201.804688 25.226562 C 201.675781 24.570312 201.511719 23.925781 201.316406 23.285156 C 201.125 22.644531 200.898438 22.015625 200.644531 21.398438 C 200.386719 20.78125 200.101562 20.175781 199.789062 19.589844 C 199.472656 19 199.128906 18.425781 198.757812 17.871094 C 198.386719 17.3125 197.988281 16.777344 197.566406 16.261719 C 197.140625 15.746094 196.691406 15.25 196.21875 14.777344 C 195.746094 14.304688 195.253906 13.855469 194.738281 13.433594 C 194.21875 13.007812 193.683594 12.609375 193.128906 12.238281 C 192.574219 11.867188 192 11.523438 191.410156 11.210938 C 190.820312 10.894531 190.21875 10.609375 189.601562 10.351562 C 188.984375 10.097656 188.355469 9.871094 187.714844 9.679688 C 187.078125 9.484375 186.429688 9.320312 185.773438 9.191406 C 185.117188 9.0625 184.457031 8.964844 183.792969 8.898438 C 183.128906 8.832031 182.460938 8.800781 181.792969 8.800781 Z M 181.792969 8.800781 " fill-opacity="0.8" fill-rule="nonzero"/></g></g></g><path fill="#472b29" d="M 300.945312 404.128906 C 299.925781 404.128906 298.902344 403.105469 298.902344 402.085938 L 290.742188 320.449219 C 290.742188 319.429688 291.761719 318.40625 292.785156 318.40625 C 293.804688 318.40625 294.824219 319.429688 294.824219 320.449219 L 302.984375 402.085938 C 302.984375 403.105469 301.964844 404.128906 300.945312 404.128906 Z M 530.480469 400.046875 C 530.480469 400.046875 530.480469 399.023438 530.480469 400.046875 C 529.457031 400.046875 528.4375 399.023438 528.4375 398.003906 L 533.539062 315.347656 C 533.539062 314.324219 534.558594 313.304688 535.578125 313.304688 C 536.597656 313.304688 537.621094 314.324219 537.621094 315.347656 L 532.519531 398.003906 C 532.519531 399.023438 531.5 400.046875 530.480469 400.046875 Z M 530.480469 400.046875 " fill-opacity="1" fill-rule="nonzero"/><path fill="#6d1b18" d="M 381.535156 450.046875 C 381.535156 452.089844 380.515625 453.109375 380.515625 455.152344 C 380.515625 469.4375 395.820312 480.664062 416.222656 480.664062 C 436.625 480.664062 451.925781 469.4375 451.925781 455.152344 C 451.925781 453.109375 451.925781 452.089844 450.90625 450.046875 Z M 381.535156 450.046875 " fill-opacity="1" fill-rule="nonzero"/><path fill="#ee3e54" d="M 434.585938 476.582031 C 423.363281 468.417969 408.058594 468.417969 397.859375 476.582031 C 410.101562 481.683594 423.363281 481.683594 434.585938 476.582031 Z M 434.585938 476.582031 " fill-opacity="1" fill-rule="nonzero"/><path fill="#fdfcef" d="M 391.738281 450.046875 L 391.738281 454.128906 C 391.738281 458.210938 396.839844 461.273438 402.960938 461.273438 L 429.484375 461.273438 C 435.605469 461.273438 440.707031 458.210938 440.707031 454.128906 L 440.707031 450.046875 Z M 391.738281 450.046875 " fill-opacity="1" fill-rule="nonzero"/><path fill="#472b29" d="M 416.222656 482.703125 C 395.820312 482.703125 379.496094 470.457031 379.496094 455.152344 C 379.496094 453.109375 379.496094 451.070312 380.515625 450.046875 C 380.515625 449.027344 381.535156 449.027344 382.554688 449.027344 L 451.925781 449.027344 C 452.945312 449.027344 453.96875 450.046875 453.96875 450.046875 C 453.96875 452.089844 454.988281 453.109375 454.988281 455.152344 C 453.96875 470.457031 436.625 482.703125 416.222656 482.703125 Z M 383.578125 452.089844 C 383.578125 453.109375 383.578125 454.128906 383.578125 455.152344 C 383.578125 468.417969 398.878906 478.621094 416.222656 478.621094 C 434.585938 478.621094 449.886719 468.417969 449.886719 455.152344 C 449.886719 454.128906 449.886719 453.109375 449.886719 452.089844 Z M 383.578125 452.089844 " fill-opacity="1" fill-rule="nonzero"/><path fill="#00a5a5" d="M 325.429688 552.09375 C 323.386719 643.9375 502.933594 650.0625 490.691406 544.953125 L 540.679688 562.300781 L 555.980469 755.167969 C 555.980469 755.167969 410.101562 819.460938 266.257812 754.148438 L 273.402344 570.464844 Z M 325.429688 552.09375 " fill-opacity="1" fill-rule="nonzero"/><path fill="#472b29" d="M 416.222656 430.660156 C 424.382812 430.660156 431.523438 427.597656 436.625 421.476562 C 437.644531 421.476562 437.644531 420.453125 436.625 419.433594 C 435.605469 419.433594 435.605469 419.433594 434.585938 419.433594 C 424.382812 428.617188 408.058594 428.617188 397.859375 419.433594 C 397.859375 419.433594 396.839844 419.433594 396.839844 419.433594 C 396.839844 419.433594 395.820312 419.433594 395.820312 419.433594 C 395.820312 420.453125 395.820312 420.453125 395.820312 421.476562 C 400.917969 427.597656 408.058594 430.660156 416.222656 430.660156 Z M 425.402344 500.050781 C 426.421875 500.050781 426.421875 499.03125 425.402344 500.050781 C 426.421875 499.03125 425.402344 498.011719 425.402344 498.011719 L 407.039062 498.011719 C 407.039062 498.011719 406.019531 498.011719 406.019531 499.03125 C 406.019531 500.050781 406.019531 500.050781 407.039062 500.050781 Z M 425.402344 500.050781 " fill-opacity="0.41" fill-rule="nonzero"/><path fill="#512c2b" d="M 395.820312 299.019531 C 371.335938 291.875 345.832031 288.8125 320.328125 290.855469 C 319.308594 290.855469 318.285156 291.875 318.285156 292.894531 C 318.285156 293.917969 319.308594 294.9375 320.328125 294.9375 C 320.328125 294.9375 372.355469 304.121094 387.65625 309.222656 L 388.675781 309.222656 C 389.699219 309.222656 389.699219 309.222656 390.71875 308.203125 L 396.839844 301.058594 C 396.839844 300.039062 396.839844 300.039062 396.839844 299.019531 C 396.839844 300.039062 396.839844 299.019531 395.820312 299.019531 Z M 436.625 296.976562 C 461.109375 290.855469 487.632812 289.835938 513.136719 292.894531 C 514.15625 292.894531 515.175781 293.917969 515.175781 294.9375 C 515.175781 295.957031 514.15625 296.976562 513.136719 296.976562 C 513.136719 296.976562 461.109375 303.101562 444.785156 308.203125 L 443.765625 308.203125 C 442.746094 308.203125 441.726562 308.203125 441.726562 307.183594 L 435.605469 300.039062 C 435.605469 299.019531 435.605469 299.019531 435.605469 298 C 435.605469 296.976562 435.605469 296.976562 436.625 296.976562 Z M 436.625 296.976562 " fill-opacity="1" fill-rule="nonzero"/><path fill="#472b29" d="M 359.09375 328.613281 C 353.992188 328.613281 348.890625 331.671875 346.851562 336.777344 C 347.871094 336.777344 347.871094 336.777344 348.890625 336.777344 C 353.992188 336.777344 357.054688 340.859375 357.054688 344.941406 C 357.054688 350.042969 352.972656 353.105469 348.890625 353.105469 C 347.871094 353.105469 345.832031 353.105469 344.8125 352.082031 C 345.832031 359.226562 351.953125 364.328125 359.09375 365.347656 C 369.292969 363.308594 375.414062 352.082031 373.375 341.878906 C 371.335938 336.777344 366.234375 331.671875 359.09375 328.613281 Z M 471.308594 328.613281 C 467.230469 328.613281 463.148438 330.652344 460.089844 334.734375 C 461.109375 334.734375 462.128906 333.714844 463.148438 333.714844 C 468.25 333.714844 471.308594 337.796875 471.308594 341.878906 C 471.308594 346.980469 467.230469 350.042969 463.148438 350.042969 C 460.089844 350.042969 458.046875 349.023438 457.027344 345.960938 C 459.066406 354.125 467.230469 359.226562 475.390625 357.183594 C 483.550781 355.144531 488.652344 346.980469 486.613281 338.816406 C 484.570312 333.714844 478.449219 329.632812 471.308594 328.613281 Z M 471.308594 328.613281 " fill-opacity="1" fill-rule="nonzero"/><path fill="#472b29" d="M 398.878906 324.53125 C 375.414062 296.976562 289.722656 316.367188 289.722656 316.367188 C 291.761719 322.488281 292.785156 328.613281 293.804688 334.734375 C 299.925781 335.753906 300.945312 350.042969 300.945312 355.144531 C 304.003906 380.65625 321.347656 399.023438 357.054688 399.023438 C 381.535156 400.046875 401.941406 379.636719 402.960938 355.144531 C 403.980469 344.941406 402.960938 333.714844 398.878906 324.53125 Z M 394.796875 356.164062 C 394.796875 376.574219 377.457031 393.921875 357.054688 393.921875 C 357.054688 393.921875 356.03125 393.921875 356.03125 393.921875 C 353.992188 393.921875 351.953125 393.921875 348.890625 393.921875 C 313.1875 393.921875 307.066406 362.289062 306.046875 342.898438 C 305.023438 331.671875 314.207031 321.46875 325.429688 320.449219 C 332.570312 319.429688 339.710938 319.429688 347.871094 319.429688 C 374.394531 319.429688 386.636719 325.550781 389.699219 330.652344 C 393.777344 338.816406 395.820312 346.980469 394.796875 356.164062 Z M 424.382812 354.125 C 424.382812 378.617188 444.785156 399.023438 470.289062 398.003906 C 505.996094 399.023438 523.335938 379.636719 526.398438 354.125 C 527.417969 349.023438 527.417969 334.734375 533.539062 333.714844 C 534.558594 327.59375 536.597656 321.46875 537.621094 315.347656 C 537.621094 315.347656 450.90625 295.957031 428.464844 323.511719 C 424.382812 333.714844 423.363281 343.917969 424.382812 354.125 Z M 437.644531 330.652344 C 440.707031 325.550781 451.925781 319.429688 478.449219 319.429688 C 486.613281 319.429688 494.773438 319.429688 500.894531 320.449219 C 512.117188 321.46875 520.277344 331.671875 520.277344 342.898438 C 519.257812 362.289062 513.136719 393.921875 477.429688 393.921875 C 475.390625 393.921875 473.351562 393.921875 470.289062 393.921875 C 449.886719 394.941406 432.542969 378.617188 431.523438 357.183594 C 431.523438 357.183594 431.523438 356.164062 431.523438 356.164062 C 431.523438 346.980469 433.5625 338.816406 437.644531 330.652344 Z M 437.644531 330.652344 " fill-opacity="1" fill-rule="nonzero"/><path fill="#472b29" d="M 429.484375 346.980469 C 424.382812 343.917969 419.28125 341.878906 413.160156 341.878906 C 408.058594 341.878906 402.960938 342.898438 397.859375 346.980469 L 392.757812 333.714844 L 433.5625 333.714844 Z M 429.484375 346.980469 " fill-opacity="1" fill-rule="nonzero"/><path fill="#efa21b" d="M 585.566406 327.59375 C 543.742188 325.550781 567.203125 154.113281 399.898438 161.253906 C 230.554688 169.417969 283.601562 323.511719 292.785156 341.878906 C 299.925781 339.835938 338.691406 290.855469 356.03125 257.179688 C 396.839844 318.40625 537.621094 362.289062 585.566406 327.59375 Z M 585.566406 327.59375 " fill-opacity="1" fill-rule="nonzero"/><path fill="#472b29" d="M 292.785156 344.941406 C 291.761719 344.941406 290.742188 343.917969 290.742188 343.917969 C 283.601562 329.632812 260.136719 261.261719 288.703125 212.277344 C 308.085938 179.625 344.8125 162.277344 398.878906 159.214844 C 513.136719 154.113281 539.660156 231.667969 558.023438 282.691406 C 566.183594 306.160156 573.324219 325.550781 585.566406 325.550781 C 586.585938 325.550781 587.605469 326.570312 587.605469 327.59375 C 587.605469 328.613281 587.605469 329.632812 586.585938 330.652344 C 569.246094 343.917969 538.640625 346.980469 500.894531 339.835938 C 449.886719 330.652344 384.597656 302.078125 356.03125 263.300781 C 338.691406 295.957031 301.964844 341.878906 292.785156 344.941406 C 293.804688 344.941406 293.804688 344.941406 292.785156 344.941406 Z M 410.101562 163.296875 C 407.039062 163.296875 403.980469 163.296875 399.898438 163.296875 C 346.851562 165.335938 311.144531 182.683594 293.804688 213.300781 C 267.28125 258.199219 286.664062 319.429688 293.804688 337.796875 C 302.984375 329.632812 337.671875 286.773438 352.972656 255.136719 C 352.972656 254.117188 353.992188 254.117188 355.011719 254.117188 C 356.03125 254.117188 357.054688 254.117188 357.054688 255.136719 C 383.578125 293.917969 449.886719 323.511719 501.914062 332.695312 C 534.558594 338.816406 562.101562 336.777344 579.445312 327.589844 C 568.222656 322.488281 562.101562 304.121094 553.941406 282.691406 C 537.621094 235.75 512.117188 163.296875 410.101562 163.296875 Z M 410.101562 163.296875 " fill-opacity="1" fill-rule="nonzero"/><path fill="#e2900e" d="M 397.859375 159.214844 C 495.792969 195.949219 485.59375 283.710938 489.671875 331.671875 C 526.398438 339.835938 563.125 340.859375 582.507812 326.570312 C 540.679688 324.53125 563.125 152.070312 397.859375 159.214844 Z M 397.859375 159.214844 " fill-opacity="1" fill-rule="nonzero"/><path fill="#d12642" d="M 391.738281 784.761719 C 407.039062 788.84375 422.34375 781.703125 435.605469 783.742188 L 431.523438 632.710938 L 395.820312 632.710938 Z M 391.738281 784.761719 " fill-opacity="1" fill-rule="nonzero"/><path fill="#ee3e54" d="M 442.746094 617.40625 L 431.523438 639.855469 L 395.820312 639.855469 L 384.597656 617.40625 L 413.160156 592.914062 Z M 442.746094 617.40625 " fill-opacity="1" fill-rule="nonzero"/><path fill="#472b29" d="M 410.101562 788.84375 C 339.710938 788.84375 270.339844 769.457031 210.152344 732.71875 C 209.132812 731.699219 208.109375 730.679688 208.109375 728.636719 C 206.070312 642.917969 219.332031 589.851562 248.917969 575.566406 C 256.058594 571.484375 264.21875 568.421875 272.378906 566.382812 L 299.925781 557.199219 C 299.925781 557.199219 299.925781 556.175781 299.925781 556.175781 C 299.925781 554.136719 300.945312 553.117188 302.984375 552.09375 L 351.953125 530.664062 C 353.992188 529.644531 356.03125 530.664062 357.054688 531.6875 L 360.113281 533.726562 C 361.132812 532.707031 361.132812 531.6875 361.132812 530.664062 C 361.132812 529.644531 362.152344 527.605469 362.152344 525.5625 L 355.011719 525.5625 C 304.003906 525.5625 266.257812 486.785156 252.996094 418.414062 C 234.632812 326.570312 261.160156 201.054688 323.386719 174.519531 C 346.851562 162.273438 373.375 155.132812 399.898438 155.132812 C 516.195312 150.03125 542.71875 229.625 561.082031 282.691406 C 569.246094 306.160156 575.363281 324.53125 585.566406 325.550781 C 587.605469 325.550781 589.648438 327.589844 590.667969 329.632812 C 591.6875 331.671875 590.667969 333.714844 588.628906 334.734375 C 582.507812 338.816406 575.363281 342.898438 567.203125 344.941406 C 581.484375 395.964844 570.265625 451.070312 536.597656 491.886719 C 518.238281 514.339844 487.632812 522.5 467.230469 525.5625 C 467.230469 527.605469 468.25 529.644531 469.269531 531.6875 C 469.269531 531.6875 470.289062 532.707031 470.289062 532.707031 L 471.308594 531.6875 C 472.328125 530.664062 475.390625 529.644531 476.410156 530.664062 L 525.378906 552.09375 C 526.398438 553.117188 528.4375 554.136719 528.4375 556.175781 C 528.4375 556.175781 528.4375 557.199219 528.4375 557.199219 C 535.578125 560.257812 542.71875 562.300781 548.839844 564.339844 C 560.0625 568.421875 569.246094 571.484375 572.304688 572.503906 L 581.484375 575.566406 C 620.25 587.8125 621.273438 638.835938 623.3125 709.25 L 623.3125 721.492188 C 623.3125 723.535156 622.292969 724.554688 621.273438 725.574219 C 564.144531 762.3125 498.855469 783.742188 431.523438 787.824219 Z M 217.292969 725.574219 C 275.441406 760.273438 341.75 778.640625 410.101562 778.640625 C 410.101562 778.640625 410.101562 778.640625 411.121094 778.640625 L 431.523438 778.640625 C 495.792969 775.578125 559.042969 755.167969 614.132812 719.453125 L 614.132812 710.269531 C 613.109375 641.898438 612.089844 595.976562 579.445312 585.769531 L 569.246094 581.6875 C 566.183594 580.667969 557.003906 576.585938 545.78125 573.527344 C 537.621094 570.464844 528.4375 567.402344 519.257812 564.339844 C 517.214844 563.320312 516.195312 562.300781 516.195312 560.257812 C 516.195312 559.238281 516.195312 559.238281 516.195312 558.21875 L 476.410156 540.871094 L 473.351562 543.933594 C 471.308594 545.972656 468.25 545.972656 466.210938 543.933594 C 463.148438 541.890625 461.109375 538.828125 460.089844 534.746094 C 458.046875 529.644531 457.027344 524.542969 457.027344 520.460938 C 457.027344 517.398438 459.066406 515.359375 462.128906 515.359375 C 479.472656 513.316406 512.117188 507.195312 530.480469 484.746094 C 563.125 444.945312 573.324219 390.859375 557.003906 341.878906 C 557.003906 340.859375 557.003906 338.816406 557.003906 337.796875 C 558.023438 336.777344 559.042969 335.753906 560.0625 335.753906 C 565.164062 334.734375 569.246094 333.714844 574.34375 331.671875 C 564.144531 323.511719 559.042969 307.183594 551.902344 286.773438 C 533.539062 232.6875 508.035156 160.234375 399.898438 165.335938 C 374.394531 165.335938 349.910156 172.480469 327.46875 183.707031 C 275.441406 206.15625 243.816406 320.449219 263.199219 416.371094 C 270.339844 453.109375 292.785156 515.359375 355.011719 515.359375 C 355.011719 515.359375 355.011719 515.359375 356.03125 515.359375 L 365.214844 515.359375 C 368.273438 515.359375 370.316406 517.398438 370.316406 520.460938 C 370.316406 525.5625 369.292969 529.644531 369.292969 532.707031 C 369.292969 532.707031 369.292969 533.726562 369.292969 533.726562 C 368.273438 538.828125 365.214844 542.910156 361.132812 544.953125 C 359.09375 545.972656 357.054688 545.972656 355.011719 543.933594 L 350.933594 540.871094 L 311.144531 558.21875 C 311.144531 559.238281 311.144531 559.238281 311.144531 560.257812 C 311.144531 562.300781 309.105469 563.320312 308.085938 564.339844 L 273.402344 575.566406 C 266.257812 577.605469 259.117188 580.667969 251.976562 584.75 C 227.492188 595.976562 215.25 645.980469 217.292969 725.574219 Z M 217.292969 725.574219 " fill-opacity="1" fill-rule="nonzero"/><path fill="#e6e7e8" d="M 413.160156 594.957031 L 376.4375 633.734375 L 305.023438 561.28125 L 352.972656 540.871094 L 367.253906 555.15625 Z M 413.160156 594.957031 L 449.886719 633.734375 L 521.296875 561.28125 L 473.351562 540.871094 L 459.066406 553.117188 Z M 413.160156 594.957031 " fill-opacity="1" fill-rule="nonzero"/></svg>