<svg xmlns="http://www.w3.org/2000/svg" xmlns:xlink="http://www.w3.org/1999/xlink" width="1080" zoomAndPan="magnify" viewBox="0 0 810 809.999993" height="1080" preserveAspectRatio="xMidYMid meet" version="1.0"><defs><filter x="0%" y="0%" width="100%" height="100%" id="58e216f725"><feColorMatrix values="0 0 0 0 1 0 0 0 0 1 0 0 0 0 1 0 0 0 1 0" color-interpolation-filters="sRGB"/></filter><mask id="ff177670a5"><g filter="url(#58e216f725)"><rect x="-81" width="972" fill="#000000" y="-80.999999" height="971.999992" fill-opacity="0.3"/></g></mask><clipPath id="c3bb59bcc4"><rect x="0" width="206" y="0" height="52"/></clipPath></defs><path fill="#ffffff" d="M 107.386719 462.273438 C 106.78125 462.273438 106.183594 462.328125 105.589844 462.445312 C 104.996094 462.5625 104.417969 462.738281 103.859375 462.96875 C 103.300781 463.199219 102.765625 463.480469 102.265625 463.816406 C 101.761719 464.152344 101.292969 464.535156 100.867188 464.960938 C 100.4375 465.390625 100.054688 465.855469 99.71875 466.359375 C 99.382812 466.859375 99.097656 467.390625 98.867188 467.949219 C 98.632812 468.507812 98.460938 469.085938 98.339844 469.679688 C 98.222656 470.273438 98.164062 470.871094 98.164062 471.476562 C 98.164062 472.082031 98.222656 472.683594 98.339844 473.273438 C 98.460938 473.867188 98.632812 474.445312 98.867188 475.003906 C 99.097656 475.5625 99.382812 476.09375 99.71875 476.597656 C 100.054688 477.097656 100.4375 477.566406 100.867188 477.992188 C 101.292969 478.417969 101.761719 478.800781 102.265625 479.136719 C 102.765625 479.472656 103.300781 479.753906 103.859375 479.984375 C 104.417969 480.21875 104.996094 480.390625 105.589844 480.507812 C 106.183594 480.625 106.78125 480.683594 107.386719 480.683594 C 107.992188 480.683594 108.589844 480.625 109.183594 480.507812 C 109.777344 480.390625 110.355469 480.21875 110.914062 479.984375 C 111.472656 479.753906 112.003906 479.472656 112.507812 479.136719 C 113.011719 478.800781 113.476562 478.417969 113.90625 477.992188 C 114.335938 477.566406 114.71875 477.097656 115.054688 476.597656 C 115.390625 476.09375 115.675781 475.5625 115.90625 475.003906 C 116.136719 474.445312 116.3125 473.867188 116.429688 473.273438 C 116.550781 472.683594 116.609375 472.082031 116.609375 471.476562 C 116.609375 470.871094 116.550781 470.273438 116.429688 469.679688 C 116.3125 469.085938 116.136719 468.507812 115.90625 467.949219 C 115.675781 467.390625 115.390625 466.859375 115.054688 466.359375 C 114.71875 465.855469 114.335938 465.390625 113.90625 464.960938 C 113.476562 464.535156 113.011719 464.152344 112.507812 463.816406 C 112.003906 463.480469 111.472656 463.199219 110.914062 462.96875 C 110.355469 462.738281 109.777344 462.5625 109.183594 462.445312 C 108.589844 462.328125 107.992188 462.273438 107.386719 462.273438 Z M 710.796875 209.660156 C 710.324219 209.660156 709.859375 209.703125 709.398438 209.796875 C 708.9375 209.886719 708.488281 210.023438 708.054688 210.203125 C 707.621094 210.382812 707.207031 210.605469 706.816406 210.867188 C 706.425781 211.125 706.066406 211.421875 705.734375 211.757812 C 705.402344 212.089844 705.105469 212.449219 704.84375 212.839844 C 704.582031 213.230469 704.359375 213.644531 704.179688 214.078125 C 704 214.511719 703.867188 214.960938 703.773438 215.421875 C 703.683594 215.882812 703.636719 216.347656 703.636719 216.816406 C 703.636719 217.289062 703.683594 217.753906 703.773438 218.214844 C 703.867188 218.675781 704 219.125 704.179688 219.558594 C 704.359375 219.992188 704.582031 220.40625 704.84375 220.796875 C 705.105469 221.1875 705.402344 221.546875 705.734375 221.878906 C 706.066406 222.210938 706.425781 222.507812 706.816406 222.769531 C 707.207031 223.03125 707.621094 223.253906 708.054688 223.433594 C 708.488281 223.613281 708.9375 223.746094 709.398438 223.839844 C 709.859375 223.929688 710.324219 223.976562 710.796875 223.976562 C 711.265625 223.976562 711.730469 223.929688 712.191406 223.839844 C 712.652344 223.746094 713.101562 223.613281 713.535156 223.433594 C 713.96875 223.253906 714.382812 223.03125 714.773438 222.769531 C 715.164062 222.507812 715.523438 222.210938 715.859375 221.878906 C 716.191406 221.546875 716.488281 221.1875 716.746094 220.796875 C 717.007812 220.40625 717.230469 219.992188 717.410156 219.558594 C 717.589844 219.125 717.726562 218.675781 717.816406 218.214844 C 717.910156 217.753906 717.953125 217.289062 717.953125 216.816406 C 717.953125 216.347656 717.910156 215.882812 717.816406 215.421875 C 717.726562 214.960938 717.589844 214.511719 717.410156 214.078125 C 717.230469 213.644531 717.007812 213.230469 716.746094 212.839844 C 716.488281 212.449219 716.191406 212.089844 715.859375 211.757812 C 715.523438 211.421875 715.164062 211.125 714.773438 210.867188 C 714.382812 210.605469 713.96875 210.382812 713.535156 210.203125 C 713.101562 210.023438 712.652344 209.886719 712.191406 209.796875 C 711.730469 209.703125 711.265625 209.660156 710.796875 209.660156 Z M 710.796875 209.660156 " fill-opacity="1" fill-rule="nonzero"/><path fill="#f1bc19" d="M 684.203125 13.296875 C 683.601562 13.292969 683 13.351562 682.40625 13.472656 C 681.8125 13.589844 681.238281 13.761719 680.679688 13.992188 C 680.121094 14.222656 679.589844 14.507812 679.085938 14.84375 C 678.582031 15.179688 678.117188 15.5625 677.691406 15.988281 C 677.261719 16.414062 676.878906 16.878906 676.542969 17.382812 C 676.207031 17.886719 675.925781 18.417969 675.691406 18.976562 C 675.460938 19.535156 675.285156 20.109375 675.167969 20.703125 C 675.050781 21.296875 674.992188 21.894531 674.992188 22.5 C 674.992188 23.105469 675.050781 23.703125 675.167969 24.296875 C 675.285156 24.890625 675.460938 25.464844 675.691406 26.023438 C 675.925781 26.582031 676.207031 27.113281 676.542969 27.617188 C 676.878906 28.121094 677.261719 28.585938 677.691406 29.011719 C 678.117188 29.4375 678.582031 29.820312 679.085938 30.15625 C 679.589844 30.492188 680.121094 30.777344 680.679688 31.007812 C 681.238281 31.238281 681.8125 31.410156 682.40625 31.527344 C 683 31.648438 683.601562 31.707031 684.203125 31.703125 C 684.808594 31.707031 685.410156 31.648438 686 31.527344 C 686.59375 31.410156 687.171875 31.238281 687.730469 31.007812 C 688.289062 30.777344 688.820312 30.492188 689.324219 30.15625 C 689.824219 29.820312 690.292969 29.4375 690.71875 29.011719 C 691.148438 28.585938 691.527344 28.121094 691.863281 27.617188 C 692.199219 27.113281 692.484375 26.582031 692.714844 26.023438 C 692.949219 25.464844 693.121094 24.890625 693.242188 24.296875 C 693.359375 23.703125 693.417969 23.105469 693.417969 22.5 C 693.417969 21.894531 693.359375 21.296875 693.242188 20.703125 C 693.121094 20.109375 692.949219 19.535156 692.714844 18.976562 C 692.484375 18.417969 692.199219 17.886719 691.863281 17.382812 C 691.527344 16.878906 691.148438 16.414062 690.71875 15.988281 C 690.292969 15.5625 689.824219 15.179688 689.324219 14.84375 C 688.820312 14.507812 688.289062 14.222656 687.730469 13.992188 C 687.171875 13.761719 686.59375 13.589844 686 13.472656 C 685.410156 13.351562 684.808594 13.292969 684.203125 13.296875 Z M 111.476562 541.023438 C 110.871094 541.023438 110.273438 541.082031 109.679688 541.199219 C 109.089844 541.316406 108.511719 541.492188 107.953125 541.722656 C 107.394531 541.953125 106.867188 542.238281 106.363281 542.574219 C 105.859375 542.910156 105.394531 543.292969 104.96875 543.71875 C 104.542969 544.144531 104.160156 544.609375 103.824219 545.113281 C 103.488281 545.617188 103.203125 546.144531 102.972656 546.703125 C 102.742188 547.261719 102.566406 547.839844 102.449219 548.429688 C 102.332031 549.023438 102.273438 549.621094 102.273438 550.226562 C 102.273438 550.832031 102.332031 551.429688 102.449219 552.023438 C 102.566406 552.617188 102.742188 553.191406 102.972656 553.75 C 103.203125 554.308594 103.488281 554.839844 103.824219 555.339844 C 104.160156 555.84375 104.542969 556.308594 104.96875 556.734375 C 105.394531 557.164062 105.859375 557.542969 106.363281 557.878906 C 106.867188 558.214844 107.394531 558.5 107.953125 558.730469 C 108.511719 558.960938 109.089844 559.136719 109.679688 559.253906 C 110.273438 559.371094 110.871094 559.433594 111.476562 559.433594 C 112.082031 559.433594 112.679688 559.371094 113.273438 559.253906 C 113.867188 559.136719 114.441406 558.960938 115 558.730469 C 115.558594 558.5 116.089844 558.214844 116.589844 557.878906 C 117.09375 557.542969 117.558594 557.164062 117.984375 556.734375 C 118.414062 556.308594 118.792969 555.84375 119.128906 555.339844 C 119.464844 554.839844 119.75 554.308594 119.980469 553.75 C 120.210938 553.191406 120.386719 552.617188 120.503906 552.023438 C 120.621094 551.429688 120.683594 550.832031 120.683594 550.226562 C 120.683594 549.621094 120.621094 549.023438 120.503906 548.429688 C 120.386719 547.839844 120.210938 547.261719 119.980469 546.703125 C 119.75 546.144531 119.464844 545.617188 119.128906 545.113281 C 118.792969 544.609375 118.414062 544.144531 117.984375 543.71875 C 117.558594 543.292969 117.09375 542.910156 116.589844 542.574219 C 116.089844 542.238281 115.558594 541.953125 115 541.722656 C 114.441406 541.492188 113.867188 541.316406 113.273438 541.199219 C 112.679688 541.082031 112.082031 541.023438 111.476562 541.023438 Z M 111.476562 541.023438 " fill-opacity="1" fill-rule="nonzero"/><path fill="#f9dbd2" d="M 408.066406 19.433594 C 401.792969 19.433594 395.519531 19.585938 389.25 19.894531 C 382.980469 20.203125 376.722656 20.664062 370.476562 21.277344 C 364.230469 21.894531 358.003906 22.660156 351.792969 23.582031 C 345.585938 24.503906 339.402344 25.578125 333.246094 26.800781 C 327.089844 28.027344 320.96875 29.402344 314.878906 30.925781 C 308.792969 32.449219 302.742188 34.125 296.738281 35.945312 C 290.730469 37.769531 284.773438 39.738281 278.863281 41.851562 C 272.953125 43.964844 267.097656 46.222656 261.300781 48.625 C 255.5 51.027344 249.765625 53.570312 244.089844 56.253906 C 238.417969 58.9375 232.8125 61.757812 227.277344 64.71875 C 221.742188 67.675781 216.28125 70.769531 210.898438 73.996094 C 205.515625 77.222656 200.214844 80.578125 194.996094 84.066406 C 189.777344 87.554688 184.644531 91.167969 179.605469 94.90625 C 174.5625 98.644531 169.617188 102.503906 164.765625 106.488281 C 159.910156 110.46875 155.160156 114.566406 150.511719 118.78125 C 145.859375 123 141.316406 127.324219 136.875 131.761719 C 132.4375 136.203125 128.113281 140.746094 123.898438 145.394531 C 119.679688 150.046875 115.582031 154.796875 111.601562 159.648438 C 107.621094 164.503906 103.757812 169.449219 100.019531 174.492188 C 96.28125 179.53125 92.667969 184.660156 89.179688 189.878906 C 85.695312 195.097656 82.335938 200.402344 79.109375 205.785156 C 75.882812 211.167969 72.789062 216.628906 69.832031 222.164062 C 66.871094 227.699219 64.050781 233.304688 61.367188 238.976562 C 58.683594 244.652344 56.140625 250.386719 53.738281 256.1875 C 51.335938 261.984375 49.078125 267.839844 46.964844 273.75 C 44.851562 279.660156 42.882812 285.617188 41.058594 291.625 C 39.238281 297.628906 37.5625 303.675781 36.039062 309.765625 C 34.515625 315.855469 33.140625 321.976562 31.914062 328.132812 C 30.691406 334.289062 29.617188 340.472656 28.695312 346.679688 C 27.777344 352.890625 27.007812 359.117188 26.390625 365.363281 C 25.777344 371.609375 25.316406 377.867188 25.007812 384.136719 C 24.699219 390.40625 24.546875 396.679688 24.546875 402.953125 C 24.546875 409.230469 24.699219 415.503906 25.007812 421.773438 C 25.316406 428.042969 25.777344 434.300781 26.390625 440.546875 C 27.007812 446.792969 27.777344 453.019531 28.695312 459.230469 C 29.617188 465.4375 30.691406 471.621094 31.914062 477.777344 C 33.140625 483.933594 34.515625 490.054688 36.039062 496.144531 C 37.5625 502.230469 39.238281 508.277344 41.058594 514.285156 C 42.882812 520.292969 44.851562 526.25 46.964844 532.160156 C 49.078125 538.070312 51.335938 543.921875 53.738281 549.722656 C 56.140625 555.519531 58.683594 561.257812 61.367188 566.929688 C 64.050781 572.605469 66.871094 578.210938 69.832031 583.746094 C 72.789062 589.28125 75.882812 594.742188 79.109375 600.125 C 82.335938 605.507812 85.695312 610.808594 89.179688 616.027344 C 92.667969 621.246094 96.28125 626.378906 100.019531 631.417969 C 103.757812 636.460938 107.621094 641.40625 111.601562 646.257812 C 115.582031 651.109375 119.679688 655.863281 123.898438 660.511719 C 128.113281 665.164062 132.4375 669.707031 136.875 674.144531 C 141.316406 678.585938 145.859375 682.910156 150.511719 687.125 C 155.160156 691.339844 159.910156 695.441406 164.765625 699.421875 C 169.617188 703.402344 174.5625 707.265625 179.605469 711.003906 C 184.644531 714.742188 189.777344 718.355469 194.996094 721.84375 C 200.214844 725.328125 205.515625 728.6875 210.898438 731.914062 C 216.28125 735.140625 221.742188 738.234375 227.277344 741.191406 C 232.8125 744.148438 238.417969 746.972656 244.089844 749.65625 C 249.765625 752.339844 255.5 754.882812 261.300781 757.285156 C 267.097656 759.683594 272.953125 761.945312 278.863281 764.058594 C 284.773438 766.171875 290.730469 768.140625 296.738281 769.960938 C 302.742188 771.785156 308.792969 773.457031 314.878906 774.984375 C 320.96875 776.507812 327.089844 777.882812 333.246094 779.109375 C 339.402344 780.332031 345.585938 781.40625 351.792969 782.328125 C 358.003906 783.246094 364.230469 784.015625 370.476562 784.628906 C 376.722656 785.246094 382.980469 785.707031 389.25 786.015625 C 395.519531 786.324219 401.792969 786.476562 408.066406 786.476562 C 414.34375 786.476562 420.617188 786.324219 426.886719 786.015625 C 433.15625 785.707031 439.414062 785.246094 445.660156 784.628906 C 451.90625 784.015625 458.132812 783.246094 464.34375 782.328125 C 470.550781 781.40625 476.734375 780.332031 482.890625 779.109375 C 489.046875 777.882812 495.167969 776.507812 501.257812 774.984375 C 507.34375 773.457031 513.390625 771.785156 519.398438 769.960938 C 525.40625 768.140625 531.363281 766.171875 537.273438 764.058594 C 543.183594 761.945312 549.035156 759.683594 554.835938 757.285156 C 560.632812 754.882812 566.371094 752.339844 572.046875 749.65625 C 577.71875 746.972656 583.324219 744.148438 588.859375 741.191406 C 594.394531 738.234375 599.855469 735.140625 605.238281 731.914062 C 610.621094 728.6875 615.921875 725.328125 621.140625 721.84375 C 626.359375 718.355469 631.492188 714.742188 636.53125 711.003906 C 641.574219 707.265625 646.519531 703.402344 651.371094 699.421875 C 656.222656 695.441406 660.976562 691.339844 665.625 687.125 C 670.277344 682.910156 674.820312 678.585938 679.257812 674.144531 C 683.699219 669.707031 688.023438 665.164062 692.238281 660.511719 C 696.453125 655.863281 700.554688 651.109375 704.535156 646.257812 C 708.515625 641.40625 712.378906 636.460938 716.117188 631.417969 C 719.855469 626.378906 723.46875 621.246094 726.957031 616.027344 C 730.441406 610.808594 733.800781 605.507812 737.027344 600.125 C 740.253906 594.742188 743.347656 589.28125 746.304688 583.746094 C 749.261719 578.210938 752.085938 572.605469 754.769531 566.929688 C 757.453125 561.257812 759.996094 555.519531 762.398438 549.722656 C 764.796875 543.921875 767.058594 538.070312 769.171875 532.160156 C 771.285156 526.25 773.253906 520.292969 775.078125 514.285156 C 776.898438 508.277344 778.570312 502.230469 780.097656 496.144531 C 781.621094 490.054688 782.996094 483.933594 784.222656 477.777344 C 785.445312 471.621094 786.519531 465.4375 787.441406 459.230469 C 788.359375 453.019531 789.128906 446.792969 789.742188 440.546875 C 790.359375 434.300781 790.820312 428.042969 791.128906 421.773438 C 791.4375 415.503906 791.589844 409.230469 791.589844 402.953125 C 791.589844 396.679688 791.4375 390.40625 791.128906 384.136719 C 790.820312 377.867188 790.359375 371.609375 789.742188 365.363281 C 789.128906 359.117188 788.359375 352.890625 787.441406 346.679688 C 786.519531 340.472656 785.445312 334.289062 784.222656 328.132812 C 782.996094 321.976562 781.621094 315.855469 780.097656 309.765625 C 778.570312 303.675781 776.898438 297.628906 775.078125 291.625 C 773.253906 285.617188 771.285156 279.660156 769.171875 273.75 C 767.058594 267.839844 764.796875 261.984375 762.398438 256.1875 C 759.996094 250.386719 757.453125 244.652344 754.769531 238.976562 C 752.085938 233.304688 749.261719 227.699219 746.304688 222.164062 C 743.347656 216.628906 740.253906 211.167969 737.027344 205.785156 C 733.800781 200.402344 730.441406 195.097656 726.957031 189.878906 C 723.46875 184.660156 719.855469 179.53125 716.117188 174.492188 C 712.378906 169.449219 708.515625 164.503906 704.535156 159.648438 C 700.554688 154.796875 696.453125 150.046875 692.238281 145.394531 C 688.023438 140.746094 683.699219 136.203125 679.257812 131.761719 C 674.820312 127.324219 670.277344 123 665.625 118.78125 C 660.976562 114.566406 656.222656 110.46875 651.371094 106.488281 C 646.519531 102.503906 641.574219 98.644531 636.53125 94.90625 C 631.492188 91.167969 626.359375 87.554688 621.140625 84.066406 C 615.921875 80.578125 610.621094 77.222656 605.238281 73.996094 C 599.855469 70.769531 594.394531 67.675781 588.859375 64.71875 C 583.324219 61.757812 577.71875 58.9375 572.046875 56.253906 C 566.371094 53.570312 560.632812 51.027344 554.835938 48.625 C 549.035156 46.222656 543.183594 43.964844 537.273438 41.851562 C 531.363281 39.738281 525.40625 37.769531 519.398438 35.945312 C 513.390625 34.125 507.34375 32.449219 501.257812 30.925781 C 495.167969 29.402344 489.046875 28.027344 482.890625 26.800781 C 476.734375 25.578125 470.550781 24.503906 464.34375 23.582031 C 458.132812 22.660156 451.90625 21.894531 445.660156 21.277344 C 439.414062 20.664062 433.15625 20.203125 426.886719 19.894531 C 420.617188 19.585938 414.34375 19.433594 408.066406 19.433594 Z M 408.066406 19.433594 " fill-opacity="1" fill-rule="nonzero"/><path fill="#f1bc19" d="M 739.433594 3.066406 C 738.09375 3.066406 736.753906 3.132812 735.421875 3.265625 C 734.089844 3.398438 732.765625 3.59375 731.449219 3.855469 C 730.136719 4.117188 728.839844 4.441406 727.554688 4.828125 C 726.273438 5.21875 725.015625 5.667969 723.777344 6.183594 C 722.539062 6.695312 721.328125 7.265625 720.148438 7.898438 C 718.964844 8.53125 717.816406 9.21875 716.703125 9.960938 C 715.589844 10.707031 714.515625 11.503906 713.480469 12.355469 C 712.445312 13.203125 711.453125 14.101562 710.503906 15.050781 C 709.558594 15.996094 708.660156 16.988281 707.808594 18.023438 C 706.957031 19.058594 706.160156 20.136719 705.417969 21.25 C 704.671875 22.363281 703.984375 23.511719 703.351562 24.691406 C 702.722656 25.875 702.148438 27.085938 701.636719 28.320312 C 701.125 29.558594 700.671875 30.820312 700.285156 32.101562 C 699.894531 33.382812 699.570312 34.683594 699.308594 35.996094 C 699.046875 37.308594 698.851562 38.632812 698.71875 39.96875 C 698.589844 41.300781 698.523438 42.636719 698.523438 43.976562 C 698.523438 45.316406 698.589844 46.652344 698.71875 47.988281 C 698.851562 49.320312 699.046875 50.644531 699.308594 51.957031 C 699.570312 53.273438 699.894531 54.570312 700.285156 55.851562 C 700.671875 57.132812 701.125 58.394531 701.636719 59.632812 C 702.148438 60.871094 702.722656 62.078125 703.351562 63.261719 C 703.984375 64.441406 704.671875 65.589844 705.417969 66.707031 C 706.160156 67.820312 706.957031 68.894531 707.808594 69.929688 C 708.660156 70.964844 709.558594 71.957031 710.503906 72.90625 C 711.453125 73.851562 712.445312 74.75 713.480469 75.601562 C 714.515625 76.449219 715.589844 77.246094 716.703125 77.992188 C 717.816406 78.734375 718.964844 79.425781 720.148438 80.054688 C 721.328125 80.6875 722.539062 81.257812 723.777344 81.773438 C 725.015625 82.285156 726.273438 82.734375 727.554688 83.125 C 728.839844 83.515625 730.136719 83.839844 731.449219 84.101562 C 732.765625 84.363281 734.089844 84.558594 735.421875 84.6875 C 736.753906 84.820312 738.09375 84.886719 739.433594 84.886719 C 740.773438 84.886719 742.109375 84.820312 743.441406 84.6875 C 744.773438 84.558594 746.097656 84.363281 747.414062 84.101562 C 748.726562 83.839844 750.023438 83.515625 751.308594 83.125 C 752.589844 82.734375 753.847656 82.285156 755.085938 81.773438 C 756.324219 81.257812 757.535156 80.6875 758.714844 80.054688 C 759.898438 79.425781 761.046875 78.734375 762.160156 77.992188 C 763.273438 77.246094 764.347656 76.449219 765.382812 75.601562 C 766.417969 74.75 767.410156 73.851562 768.359375 72.90625 C 769.304688 71.957031 770.203125 70.964844 771.054688 69.929688 C 771.90625 68.894531 772.703125 67.820312 773.445312 66.707031 C 774.191406 65.589844 774.878906 64.441406 775.511719 63.261719 C 776.140625 62.078125 776.714844 60.871094 777.226562 59.632812 C 777.738281 58.394531 778.191406 57.132812 778.578125 55.851562 C 778.96875 54.570312 779.292969 53.273438 779.554688 51.957031 C 779.816406 50.644531 780.011719 49.320312 780.144531 47.988281 C 780.273438 46.652344 780.339844 45.316406 780.339844 43.976562 C 780.339844 42.636719 780.273438 41.300781 780.144531 39.96875 C 780.011719 38.632812 779.816406 37.308594 779.554688 35.996094 C 779.292969 34.683594 778.96875 33.382812 778.578125 32.101562 C 778.191406 30.820312 777.738281 29.558594 777.226562 28.320312 C 776.714844 27.085938 776.140625 25.875 775.511719 24.691406 C 774.878906 23.511719 774.191406 22.363281 773.445312 21.25 C 772.703125 20.136719 771.90625 19.058594 771.054688 18.023438 C 770.203125 16.988281 769.304688 15.996094 768.359375 15.050781 C 767.410156 14.101562 766.417969 13.203125 765.382812 12.355469 C 764.347656 11.503906 763.273438 10.707031 762.160156 9.960938 C 761.046875 9.21875 759.898438 8.53125 758.714844 7.898438 C 757.535156 7.265625 756.324219 6.695312 755.085938 6.183594 C 753.847656 5.667969 752.589844 5.21875 751.308594 4.828125 C 750.023438 4.441406 748.726562 4.117188 747.414062 3.855469 C 746.097656 3.59375 744.773438 3.398438 743.441406 3.265625 C 742.109375 3.132812 740.773438 3.066406 739.433594 3.066406 Z M 739.433594 3.066406 " fill-opacity="1" fill-rule="nonzero"/><path fill="#ee3e54" d="M 780.339844 117.613281 C 779.703125 117.613281 779.070312 117.644531 778.4375 117.707031 C 777.804688 117.769531 777.175781 117.863281 776.550781 117.988281 C 775.925781 118.109375 775.308594 118.265625 774.699219 118.449219 C 774.089844 118.636719 773.492188 118.847656 772.90625 119.09375 C 772.316406 119.335938 771.742188 119.609375 771.179688 119.90625 C 770.621094 120.207031 770.074219 120.535156 769.546875 120.886719 C 769.015625 121.242188 768.503906 121.621094 768.011719 122.023438 C 767.519531 122.429688 767.050781 122.855469 766.601562 123.304688 C 766.148438 123.753906 765.722656 124.226562 765.320312 124.71875 C 764.914062 125.210938 764.539062 125.71875 764.183594 126.25 C 763.832031 126.777344 763.503906 127.324219 763.203125 127.886719 C 762.902344 128.445312 762.632812 129.019531 762.386719 129.609375 C 762.144531 130.195312 761.929688 130.796875 761.746094 131.40625 C 761.5625 132.015625 761.40625 132.628906 761.28125 133.253906 C 761.15625 133.878906 761.066406 134.507812 761.003906 135.140625 C 760.941406 135.773438 760.910156 136.410156 760.910156 137.046875 C 760.910156 137.683594 760.941406 138.316406 761.003906 138.949219 C 761.066406 139.582031 761.15625 140.210938 761.28125 140.835938 C 761.40625 141.460938 761.5625 142.078125 761.746094 142.6875 C 761.929688 143.296875 762.144531 143.894531 762.386719 144.480469 C 762.632812 145.070312 762.902344 145.644531 763.203125 146.207031 C 763.503906 146.765625 763.832031 147.3125 764.183594 147.839844 C 764.539062 148.371094 764.917969 148.882812 765.320312 149.371094 C 765.722656 149.863281 766.152344 150.335938 766.601562 150.785156 C 767.050781 151.234375 767.519531 151.664062 768.011719 152.066406 C 768.503906 152.46875 769.015625 152.847656 769.546875 153.203125 C 770.074219 153.554688 770.621094 153.882812 771.179688 154.183594 C 771.742188 154.484375 772.316406 154.753906 772.90625 155 C 773.492188 155.242188 774.089844 155.457031 774.699219 155.640625 C 775.308594 155.824219 775.925781 155.980469 776.550781 156.105469 C 777.175781 156.226562 777.804688 156.320312 778.4375 156.382812 C 779.070312 156.445312 779.703125 156.476562 780.339844 156.476562 C 780.976562 156.476562 781.613281 156.445312 782.246094 156.382812 C 782.878906 156.320312 783.507812 156.226562 784.132812 156.105469 C 784.757812 155.980469 785.371094 155.824219 785.980469 155.640625 C 786.589844 155.457031 787.1875 155.242188 787.777344 155 C 788.363281 154.753906 788.941406 154.484375 789.5 154.183594 C 790.0625 153.882812 790.605469 153.554688 791.136719 153.203125 C 791.664062 152.847656 792.175781 152.46875 792.667969 152.066406 C 793.160156 151.664062 793.632812 151.234375 794.082031 150.785156 C 794.53125 150.335938 794.957031 149.863281 795.363281 149.371094 C 795.765625 148.882812 796.144531 148.371094 796.496094 147.839844 C 796.851562 147.3125 797.179688 146.765625 797.476562 146.207031 C 797.777344 145.644531 798.050781 145.070312 798.292969 144.480469 C 798.535156 143.894531 798.75 143.296875 798.9375 142.6875 C 799.121094 142.078125 799.273438 141.460938 799.398438 140.835938 C 799.523438 140.210938 799.617188 139.582031 799.679688 138.949219 C 799.742188 138.316406 799.773438 137.683594 799.773438 137.046875 C 799.773438 136.410156 799.742188 135.773438 799.679688 135.140625 C 799.617188 134.507812 799.523438 133.878906 799.398438 133.253906 C 799.273438 132.628906 799.121094 132.015625 798.9375 131.40625 C 798.75 130.796875 798.535156 130.195312 798.292969 129.609375 C 798.050781 129.019531 797.777344 128.445312 797.476562 127.886719 C 797.179688 127.324219 796.851562 126.777344 796.496094 126.25 C 796.144531 125.71875 795.765625 125.210938 795.363281 124.71875 C 794.957031 124.226562 794.53125 123.753906 794.082031 123.304688 C 793.632812 122.855469 793.160156 122.429688 792.667969 122.023438 C 792.175781 121.621094 791.664062 121.242188 791.136719 120.886719 C 790.609375 120.535156 790.0625 120.207031 789.5 119.90625 C 788.941406 119.609375 788.363281 119.335938 787.777344 119.09375 C 787.1875 118.847656 786.589844 118.636719 785.980469 118.449219 C 785.371094 118.265625 784.757812 118.109375 784.132812 117.988281 C 783.507812 117.863281 782.878906 117.769531 782.246094 117.707031 C 781.613281 117.644531 780.976562 117.613281 780.339844 117.613281 Z M 780.339844 117.613281 " fill-opacity="1" fill-rule="nonzero"/><path fill="#fbcd59" d="M 688.296875 653.523438 C 687.660156 653.523438 687.023438 653.554688 686.390625 653.617188 C 685.757812 653.679688 685.128906 653.773438 684.503906 653.894531 C 683.878906 654.019531 683.261719 654.175781 682.65625 654.359375 C 682.046875 654.542969 681.445312 654.757812 680.859375 655 C 680.269531 655.246094 679.695312 655.515625 679.136719 655.816406 C 678.574219 656.117188 678.027344 656.445312 677.5 656.796875 C 676.96875 657.152344 676.460938 657.53125 675.96875 657.933594 C 675.476562 658.335938 675.003906 658.765625 674.554688 659.214844 C 674.105469 659.664062 673.679688 660.136719 673.273438 660.628906 C 672.871094 661.117188 672.492188 661.628906 672.136719 662.160156 C 671.785156 662.6875 671.457031 663.234375 671.15625 663.792969 C 670.859375 664.355469 670.585938 664.929688 670.34375 665.519531 C 670.097656 666.105469 669.886719 666.703125 669.699219 667.3125 C 669.515625 667.921875 669.359375 668.539062 669.238281 669.164062 C 669.113281 669.789062 669.019531 670.417969 668.957031 671.050781 C 668.894531 671.683594 668.863281 672.316406 668.863281 672.953125 C 668.863281 673.589844 668.894531 674.226562 668.957031 674.859375 C 669.019531 675.492188 669.113281 676.121094 669.238281 676.746094 C 669.359375 677.371094 669.515625 677.984375 669.699219 678.59375 C 669.886719 679.203125 670.097656 679.804688 670.34375 680.390625 C 670.585938 680.980469 670.859375 681.554688 671.15625 682.113281 C 671.457031 682.675781 671.785156 683.222656 672.136719 683.75 C 672.492188 684.28125 672.871094 684.789062 673.273438 685.28125 C 673.679688 685.773438 674.105469 686.246094 674.554688 686.695312 C 675.003906 687.144531 675.476562 687.570312 675.96875 687.976562 C 676.460938 688.378906 676.96875 688.757812 677.5 689.113281 C 678.027344 689.464844 678.574219 689.792969 679.136719 690.089844 C 679.695312 690.390625 680.269531 690.664062 680.859375 690.90625 C 681.445312 691.152344 682.046875 691.363281 682.65625 691.550781 C 683.261719 691.734375 683.878906 691.890625 684.503906 692.011719 C 685.128906 692.136719 685.757812 692.230469 686.390625 692.292969 C 687.023438 692.355469 687.660156 692.386719 688.296875 692.386719 C 688.933594 692.386719 689.566406 692.355469 690.199219 692.292969 C 690.832031 692.230469 691.460938 692.136719 692.085938 692.011719 C 692.710938 691.890625 693.328125 691.734375 693.9375 691.550781 C 694.546875 691.363281 695.144531 691.152344 695.730469 690.90625 C 696.320312 690.664062 696.894531 690.390625 697.457031 690.09375 C 698.015625 689.792969 698.5625 689.464844 699.089844 689.113281 C 699.621094 688.757812 700.128906 688.378906 700.621094 687.976562 C 701.113281 687.570312 701.585938 687.144531 702.035156 686.695312 C 702.484375 686.246094 702.914062 685.773438 703.316406 685.28125 C 703.71875 684.789062 704.097656 684.28125 704.453125 683.75 C 704.804688 683.222656 705.132812 682.675781 705.433594 682.113281 C 705.734375 681.554688 706.003906 680.980469 706.246094 680.390625 C 706.492188 679.800781 706.707031 679.203125 706.890625 678.59375 C 707.074219 677.984375 707.230469 677.371094 707.355469 676.746094 C 707.476562 676.121094 707.570312 675.492188 707.632812 674.859375 C 707.695312 674.226562 707.726562 673.589844 707.726562 672.953125 C 707.726562 672.316406 707.695312 671.683594 707.632812 671.050781 C 707.570312 670.417969 707.476562 669.789062 707.355469 669.164062 C 707.230469 668.539062 707.074219 667.921875 706.890625 667.3125 C 706.707031 666.703125 706.492188 666.105469 706.246094 665.519531 C 706.003906 664.929688 705.734375 664.355469 705.433594 663.792969 C 705.132812 663.234375 704.804688 662.6875 704.453125 662.160156 C 704.097656 661.628906 703.71875 661.117188 703.316406 660.628906 C 702.914062 660.136719 702.484375 659.664062 702.035156 659.214844 C 701.585938 658.765625 701.113281 658.335938 700.621094 657.933594 C 700.128906 657.53125 699.621094 657.152344 699.089844 656.796875 C 698.5625 656.445312 698.015625 656.117188 697.457031 655.816406 C 696.894531 655.515625 696.320312 655.246094 695.730469 655 C 695.144531 654.757812 694.546875 654.542969 693.9375 654.359375 C 693.328125 654.175781 692.710938 654.019531 692.085938 653.894531 C 691.460938 653.773438 690.832031 653.679688 690.199219 653.617188 C 689.566406 653.554688 688.933594 653.523438 688.296875 653.523438 Z M 42.953125 500.113281 C 41.613281 500.113281 40.277344 500.175781 38.941406 500.308594 C 37.609375 500.4375 36.28125 500.632812 34.96875 500.894531 C 33.652344 501.152344 32.355469 501.476562 31.070312 501.867188 C 29.789062 502.253906 28.527344 502.703125 27.285156 503.214844 C 26.046875 503.726562 24.835938 504.300781 23.65625 504.929688 C 22.472656 505.5625 21.324219 506.25 20.207031 506.996094 C 19.09375 507.738281 18.015625 508.535156 16.980469 509.386719 C 15.941406 510.234375 14.949219 511.132812 14 512.082031 C 13.054688 513.027344 12.152344 514.019531 11.300781 515.058594 C 10.453125 516.09375 9.652344 517.167969 8.910156 518.28125 C 8.164062 519.398438 7.472656 520.546875 6.84375 521.726562 C 6.210938 522.910156 5.636719 524.121094 5.125 525.359375 C 4.609375 526.597656 4.160156 527.859375 3.769531 529.140625 C 3.378906 530.421875 3.054688 531.722656 2.792969 533.035156 C 2.53125 534.351562 2.335938 535.675781 2.203125 537.011719 C 2.070312 538.34375 2.003906 539.683594 2.003906 541.023438 C 2.003906 542.363281 2.070312 543.699219 2.203125 545.035156 C 2.335938 546.371094 2.53125 547.695312 2.792969 549.007812 C 3.054688 550.324219 3.378906 551.621094 3.769531 552.90625 C 4.160156 554.1875 4.609375 555.449219 5.125 556.6875 C 5.636719 557.925781 6.210938 559.136719 6.84375 560.316406 C 7.472656 561.5 8.164062 562.648438 8.910156 563.761719 C 9.652344 564.878906 10.453125 565.953125 11.300781 566.988281 C 12.152344 568.023438 13.054688 569.015625 14 569.964844 C 14.949219 570.910156 15.941406 571.808594 16.980469 572.660156 C 18.015625 573.511719 19.09375 574.308594 20.207031 575.050781 C 21.324219 575.796875 22.472656 576.484375 23.65625 577.113281 C 24.835938 577.746094 26.046875 578.316406 27.285156 578.828125 C 28.527344 579.339844 29.789062 579.792969 31.070312 580.179688 C 32.355469 580.566406 33.652344 580.890625 34.96875 581.152344 C 36.28125 581.414062 37.609375 581.609375 38.941406 581.738281 C 40.277344 581.867188 41.613281 581.933594 42.953125 581.933594 C 44.296875 581.933594 45.632812 581.867188 46.96875 581.738281 C 48.300781 581.609375 49.625 581.414062 50.941406 581.152344 C 52.257812 580.890625 53.554688 580.566406 54.839844 580.179688 C 56.121094 579.792969 57.382812 579.339844 58.621094 578.828125 C 59.859375 578.316406 61.070312 577.746094 62.253906 577.113281 C 63.4375 576.484375 64.585938 575.796875 65.703125 575.050781 C 66.816406 574.308594 67.894531 573.511719 68.929688 572.660156 C 69.964844 571.808594 70.960938 570.910156 71.90625 569.964844 C 72.855469 569.015625 73.753906 568.023438 74.605469 566.988281 C 75.457031 565.953125 76.253906 564.878906 77 563.761719 C 77.746094 562.648438 78.433594 561.5 79.066406 560.316406 C 79.699219 559.136719 80.273438 557.925781 80.785156 556.6875 C 81.300781 555.449219 81.75 554.1875 82.140625 552.90625 C 82.527344 551.621094 82.855469 550.324219 83.117188 549.007812 C 83.378906 547.695312 83.574219 546.371094 83.707031 545.035156 C 83.835938 543.699219 83.902344 542.363281 83.902344 541.023438 C 83.902344 539.683594 83.835938 538.34375 83.707031 537.011719 C 83.574219 535.675781 83.378906 534.351562 83.117188 533.035156 C 82.855469 531.722656 82.527344 530.421875 82.140625 529.140625 C 81.75 527.855469 81.300781 526.597656 80.785156 525.359375 C 80.273438 524.121094 79.699219 522.910156 79.066406 521.726562 C 78.433594 520.546875 77.746094 519.398438 77 518.28125 C 76.253906 517.167969 75.457031 516.09375 74.605469 515.058594 C 73.753906 514.019531 72.855469 513.027344 71.90625 512.082031 C 70.960938 511.132812 69.964844 510.234375 68.929688 509.386719 C 67.894531 508.535156 66.816406 507.738281 65.703125 506.992188 C 64.585938 506.25 63.4375 505.5625 62.253906 504.929688 C 61.070312 504.300781 59.859375 503.726562 58.621094 503.214844 C 57.382812 502.703125 56.121094 502.253906 54.839844 501.867188 C 53.554688 501.476562 52.257812 501.152344 50.941406 500.894531 C 49.625 500.632812 48.300781 500.4375 46.96875 500.308594 C 45.632812 500.175781 44.296875 500.113281 42.953125 500.113281 Z M 42.953125 500.113281 " fill-opacity="1" fill-rule="nonzero"/><path fill="#ee3e54" d="M 147.273438 768.066406 C 146.636719 768.066406 146 768.097656 145.367188 768.160156 C 144.734375 768.222656 144.105469 768.316406 143.480469 768.441406 C 142.859375 768.566406 142.242188 768.71875 141.632812 768.90625 C 141.023438 769.089844 140.425781 769.304688 139.835938 769.546875 C 139.25 769.789062 138.675781 770.0625 138.113281 770.363281 C 137.550781 770.664062 137.007812 770.988281 136.476562 771.34375 C 135.949219 771.695312 135.4375 772.074219 134.945312 772.480469 C 134.453125 772.882812 133.980469 773.308594 133.53125 773.757812 C 133.082031 774.210938 132.65625 774.679688 132.25 775.171875 C 131.847656 775.664062 131.46875 776.175781 131.117188 776.703125 C 130.761719 777.234375 130.433594 777.777344 130.136719 778.339844 C 129.835938 778.902344 129.5625 779.476562 129.320312 780.0625 C 129.078125 780.652344 128.863281 781.25 128.675781 781.859375 C 128.492188 782.46875 128.339844 783.085938 128.214844 783.707031 C 128.089844 784.332031 127.996094 784.960938 127.933594 785.59375 C 127.871094 786.230469 127.839844 786.863281 127.839844 787.5 C 127.839844 788.136719 127.871094 788.769531 127.933594 789.40625 C 127.996094 790.039062 128.089844 790.667969 128.214844 791.289062 C 128.339844 791.914062 128.492188 792.53125 128.675781 793.140625 C 128.863281 793.75 129.078125 794.347656 129.320312 794.9375 C 129.5625 795.523438 129.835938 796.097656 130.136719 796.660156 C 130.433594 797.222656 130.761719 797.765625 131.117188 798.296875 C 131.46875 798.824219 131.847656 799.335938 132.25 799.828125 C 132.65625 800.320312 133.082031 800.789062 133.53125 801.242188 C 133.980469 801.691406 134.453125 802.117188 134.945312 802.519531 C 135.4375 802.925781 135.949219 803.304688 136.476562 803.65625 C 137.007812 804.011719 137.550781 804.335938 138.113281 804.636719 C 138.675781 804.9375 139.25 805.207031 139.835938 805.453125 C 140.425781 805.695312 141.023438 805.910156 141.632812 806.09375 C 142.242188 806.28125 142.859375 806.433594 143.480469 806.558594 C 144.105469 806.683594 144.734375 806.777344 145.367188 806.839844 C 146 806.902344 146.636719 806.933594 147.273438 806.933594 C 147.910156 806.933594 148.542969 806.902344 149.175781 806.839844 C 149.8125 806.777344 150.441406 806.683594 151.0625 806.558594 C 151.6875 806.433594 152.304688 806.28125 152.914062 806.09375 C 153.523438 805.910156 154.121094 805.695312 154.707031 805.453125 C 155.296875 805.207031 155.871094 804.9375 156.433594 804.636719 C 156.992188 804.335938 157.539062 804.011719 158.070312 803.65625 C 158.597656 803.304688 159.109375 802.925781 159.601562 802.519531 C 160.09375 802.117188 160.5625 801.691406 161.011719 801.242188 C 161.464844 800.789062 161.890625 800.320312 162.292969 799.828125 C 162.699219 799.335938 163.074219 798.824219 163.429688 798.296875 C 163.785156 797.765625 164.109375 797.222656 164.410156 796.660156 C 164.710938 796.097656 164.980469 795.523438 165.226562 794.9375 C 165.46875 794.347656 165.683594 793.75 165.867188 793.140625 C 166.050781 792.53125 166.207031 791.914062 166.332031 791.289062 C 166.457031 790.667969 166.546875 790.039062 166.609375 789.40625 C 166.671875 788.769531 166.703125 788.136719 166.703125 787.5 C 166.703125 786.863281 166.671875 786.230469 166.609375 785.59375 C 166.546875 784.960938 166.457031 784.332031 166.332031 783.707031 C 166.207031 783.085938 166.050781 782.46875 165.867188 781.859375 C 165.683594 781.25 165.46875 780.652344 165.226562 780.0625 C 164.980469 779.476562 164.710938 778.902344 164.410156 778.339844 C 164.109375 777.777344 163.785156 777.234375 163.429688 776.703125 C 163.074219 776.175781 162.699219 775.664062 162.292969 775.171875 C 161.890625 774.679688 161.464844 774.210938 161.011719 773.757812 C 160.5625 773.308594 160.09375 772.882812 159.601562 772.480469 C 159.109375 772.074219 158.597656 771.695312 158.070312 771.34375 C 157.539062 770.988281 156.992188 770.664062 156.433594 770.363281 C 155.871094 770.0625 155.296875 769.789062 154.707031 769.546875 C 154.121094 769.304688 153.523438 769.089844 152.914062 768.90625 C 152.304688 768.71875 151.6875 768.566406 151.0625 768.441406 C 150.441406 768.316406 149.8125 768.222656 149.175781 768.160156 C 148.542969 768.097656 147.910156 768.066406 147.273438 768.066406 Z M 147.273438 768.066406 " fill-opacity="1" fill-rule="nonzero"/><path fill="#ffffff" d="M 675 183.066406 C 674.398438 183.066406 673.796875 183.097656 673.195312 183.15625 C 672.59375 183.214844 672 183.304688 671.410156 183.421875 C 670.816406 183.539062 670.234375 183.6875 669.65625 183.859375 C 669.078125 184.035156 668.511719 184.238281 667.953125 184.46875 C 667.398438 184.699219 666.855469 184.957031 666.320312 185.242188 C 665.789062 185.527344 665.273438 185.835938 664.773438 186.171875 C 664.269531 186.503906 663.789062 186.863281 663.320312 187.246094 C 662.855469 187.628906 662.410156 188.035156 661.984375 188.460938 C 661.554688 188.886719 661.152344 189.332031 660.769531 189.796875 C 660.386719 190.265625 660.027344 190.75 659.691406 191.25 C 659.359375 191.75 659.046875 192.265625 658.765625 192.800781 C 658.480469 193.332031 658.222656 193.875 657.992188 194.433594 C 657.761719 194.988281 657.558594 195.554688 657.382812 196.132812 C 657.207031 196.710938 657.0625 197.292969 656.945312 197.886719 C 656.828125 198.476562 656.738281 199.074219 656.679688 199.671875 C 656.621094 200.273438 656.589844 200.875 656.589844 201.476562 C 656.589844 202.082031 656.621094 202.683594 656.679688 203.28125 C 656.738281 203.882812 656.828125 204.476562 656.945312 205.070312 C 657.0625 205.660156 657.207031 206.246094 657.382812 206.820312 C 657.558594 207.398438 657.761719 207.964844 657.992188 208.523438 C 658.222656 209.078125 658.480469 209.625 658.765625 210.15625 C 659.046875 210.6875 659.359375 211.203125 659.691406 211.703125 C 660.027344 212.207031 660.386719 212.691406 660.769531 213.15625 C 661.152344 213.621094 661.554688 214.066406 661.984375 214.496094 C 662.410156 214.921875 662.855469 215.324219 663.320312 215.707031 C 663.789062 216.089844 664.269531 216.449219 664.773438 216.785156 C 665.273438 217.117188 665.789062 217.429688 666.320312 217.710938 C 666.855469 217.996094 667.398438 218.253906 667.957031 218.484375 C 668.511719 218.714844 669.078125 218.917969 669.65625 219.09375 C 670.234375 219.269531 670.816406 219.414062 671.410156 219.53125 C 672 219.648438 672.59375 219.738281 673.195312 219.796875 C 673.796875 219.855469 674.398438 219.886719 675 219.886719 C 675.601562 219.886719 676.203125 219.855469 676.804688 219.796875 C 677.40625 219.738281 678 219.648438 678.589844 219.53125 C 679.183594 219.414062 679.765625 219.269531 680.34375 219.09375 C 680.921875 218.917969 681.488281 218.714844 682.042969 218.484375 C 682.601562 218.253906 683.144531 217.996094 683.679688 217.710938 C 684.210938 217.429688 684.726562 217.117188 685.226562 216.785156 C 685.730469 216.449219 686.210938 216.089844 686.679688 215.707031 C 687.144531 215.324219 687.589844 214.921875 688.015625 214.496094 C 688.445312 214.066406 688.847656 213.621094 689.230469 213.15625 C 689.613281 212.691406 689.972656 212.207031 690.304688 211.703125 C 690.640625 211.203125 690.953125 210.6875 691.234375 210.15625 C 691.519531 209.625 691.777344 209.078125 692.007812 208.523438 C 692.238281 207.964844 692.441406 207.398438 692.617188 206.820312 C 692.792969 206.246094 692.9375 205.660156 693.054688 205.070312 C 693.171875 204.476562 693.261719 203.882812 693.320312 203.28125 C 693.378906 202.683594 693.410156 202.082031 693.410156 201.476562 C 693.410156 200.875 693.378906 200.273438 693.320312 199.671875 C 693.261719 199.074219 693.171875 198.476562 693.054688 197.886719 C 692.9375 197.292969 692.792969 196.710938 692.617188 196.132812 C 692.441406 195.554688 692.238281 194.988281 692.007812 194.433594 C 691.777344 193.875 691.519531 193.332031 691.234375 192.800781 C 690.953125 192.265625 690.640625 191.75 690.304688 191.25 C 689.972656 190.75 689.613281 190.265625 689.230469 189.796875 C 688.847656 189.332031 688.445312 188.886719 688.015625 188.460938 C 687.589844 188.035156 687.144531 187.628906 686.679688 187.246094 C 686.210938 186.863281 685.730469 186.503906 685.226562 186.171875 C 684.726562 185.835938 684.210938 185.527344 683.679688 185.242188 C 683.144531 184.957031 682.601562 184.699219 682.042969 184.46875 C 681.488281 184.238281 680.921875 184.035156 680.34375 183.859375 C 679.765625 183.6875 679.183594 183.539062 678.589844 183.421875 C 678 183.304688 677.40625 183.214844 676.804688 183.15625 C 676.203125 183.097656 675.601562 183.066406 675 183.066406 Z M 80.796875 391.703125 C 79.957031 391.703125 79.121094 391.746094 78.289062 391.828125 C 77.457031 391.910156 76.628906 392.03125 75.808594 392.195312 C 74.984375 392.359375 74.175781 392.5625 73.375 392.804688 C 72.570312 393.046875 71.785156 393.332031 71.011719 393.652344 C 70.238281 393.972656 69.480469 394.328125 68.742188 394.722656 C 68.003906 395.117188 67.285156 395.546875 66.589844 396.011719 C 65.894531 396.480469 65.222656 396.976562 64.574219 397.507812 C 63.929688 398.039062 63.308594 398.601562 62.714844 399.191406 C 62.125 399.785156 61.5625 400.40625 61.03125 401.050781 C 60.5 401.699219 60 402.371094 59.535156 403.066406 C 59.070312 403.765625 58.640625 404.480469 58.246094 405.21875 C 57.851562 405.957031 57.492188 406.714844 57.171875 407.488281 C 56.851562 408.261719 56.570312 409.050781 56.328125 409.851562 C 56.085938 410.652344 55.882812 411.464844 55.71875 412.285156 C 55.554688 413.105469 55.433594 413.933594 55.351562 414.765625 C 55.269531 415.601562 55.226562 416.433594 55.226562 417.273438 C 55.226562 418.109375 55.269531 418.945312 55.351562 419.777344 C 55.433594 420.613281 55.554688 421.441406 55.71875 422.261719 C 55.882812 423.082031 56.085938 423.894531 56.328125 424.695312 C 56.570312 425.496094 56.851562 426.285156 57.171875 427.058594 C 57.492188 427.832031 57.851562 428.585938 58.246094 429.324219 C 58.640625 430.0625 59.070312 430.78125 59.535156 431.476562 C 60 432.175781 60.5 432.847656 61.03125 433.492188 C 61.5625 434.140625 62.125 434.761719 62.714844 435.351562 C 63.308594 435.945312 63.929688 436.507812 64.574219 437.039062 C 65.222656 437.570312 65.894531 438.066406 66.589844 438.53125 C 67.285156 438.996094 68.003906 439.425781 68.742188 439.820312 C 69.480469 440.214844 70.238281 440.574219 71.011719 440.894531 C 71.785156 441.214844 72.570312 441.496094 73.375 441.738281 C 74.175781 441.984375 74.984375 442.1875 75.808594 442.347656 C 76.628906 442.511719 77.457031 442.636719 78.289062 442.71875 C 79.121094 442.800781 79.957031 442.839844 80.796875 442.839844 C 81.632812 442.839844 82.46875 442.800781 83.300781 442.71875 C 84.136719 442.636719 84.960938 442.511719 85.785156 442.347656 C 86.605469 442.1875 87.417969 441.984375 88.21875 441.738281 C 89.019531 441.496094 89.804688 441.214844 90.578125 440.894531 C 91.355469 440.574219 92.109375 440.214844 92.847656 439.820312 C 93.585938 439.425781 94.304688 438.996094 95 438.53125 C 95.695312 438.066406 96.367188 437.570312 97.015625 437.039062 C 97.664062 436.507812 98.28125 435.945312 98.875 435.351562 C 99.46875 434.761719 100.027344 434.140625 100.558594 433.492188 C 101.089844 432.84375 101.589844 432.175781 102.054688 431.476562 C 102.519531 430.78125 102.949219 430.0625 103.34375 429.324219 C 103.738281 428.585938 104.097656 427.832031 104.417969 427.058594 C 104.738281 426.285156 105.019531 425.496094 105.261719 424.695312 C 105.503906 423.894531 105.707031 423.082031 105.871094 422.261719 C 106.035156 421.441406 106.160156 420.613281 106.242188 419.777344 C 106.324219 418.945312 106.363281 418.109375 106.363281 417.273438 C 106.363281 416.433594 106.324219 415.601562 106.242188 414.765625 C 106.160156 413.933594 106.035156 413.105469 105.871094 412.285156 C 105.707031 411.464844 105.503906 410.652344 105.261719 409.851562 C 105.019531 409.050781 104.738281 408.261719 104.417969 407.488281 C 104.097656 406.714844 103.738281 405.957031 103.34375 405.21875 C 102.949219 404.480469 102.519531 403.765625 102.054688 403.066406 C 101.589844 402.371094 101.089844 401.699219 100.558594 401.050781 C 100.027344 400.40625 99.46875 399.785156 98.875 399.191406 C 98.28125 398.601562 97.664062 398.039062 97.015625 397.507812 C 96.367188 396.976562 95.695312 396.480469 95 396.011719 C 94.304688 395.546875 93.585938 395.117188 92.847656 394.722656 C 92.109375 394.328125 91.355469 393.972656 90.578125 393.652344 C 89.804688 393.332031 89.019531 393.046875 88.21875 392.804688 C 87.417969 392.5625 86.605469 392.359375 85.785156 392.195312 C 84.960938 392.03125 84.136719 391.910156 83.300781 391.828125 C 82.46875 391.746094 81.632812 391.703125 80.796875 391.703125 Z M 80.796875 391.703125 " fill-opacity="1" fill-rule="nonzero"/><path fill="#512c2b" d="M 552.273438 542.046875 C 552.273438 543.066406 552.273438 544.089844 551.25 545.113281 C 549.203125 553.296875 546.136719 562.5 543.066406 570.683594 C 538.976562 581.933594 533.863281 593.183594 525.683594 603.410156 C 522.613281 607.5 519.546875 610.566406 515.453125 613.636719 C 507.273438 618.75 497.046875 621.816406 486.816406 621.816406 L 313.976562 621.816406 C 302.726562 621.816406 292.5 618.75 283.296875 612.613281 C 279.203125 610.566406 276.136719 607.5 274.089844 603.410156 C 266.933594 593.183594 260.796875 582.953125 256.703125 570.683594 C 253.636719 562.5 251.589844 554.316406 248.523438 545.113281 L 247.5 542.046875 C 219.886719 434.660156 228.066406 244.433594 290.453125 187.160156 C 319.089844 158.523438 358.976562 142.160156 399.886719 143.183594 C 432.613281 142.160156 465.339844 153.410156 491.933594 172.839844 C 498.066406 176.933594 503.183594 182.046875 508.296875 187.160156 C 510.339844 189.203125 512.386719 191.25 514.433594 193.296875 C 571.703125 256.703125 577.839844 437.726562 552.273438 542.046875 Z M 552.273438 542.046875 " fill-opacity="1" fill-rule="nonzero"/><path fill="#f6cca4" d="M 522.613281 323.183594 C 523.636719 307.839844 519.546875 294.546875 520.566406 286.363281 C 507.273438 268.976562 498.066406 249.546875 479.660156 237.273438 C 458.183594 223.976562 434.660156 214.773438 410.113281 208.636719 C 351.816406 194.316406 294.546875 236.25 276.136719 291.476562 L 275.113281 292.5 C 277.160156 302.726562 278.183594 312.953125 279.203125 322.160156 C 263.863281 322.160156 255.683594 330.339844 260.796875 346.703125 C 260.796875 346.703125 266.933594 373.296875 271.023438 386.589844 C 272.046875 393.75 279.203125 398.863281 286.363281 398.863281 C 286.363281 407.046875 286.363281 416.25 286.363281 424.433594 C 286.363281 434.660156 289.433594 444.886719 295.566406 453.066406 C 310.910156 475.566406 389.660156 526.703125 409.089844 524.660156 C 439.773438 524.660156 501.136719 472.5 517.5 445.910156 C 520.566406 440.796875 521.589844 434.660156 522.613281 428.523438 C 522.613281 418.296875 522.613281 408.066406 522.613281 397.839844 C 528.75 396.816406 533.863281 391.703125 535.910156 385.566406 C 540 372.273438 546.136719 345.683594 546.136719 345.683594 C 550.226562 331.363281 538.976562 323.183594 522.613281 323.183594 Z M 522.613281 323.183594 " fill-opacity="1" fill-rule="nonzero"/><path fill="#edbc94" d="M 570.683594 585 L 567.613281 583.976562 L 561.476562 581.933594 C 549.203125 576.816406 466.363281 548.183594 466.363281 548.183594 C 460.226562 546.136719 456.136719 543.066406 454.089844 536.933594 C 452.046875 526.703125 451.023438 517.5 452.046875 507.273438 C 437.726562 513.410156 423.410156 518.523438 409.089844 521.589844 C 388.636719 522.613281 354.886719 498.066406 354.886719 498.066406 C 354.886719 498.066406 353.863281 528.75 352.839844 535.910156 C 350.796875 542.046875 345.683594 546.136719 339.546875 547.160156 L 260.796875 573.75 C 252.613281 575.796875 245.453125 578.863281 238.296875 582.953125 C 221.933594 594.203125 209.660156 611.589844 205.566406 631.023438 C 205.566406 632.046875 204.546875 634.089844 204.546875 637.160156 C 203.523438 642.273438 202.5 646.363281 203.523438 651.476562 C 203.523438 656.589844 202.5 661.703125 202.5 666.816406 C 274.089844 741.476562 373.296875 784.433594 477.613281 785.453125 C 524.660156 785.453125 585 757.839844 611.589844 732.273438 C 605.453125 636.136719 613.636719 598.296875 570.683594 585 Z M 570.683594 585 " fill-opacity="1" fill-rule="nonzero"/><path fill="#ee3e54" d="M 203.523438 723.066406 C 273.066406 794.660156 357.953125 785.453125 465.339844 785.453125 C 512.386719 785.453125 580.910156 756.816406 610.566406 733.296875 C 606.476562 638.183594 614.660156 604.433594 570.683594 591.136719 C 562.5 588.066406 530.796875 572.726562 530.796875 572.726562 C 530.796875 572.726562 448.976562 618.75 413.183594 625.910156 C 345.683594 639.203125 276.136719 643.296875 207.613281 637.160156 C 206.589844 640.226562 205.566406 705.683594 203.523438 723.066406 Z M 203.523438 723.066406 " fill-opacity="1" fill-rule="nonzero"/><g mask="url(#ff177670a5)"><g transform="matrix(1, 0, 0, 1, 303, 385)"><g clip-path="url(#c3bb59bcc4)"><path fill="#f4989e" d="M 28.363281 5.683594 C 27.695312 5.683594 27.027344 5.714844 26.359375 5.78125 C 25.691406 5.847656 25.03125 5.945312 24.375 6.074219 C 23.714844 6.207031 23.066406 6.367188 22.425781 6.5625 C 21.785156 6.757812 21.15625 6.980469 20.535156 7.238281 C 19.917969 7.496094 19.3125 7.78125 18.722656 8.097656 C 18.128906 8.414062 17.554688 8.757812 17 9.128906 C 16.441406 9.5 15.90625 9.898438 15.386719 10.324219 C 14.871094 10.75 14.375 11.199219 13.898438 11.671875 C 13.425781 12.144531 12.976562 12.640625 12.550781 13.160156 C 12.128906 13.679688 11.726562 14.214844 11.355469 14.773438 C 10.984375 15.328125 10.640625 15.902344 10.324219 16.492188 C 10.007812 17.085938 9.722656 17.691406 9.464844 18.308594 C 9.210938 18.925781 8.984375 19.558594 8.789062 20.199219 C 8.59375 20.839844 8.433594 21.488281 8.300781 22.144531 C 8.171875 22.804688 8.074219 23.464844 8.007812 24.132812 C 7.941406 24.796875 7.910156 25.464844 7.910156 26.136719 C 7.910156 26.804688 7.941406 27.472656 8.007812 28.140625 C 8.074219 28.808594 8.171875 29.46875 8.300781 30.125 C 8.433594 30.785156 8.59375 31.433594 8.789062 32.074219 C 8.984375 32.714844 9.210938 33.34375 9.464844 33.964844 C 9.722656 34.582031 10.007812 35.1875 10.324219 35.777344 C 10.640625 36.371094 10.984375 36.941406 11.355469 37.5 C 11.726562 38.058594 12.128906 38.59375 12.550781 39.113281 C 12.976562 39.628906 13.425781 40.125 13.898438 40.601562 C 14.375 41.074219 14.871094 41.523438 15.386719 41.949219 C 15.90625 42.371094 16.441406 42.769531 17 43.144531 C 17.558594 43.515625 18.128906 43.859375 18.722656 44.175781 C 19.3125 44.492188 19.917969 44.777344 20.535156 45.035156 C 21.15625 45.289062 21.785156 45.515625 22.425781 45.710938 C 23.066406 45.90625 23.714844 46.066406 24.375 46.199219 C 25.03125 46.328125 25.691406 46.425781 26.359375 46.492188 C 27.027344 46.558594 27.695312 46.589844 28.363281 46.589844 C 29.035156 46.589844 29.703125 46.558594 30.367188 46.492188 C 31.035156 46.425781 31.695312 46.328125 32.355469 46.199219 C 33.011719 46.066406 33.660156 45.90625 34.300781 45.710938 C 34.941406 45.515625 35.570312 45.289062 36.191406 45.035156 C 36.808594 44.777344 37.414062 44.492188 38.003906 44.175781 C 38.597656 43.859375 39.171875 43.515625 39.726562 43.144531 C 40.285156 42.769531 40.820312 42.371094 41.339844 41.949219 C 41.859375 41.523438 42.351562 41.074219 42.828125 40.601562 C 43.300781 40.125 43.75 39.628906 44.175781 39.113281 C 44.601562 38.59375 45 38.058594 45.371094 37.5 C 45.742188 36.941406 46.085938 36.371094 46.402344 35.777344 C 46.71875 35.1875 47.003906 34.582031 47.261719 33.964844 C 47.515625 33.34375 47.742188 32.714844 47.9375 32.074219 C 48.132812 31.433594 48.292969 30.785156 48.425781 30.125 C 48.554688 29.46875 48.652344 28.808594 48.71875 28.140625 C 48.785156 27.472656 48.816406 26.804688 48.816406 26.136719 C 48.816406 25.464844 48.785156 24.796875 48.71875 24.132812 C 48.652344 23.464844 48.554688 22.804688 48.425781 22.144531 C 48.292969 21.488281 48.132812 20.839844 47.9375 20.199219 C 47.742188 19.558594 47.515625 18.925781 47.261719 18.308594 C 47.003906 17.691406 46.71875 17.085938 46.402344 16.492188 C 46.085938 15.902344 45.742188 15.328125 45.371094 14.773438 C 45 14.214844 44.601562 13.679688 44.175781 13.160156 C 43.75 12.640625 43.300781 12.144531 42.828125 11.671875 C 42.351562 11.199219 41.859375 10.75 41.339844 10.324219 C 40.820312 9.898438 40.285156 9.5 39.726562 9.128906 C 39.171875 8.757812 38.597656 8.414062 38.003906 8.097656 C 37.414062 7.78125 36.808594 7.496094 36.191406 7.238281 C 35.570312 6.980469 34.941406 6.757812 34.300781 6.5625 C 33.660156 6.367188 33.011719 6.207031 32.355469 6.074219 C 31.695312 5.945312 31.035156 5.847656 30.367188 5.78125 C 29.703125 5.714844 29.035156 5.683594 28.363281 5.683594 Z M 182.796875 5.683594 C 182.125 5.683594 181.457031 5.714844 180.789062 5.78125 C 180.125 5.847656 179.460938 5.945312 178.804688 6.074219 C 178.148438 6.207031 177.5 6.367188 176.859375 6.5625 C 176.214844 6.757812 175.585938 6.980469 174.96875 7.238281 C 174.347656 7.496094 173.742188 7.78125 173.152344 8.097656 C 172.5625 8.414062 171.988281 8.757812 171.429688 9.128906 C 170.875 9.5 170.335938 9.898438 169.820312 10.324219 C 169.300781 10.75 168.804688 11.199219 168.332031 11.671875 C 167.859375 12.144531 167.410156 12.640625 166.984375 13.160156 C 166.558594 13.679688 166.160156 14.214844 165.789062 14.773438 C 165.414062 15.328125 165.070312 15.902344 164.757812 16.492188 C 164.441406 17.085938 164.152344 17.691406 163.898438 18.308594 C 163.640625 18.925781 163.417969 19.558594 163.222656 20.199219 C 163.027344 20.839844 162.863281 21.488281 162.734375 22.144531 C 162.601562 22.804688 162.503906 23.464844 162.4375 24.132812 C 162.375 24.796875 162.339844 25.464844 162.339844 26.136719 C 162.339844 26.804688 162.375 27.472656 162.4375 28.140625 C 162.503906 28.808594 162.601562 29.46875 162.734375 30.125 C 162.863281 30.785156 163.027344 31.433594 163.222656 32.074219 C 163.417969 32.714844 163.640625 33.34375 163.898438 33.964844 C 164.152344 34.582031 164.441406 35.1875 164.757812 35.777344 C 165.070312 36.371094 165.414062 36.941406 165.789062 37.5 C 166.160156 38.058594 166.558594 38.59375 166.984375 39.113281 C 167.410156 39.628906 167.859375 40.125 168.332031 40.601562 C 168.804688 41.074219 169.300781 41.523438 169.820312 41.949219 C 170.335938 42.371094 170.875 42.769531 171.429688 43.144531 C 171.988281 43.515625 172.5625 43.859375 173.152344 44.175781 C 173.742188 44.492188 174.347656 44.777344 174.96875 45.035156 C 175.585938 45.289062 176.214844 45.515625 176.859375 45.710938 C 177.5 45.90625 178.148438 46.066406 178.804688 46.199219 C 179.460938 46.328125 180.125 46.425781 180.789062 46.492188 C 181.457031 46.558594 182.125 46.589844 182.796875 46.589844 C 183.464844 46.589844 184.132812 46.558594 184.800781 46.492188 C 185.46875 46.425781 186.128906 46.328125 186.785156 46.199219 C 187.441406 46.066406 188.09375 45.90625 188.734375 45.710938 C 189.375 45.515625 190.003906 45.289062 190.621094 45.035156 C 191.242188 44.777344 191.847656 44.492188 192.4375 44.175781 C 193.027344 43.859375 193.601562 43.515625 194.160156 43.144531 C 194.714844 42.769531 195.253906 42.371094 195.773438 41.949219 C 196.289062 41.523438 196.785156 41.074219 197.257812 40.601562 C 197.734375 40.125 198.183594 39.628906 198.605469 39.113281 C 199.03125 38.59375 199.429688 38.058594 199.800781 37.5 C 200.175781 36.941406 200.519531 36.371094 200.835938 35.777344 C 201.152344 35.1875 201.4375 34.582031 201.691406 33.964844 C 201.949219 33.34375 202.175781 32.714844 202.371094 32.074219 C 202.5625 31.433594 202.726562 30.785156 202.855469 30.125 C 202.988281 29.46875 203.085938 28.808594 203.152344 28.140625 C 203.21875 27.472656 203.25 26.804688 203.25 26.136719 C 203.25 25.464844 203.21875 24.796875 203.152344 24.132812 C 203.085938 23.464844 202.988281 22.804688 202.855469 22.144531 C 202.726562 21.488281 202.5625 20.839844 202.367188 20.199219 C 202.175781 19.558594 201.949219 18.925781 201.691406 18.308594 C 201.4375 17.691406 201.152344 17.085938 200.835938 16.492188 C 200.519531 15.902344 200.175781 15.328125 199.800781 14.773438 C 199.429688 14.214844 199.03125 13.679688 198.605469 13.160156 C 198.183594 12.640625 197.734375 12.144531 197.257812 11.671875 C 196.785156 11.199219 196.289062 10.75 195.773438 10.324219 C 195.253906 9.898438 194.714844 9.5 194.160156 9.128906 C 193.601562 8.757812 193.027344 8.414062 192.4375 8.097656 C 191.847656 7.78125 191.242188 7.496094 190.621094 7.238281 C 190.003906 6.980469 189.375 6.757812 188.734375 6.5625 C 188.09375 6.367188 187.441406 6.207031 186.785156 6.074219 C 186.128906 5.945312 185.46875 5.847656 184.800781 5.78125 C 184.132812 5.714844 183.464844 5.683594 182.796875 5.683594 Z M 182.796875 5.683594 " fill-opacity="0.8" fill-rule="nonzero"/></g></g></g><path fill="#472b29" d="M 289.433594 407.046875 C 288.410156 407.046875 287.386719 406.023438 287.386719 405 L 279.203125 323.183594 C 279.203125 322.160156 280.226562 321.136719 281.25 321.136719 C 282.273438 321.136719 283.296875 322.160156 283.296875 323.183594 L 291.476562 405 C 291.476562 406.023438 291.476562 407.046875 289.433594 407.046875 Z M 519.546875 402.953125 C 518.523438 402.953125 517.5 401.933594 517.5 400.910156 L 522.613281 318.066406 C 522.613281 317.046875 523.636719 316.023438 524.660156 316.023438 C 525.683594 316.023438 526.703125 317.046875 526.703125 318.066406 L 521.589844 400.910156 C 521.589844 401.933594 520.566406 402.953125 519.546875 402.953125 Z M 519.546875 402.953125 " fill-opacity="1" fill-rule="nonzero"/><path fill="#6d1b18" d="M 371.25 453.066406 C 371.25 455.113281 370.226562 456.136719 370.226562 458.183594 C 370.226562 472.5 385.566406 483.75 406.023438 483.75 C 426.476562 483.75 441.816406 472.5 441.816406 458.183594 C 441.816406 456.136719 441.816406 455.113281 440.796875 453.066406 Z M 371.25 453.066406 " fill-opacity="1" fill-rule="nonzero"/><path fill="#ee3e54" d="M 424.433594 480.683594 C 419.316406 476.589844 412.160156 473.523438 406.023438 474.546875 C 398.863281 473.523438 392.726562 476.589844 387.613281 480.683594 C 393.75 483.75 399.886719 484.773438 406.023438 484.773438 C 412.160156 483.75 418.296875 482.726562 424.433594 480.683594 Z M 424.433594 480.683594 " fill-opacity="1" fill-rule="nonzero"/><path fill="#fdfcef" d="M 381.476562 453.066406 L 381.476562 457.160156 C 381.476562 461.25 386.589844 464.316406 392.726562 464.316406 L 419.316406 464.316406 C 425.453125 464.316406 430.566406 461.25 430.566406 457.160156 L 430.566406 452.046875 Z M 381.476562 453.066406 " fill-opacity="1" fill-rule="nonzero"/><path fill="#472b29" d="M 406.023438 485.796875 C 385.566406 485.796875 368.183594 473.523438 368.183594 458.183594 C 368.183594 456.136719 368.183594 454.089844 369.203125 453.066406 C 369.203125 452.046875 370.226562 451.023438 371.25 451.023438 L 440.796875 451.023438 C 441.816406 451.023438 442.839844 452.046875 442.839844 453.066406 C 442.839844 455.113281 443.863281 457.160156 443.863281 458.183594 C 442.839844 473.523438 426.476562 485.796875 406.023438 485.796875 Z M 373.296875 455.113281 C 373.296875 456.136719 373.296875 457.160156 373.296875 458.183594 C 373.296875 471.476562 388.636719 481.703125 407.046875 481.703125 C 425.453125 481.703125 440.796875 471.476562 440.796875 458.183594 C 440.796875 457.160156 440.796875 456.136719 440.796875 455.113281 Z M 373.296875 455.113281 " fill-opacity="1" fill-rule="nonzero"/><path fill="#472b29" d="M 406.023438 434.660156 C 414.203125 434.660156 421.363281 431.589844 426.476562 425.453125 C 427.5 424.433594 427.5 424.433594 426.476562 423.410156 C 425.453125 423.410156 425.453125 423.410156 424.433594 423.410156 C 419.316406 428.523438 413.183594 430.566406 406.023438 430.566406 C 398.863281 430.566406 392.726562 428.523438 387.613281 423.410156 C 387.613281 423.410156 386.589844 423.410156 386.589844 423.410156 L 385.566406 423.410156 C 384.546875 424.433594 384.546875 424.433594 385.566406 425.453125 C 390.683594 430.566406 397.839844 434.660156 406.023438 434.660156 Z M 415.226562 503.183594 C 415.226562 503.183594 416.25 502.160156 415.226562 503.183594 C 416.25 502.160156 415.226562 501.136719 415.226562 501.136719 L 396.816406 501.136719 C 396.816406 501.136719 395.796875 501.136719 395.796875 502.160156 C 395.796875 503.183594 395.796875 503.183594 396.816406 503.183594 Z M 415.226562 503.183594 " fill-opacity="0.41" fill-rule="nonzero"/><path fill="#512c2b" d="M 384.546875 310.910156 C 360 303.75 334.433594 300.683594 308.863281 302.726562 C 307.839844 302.726562 306.816406 303.75 306.816406 304.773438 C 306.816406 305.796875 307.839844 306.816406 308.863281 306.816406 C 331.363281 310.910156 354.886719 315 377.386719 321.136719 L 378.410156 321.136719 C 379.433594 321.136719 380.453125 321.136719 380.453125 320.113281 L 385.566406 313.976562 C 385.566406 312.953125 385.566406 312.953125 385.566406 311.933594 C 385.566406 311.933594 385.566406 310.910156 384.546875 310.910156 Z M 425.453125 308.863281 C 450 302.726562 476.589844 301.703125 502.160156 304.773438 C 503.183594 304.773438 504.203125 305.796875 504.203125 306.816406 C 504.203125 307.839844 503.183594 308.863281 502.160156 308.863281 C 502.160156 308.863281 450 315 433.636719 320.113281 L 432.613281 320.113281 C 431.589844 320.113281 431.589844 320.113281 430.566406 319.089844 L 424.433594 311.933594 C 424.433594 310.910156 424.433594 310.910156 424.433594 309.886719 C 424.433594 309.886719 425.453125 308.863281 425.453125 308.863281 Z M 425.453125 308.863281 " fill-opacity="1" fill-rule="nonzero"/><path fill="#472b29" d="M 348.75 332.386719 C 343.636719 332.386719 338.523438 336.476562 336.476562 340.566406 C 337.5 340.566406 337.5 340.566406 338.523438 340.566406 C 343.636719 341.589844 346.703125 345.683594 345.683594 349.773438 C 345.683594 353.863281 342.613281 356.933594 338.523438 356.933594 C 337.5 356.933594 335.453125 356.933594 334.433594 355.910156 C 335.453125 363.066406 341.589844 368.183594 348.75 369.203125 C 358.976562 367.160156 365.113281 356.933594 363.066406 346.703125 C 361.023438 339.546875 355.910156 334.433594 348.75 332.386719 Z M 461.25 332.386719 C 457.160156 332.386719 453.066406 335.453125 450 338.523438 C 451.023438 338.523438 452.046875 337.5 453.066406 337.5 C 458.183594 338.523438 461.25 342.613281 460.226562 346.703125 C 460.226562 350.796875 457.160156 353.863281 453.066406 353.863281 C 450 353.863281 447.953125 352.839844 446.933594 349.773438 C 448.976562 357.953125 457.160156 363.066406 465.339844 361.023438 C 473.523438 358.976562 478.636719 350.796875 476.589844 342.613281 C 473.523438 336.476562 468.410156 332.386719 461.25 332.386719 Z M 461.25 332.386719 " fill-opacity="1" fill-rule="nonzero"/><path fill="#472b29" d="M 420.339844 789.546875 C 340.566406 789.546875 245.453125 772.160156 197.386719 722.046875 C 196.363281 721.023438 196.363281 720 196.363281 718.976562 C 196.363281 718.976562 196.363281 717.953125 196.363281 716.933594 C 194.316406 675 197.386719 600.339844 237.273438 580.910156 C 244.433594 576.816406 252.613281 573.75 260.796875 571.703125 L 339.546875 545.113281 C 344.660156 544.089844 347.726562 541.023438 348.75 536.933594 C 349.773438 532.839844 350.796875 516.476562 350.796875 508.296875 C 328.296875 493.976562 300.683594 473.523438 291.476562 459.203125 C 285.339844 450 281.25 438.75 282.273438 427.5 L 282.273438 407.046875 C 275.113281 405 268.976562 398.863281 266.933594 390.683594 C 262.839844 378.410156 256.703125 351.816406 256.703125 350.796875 C 252.613281 339.546875 255.683594 332.386719 258.75 328.296875 C 260.796875 325.226562 265.910156 321.136719 275.113281 320.113281 C 275.113281 319.089844 275.113281 317.046875 275.113281 316.023438 C 272.046875 309.886719 271.023438 303.75 270 297.613281 C 270 230.113281 329.316406 175.910156 401.933594 175.910156 C 474.546875 175.910156 533.863281 230.113281 533.863281 296.589844 C 533.863281 303.75 531.816406 309.886719 528.75 316.023438 C 528.75 317.046875 528.75 318.066406 528.75 319.089844 C 536.933594 320.113281 544.089844 324.203125 548.183594 329.316406 C 551.25 333.410156 554.316406 340.566406 550.226562 350.796875 C 549.203125 356.933594 543.066406 381.476562 540 390.683594 C 538.976562 396.816406 533.863281 402.953125 527.726562 405 L 527.726562 431.589844 C 527.726562 438.75 525.683594 444.886719 522.613281 451.023438 C 504.203125 475.566406 482.726562 496.023438 457.160156 512.386719 C 457.160156 520.566406 457.160156 527.726562 459.203125 535.910156 C 460.226562 538.976562 464.316406 542.046875 468.410156 543.066406 C 472.5 544.089844 551.25 570.683594 563.523438 576.816406 L 572.726562 579.886719 C 611.589844 592.160156 612.613281 623.863281 614.660156 686.25 C 614.660156 699.546875 615.683594 714.886719 616.703125 732.273438 C 616.703125 733.296875 616.703125 734.316406 615.683594 735.339844 C 596.25 761.933594 536.933594 782.386719 460.226562 787.5 C 446.933594 789.546875 433.636719 789.546875 420.339844 789.546875 Z M 206.589844 716.933594 C 260.796875 772.160156 375.339844 784.433594 458.183594 778.296875 C 529.773438 773.183594 587.046875 754.773438 605.453125 731.25 C 604.433594 714.886719 604.433594 700.566406 603.410156 687.273438 C 601.363281 625.910156 601.363281 600.339844 568.636719 591.136719 L 559.433594 587.046875 C 547.160156 581.933594 466.363281 554.316406 465.339844 554.316406 C 458.183594 552.273438 452.046875 547.160156 450 540 C 446.933594 529.773438 446.933594 519.546875 446.933594 510.339844 C 446.933594 508.296875 447.953125 507.273438 448.976562 506.25 C 474.546875 489.886719 496.023438 470.453125 513.410156 445.910156 C 515.453125 441.816406 516.476562 436.703125 517.5 431.589844 L 517.5 400.910156 C 517.5 397.839844 519.546875 395.796875 521.589844 395.796875 C 525.683594 394.773438 529.773438 391.703125 529.773438 387.613281 C 533.863281 375.339844 540 349.773438 540 347.726562 C 542.046875 341.589844 542.046875 337.5 538.976562 334.433594 C 535.910156 330.339844 529.773438 328.296875 522.613281 328.296875 C 519.546875 328.296875 517.5 326.25 517.5 323.183594 C 517.5 315 517.5 310.910156 519.546875 308.863281 C 521.589844 304.773438 522.613281 299.660156 522.613281 294.546875 C 522.613281 234.203125 467.386719 184.089844 400.910156 184.089844 C 333.410156 184.089844 279.203125 233.183594 279.203125 294.546875 C 279.203125 299.660156 281.25 304.773438 283.296875 309.886719 C 283.296875 309.886719 283.296875 310.910156 283.296875 310.910156 C 284.316406 315 284.316406 318.066406 284.316406 322.160156 C 284.316406 323.183594 284.316406 325.226562 283.296875 326.25 C 282.273438 327.273438 281.25 328.296875 279.203125 328.296875 C 275.113281 328.296875 268.976562 329.316406 265.910156 332.386719 C 262.839844 336.476562 263.863281 341.589844 265.910156 345.683594 C 265.910156 346.703125 272.046875 373.296875 276.136719 385.566406 C 277.160156 390.683594 281.25 394.773438 286.363281 394.773438 C 287.386719 394.773438 289.433594 395.796875 290.453125 395.796875 C 291.476562 396.816406 291.476562 397.839844 291.476562 399.886719 L 291.476562 426.476562 C 291.476562 435.683594 293.523438 444.886719 299.660156 452.046875 C 305.796875 462.273438 330.339844 481.703125 357.953125 499.089844 C 358.976562 500.113281 360 502.160156 360 503.183594 C 360 510.339844 357.953125 531.816406 356.933594 537.953125 C 354.886719 546.136719 347.726562 552.273438 339.546875 553.296875 L 262.839844 580.910156 C 255.683594 582.953125 248.523438 586.023438 241.363281 590.113281 C 215.796875 602.386719 203.523438 648.410156 206.589844 716.933594 Z M 206.589844 716.933594 " fill-opacity="1" fill-rule="nonzero"/><path fill="#472b29" d="M 410.113281 522.613281 C 390.683594 522.613281 358.976562 505.226562 356.933594 505.226562 C 355.910156 504.203125 354.886719 503.183594 355.910156 502.160156 C 356.933594 501.136719 357.953125 500.113281 358.976562 501.136719 C 358.976562 501.136719 393.75 519.546875 411.136719 518.523438 C 426.476562 515.453125 441.816406 510.339844 455.113281 502.160156 C 456.136719 501.136719 458.183594 502.160156 458.183594 503.183594 C 459.203125 504.203125 458.183594 506.25 457.160156 506.25 C 442.839844 514.433594 427.5 520.566406 411.136719 523.636719 C 411.136719 522.613281 410.113281 522.613281 410.113281 522.613281 Z M 410.113281 522.613281 " fill-opacity="1" fill-rule="nonzero"/><path fill="#512c2b" d="M 408.066406 166.703125 C 296.589844 168.75 265.910156 265.910156 260.796875 285.339844 C 263.863281 282.273438 266.933594 279.203125 270 276.136719 C 262.839844 311.933594 283.296875 341.589844 298.636719 371.25 C 283.296875 341.589844 353.863281 262.839844 408.066406 245.453125 C 405 250.566406 401.933594 256.703125 398.863281 262.839844 C 395.796875 268.976562 387.613281 303.75 383.523438 304.773438 C 411.136719 293.523438 433.636719 275.113281 451.023438 250.566406 C 454.089844 245.453125 457.160156 240.339844 459.203125 234.203125 C 454.089844 300.683594 523.636719 335.453125 521.589844 373.296875 C 547.160156 337.5 540 294.546875 529.773438 251.589844 C 529.773438 251.589844 499.089844 164.660156 408.066406 166.703125 Z M 408.066406 166.703125 " fill-opacity="1" fill-rule="nonzero"/></svg>