<svg xmlns="http://www.w3.org/2000/svg" xmlns:xlink="http://www.w3.org/1999/xlink" width="1080" zoomAndPan="magnify" viewBox="0 0 810 809.999993" height="1080" preserveAspectRatio="xMidYMid meet" version="1.0"><defs><filter x="0%" y="0%" width="100%" height="100%" id="2585cc4db1"><feColorMatrix values="0 0 0 0 1 0 0 0 0 1 0 0 0 0 1 0 0 0 1 0" color-interpolation-filters="sRGB"/></filter><mask id="855cf6aee1"><g filter="url(#2585cc4db1)"><rect x="-81" width="972" fill="#000000" y="-80.999999" height="971.999992" fill-opacity="0.3"/></g></mask><clipPath id="97b9e8011e"><rect x="0" width="206" y="0" height="52"/></clipPath></defs><path fill="#ffffff" d="M 107.25 461.339844 C 106.648438 461.339844 106.050781 461.398438 105.457031 461.515625 C 104.867188 461.632812 104.289062 461.808594 103.734375 462.039062 C 103.175781 462.269531 102.644531 462.550781 102.144531 462.886719 C 101.640625 463.222656 101.175781 463.605469 100.75 464.03125 C 100.324219 464.457031 99.941406 464.921875 99.605469 465.425781 C 99.273438 465.925781 98.988281 466.457031 98.757812 467.015625 C 98.527344 467.574219 98.351562 468.148438 98.234375 468.738281 C 98.117188 469.332031 98.058594 469.929688 98.058594 470.535156 C 98.058594 471.136719 98.117188 471.734375 98.234375 472.328125 C 98.351562 472.917969 98.527344 473.496094 98.757812 474.054688 C 98.988281 474.609375 99.273438 475.140625 99.605469 475.644531 C 99.941406 476.144531 100.324219 476.609375 100.75 477.035156 C 101.175781 477.464844 101.640625 477.84375 102.144531 478.179688 C 102.644531 478.515625 103.175781 478.796875 103.734375 479.03125 C 104.289062 479.261719 104.867188 479.433594 105.457031 479.554688 C 106.050781 479.671875 106.648438 479.730469 107.25 479.730469 C 107.855469 479.730469 108.453125 479.671875 109.042969 479.554688 C 109.636719 479.433594 110.210938 479.261719 110.769531 479.03125 C 111.328125 478.796875 111.855469 478.515625 112.359375 478.179688 C 112.859375 477.84375 113.324219 477.464844 113.75 477.035156 C 114.179688 476.609375 114.558594 476.144531 114.894531 475.640625 C 115.230469 475.140625 115.511719 474.609375 115.742188 474.054688 C 115.976562 473.496094 116.148438 472.917969 116.265625 472.328125 C 116.386719 471.734375 116.445312 471.136719 116.445312 470.535156 C 116.445312 469.929688 116.386719 469.332031 116.265625 468.738281 C 116.148438 468.148438 115.976562 467.574219 115.742188 467.015625 C 115.511719 466.457031 115.230469 465.925781 114.894531 465.425781 C 114.558594 464.921875 114.179688 464.457031 113.75 464.03125 C 113.324219 463.605469 112.859375 463.222656 112.359375 462.886719 C 111.855469 462.550781 111.328125 462.269531 110.769531 462.039062 C 110.210938 461.808594 109.636719 461.632812 109.042969 461.515625 C 108.453125 461.398438 107.855469 461.339844 107.25 461.339844 Z M 710.921875 208.964844 C 710.449219 208.964844 709.984375 209.007812 709.527344 209.101562 C 709.066406 209.191406 708.617188 209.328125 708.183594 209.507812 C 707.75 209.6875 707.339844 209.90625 706.949219 210.167969 C 706.558594 210.429688 706.195312 210.726562 705.863281 211.058594 C 705.53125 211.390625 705.234375 211.75 704.976562 212.140625 C 704.714844 212.53125 704.496094 212.945312 704.316406 213.378906 C 704.136719 213.8125 704 214.261719 703.90625 214.71875 C 703.816406 215.179688 703.769531 215.644531 703.769531 216.117188 C 703.769531 216.585938 703.816406 217.050781 703.90625 217.511719 C 704 217.972656 704.136719 218.417969 704.316406 218.851562 C 704.496094 219.285156 704.714844 219.699219 704.976562 220.089844 C 705.234375 220.480469 705.53125 220.839844 705.863281 221.171875 C 706.195312 221.503906 706.558594 221.800781 706.949219 222.0625 C 707.339844 222.324219 707.75 222.542969 708.183594 222.722656 C 708.617188 222.902344 709.066406 223.039062 709.527344 223.128906 C 709.984375 223.222656 710.449219 223.269531 710.921875 223.269531 C 711.390625 223.269531 711.855469 223.222656 712.316406 223.128906 C 712.777344 223.039062 713.222656 222.902344 713.65625 222.722656 C 714.089844 222.542969 714.503906 222.324219 714.894531 222.0625 C 715.28125 221.800781 715.644531 221.503906 715.976562 221.171875 C 716.308594 220.839844 716.605469 220.480469 716.867188 220.089844 C 717.125 219.699219 717.347656 219.285156 717.527344 218.851562 C 717.707031 218.417969 717.839844 217.972656 717.933594 217.511719 C 718.023438 217.050781 718.070312 216.585938 718.070312 216.117188 C 718.070312 215.644531 718.023438 215.179688 717.933594 214.71875 C 717.839844 214.261719 717.707031 213.8125 717.527344 213.378906 C 717.347656 212.945312 717.125 212.53125 716.867188 212.140625 C 716.605469 211.75 716.308594 211.390625 715.976562 211.058594 C 715.644531 210.726562 715.28125 210.429688 714.894531 210.167969 C 714.503906 209.90625 714.089844 209.6875 713.65625 209.507812 C 713.222656 209.328125 712.777344 209.191406 712.316406 209.101562 C 711.855469 209.007812 711.390625 208.964844 710.921875 208.964844 Z M 710.921875 208.964844 " fill-opacity="1" fill-rule="nonzero"/><path fill="#f1bc19" d="M 683.339844 11.765625 C 682.738281 11.765625 682.140625 11.824219 681.546875 11.941406 C 680.957031 12.058594 680.382812 12.234375 679.824219 12.464844 C 679.265625 12.695312 678.734375 12.976562 678.234375 13.3125 C 677.734375 13.648438 677.269531 14.03125 676.839844 14.457031 C 676.414062 14.882812 676.035156 15.347656 675.699219 15.851562 C 675.363281 16.351562 675.078125 16.882812 674.847656 17.441406 C 674.617188 18 674.441406 18.574219 674.324219 19.164062 C 674.207031 19.757812 674.148438 20.355469 674.148438 20.960938 C 674.148438 21.5625 674.207031 22.160156 674.324219 22.753906 C 674.441406 23.347656 674.617188 23.921875 674.847656 24.480469 C 675.078125 25.035156 675.363281 25.566406 675.699219 26.070312 C 676.035156 26.570312 676.414062 27.035156 676.839844 27.460938 C 677.269531 27.890625 677.734375 28.269531 678.234375 28.605469 C 678.734375 28.941406 679.265625 29.226562 679.824219 29.457031 C 680.382812 29.6875 680.957031 29.859375 681.546875 29.980469 C 682.140625 30.097656 682.738281 30.15625 683.339844 30.15625 C 683.945312 30.15625 684.542969 30.097656 685.136719 29.980469 C 685.726562 29.859375 686.300781 29.6875 686.859375 29.457031 C 687.417969 29.226562 687.945312 28.941406 688.449219 28.605469 C 688.949219 28.269531 689.414062 27.890625 689.84375 27.460938 C 690.269531 27.035156 690.648438 26.570312 690.984375 26.070312 C 691.320312 25.566406 691.605469 25.035156 691.835938 24.480469 C 692.066406 23.921875 692.238281 23.347656 692.359375 22.753906 C 692.476562 22.160156 692.535156 21.5625 692.535156 20.960938 C 692.535156 20.355469 692.476562 19.757812 692.359375 19.164062 C 692.238281 18.574219 692.066406 18 691.835938 17.441406 C 691.605469 16.882812 691.320312 16.351562 690.984375 15.851562 C 690.648438 15.347656 690.269531 14.882812 689.84375 14.457031 C 689.414062 14.03125 688.949219 13.648438 688.449219 13.3125 C 687.945312 12.976562 687.417969 12.695312 686.859375 12.464844 C 686.300781 12.234375 685.726562 12.058594 685.136719 11.941406 C 684.542969 11.824219 683.945312 11.765625 683.339844 11.765625 Z M 112.359375 538.992188 C 111.753906 538.988281 111.15625 539.046875 110.5625 539.164062 C 109.96875 539.28125 109.390625 539.453125 108.832031 539.683594 C 108.273438 539.914062 107.742188 540.199219 107.238281 540.53125 C 106.734375 540.867188 106.269531 541.25 105.839844 541.675781 C 105.414062 542.101562 105.03125 542.566406 104.695312 543.070312 C 104.359375 543.574219 104.074219 544.105469 103.84375 544.664062 C 103.609375 545.222656 103.433594 545.796875 103.316406 546.390625 C 103.199219 546.984375 103.140625 547.582031 103.140625 548.1875 C 103.140625 548.792969 103.199219 549.390625 103.316406 549.984375 C 103.433594 550.578125 103.609375 551.152344 103.84375 551.710938 C 104.074219 552.269531 104.359375 552.800781 104.695312 553.304688 C 105.03125 553.808594 105.414062 554.273438 105.839844 554.699219 C 106.269531 555.125 106.734375 555.507812 107.238281 555.84375 C 107.742188 556.175781 108.273438 556.460938 108.832031 556.691406 C 109.390625 556.921875 109.96875 557.09375 110.5625 557.210938 C 111.15625 557.328125 111.753906 557.386719 112.359375 557.382812 C 112.960938 557.386719 113.5625 557.328125 114.15625 557.210938 C 114.75 557.09375 115.324219 556.921875 115.882812 556.691406 C 116.441406 556.460938 116.972656 556.175781 117.476562 555.84375 C 117.980469 555.507812 118.445312 555.125 118.875 554.699219 C 119.304688 554.273438 119.683594 553.808594 120.023438 553.304688 C 120.359375 552.800781 120.640625 552.269531 120.875 551.710938 C 121.105469 551.152344 121.28125 550.578125 121.398438 549.984375 C 121.515625 549.390625 121.578125 548.792969 121.578125 548.1875 C 121.578125 547.582031 121.515625 546.984375 121.398438 546.390625 C 121.28125 545.796875 121.105469 545.222656 120.875 544.664062 C 120.640625 544.105469 120.359375 543.574219 120.023438 543.070312 C 119.683594 542.566406 119.304688 542.101562 118.875 541.675781 C 118.445312 541.25 117.980469 540.867188 117.476562 540.53125 C 116.972656 540.199219 116.441406 539.914062 115.882812 539.683594 C 115.324219 539.453125 114.75 539.28125 114.15625 539.164062 C 113.5625 539.046875 112.960938 538.988281 112.359375 538.992188 Z M 112.359375 538.992188 " fill-opacity="1" fill-rule="nonzero"/><path fill="#f9dbd2" d="M 409.597656 19.9375 C 403.34375 19.9375 397.097656 20.089844 390.851562 20.398438 C 384.605469 20.707031 378.375 21.164062 372.152344 21.777344 C 365.929688 22.390625 359.726562 23.15625 353.542969 24.074219 C 347.359375 24.992188 341.199219 26.0625 335.070312 27.28125 C 328.9375 28.5 322.839844 29.871094 316.773438 31.390625 C 310.710938 32.910156 304.683594 34.578125 298.703125 36.394531 C 292.71875 38.207031 286.785156 40.167969 280.898438 42.277344 C 275.011719 44.382812 269.179688 46.632812 263.40625 49.027344 C 257.628906 51.421875 251.914062 53.953125 246.261719 56.628906 C 240.609375 59.300781 235.027344 62.113281 229.515625 65.0625 C 224 68.007812 218.5625 71.089844 213.199219 74.304688 C 207.835938 77.519531 202.558594 80.867188 197.359375 84.339844 C 192.160156 87.816406 187.050781 91.414062 182.027344 95.140625 C 177.007812 98.867188 172.078125 102.710938 167.246094 106.679688 C 162.414062 110.648438 157.679688 114.730469 153.050781 118.929688 C 148.417969 123.128906 143.890625 127.441406 139.46875 131.863281 C 135.046875 136.285156 130.738281 140.8125 126.539062 145.449219 C 122.339844 150.082031 118.257812 154.816406 114.292969 159.648438 C 110.328125 164.484375 106.480469 169.414062 102.757812 174.4375 C 99.03125 179.460938 95.433594 184.570312 91.960938 189.773438 C 88.488281 194.972656 85.144531 200.253906 81.929688 205.617188 C 78.714844 210.980469 75.632812 216.421875 72.6875 221.9375 C 69.738281 227.453125 66.929688 233.039062 64.257812 238.691406 C 61.582031 244.34375 59.050781 250.058594 56.65625 255.839844 C 54.265625 261.617188 52.015625 267.449219 49.910156 273.335938 C 47.804688 279.226562 45.84375 285.164062 44.027344 291.148438 C 42.214844 297.132812 40.546875 303.15625 39.027344 309.222656 C 37.507812 315.289062 36.140625 321.390625 34.917969 327.523438 C 33.699219 333.660156 32.632812 339.820312 31.714844 346.003906 C 30.796875 352.191406 30.03125 358.394531 29.417969 364.621094 C 28.804688 370.84375 28.347656 377.078125 28.039062 383.324219 C 27.730469 389.570312 27.578125 395.820312 27.578125 402.074219 C 27.578125 408.328125 27.730469 414.578125 28.039062 420.828125 C 28.347656 427.074219 28.804688 433.308594 29.417969 439.53125 C 30.03125 445.753906 30.796875 451.960938 31.714844 458.148438 C 32.632812 464.332031 33.699219 470.492188 34.917969 476.628906 C 36.140625 482.761719 37.507812 488.859375 39.027344 494.925781 C 40.546875 500.996094 42.214844 507.019531 44.027344 513.003906 C 45.84375 518.988281 47.804688 524.925781 49.910156 530.8125 C 52.015625 536.703125 54.265625 542.535156 56.65625 548.3125 C 59.050781 554.089844 61.582031 559.808594 64.257812 565.460938 C 66.929688 571.113281 69.738281 576.699219 72.6875 582.214844 C 75.632812 587.730469 78.714844 593.167969 81.929688 598.535156 C 85.144531 603.898438 88.488281 609.179688 91.960938 614.378906 C 95.433594 619.582031 99.03125 624.691406 102.757812 629.714844 C 106.480469 634.738281 110.328125 639.667969 114.292969 644.5 C 118.257812 649.335938 122.339844 654.070312 126.539062 658.703125 C 130.738281 663.335938 135.046875 667.867188 139.46875 672.289062 C 143.890625 676.710938 148.417969 681.019531 153.050781 685.222656 C 157.679688 689.421875 162.414062 693.503906 167.246094 697.472656 C 172.078125 701.441406 177.007812 705.285156 182.027344 709.011719 C 187.050781 712.738281 192.160156 716.335938 197.359375 719.8125 C 202.558594 723.285156 207.835938 726.632812 213.199219 729.847656 C 218.5625 733.0625 224 736.144531 229.515625 739.089844 C 235.027344 742.039062 240.609375 744.851562 246.261719 747.523438 C 251.914062 750.199219 257.628906 752.730469 263.40625 755.125 C 269.179688 757.519531 275.011719 759.769531 280.898438 761.875 C 286.785156 763.980469 292.71875 765.945312 298.703125 767.757812 C 304.683594 769.574219 310.710938 771.242188 316.773438 772.761719 C 322.839844 774.28125 328.9375 775.652344 335.070312 776.871094 C 341.199219 778.089844 347.359375 779.160156 353.542969 780.078125 C 359.726562 780.996094 365.929688 781.761719 372.152344 782.375 C 378.375 782.988281 384.605469 783.445312 390.851562 783.753906 C 397.097656 784.058594 403.34375 784.214844 409.597656 784.214844 C 415.847656 784.214844 422.097656 784.058594 428.339844 783.753906 C 434.585938 783.445312 440.820312 782.988281 447.039062 782.375 C 453.261719 781.761719 459.464844 780.996094 465.648438 780.078125 C 471.835938 779.160156 477.992188 778.089844 484.125 776.871094 C 490.257812 775.652344 496.355469 774.28125 502.417969 772.761719 C 508.484375 771.242188 514.507812 769.574219 520.492188 767.757812 C 526.472656 765.945312 532.40625 763.980469 538.292969 761.875 C 544.179688 759.769531 550.011719 757.519531 555.789062 755.125 C 561.5625 752.730469 567.277344 750.199219 572.929688 747.523438 C 578.582031 744.851562 584.164062 742.039062 589.679688 739.089844 C 595.191406 736.144531 600.628906 733.0625 605.992188 729.847656 C 611.355469 726.632812 616.636719 723.285156 621.832031 719.8125 C 627.03125 716.335938 632.140625 712.738281 637.164062 709.011719 C 642.1875 705.285156 647.113281 701.441406 651.945312 697.472656 C 656.777344 693.503906 661.511719 689.421875 666.144531 685.222656 C 670.777344 681.019531 675.304688 676.710938 679.722656 672.289062 C 684.144531 667.867188 688.453125 663.335938 692.652344 658.703125 C 696.851562 654.070312 700.933594 649.335938 704.898438 644.5 C 708.867188 639.667969 712.710938 634.738281 716.4375 629.714844 C 720.160156 624.691406 723.757812 619.582031 727.234375 614.378906 C 730.707031 609.179688 734.050781 603.898438 737.265625 598.535156 C 740.476562 593.167969 743.558594 587.730469 746.507812 582.214844 C 749.453125 576.699219 752.261719 571.113281 754.9375 565.460938 C 757.609375 559.808594 760.140625 554.089844 762.535156 548.3125 C 764.925781 542.535156 767.175781 536.703125 769.28125 530.8125 C 771.390625 524.925781 773.351562 518.988281 775.164062 513.003906 C 776.980469 507.019531 778.644531 500.996094 780.164062 494.929688 C 781.683594 488.859375 783.054688 482.761719 784.273438 476.628906 C 785.492188 470.492188 786.5625 464.332031 787.480469 458.148438 C 788.398438 451.960938 789.160156 445.753906 789.773438 439.53125 C 790.386719 433.308594 790.847656 427.074219 791.152344 420.828125 C 791.460938 414.578125 791.613281 408.328125 791.613281 402.074219 C 791.613281 395.820312 791.460938 389.570312 791.152344 383.324219 C 790.847656 377.078125 790.386719 370.84375 789.773438 364.621094 C 789.160156 358.394531 788.398438 352.191406 787.480469 346.003906 C 786.5625 339.820312 785.492188 333.660156 784.273438 327.523438 C 783.054688 321.390625 781.683594 315.289062 780.164062 309.222656 C 778.644531 303.15625 776.980469 297.132812 775.164062 291.148438 C 773.351562 285.164062 771.390625 279.226562 769.28125 273.335938 C 767.175781 267.449219 764.925781 261.617188 762.535156 255.839844 C 760.140625 250.058594 757.609375 244.34375 754.9375 238.691406 C 752.261719 233.039062 749.453125 227.453125 746.507812 221.9375 C 743.558594 216.421875 740.476562 210.980469 737.265625 205.617188 C 734.050781 200.253906 730.707031 194.972656 727.234375 189.773438 C 723.757812 184.570312 720.160156 179.460938 716.4375 174.4375 C 712.710938 169.414062 708.867188 164.484375 704.898438 159.648438 C 700.933594 154.816406 696.851562 150.082031 692.652344 145.449219 C 688.453125 140.8125 684.144531 136.285156 679.722656 131.863281 C 675.304688 127.441406 670.777344 123.128906 666.144531 118.929688 C 661.511719 114.730469 656.777344 110.648438 651.945312 106.679688 C 647.113281 102.710938 642.1875 98.867188 637.164062 95.140625 C 632.140625 91.414062 627.03125 87.816406 621.832031 84.339844 C 616.636719 80.867188 611.355469 77.519531 605.992188 74.304688 C 600.628906 71.089844 595.191406 68.007812 589.679688 65.0625 C 584.164062 62.113281 578.582031 59.300781 572.929688 56.628906 C 567.277344 53.953125 561.5625 51.421875 555.789062 49.027344 C 550.011719 46.632812 544.179688 44.382812 538.292969 42.277344 C 532.40625 40.167969 526.472656 38.207031 520.492188 36.394531 C 514.507812 34.578125 508.484375 32.910156 502.417969 31.390625 C 496.355469 29.871094 490.257812 28.5 484.125 27.28125 C 477.992188 26.0625 471.835938 24.992188 465.648438 24.074219 C 459.464844 23.15625 453.261719 22.390625 447.039062 21.777344 C 440.820312 21.164062 434.585938 20.707031 428.339844 20.398438 C 422.097656 20.089844 415.847656 19.9375 409.597656 19.9375 Z M 409.597656 19.9375 " fill-opacity="1" fill-rule="nonzero"/><path fill="#f1bc19" d="M 739.519531 2.566406 C 738.183594 2.566406 736.847656 2.632812 735.515625 2.765625 C 734.183594 2.894531 732.863281 3.09375 731.550781 3.355469 C 730.238281 3.613281 728.941406 3.941406 727.660156 4.328125 C 726.378906 4.714844 725.121094 5.167969 723.886719 5.679688 C 722.648438 6.191406 721.441406 6.761719 720.261719 7.394531 C 719.082031 8.023438 717.933594 8.710938 716.820312 9.457031 C 715.707031 10.199219 714.636719 10.996094 713.601562 11.84375 C 712.566406 12.695312 711.578125 13.59375 710.628906 14.539062 C 709.683594 15.484375 708.785156 16.476562 707.9375 17.511719 C 707.089844 18.546875 706.292969 19.621094 705.550781 20.730469 C 704.804688 21.84375 704.117188 22.992188 703.488281 24.171875 C 702.855469 25.351562 702.285156 26.5625 701.773438 27.796875 C 701.261719 29.035156 700.8125 30.292969 700.421875 31.574219 C 700.035156 32.855469 699.710938 34.152344 699.449219 35.464844 C 699.1875 36.777344 698.992188 38.101562 698.859375 39.433594 C 698.730469 40.765625 698.664062 42.101562 698.664062 43.4375 C 698.664062 44.777344 698.730469 46.113281 698.859375 47.445312 C 698.992188 48.777344 699.1875 50.097656 699.449219 51.410156 C 699.710938 52.726562 700.035156 54.023438 700.421875 55.300781 C 700.8125 56.582031 701.261719 57.84375 701.773438 59.078125 C 702.285156 60.316406 702.855469 61.523438 703.488281 62.703125 C 704.117188 63.886719 704.804688 65.03125 705.550781 66.144531 C 706.292969 67.257812 707.089844 68.332031 707.9375 69.367188 C 708.785156 70.402344 709.683594 71.390625 710.628906 72.339844 C 711.578125 73.285156 712.566406 74.183594 713.601562 75.03125 C 714.636719 75.882812 715.707031 76.675781 716.820312 77.421875 C 717.933594 78.164062 719.082031 78.851562 720.261719 79.484375 C 721.441406 80.113281 722.648438 80.6875 723.886719 81.199219 C 725.121094 81.710938 726.378906 82.160156 727.660156 82.550781 C 728.941406 82.9375 730.238281 83.261719 731.550781 83.523438 C 732.863281 83.785156 734.183594 83.980469 735.515625 84.113281 C 736.847656 84.242188 738.183594 84.308594 739.519531 84.308594 C 740.859375 84.308594 742.195312 84.242188 743.527344 84.113281 C 744.855469 83.980469 746.179688 83.785156 747.492188 83.523438 C 748.804688 83.261719 750.101562 82.9375 751.382812 82.550781 C 752.660156 82.160156 753.921875 81.710938 755.15625 81.199219 C 756.390625 80.6875 757.601562 80.113281 758.78125 79.484375 C 759.960938 78.851562 761.105469 78.164062 762.21875 77.421875 C 763.332031 76.675781 764.40625 75.882812 765.441406 75.03125 C 766.476562 74.183594 767.464844 73.285156 768.410156 72.339844 C 769.359375 71.390625 770.253906 70.402344 771.105469 69.367188 C 771.953125 68.332031 772.75 67.257812 773.492188 66.144531 C 774.234375 65.03125 774.921875 63.886719 775.554688 62.703125 C 776.183594 61.523438 776.757812 60.316406 777.269531 59.078125 C 777.78125 57.84375 778.230469 56.582031 778.617188 55.300781 C 779.007812 54.023438 779.332031 52.726562 779.59375 51.410156 C 779.855469 50.097656 780.050781 48.777344 780.179688 47.445312 C 780.3125 46.113281 780.378906 44.777344 780.378906 43.4375 C 780.378906 42.101562 780.3125 40.765625 780.179688 39.433594 C 780.050781 38.101562 779.855469 36.777344 779.59375 35.464844 C 779.332031 34.152344 779.007812 32.855469 778.617188 31.574219 C 778.230469 30.292969 777.78125 29.035156 777.269531 27.796875 C 776.757812 26.5625 776.183594 25.351562 775.554688 24.171875 C 774.921875 22.992188 774.234375 21.84375 773.492188 20.730469 C 772.75 19.621094 771.953125 18.546875 771.105469 17.511719 C 770.253906 16.476562 769.359375 15.484375 768.410156 14.539062 C 767.464844 13.59375 766.476562 12.695312 765.441406 11.84375 C 764.40625 10.996094 763.332031 10.199219 762.21875 9.457031 C 761.105469 8.710938 759.960938 8.023438 758.78125 7.394531 C 757.601562 6.761719 756.390625 6.191406 755.15625 5.679688 C 753.921875 5.167969 752.660156 4.714844 751.382812 4.328125 C 750.101562 3.941406 748.804688 3.613281 747.492188 3.355469 C 746.179688 3.09375 744.855469 2.894531 743.527344 2.765625 C 742.195312 2.632812 740.859375 2.566406 739.519531 2.566406 Z M 739.519531 2.566406 " fill-opacity="1" fill-rule="nonzero"/><path fill="#ee8670" d="M 780.378906 117.003906 C 779.742188 117.003906 779.109375 117.035156 778.476562 117.097656 C 777.839844 117.160156 777.214844 117.25 776.589844 117.375 C 775.964844 117.5 775.347656 117.652344 774.742188 117.835938 C 774.132812 118.019531 773.535156 118.234375 772.945312 118.476562 C 772.359375 118.71875 771.785156 118.992188 771.222656 119.292969 C 770.660156 119.589844 770.117188 119.917969 769.585938 120.269531 C 769.058594 120.625 768.546875 121 768.054688 121.40625 C 767.5625 121.808594 767.09375 122.234375 766.644531 122.683594 C 766.191406 123.132812 765.765625 123.605469 765.363281 124.097656 C 764.960938 124.589844 764.582031 125.097656 764.226562 125.628906 C 763.875 126.15625 763.546875 126.699219 763.246094 127.261719 C 762.945312 127.824219 762.675781 128.398438 762.429688 128.984375 C 762.1875 129.574219 761.972656 130.171875 761.789062 130.78125 C 761.605469 131.390625 761.449219 132.003906 761.324219 132.628906 C 761.203125 133.253906 761.109375 133.882812 761.046875 134.515625 C 760.984375 135.148438 760.953125 135.78125 760.953125 136.417969 C 760.953125 137.054688 760.984375 137.691406 761.046875 138.324219 C 761.109375 138.957031 761.203125 139.585938 761.324219 140.207031 C 761.449219 140.832031 761.605469 141.449219 761.789062 142.058594 C 761.972656 142.667969 762.1875 143.265625 762.429688 143.851562 C 762.675781 144.441406 762.945312 145.015625 763.246094 145.574219 C 763.546875 146.136719 763.875 146.679688 764.226562 147.210938 C 764.582031 147.738281 764.960938 148.25 765.363281 148.742188 C 765.765625 149.234375 766.191406 149.703125 766.644531 150.152344 C 767.09375 150.601562 767.5625 151.027344 768.054688 151.433594 C 768.546875 151.835938 769.058594 152.214844 769.585938 152.566406 C 770.117188 152.921875 770.660156 153.246094 771.222656 153.546875 C 771.785156 153.84375 772.359375 154.117188 772.945312 154.359375 C 773.535156 154.601562 774.132812 154.816406 774.742188 155 C 775.347656 155.183594 775.964844 155.339844 776.589844 155.460938 C 777.214844 155.585938 777.839844 155.679688 778.476562 155.742188 C 779.109375 155.800781 779.742188 155.832031 780.378906 155.832031 C 781.015625 155.832031 781.648438 155.800781 782.28125 155.742188 C 782.914062 155.679688 783.542969 155.585938 784.167969 155.460938 C 784.789062 155.339844 785.40625 155.183594 786.015625 155 C 786.625 154.816406 787.222656 154.601562 787.8125 154.359375 C 788.398438 154.117188 788.972656 153.84375 789.535156 153.546875 C 790.09375 153.246094 790.640625 152.921875 791.167969 152.566406 C 791.699219 152.214844 792.210938 151.835938 792.699219 151.433594 C 793.191406 151.027344 793.664062 150.601562 794.113281 150.152344 C 794.5625 149.703125 794.992188 149.234375 795.394531 148.742188 C 795.796875 148.25 796.175781 147.738281 796.53125 147.210938 C 796.882812 146.679688 797.210938 146.136719 797.511719 145.574219 C 797.808594 145.015625 798.082031 144.441406 798.324219 143.851562 C 798.570312 143.265625 798.78125 142.667969 798.96875 142.058594 C 799.152344 141.449219 799.308594 140.832031 799.429688 140.207031 C 799.554688 139.585938 799.648438 138.957031 799.710938 138.324219 C 799.773438 137.691406 799.804688 137.054688 799.804688 136.417969 C 799.804688 135.78125 799.773438 135.148438 799.710938 134.515625 C 799.648438 133.882812 799.554688 133.253906 799.429688 132.628906 C 799.308594 132.003906 799.152344 131.390625 798.96875 130.78125 C 798.78125 130.171875 798.570312 129.574219 798.324219 128.984375 C 798.082031 128.398438 797.808594 127.824219 797.511719 127.261719 C 797.210938 126.699219 796.882812 126.15625 796.53125 125.628906 C 796.175781 125.097656 795.796875 124.589844 795.394531 124.097656 C 794.992188 123.605469 794.5625 123.132812 794.113281 122.683594 C 793.664062 122.234375 793.191406 121.808594 792.699219 121.40625 C 792.210938 121 791.699219 120.625 791.167969 120.269531 C 790.640625 119.917969 790.09375 119.589844 789.535156 119.292969 C 788.972656 118.992188 788.398438 118.71875 787.8125 118.476562 C 787.222656 118.234375 786.625 118.019531 786.015625 117.835938 C 785.40625 117.652344 784.789062 117.5 784.167969 117.375 C 783.542969 117.25 782.914062 117.160156 782.28125 117.097656 C 781.648438 117.035156 781.015625 117.003906 780.378906 117.003906 Z M 780.378906 117.003906 " fill-opacity="1" fill-rule="nonzero"/><path fill="#fbcd59" d="M 688.449219 652.40625 C 687.8125 652.40625 687.179688 652.4375 686.546875 652.5 C 685.914062 652.5625 685.285156 652.65625 684.664062 652.78125 C 684.039062 652.902344 683.421875 653.058594 682.816406 653.242188 C 682.207031 653.425781 681.609375 653.640625 681.023438 653.882812 C 680.433594 654.128906 679.859375 654.398438 679.300781 654.699219 C 678.738281 655 678.195312 655.324219 677.667969 655.679688 C 677.136719 656.03125 676.628906 656.410156 676.136719 656.8125 C 675.644531 657.214844 675.175781 657.644531 674.726562 658.09375 C 674.277344 658.542969 673.851562 659.011719 673.445312 659.503906 C 673.042969 659.996094 672.664062 660.507812 672.3125 661.035156 C 671.960938 661.5625 671.632812 662.109375 671.332031 662.667969 C 671.035156 663.230469 670.761719 663.804688 670.519531 664.390625 C 670.277344 664.976562 670.0625 665.578125 669.878906 666.183594 C 669.691406 666.792969 669.539062 667.410156 669.414062 668.03125 C 669.289062 668.65625 669.195312 669.285156 669.136719 669.917969 C 669.074219 670.550781 669.042969 671.183594 669.042969 671.820312 C 669.042969 672.457031 669.074219 673.089844 669.136719 673.722656 C 669.195312 674.355469 669.289062 674.984375 669.414062 675.609375 C 669.539062 676.230469 669.691406 676.847656 669.878906 677.457031 C 670.0625 678.0625 670.277344 678.660156 670.519531 679.25 C 670.761719 679.835938 671.035156 680.410156 671.332031 680.972656 C 671.632812 681.53125 671.960938 682.078125 672.3125 682.605469 C 672.664062 683.132812 673.042969 683.644531 673.445312 684.136719 C 673.851562 684.628906 674.277344 685.097656 674.726562 685.546875 C 675.175781 685.996094 675.644531 686.421875 676.136719 686.828125 C 676.628906 687.230469 677.136719 687.609375 677.667969 687.960938 C 678.195312 688.316406 678.738281 688.640625 679.300781 688.941406 C 679.859375 689.242188 680.433594 689.511719 681.023438 689.753906 C 681.609375 690 682.207031 690.214844 682.816406 690.398438 C 683.421875 690.582031 684.039062 690.738281 684.664062 690.859375 C 685.285156 690.984375 685.914062 691.078125 686.546875 691.140625 C 687.179688 691.203125 687.8125 691.234375 688.449219 691.234375 C 689.085938 691.234375 689.71875 691.203125 690.351562 691.140625 C 690.984375 691.078125 691.613281 690.984375 692.234375 690.859375 C 692.859375 690.738281 693.472656 690.582031 694.082031 690.398438 C 694.691406 690.214844 695.289062 690 695.875 689.753906 C 696.460938 689.511719 697.035156 689.242188 697.597656 688.941406 C 698.15625 688.640625 698.703125 688.316406 699.230469 687.960938 C 699.757812 687.609375 700.269531 687.230469 700.761719 686.828125 C 701.253906 686.421875 701.722656 685.996094 702.171875 685.546875 C 702.621094 685.097656 703.046875 684.628906 703.449219 684.136719 C 703.855469 683.644531 704.230469 683.132812 704.585938 682.605469 C 704.9375 682.078125 705.265625 681.53125 705.5625 680.972656 C 705.863281 680.410156 706.136719 679.835938 706.378906 679.25 C 706.621094 678.660156 706.835938 678.0625 707.019531 677.457031 C 707.203125 676.847656 707.359375 676.230469 707.484375 675.609375 C 707.605469 674.984375 707.699219 674.355469 707.761719 673.722656 C 707.824219 673.089844 707.855469 672.457031 707.855469 671.820312 C 707.855469 671.183594 707.824219 670.550781 707.761719 669.917969 C 707.699219 669.285156 707.605469 668.65625 707.484375 668.03125 C 707.359375 667.410156 707.203125 666.792969 707.019531 666.183594 C 706.835938 665.578125 706.621094 664.976562 706.378906 664.390625 C 706.136719 663.804688 705.863281 663.230469 705.5625 662.667969 C 705.265625 662.109375 704.9375 661.5625 704.585938 661.035156 C 704.230469 660.507812 703.855469 659.996094 703.449219 659.503906 C 703.046875 659.011719 702.621094 658.542969 702.171875 658.09375 C 701.722656 657.644531 701.253906 657.214844 700.761719 656.8125 C 700.269531 656.410156 699.757812 656.03125 699.230469 655.679688 C 698.703125 655.324219 698.15625 655 697.597656 654.699219 C 697.035156 654.398438 696.460938 654.128906 695.875 653.882812 C 695.289062 653.640625 694.691406 653.425781 694.082031 653.242188 C 693.472656 653.058594 692.859375 652.902344 692.234375 652.78125 C 691.613281 652.65625 690.984375 652.5625 690.351562 652.5 C 689.71875 652.4375 689.085938 652.40625 688.449219 652.40625 Z M 42.898438 498.121094 C 41.5625 498.121094 40.226562 498.1875 38.894531 498.316406 C 37.5625 498.449219 36.242188 498.644531 34.929688 498.90625 C 33.617188 499.167969 32.320312 499.492188 31.039062 499.882812 C 29.757812 500.269531 28.5 500.71875 27.265625 501.230469 C 26.027344 501.746094 24.820312 502.316406 23.640625 502.945312 C 22.460938 503.578125 21.3125 504.265625 20.199219 505.007812 C 19.089844 505.753906 18.015625 506.550781 16.980469 507.398438 C 15.945312 508.246094 14.957031 509.144531 14.007812 510.09375 C 13.0625 511.039062 12.164062 512.027344 11.316406 513.0625 C 10.46875 514.097656 9.671875 515.171875 8.929688 516.285156 C 8.183594 517.398438 7.5 518.542969 6.867188 519.726562 C 6.238281 520.90625 5.664062 522.113281 5.152344 523.351562 C 4.640625 524.585938 4.191406 525.847656 3.800781 527.128906 C 3.414062 528.410156 3.089844 529.707031 2.828125 531.019531 C 2.566406 532.332031 2.371094 533.652344 2.238281 534.984375 C 2.109375 536.316406 2.042969 537.652344 2.042969 538.992188 C 2.042969 540.332031 2.109375 541.664062 2.238281 542.996094 C 2.371094 544.328125 2.566406 545.652344 2.828125 546.964844 C 3.089844 548.277344 3.414062 549.574219 3.800781 550.855469 C 4.191406 552.136719 4.640625 553.394531 5.152344 554.632812 C 5.664062 555.867188 6.238281 557.078125 6.867188 558.257812 C 7.5 559.4375 8.183594 560.585938 8.929688 561.699219 C 9.671875 562.8125 10.46875 563.882812 11.316406 564.917969 C 12.164062 565.953125 13.0625 566.945312 14.007812 567.890625 C 14.957031 568.835938 15.945312 569.734375 16.980469 570.585938 C 18.015625 571.433594 19.089844 572.230469 20.199219 572.972656 C 21.3125 573.71875 22.460938 574.40625 23.640625 575.035156 C 24.820312 575.667969 26.027344 576.238281 27.265625 576.75 C 28.5 577.261719 29.757812 577.714844 31.039062 578.101562 C 32.320312 578.492188 33.617188 578.816406 34.929688 579.078125 C 36.242188 579.335938 37.5625 579.535156 38.894531 579.664062 C 40.226562 579.796875 41.5625 579.863281 42.898438 579.863281 C 44.238281 579.863281 45.574219 579.796875 46.90625 579.664062 C 48.238281 579.535156 49.558594 579.335938 50.871094 579.078125 C 52.183594 578.816406 53.480469 578.492188 54.761719 578.101562 C 56.042969 577.714844 57.300781 577.261719 58.535156 576.75 C 59.773438 576.238281 60.980469 575.667969 62.160156 575.035156 C 63.339844 574.40625 64.488281 573.71875 65.597656 572.972656 C 66.710938 572.230469 67.785156 571.433594 68.820312 570.585938 C 69.855469 569.734375 70.84375 568.835938 71.789062 567.890625 C 72.738281 566.945312 73.632812 565.953125 74.484375 564.917969 C 75.332031 563.882812 76.128906 562.8125 76.871094 561.699219 C 77.617188 560.585938 78.300781 559.4375 78.933594 558.257812 C 79.5625 557.078125 80.136719 555.867188 80.648438 554.632812 C 81.160156 553.394531 81.609375 552.136719 82 550.855469 C 82.386719 549.574219 82.710938 548.277344 82.972656 546.964844 C 83.234375 545.652344 83.429688 544.328125 83.5625 542.996094 C 83.691406 541.664062 83.757812 540.332031 83.757812 538.992188 C 83.757812 537.652344 83.691406 536.316406 83.5625 534.984375 C 83.429688 533.652344 83.234375 532.332031 82.972656 531.019531 C 82.710938 529.707031 82.386719 528.410156 82 527.128906 C 81.609375 525.847656 81.160156 524.585938 80.648438 523.351562 C 80.136719 522.113281 79.5625 520.90625 78.933594 519.726562 C 78.300781 518.542969 77.617188 517.398438 76.871094 516.285156 C 76.128906 515.171875 75.332031 514.097656 74.484375 513.0625 C 73.632812 512.027344 72.738281 511.039062 71.789062 510.09375 C 70.84375 509.144531 69.855469 508.246094 68.820312 507.398438 C 67.785156 506.550781 66.710938 505.753906 65.597656 505.007812 C 64.488281 504.265625 63.339844 503.578125 62.160156 502.945312 C 60.980469 502.316406 59.773438 501.746094 58.535156 501.230469 C 57.300781 500.71875 56.042969 500.269531 54.761719 499.882812 C 53.480469 499.492188 52.183594 499.167969 50.871094 498.90625 C 49.558594 498.644531 48.238281 498.449219 46.90625 498.316406 C 45.574219 498.1875 44.238281 498.121094 42.898438 498.121094 Z M 42.898438 498.121094 " fill-opacity="1" fill-rule="nonzero"/><path fill="#ee8670" d="M 148.109375 766.84375 C 147.472656 766.84375 146.839844 766.875 146.207031 766.9375 C 145.574219 767 144.945312 767.09375 144.320312 767.214844 C 143.699219 767.339844 143.082031 767.496094 142.476562 767.679688 C 141.867188 767.863281 141.269531 768.078125 140.679688 768.320312 C 140.09375 768.566406 139.519531 768.835938 138.960938 769.136719 C 138.398438 769.4375 137.855469 769.761719 137.328125 770.117188 C 136.796875 770.46875 136.289062 770.847656 135.796875 771.25 C 135.304688 771.652344 134.835938 772.082031 134.386719 772.53125 C 133.9375 772.980469 133.507812 773.449219 133.105469 773.941406 C 132.703125 774.433594 132.324219 774.941406 131.972656 775.472656 C 131.617188 776 131.292969 776.546875 130.992188 777.105469 C 130.691406 777.667969 130.421875 778.242188 130.179688 778.828125 C 129.933594 779.414062 129.722656 780.011719 129.535156 780.621094 C 129.351562 781.230469 129.199219 781.847656 129.074219 782.46875 C 128.949219 783.09375 128.855469 783.722656 128.792969 784.355469 C 128.730469 784.988281 128.699219 785.621094 128.699219 786.257812 C 128.699219 786.894531 128.730469 787.527344 128.792969 788.160156 C 128.855469 788.792969 128.949219 789.421875 129.074219 790.042969 C 129.199219 790.667969 129.351562 791.285156 129.535156 791.890625 C 129.722656 792.5 129.933594 793.097656 130.179688 793.6875 C 130.421875 794.273438 130.691406 794.847656 130.992188 795.410156 C 131.292969 795.96875 131.617188 796.515625 131.972656 797.042969 C 132.324219 797.570312 132.703125 798.082031 133.105469 798.574219 C 133.507812 799.0625 133.9375 799.535156 134.386719 799.984375 C 134.835938 800.433594 135.304688 800.859375 135.796875 801.265625 C 136.289062 801.667969 136.796875 802.046875 137.328125 802.398438 C 137.855469 802.753906 138.398438 803.078125 138.960938 803.378906 C 139.519531 803.679688 140.09375 803.949219 140.679688 804.191406 C 141.269531 804.4375 141.867188 804.648438 142.476562 804.835938 C 143.082031 805.019531 143.699219 805.171875 144.320312 805.296875 C 144.945312 805.421875 145.574219 805.515625 146.207031 805.578125 C 146.839844 805.640625 147.472656 805.671875 148.109375 805.671875 C 148.742188 805.671875 149.378906 805.640625 150.011719 805.578125 C 150.644531 805.515625 151.269531 805.421875 151.894531 805.296875 C 152.519531 805.171875 153.132812 805.019531 153.742188 804.835938 C 154.351562 804.648438 154.949219 804.4375 155.535156 804.191406 C 156.121094 803.949219 156.695312 803.679688 157.257812 803.378906 C 157.816406 803.078125 158.363281 802.753906 158.890625 802.398438 C 159.417969 802.046875 159.929688 801.667969 160.421875 801.265625 C 160.910156 800.859375 161.382812 800.433594 161.832031 799.984375 C 162.28125 799.535156 162.707031 799.0625 163.109375 798.574219 C 163.515625 798.082031 163.890625 797.570312 164.246094 797.042969 C 164.597656 796.515625 164.925781 795.96875 165.222656 795.410156 C 165.523438 794.847656 165.796875 794.273438 166.039062 793.6875 C 166.28125 793.097656 166.496094 792.5 166.679688 791.890625 C 166.863281 791.285156 167.019531 790.667969 167.144531 790.042969 C 167.265625 789.421875 167.359375 788.792969 167.421875 788.160156 C 167.484375 787.527344 167.515625 786.894531 167.515625 786.257812 C 167.515625 785.621094 167.484375 784.988281 167.421875 784.355469 C 167.359375 783.722656 167.265625 783.09375 167.144531 782.46875 C 167.019531 781.847656 166.863281 781.230469 166.679688 780.621094 C 166.496094 780.011719 166.28125 779.414062 166.039062 778.828125 C 165.796875 778.242188 165.523438 777.667969 165.222656 777.105469 C 164.925781 776.546875 164.597656 776 164.246094 775.472656 C 163.890625 774.941406 163.515625 774.433594 163.109375 773.941406 C 162.707031 773.449219 162.28125 772.980469 161.832031 772.53125 C 161.382812 772.082031 160.910156 771.652344 160.421875 771.25 C 159.929688 770.847656 159.417969 770.46875 158.890625 770.117188 C 158.363281 769.761719 157.816406 769.4375 157.257812 769.136719 C 156.695312 768.835938 156.121094 768.566406 155.535156 768.320312 C 154.949219 768.078125 154.351562 767.863281 153.742188 767.679688 C 153.132812 767.496094 152.519531 767.339844 151.894531 767.214844 C 151.269531 767.09375 150.644531 767 150.011719 766.9375 C 149.378906 766.875 148.742188 766.84375 148.109375 766.84375 Z M 148.109375 766.84375 " fill-opacity="1" fill-rule="nonzero"/><path fill="#ffffff" d="M 675.171875 182.398438 C 674.566406 182.398438 673.96875 182.425781 673.367188 182.488281 C 672.769531 182.546875 672.175781 182.632812 671.582031 182.75 C 670.992188 182.867188 670.410156 183.015625 669.832031 183.191406 C 669.257812 183.363281 668.691406 183.566406 668.132812 183.796875 C 667.578125 184.027344 667.035156 184.285156 666.503906 184.570312 C 665.972656 184.851562 665.457031 185.164062 664.957031 185.496094 C 664.453125 185.832031 663.972656 186.191406 663.507812 186.574219 C 663.039062 186.953125 662.59375 187.359375 662.167969 187.785156 C 661.742188 188.210938 661.339844 188.65625 660.957031 189.121094 C 660.574219 189.585938 660.21875 190.070312 659.882812 190.570312 C 659.546875 191.074219 659.238281 191.589844 658.957031 192.121094 C 658.671875 192.652344 658.414062 193.195312 658.183594 193.75 C 657.953125 194.308594 657.75 194.875 657.574219 195.449219 C 657.402344 196.027344 657.253906 196.609375 657.136719 197.203125 C 657.019531 197.792969 656.933594 198.386719 656.871094 198.988281 C 656.8125 199.585938 656.785156 200.1875 656.785156 200.789062 C 656.785156 201.390625 656.8125 201.992188 656.871094 202.59375 C 656.933594 203.191406 657.019531 203.785156 657.136719 204.378906 C 657.253906 204.96875 657.402344 205.550781 657.574219 206.128906 C 657.75 206.703125 657.953125 207.269531 658.183594 207.828125 C 658.414062 208.382812 658.671875 208.929688 658.957031 209.460938 C 659.238281 209.992188 659.546875 210.507812 659.882812 211.007812 C 660.21875 211.507812 660.574219 211.992188 660.957031 212.457031 C 661.339844 212.921875 661.742188 213.367188 662.167969 213.792969 C 662.59375 214.21875 663.039062 214.625 663.507812 215.007812 C 663.972656 215.386719 664.453125 215.746094 664.957031 216.082031 C 665.457031 216.417969 665.972656 216.726562 666.503906 217.007812 C 667.035156 217.292969 667.578125 217.550781 668.132812 217.78125 C 668.691406 218.011719 669.257812 218.214844 669.832031 218.390625 C 670.410156 218.5625 670.992188 218.710938 671.582031 218.828125 C 672.175781 218.945312 672.769531 219.035156 673.367188 219.09375 C 673.96875 219.152344 674.566406 219.179688 675.171875 219.179688 C 675.773438 219.179688 676.375 219.152344 676.972656 219.09375 C 677.570312 219.035156 678.167969 218.945312 678.757812 218.828125 C 679.347656 218.710938 679.929688 218.5625 680.507812 218.390625 C 681.082031 218.214844 681.648438 218.011719 682.207031 217.78125 C 682.761719 217.550781 683.304688 217.292969 683.835938 217.007812 C 684.367188 216.726562 684.882812 216.417969 685.382812 216.082031 C 685.886719 215.746094 686.367188 215.386719 686.835938 215.007812 C 687.300781 214.625 687.746094 214.21875 688.171875 213.792969 C 688.597656 213.367188 689 212.921875 689.382812 212.457031 C 689.765625 211.992188 690.121094 211.507812 690.457031 211.007812 C 690.792969 210.507812 691.101562 209.992188 691.386719 209.460938 C 691.667969 208.929688 691.925781 208.382812 692.15625 207.828125 C 692.386719 207.269531 692.589844 206.703125 692.765625 206.128906 C 692.9375 205.550781 693.085938 204.96875 693.203125 204.378906 C 693.320312 203.785156 693.410156 203.191406 693.46875 202.59375 C 693.527344 201.992188 693.554688 201.390625 693.554688 200.789062 C 693.554688 200.1875 693.527344 199.585938 693.46875 198.988281 C 693.410156 198.386719 693.320312 197.792969 693.203125 197.203125 C 693.085938 196.609375 692.9375 196.027344 692.765625 195.449219 C 692.589844 194.875 692.386719 194.308594 692.15625 193.75 C 691.925781 193.195312 691.667969 192.652344 691.386719 192.121094 C 691.101562 191.589844 690.792969 191.074219 690.457031 190.570312 C 690.121094 190.070312 689.765625 189.585938 689.382812 189.121094 C 689 188.65625 688.597656 188.210938 688.171875 187.785156 C 687.746094 187.359375 687.300781 186.953125 686.835938 186.574219 C 686.367188 186.191406 685.886719 185.832031 685.382812 185.496094 C 684.882812 185.164062 684.367188 184.851562 683.835938 184.570312 C 683.304688 184.285156 682.761719 184.027344 682.207031 183.796875 C 681.648438 183.566406 681.082031 183.363281 680.507812 183.191406 C 679.929688 183.015625 679.347656 182.867188 678.757812 182.75 C 678.167969 182.632812 677.570312 182.546875 676.972656 182.488281 C 676.375 182.425781 675.773438 182.398438 675.171875 182.398438 Z M 81.714844 389.816406 C 80.878906 389.816406 80.042969 389.855469 79.210938 389.9375 C 78.378906 390.019531 77.554688 390.140625 76.734375 390.304688 C 75.914062 390.46875 75.101562 390.671875 74.300781 390.914062 C 73.503906 391.15625 72.714844 391.4375 71.941406 391.757812 C 71.171875 392.078125 70.414062 392.4375 69.675781 392.832031 C 68.941406 393.226562 68.222656 393.65625 67.527344 394.121094 C 66.832031 394.585938 66.160156 395.082031 65.515625 395.613281 C 64.867188 396.144531 64.25 396.703125 63.660156 397.296875 C 63.066406 397.886719 62.507812 398.507812 61.976562 399.152344 C 61.445312 399.800781 60.949219 400.472656 60.484375 401.167969 C 60.019531 401.863281 59.589844 402.578125 59.195312 403.316406 C 58.800781 404.054688 58.441406 404.8125 58.121094 405.582031 C 57.804688 406.355469 57.519531 407.144531 57.277344 407.945312 C 57.035156 408.746094 56.832031 409.554688 56.667969 410.375 C 56.507812 411.195312 56.382812 412.023438 56.300781 412.855469 C 56.21875 413.6875 56.179688 414.523438 56.179688 415.359375 C 56.179688 416.195312 56.21875 417.03125 56.300781 417.863281 C 56.382812 418.695312 56.507812 419.523438 56.667969 420.34375 C 56.832031 421.164062 57.035156 421.972656 57.277344 422.773438 C 57.519531 423.574219 57.804688 424.359375 58.121094 425.132812 C 58.441406 425.90625 58.800781 426.664062 59.195312 427.398438 C 59.589844 428.136719 60.019531 428.855469 60.484375 429.550781 C 60.949219 430.246094 61.445312 430.917969 61.976562 431.5625 C 62.507812 432.210938 63.066406 432.828125 63.660156 433.421875 C 64.25 434.011719 64.867188 434.574219 65.515625 435.105469 C 66.160156 435.636719 66.832031 436.132812 67.527344 436.597656 C 68.222656 437.0625 68.941406 437.492188 69.675781 437.886719 C 70.414062 438.28125 71.171875 438.636719 71.941406 438.957031 C 72.714844 439.277344 73.503906 439.558594 74.300781 439.804688 C 75.101562 440.046875 75.914062 440.25 76.734375 440.410156 C 77.554688 440.574219 78.378906 440.699219 79.210938 440.78125 C 80.042969 440.863281 80.878906 440.902344 81.714844 440.902344 C 82.550781 440.902344 83.386719 440.863281 84.21875 440.78125 C 85.050781 440.699219 85.875 440.574219 86.695312 440.410156 C 87.515625 440.25 88.328125 440.046875 89.128906 439.804688 C 89.929688 439.558594 90.714844 439.277344 91.488281 438.957031 C 92.261719 438.636719 93.015625 438.28125 93.753906 437.886719 C 94.488281 437.492188 95.207031 437.0625 95.902344 436.597656 C 96.597656 436.132812 97.269531 435.636719 97.914062 435.105469 C 98.5625 434.574219 99.179688 434.011719 99.773438 433.421875 C 100.363281 432.828125 100.925781 432.210938 101.453125 431.5625 C 101.984375 430.917969 102.484375 430.246094 102.949219 429.550781 C 103.410156 428.855469 103.839844 428.136719 104.234375 427.398438 C 104.628906 426.664062 104.988281 425.90625 105.308594 425.132812 C 105.628906 424.359375 105.910156 423.574219 106.152344 422.773438 C 106.394531 421.972656 106.597656 421.164062 106.761719 420.34375 C 106.921875 419.523438 107.046875 418.695312 107.128906 417.863281 C 107.210938 417.03125 107.25 416.195312 107.25 415.359375 C 107.25 414.523438 107.210938 413.6875 107.128906 412.855469 C 107.046875 412.023438 106.921875 411.195312 106.761719 410.375 C 106.597656 409.554688 106.394531 408.746094 106.152344 407.945312 C 105.910156 407.144531 105.628906 406.355469 105.308594 405.582031 C 104.988281 404.8125 104.628906 404.054688 104.234375 403.316406 C 103.839844 402.578125 103.410156 401.863281 102.949219 401.167969 C 102.484375 400.472656 101.984375 399.800781 101.453125 399.152344 C 100.925781 398.507812 100.363281 397.886719 99.773438 397.296875 C 99.179688 396.703125 98.5625 396.144531 97.914062 395.613281 C 97.269531 395.082031 96.597656 394.585938 95.902344 394.121094 C 95.207031 393.65625 94.488281 393.226562 93.753906 392.832031 C 93.015625 392.4375 92.261719 392.078125 91.488281 391.757812 C 90.714844 391.4375 89.929688 391.15625 89.128906 390.914062 C 88.328125 390.671875 87.515625 390.46875 86.695312 390.304688 C 85.875 390.140625 85.050781 390.019531 84.21875 389.9375 C 83.386719 389.855469 82.550781 389.816406 81.714844 389.816406 Z M 81.714844 389.816406 " fill-opacity="1" fill-rule="nonzero"/><path fill="#d8ad8f" d="M 534.210938 322.378906 C 535.234375 307.050781 531.148438 293.769531 532.167969 285.59375 C 518.890625 269.246094 509.699219 248.8125 491.3125 236.550781 C 469.859375 223.269531 446.367188 214.074219 421.855469 207.941406 C 363.632812 193.636719 306.429688 235.53125 288.046875 290.703125 L 287.023438 291.726562 C 289.066406 301.945312 290.089844 312.160156 291.109375 321.355469 C 275.789062 321.355469 267.617188 329.53125 272.722656 345.878906 C 272.722656 345.878906 278.851562 372.445312 282.9375 385.726562 C 283.960938 392.878906 291.109375 397.988281 298.261719 397.988281 C 298.261719 406.164062 298.261719 415.359375 298.261719 423.53125 C 298.261719 433.75 300.300781 443.96875 306.429688 452.140625 C 321.753906 474.621094 400.402344 525.707031 419.8125 523.664062 C 450.453125 523.664062 511.738281 471.554688 528.082031 444.988281 C 531.148438 439.882812 532.167969 433.75 533.191406 427.621094 C 533.191406 417.402344 533.191406 407.183594 533.191406 396.96875 C 539.320312 395.945312 544.425781 390.835938 546.46875 384.707031 C 550.554688 371.421875 556.683594 344.859375 556.683594 344.859375 C 561.789062 330.554688 549.535156 321.355469 534.210938 322.378906 Z M 534.210938 322.378906 " fill-opacity="1" fill-rule="nonzero"/><path fill="#b2876b" d="M 581.199219 582.925781 C 580.175781 582.925781 579.15625 581.90625 578.132812 581.90625 L 572.003906 579.863281 C 559.746094 574.753906 477.011719 546.144531 477.011719 546.144531 C 470.882812 544.101562 466.796875 540.011719 464.753906 534.90625 C 462.710938 524.6875 461.691406 515.492188 462.710938 505.273438 C 448.410156 511.402344 434.109375 516.511719 419.8125 519.578125 C 400.402344 521.621094 366.695312 496.078125 366.695312 496.078125 C 366.695312 496.078125 365.675781 526.730469 364.652344 533.882812 C 362.609375 540.011719 357.503906 544.101562 351.375 545.121094 L 272.722656 571.6875 C 264.550781 573.730469 257.402344 576.796875 250.253906 580.882812 C 233.910156 592.121094 221.652344 609.492188 216.542969 628.90625 C 216.542969 629.929688 216.542969 631.972656 215.523438 635.035156 C 214.5 639.125 214.5 644.234375 214.5 648.320312 C 214.5 653.429688 213.480469 721.886719 212.457031 726.996094 C 286.003906 783.191406 335.03125 775.019531 442.28125 782.171875 C 486.203125 785.234375 567.917969 746.410156 620.011719 719.84375 C 614.90625 625.839844 624.097656 596.210938 581.199219 582.925781 Z M 581.199219 582.925781 " fill-opacity="1" fill-rule="nonzero"/><g mask="url(#855cf6aee1)"><g transform="matrix(1, 0, 0, 1, 314, 381)"><g clip-path="url(#97b9e8011e)"><path fill="#f4989e" d="M 28.179688 8.816406 C 27.511719 8.816406 26.84375 8.847656 26.179688 8.914062 C 25.511719 8.980469 24.851562 9.078125 24.195312 9.207031 C 23.539062 9.339844 22.890625 9.5 22.25 9.695312 C 21.609375 9.890625 20.980469 10.113281 20.363281 10.371094 C 19.746094 10.625 19.140625 10.914062 18.550781 11.226562 C 17.960938 11.542969 17.386719 11.886719 16.832031 12.257812 C 16.277344 12.628906 15.738281 13.027344 15.222656 13.453125 C 14.703125 13.878906 14.210938 14.328125 13.734375 14.800781 C 13.261719 15.273438 12.8125 15.769531 12.390625 16.285156 C 11.964844 16.804688 11.566406 17.339844 11.195312 17.898438 C 10.824219 18.453125 10.480469 19.027344 10.164062 19.617188 C 9.847656 20.207031 9.5625 20.8125 9.308594 21.429688 C 9.050781 22.046875 8.828125 22.675781 8.632812 23.316406 C 8.4375 23.957031 8.277344 24.605469 8.144531 25.261719 C 8.015625 25.917969 7.917969 26.582031 7.851562 27.246094 C 7.785156 27.914062 7.753906 28.582031 7.753906 29.25 C 7.753906 29.917969 7.785156 30.585938 7.851562 31.253906 C 7.917969 31.917969 8.015625 32.582031 8.144531 33.238281 C 8.277344 33.894531 8.4375 34.542969 8.632812 35.183594 C 8.828125 35.824219 9.050781 36.453125 9.308594 37.070312 C 9.5625 37.6875 9.847656 38.292969 10.164062 38.882812 C 10.480469 39.472656 10.824219 40.046875 11.195312 40.601562 C 11.566406 41.160156 11.964844 41.695312 12.390625 42.214844 C 12.8125 42.730469 13.261719 43.226562 13.734375 43.699219 C 14.210938 44.171875 14.703125 44.621094 15.222656 45.046875 C 15.738281 45.472656 16.277344 45.871094 16.832031 46.242188 C 17.386719 46.613281 17.960938 46.957031 18.550781 47.273438 C 19.140625 47.585938 19.746094 47.875 20.363281 48.128906 C 20.980469 48.386719 21.609375 48.609375 22.25 48.804688 C 22.890625 49 23.539062 49.160156 24.195312 49.292969 C 24.851562 49.421875 25.511719 49.519531 26.179688 49.585938 C 26.84375 49.652344 27.511719 49.683594 28.179688 49.683594 C 28.851562 49.683594 29.519531 49.652344 30.183594 49.585938 C 30.851562 49.519531 31.511719 49.421875 32.167969 49.292969 C 32.824219 49.160156 33.472656 49 34.113281 48.804688 C 34.75 48.609375 35.382812 48.386719 36 48.128906 C 36.617188 47.875 37.222656 47.585938 37.8125 47.273438 C 38.402344 46.957031 38.976562 46.613281 39.53125 46.242188 C 40.085938 45.871094 40.625 45.472656 41.140625 45.046875 C 41.660156 44.621094 42.152344 44.171875 42.625 43.699219 C 43.101562 43.226562 43.546875 42.730469 43.972656 42.214844 C 44.398438 41.695312 44.796875 41.160156 45.167969 40.601562 C 45.539062 40.046875 45.882812 39.472656 46.199219 38.882812 C 46.511719 38.292969 46.800781 37.6875 47.054688 37.070312 C 47.3125 36.453125 47.535156 35.824219 47.730469 35.183594 C 47.925781 34.542969 48.085938 33.894531 48.21875 33.238281 C 48.347656 32.582031 48.445312 31.917969 48.511719 31.253906 C 48.578125 30.585938 48.609375 29.917969 48.609375 29.25 C 48.609375 28.582031 48.578125 27.914062 48.511719 27.246094 C 48.445312 26.582031 48.347656 25.917969 48.21875 25.261719 C 48.085938 24.605469 47.925781 23.957031 47.730469 23.316406 C 47.535156 22.675781 47.3125 22.046875 47.054688 21.429688 C 46.800781 20.8125 46.511719 20.207031 46.199219 19.617188 C 45.882812 19.027344 45.539062 18.453125 45.167969 17.898438 C 44.796875 17.339844 44.398438 16.804688 43.972656 16.285156 C 43.546875 15.769531 43.101562 15.273438 42.625 14.800781 C 42.152344 14.328125 41.660156 13.878906 41.140625 13.453125 C 40.625 13.027344 40.085938 12.628906 39.53125 12.257812 C 38.976562 11.886719 38.402344 11.542969 37.8125 11.226562 C 37.222656 10.914062 36.617188 10.625 36 10.371094 C 35.382812 10.113281 34.75 9.890625 34.113281 9.695312 C 33.472656 9.5 32.824219 9.339844 32.167969 9.207031 C 31.511719 9.078125 30.851562 8.980469 30.183594 8.914062 C 29.519531 8.847656 28.851562 8.816406 28.179688 8.816406 Z M 182.417969 8.816406 C 181.75 8.816406 181.082031 8.847656 180.417969 8.914062 C 179.75 8.980469 179.089844 9.078125 178.433594 9.207031 C 177.777344 9.339844 177.128906 9.5 176.488281 9.695312 C 175.847656 9.890625 175.21875 10.113281 174.601562 10.371094 C 173.984375 10.625 173.378906 10.914062 172.789062 11.226562 C 172.199219 11.542969 171.625 11.886719 171.070312 12.257812 C 170.511719 12.628906 169.976562 13.027344 169.457031 13.453125 C 168.941406 13.878906 168.445312 14.328125 167.972656 14.800781 C 167.5 15.273438 167.050781 15.769531 166.628906 16.285156 C 166.203125 16.804688 165.804688 17.339844 165.433594 17.898438 C 165.0625 18.453125 164.71875 19.027344 164.402344 19.617188 C 164.085938 20.207031 163.800781 20.8125 163.542969 21.429688 C 163.289062 22.046875 163.0625 22.675781 162.871094 23.316406 C 162.675781 23.957031 162.511719 24.605469 162.382812 25.261719 C 162.25 25.917969 162.152344 26.582031 162.089844 27.246094 C 162.023438 27.914062 161.988281 28.582031 161.988281 29.25 C 161.988281 29.917969 162.023438 30.585938 162.089844 31.253906 C 162.152344 31.917969 162.25 32.582031 162.382812 33.238281 C 162.511719 33.894531 162.675781 34.542969 162.871094 35.183594 C 163.0625 35.824219 163.289062 36.453125 163.542969 37.070312 C 163.800781 37.6875 164.085938 38.292969 164.402344 38.882812 C 164.71875 39.472656 165.0625 40.046875 165.433594 40.601562 C 165.804688 41.160156 166.203125 41.695312 166.628906 42.214844 C 167.050781 42.730469 167.5 43.226562 167.972656 43.699219 C 168.445312 44.171875 168.941406 44.621094 169.457031 45.046875 C 169.976562 45.472656 170.511719 45.871094 171.070312 46.242188 C 171.625 46.613281 172.199219 46.957031 172.789062 47.273438 C 173.378906 47.585938 173.984375 47.875 174.601562 48.128906 C 175.21875 48.386719 175.847656 48.609375 176.488281 48.804688 C 177.128906 49 177.777344 49.160156 178.433594 49.292969 C 179.089844 49.421875 179.75 49.519531 180.417969 49.585938 C 181.082031 49.652344 181.75 49.683594 182.417969 49.683594 C 183.085938 49.683594 183.753906 49.652344 184.421875 49.585938 C 185.085938 49.519531 185.746094 49.421875 186.402344 49.292969 C 187.058594 49.160156 187.707031 49 188.347656 48.804688 C 188.988281 48.609375 189.617188 48.386719 190.234375 48.128906 C 190.855469 47.875 191.457031 47.585938 192.046875 47.273438 C 192.640625 46.957031 193.210938 46.613281 193.769531 46.242188 C 194.324219 45.871094 194.859375 45.472656 195.378906 45.046875 C 195.894531 44.621094 196.390625 44.171875 196.863281 43.699219 C 197.335938 43.226562 197.785156 42.730469 198.210938 42.214844 C 198.632812 41.695312 199.03125 41.160156 199.40625 40.601562 C 199.777344 40.046875 200.121094 39.472656 200.433594 38.882812 C 200.75 38.292969 201.035156 37.6875 201.292969 37.070312 C 201.546875 36.453125 201.773438 35.824219 201.96875 35.183594 C 202.160156 34.542969 202.324219 33.894531 202.453125 33.238281 C 202.585938 32.582031 202.683594 31.917969 202.75 31.253906 C 202.816406 30.585938 202.847656 29.917969 202.847656 29.25 C 202.847656 28.582031 202.816406 27.914062 202.75 27.246094 C 202.683594 26.582031 202.585938 25.917969 202.453125 25.261719 C 202.324219 24.605469 202.160156 23.957031 201.96875 23.316406 C 201.773438 22.675781 201.546875 22.046875 201.292969 21.429688 C 201.035156 20.8125 200.75 20.207031 200.433594 19.617188 C 200.121094 19.027344 199.777344 18.453125 199.40625 17.898438 C 199.03125 17.339844 198.632812 16.804688 198.210938 16.285156 C 197.785156 15.769531 197.335938 15.273438 196.863281 14.800781 C 196.390625 14.328125 195.894531 13.878906 195.378906 13.453125 C 194.859375 13.027344 194.324219 12.628906 193.769531 12.257812 C 193.210938 11.886719 192.640625 11.542969 192.046875 11.226562 C 191.457031 10.914062 190.855469 10.625 190.234375 10.371094 C 189.617188 10.113281 188.988281 9.890625 188.347656 9.695312 C 187.707031 9.5 187.058594 9.339844 186.402344 9.207031 C 185.746094 9.078125 185.085938 8.980469 184.421875 8.914062 C 183.753906 8.847656 183.085938 8.816406 182.417969 8.816406 Z M 182.417969 8.816406 " fill-opacity="0.8" fill-rule="nonzero"/></g></g></g><path fill="#472b29" d="M 300.300781 406.164062 C 299.28125 406.164062 298.257812 405.140625 298.257812 404.121094 L 290.089844 321.355469 C 290.089844 320.335938 291.109375 319.3125 292.132812 319.3125 C 293.152344 319.3125 294.175781 320.335938 294.175781 321.355469 L 302.34375 404.121094 C 303.367188 405.140625 302.34375 406.164062 300.300781 406.164062 C 301.324219 406.164062 301.324219 406.164062 300.300781 406.164062 Z M 531.148438 402.074219 C 531.148438 402.074219 531.148438 401.054688 531.148438 402.074219 C 530.125 402.074219 529.105469 401.054688 529.105469 400.03125 L 534.210938 317.269531 C 534.210938 316.25 535.234375 315.226562 536.253906 315.226562 C 537.277344 315.226562 538.296875 316.25 538.296875 317.269531 L 533.191406 400.03125 C 533.191406 401.054688 532.167969 402.074219 531.148438 402.074219 Z M 531.148438 402.074219 " fill-opacity="1" fill-rule="nonzero"/><path fill="#6d1b18" d="M 382.019531 452.140625 C 382.019531 454.1875 380.996094 455.207031 380.996094 457.25 C 380.996094 471.554688 396.316406 482.792969 416.746094 482.792969 C 437.175781 482.792969 452.496094 471.554688 452.496094 457.25 C 452.496094 455.207031 452.496094 454.1875 451.476562 452.140625 Z M 382.019531 452.140625 " fill-opacity="1" fill-rule="nonzero"/><path fill="#ee3e54" d="M 435.132812 478.707031 C 423.898438 470.535156 408.574219 470.535156 398.359375 478.707031 C 410.617188 483.816406 423.898438 483.816406 435.132812 478.707031 Z M 435.132812 478.707031 " fill-opacity="1" fill-rule="nonzero"/><path fill="#fdfcef" d="M 392.230469 452.140625 L 392.230469 456.230469 C 392.230469 460.316406 397.339844 463.382812 403.46875 463.382812 L 430.023438 463.382812 C 436.152344 463.382812 441.261719 460.316406 441.261719 456.230469 L 441.261719 452.140625 Z M 392.230469 452.140625 " fill-opacity="1" fill-rule="nonzero"/><path fill="#472b29" d="M 416.746094 484.839844 C 396.316406 484.839844 378.953125 472.578125 378.953125 457.25 C 378.953125 455.207031 378.953125 453.164062 379.976562 452.140625 C 379.976562 451.121094 380.996094 451.121094 382.019531 451.121094 L 451.476562 451.121094 C 452.496094 451.121094 453.519531 452.140625 453.519531 452.140625 C 453.519531 454.1875 454.539062 455.207031 454.539062 457.25 C 454.539062 472.578125 437.175781 484.839844 416.746094 484.839844 Z M 384.058594 454.1875 C 384.058594 455.207031 384.058594 456.230469 384.058594 457.25 C 384.058594 470.535156 399.382812 480.75 417.769531 480.75 C 436.152344 480.75 450.453125 470.535156 450.453125 457.25 C 450.453125 456.230469 450.453125 455.207031 450.453125 454.1875 Z M 384.058594 454.1875 " fill-opacity="1" fill-rule="nonzero"/><path fill="#472b29" d="M 416.746094 432.730469 C 424.917969 432.730469 432.066406 429.664062 437.175781 423.53125 C 438.195312 423.53125 438.195312 422.511719 437.175781 421.488281 C 436.152344 421.488281 436.152344 421.488281 435.132812 421.488281 C 424.917969 430.683594 408.574219 430.683594 398.359375 421.488281 C 398.359375 421.488281 397.339844 421.488281 397.339844 421.488281 C 397.339844 421.488281 396.316406 421.488281 396.316406 421.488281 C 396.316406 422.511719 396.316406 422.511719 396.316406 423.53125 C 401.425781 429.664062 408.574219 432.730469 416.746094 432.730469 Z M 425.941406 502.207031 C 426.960938 502.207031 426.960938 501.1875 425.941406 502.207031 C 426.960938 501.1875 425.941406 500.164062 425.941406 500.164062 L 407.554688 500.164062 C 407.554688 500.164062 406.53125 500.164062 406.53125 501.1875 C 406.53125 502.207031 406.53125 502.207031 407.554688 502.207031 Z M 425.941406 502.207031 " fill-opacity="0.41" fill-rule="nonzero"/><path fill="#512c2b" d="M 396.316406 310.117188 C 371.804688 302.964844 346.265625 299.898438 320.730469 301.945312 C 319.710938 301.945312 318.6875 301.945312 318.6875 303.988281 C 318.6875 305.007812 318.6875 306.03125 320.730469 306.03125 C 320.730469 306.03125 321.753906 306.03125 321.753906 306.03125 C 321.753906 306.03125 373.847656 315.226562 389.167969 320.335938 L 390.1875 320.335938 C 391.210938 320.335938 392.230469 320.335938 392.230469 319.3125 L 398.359375 312.160156 C 398.359375 311.140625 398.359375 311.140625 398.359375 310.117188 C 397.339844 311.140625 396.316406 310.117188 396.316406 310.117188 Z M 437.175781 308.074219 C 461.691406 301.945312 488.246094 300.921875 513.78125 303.988281 C 514.804688 303.988281 515.824219 305.007812 515.824219 306.03125 C 515.824219 307.050781 514.804688 308.074219 513.78125 308.074219 C 513.78125 308.074219 461.691406 314.203125 445.347656 319.3125 L 444.324219 319.3125 C 443.304688 319.3125 442.28125 319.3125 442.28125 318.292969 L 436.152344 311.140625 C 436.152344 310.117188 436.152344 310.117188 436.152344 309.097656 C 436.152344 308.074219 436.152344 308.074219 437.175781 308.074219 Z M 437.175781 308.074219 " fill-opacity="1" fill-rule="nonzero"/><path fill="#472b29" d="M 359.546875 330.554688 C 354.4375 330.554688 349.332031 333.617188 347.289062 338.726562 C 348.308594 338.726562 348.308594 338.726562 349.332031 338.726562 C 354.4375 338.726562 357.503906 341.792969 358.523438 346.902344 C 358.523438 352.007812 355.460938 355.074219 350.351562 356.097656 C 348.308594 356.097656 347.289062 356.097656 345.246094 355.074219 C 346.265625 362.226562 352.394531 367.335938 359.546875 368.359375 C 369.761719 366.3125 375.890625 355.074219 373.847656 344.859375 C 371.804688 338.726562 366.695312 333.617188 359.546875 330.554688 Z M 471.902344 330.554688 C 467.820312 330.554688 463.734375 332.597656 460.667969 336.683594 C 461.691406 336.683594 462.710938 335.660156 463.734375 335.660156 C 468.839844 335.660156 471.902344 339.75 471.902344 343.835938 C 471.902344 348.945312 467.820312 352.007812 463.734375 352.007812 C 460.667969 352.007812 458.625 350.988281 457.605469 347.921875 C 459.648438 356.097656 467.820312 361.207031 475.988281 359.160156 C 484.160156 357.117188 489.269531 348.945312 487.226562 340.769531 C 485.183594 335.660156 479.054688 331.574219 471.902344 330.554688 Z M 471.902344 330.554688 " fill-opacity="1" fill-rule="nonzero"/><path fill="#ee8670" d="M 327.882812 555.339844 C 343.203125 567.601562 459.648438 573.730469 492.332031 549.210938 L 541.363281 566.578125 L 555.660156 754.582031 C 555.660156 754.582031 440.238281 817.933594 266.59375 756.625 L 274.765625 571.6875 Z M 327.882812 555.339844 " fill-opacity="1" fill-rule="nonzero"/><path fill="#472b29" d="M 420.832031 521.621094 C 401.425781 521.621094 369.761719 504.25 367.71875 504.25 C 366.695312 503.230469 365.675781 502.207031 366.695312 501.1875 C 367.71875 500.164062 368.738281 499.144531 369.761719 500.164062 C 369.761719 500.164062 404.488281 518.554688 421.855469 517.535156 C 437.175781 514.46875 452.496094 509.359375 465.777344 501.1875 C 466.796875 500.164062 468.839844 501.1875 468.839844 502.207031 C 469.859375 503.230469 468.839844 505.273438 467.820312 505.273438 C 453.519531 513.449219 438.195312 519.578125 421.855469 522.644531 C 422.875 521.621094 421.855469 521.621094 420.832031 521.621094 Z M 420.832031 521.621094 " fill-opacity="1" fill-rule="nonzero"/><path fill="#472b29" d="M 409.597656 790.34375 C 342.179688 790.34375 275.789062 772.972656 214.5 737.210938 C 214.5 737.210938 213.480469 737.210938 213.480469 736.191406 L 208.375 731.082031 C 207.351562 730.058594 206.332031 729.039062 206.332031 726.996094 L 206.332031 724.953125 C 204.289062 678.972656 207.351562 598.253906 247.1875 577.820312 C 254.339844 573.730469 262.507812 570.667969 270.679688 568.621094 L 349.332031 542.058594 C 354.4375 541.035156 357.503906 537.96875 358.523438 533.882812 C 359.546875 529.796875 360.566406 513.449219 360.566406 505.273438 C 337.074219 490.96875 310.515625 470.535156 301.324219 457.25 C 295.195312 448.054688 291.109375 436.816406 292.132812 425.578125 L 292.132812 405.140625 C 284.980469 403.097656 278.851562 396.96875 276.808594 388.792969 C 272.722656 376.53125 266.59375 349.964844 266.59375 348.945312 C 262.507812 337.707031 265.574219 330.554688 268.636719 326.464844 C 270.679688 323.402344 275.789062 319.3125 284.980469 318.292969 C 284.980469 316.25 284.980469 315.226562 284.980469 313.183594 C 281.917969 308.074219 280.894531 301.945312 279.875 295.8125 C 279.875 229.398438 339.117188 175.246094 411.640625 175.246094 C 484.160156 175.246094 543.40625 229.398438 543.40625 295.8125 C 543.40625 302.964844 541.363281 309.097656 538.296875 315.226562 C 538.296875 316.25 538.296875 317.269531 538.296875 318.292969 C 546.46875 319.3125 553.621094 322.378906 557.703125 328.507812 C 560.769531 332.597656 563.832031 339.75 559.746094 349.964844 C 558.726562 356.097656 552.597656 380.617188 549.535156 389.816406 C 548.511719 395.945312 543.40625 402.074219 537.277344 404.121094 L 537.277344 430.683594 C 537.277344 437.835938 535.234375 443.96875 532.167969 450.097656 C 513.78125 474.621094 492.332031 495.054688 466.796875 511.402344 C 466.796875 519.578125 466.796875 526.730469 468.839844 534.90625 C 469.859375 537.96875 473.945312 541.035156 478.03125 542.058594 C 482.117188 543.078125 560.769531 570.667969 573.027344 575.773438 L 579.15625 577.820312 C 580.175781 578.839844 581.199219 578.839844 582.21875 578.839844 C 621.035156 591.101562 622.054688 641.167969 624.097656 710.648438 L 624.097656 717.800781 C 624.097656 717.800781 624.097656 717.800781 624.097656 718.820312 C 625.121094 720.863281 624.097656 722.90625 622.054688 724.953125 C 557.703125 768.886719 484.160156 790.34375 409.597656 790.34375 Z M 220.628906 729.039062 C 344.222656 800.5625 495.398438 796.476562 614.90625 718.820312 L 614.90625 711.667969 C 612.863281 644.234375 611.839844 599.273438 580.175781 589.058594 C 579.15625 589.058594 577.113281 588.035156 576.089844 587.015625 L 569.960938 585.992188 C 557.703125 580.882812 475.988281 553.296875 475.988281 552.273438 C 468.839844 550.230469 463.734375 545.121094 460.667969 537.96875 C 457.605469 527.753906 456.582031 517.535156 457.605469 508.339844 C 457.605469 506.296875 458.625 505.273438 459.648438 504.25 C 485.183594 487.902344 506.632812 468.488281 523.996094 443.96875 C 526.039062 439.882812 527.0625 434.773438 528.082031 429.664062 L 528.082031 399.011719 C 528.082031 395.945312 530.125 393.902344 532.167969 393.902344 C 536.253906 392.878906 540.339844 389.816406 540.339844 385.726562 C 544.425781 372.445312 550.554688 346.902344 550.554688 345.878906 C 552.597656 339.75 552.597656 335.660156 549.535156 332.597656 C 546.46875 328.507812 540.339844 326.464844 533.191406 326.464844 C 532.167969 326.464844 530.125 326.464844 529.105469 325.445312 C 529.105469 326.464844 529.105469 324.421875 529.105469 323.402344 C 529.105469 315.226562 529.105469 311.140625 531.148438 309.097656 C 533.191406 305.007812 534.210938 299.898438 534.210938 294.792969 C 534.210938 234.507812 480.074219 184.441406 412.660156 184.441406 C 345.246094 184.441406 291.109375 233.484375 291.109375 294.792969 C 291.109375 299.898438 293.152344 305.007812 295.195312 309.097656 C 295.195312 310.117188 295.195312 310.117188 296.21875 311.140625 C 296.21875 315.226562 297.238281 319.3125 297.238281 322.378906 C 297.238281 323.402344 297.238281 325.445312 296.21875 326.464844 C 295.195312 327.488281 294.175781 327.488281 292.132812 327.488281 C 288.046875 327.488281 281.917969 328.507812 278.851562 331.574219 C 275.789062 335.660156 276.808594 340.769531 278.851562 344.859375 C 278.851562 345.878906 284.980469 372.445312 289.066406 384.707031 C 290.089844 389.816406 294.175781 393.902344 299.28125 393.902344 C 300.300781 393.902344 302.34375 394.921875 303.367188 394.921875 C 304.386719 395.945312 304.386719 396.96875 304.386719 399.011719 L 304.386719 424.554688 C 304.386719 433.75 306.429688 442.945312 312.558594 450.097656 C 319.710938 460.316406 344.222656 479.730469 371.804688 497.097656 C 373.847656 498.121094 373.847656 500.164062 373.847656 502.207031 L 373.847656 503.230469 C 372.824219 512.425781 371.804688 529.796875 370.78125 535.925781 C 367.71875 544.101562 361.589844 550.230469 354.4375 551.253906 L 275.789062 577.820312 C 268.636719 579.863281 261.488281 582.925781 254.339844 587.015625 C 228.800781 600.296875 215.523438 650.363281 218.585938 724.953125 Z M 220.628906 729.039062 " fill-opacity="1" fill-rule="nonzero"/><path fill="#3a2221" d="M 508.675781 157.875 C 508.675781 155.832031 508.675781 152.765625 508.675781 150.722656 C 508.675781 148.679688 509.699219 146.636719 509.699219 144.59375 C 509.699219 131.308594 500.503906 119.046875 487.226562 115.984375 C 485.183594 98.613281 469.859375 85.332031 452.496094 85.332031 C 442.28125 65.917969 418.789062 57.742188 399.382812 67.960938 C 393.253906 71.027344 387.125 76.136719 383.039062 82.265625 C 379.976562 81.242188 377.933594 81.242188 374.867188 81.242188 C 357.503906 80.222656 343.203125 93.503906 342.179688 109.851562 C 342.179688 109.851562 342.179688 109.851562 342.179688 110.875 L 342.179688 112.917969 C 326.859375 117.003906 316.644531 130.289062 316.644531 145.613281 C 316.644531 153.789062 319.710938 160.941406 324.816406 167.070312 C 320.730469 172.179688 318.6875 178.3125 318.6875 184.441406 C 319.710938 200.789062 334.011719 214.074219 350.351562 213.050781 C 354.4375 213.050781 359.546875 212.027344 363.632812 211.007812 C 364.652344 225.3125 376.910156 235.53125 391.210938 235.53125 C 394.273438 235.53125 397.339844 235.53125 399.382812 234.507812 C 407.554688 243.703125 418.789062 247.789062 430.023438 247.789062 C 448.410156 248.8125 463.734375 235.53125 467.816406 218.160156 C 480.074219 214.074219 489.269531 202.832031 491.3125 189.550781 C 501.527344 181.375 508.675781 170.136719 508.675781 157.875 Z M 508.675781 157.875 " fill-opacity="1" fill-rule="nonzero"/><path fill="#512c2b" d="M 414.703125 148.679688 C 297.238281 148.679688 256.378906 247.789062 291.109375 345.878906 C 293.152344 349.964844 300.300781 349.964844 301.324219 344.859375 C 306.429688 289.683594 331.96875 242.679688 415.726562 266.183594 C 498.460938 242.679688 525.019531 289.683594 530.125 344.859375 C 530.125 349.964844 538.296875 349.964844 540.339844 345.878906 C 573.027344 247.789062 531.148438 148.679688 414.703125 148.679688 Z M 414.703125 148.679688 " fill-opacity="1" fill-rule="nonzero"/><path fill="#ee3e54" d="M 399.382812 326.464844 C 375.890625 298.878906 290.089844 318.292969 290.089844 318.292969 C 292.132812 324.421875 293.152344 330.554688 294.175781 336.683594 C 300.300781 337.707031 301.324219 352.007812 301.324219 357.117188 C 304.386719 382.664062 321.753906 401.054688 357.503906 401.054688 C 382.019531 401.054688 402.445312 381.640625 403.46875 357.117188 C 404.488281 346.902344 403.46875 335.660156 399.382812 326.464844 Z M 395.296875 358.140625 C 395.296875 378.574219 377.933594 395.945312 357.503906 395.945312 C 357.503906 395.945312 356.480469 395.945312 356.480469 395.945312 C 354.4375 395.945312 352.394531 395.945312 349.332031 395.945312 C 313.582031 395.945312 307.453125 364.269531 306.429688 344.859375 C 305.410156 333.617188 314.601562 323.402344 325.839844 322.378906 C 332.988281 321.355469 340.140625 321.355469 348.308594 321.355469 C 374.867188 321.355469 387.125 327.488281 390.1875 332.597656 C 394.273438 340.769531 396.316406 348.945312 395.296875 358.140625 Z M 424.917969 356.097656 C 424.917969 380.617188 445.347656 401.054688 470.882812 400.03125 C 506.632812 401.054688 523.996094 381.640625 527.0625 356.097656 C 528.082031 350.988281 528.082031 336.683594 534.210938 335.660156 C 535.234375 329.53125 537.277344 323.402344 538.296875 317.269531 C 538.296875 317.269531 451.476562 297.855469 429.003906 325.445312 C 424.917969 335.660156 423.898438 345.878906 424.917969 356.097656 Z M 438.195312 332.597656 C 441.261719 327.488281 452.496094 321.355469 479.054688 321.355469 C 487.226562 321.355469 495.398438 321.355469 501.527344 322.378906 C 512.761719 323.402344 520.933594 333.617188 520.933594 344.859375 C 519.910156 364.269531 513.78125 395.945312 478.03125 395.945312 C 475.988281 395.945312 473.945312 395.945312 470.882812 395.945312 C 450.453125 396.96875 433.089844 380.617188 432.066406 359.164062 C 432.066406 359.164062 432.066406 358.140625 432.066406 358.140625 C 432.066406 348.945312 434.109375 340.769531 438.195312 332.597656 Z M 438.195312 332.597656 " fill-opacity="1" fill-rule="nonzero"/><path fill="#ee3e54" d="M 430.023438 348.945312 C 424.917969 345.878906 419.8125 343.835938 413.683594 343.835938 C 408.574219 343.835938 403.46875 344.859375 398.359375 348.945312 L 393.253906 335.660156 L 434.109375 335.660156 Z M 430.023438 348.945312 " fill-opacity="1" fill-rule="nonzero"/><path fill="#ed6f5a" d="M 483.140625 575.773438 C 459.648438 580.882812 436.152344 583.949219 411.640625 582.925781 C 387.125 583.949219 363.632812 580.882812 340.140625 575.773438 C 330.945312 574.753906 324.816406 566.578125 324.816406 557.382812 C 323.796875 548.1875 331.96875 540.011719 341.160156 538.992188 C 341.160156 538.992188 386.101562 544.101562 411.640625 544.101562 C 437.175781 544.101562 484.160156 538.992188 484.160156 538.992188 C 493.355469 540.011719 501.527344 548.1875 500.503906 557.382812 C 499.484375 567.601562 492.332031 575.773438 483.140625 575.773438 Z M 483.140625 575.773438 " fill-opacity="1" fill-rule="nonzero"/><path fill="#472b29" d="M 418.789062 587.015625 C 416.746094 587.015625 413.683594 587.015625 411.640625 587.015625 C 387.125 588.035156 362.609375 584.972656 339.117188 579.863281 C 328.902344 578.839844 320.730469 568.621094 321.753906 558.40625 C 320.730469 547.164062 329.925781 536.949219 341.160156 536.949219 C 342.179688 536.949219 386.101562 542.058594 411.640625 542.058594 C 436.152344 542.058594 483.140625 536.949219 483.140625 536.949219 C 495.398438 537.96875 503.570312 547.164062 503.570312 559.425781 C 503.570312 570.667969 495.398438 579.863281 483.140625 580.882812 C 461.691406 583.949219 440.238281 587.015625 418.789062 587.015625 Z M 411.640625 579.863281 C 435.132812 580.882812 459.648438 577.820312 482.117188 572.710938 L 483.140625 572.710938 C 490.289062 572.710938 496.417969 565.558594 496.417969 558.40625 C 496.417969 550.230469 491.3125 544.101562 483.140625 543.078125 C 482.117188 543.078125 436.152344 548.1875 411.640625 548.1875 C 386.101562 548.1875 343.203125 543.078125 341.160156 543.078125 C 334.011719 544.101562 328.902344 550.230469 328.902344 557.382812 C 328.902344 564.535156 334.011719 570.667969 341.160156 571.6875 C 363.632812 577.820312 387.125 579.863281 411.640625 579.863281 Z M 411.640625 579.863281 " fill-opacity="1" fill-rule="nonzero"/></svg>